<svg width="27" height="29" viewBox="0 0 27 29" fill="none" xmlns="http://www.w3.org/2000/svg">
<path d="M1 1.80945H1.37838C2.04644 1.80945 2.38106 1.80945 2.65353 1.92998C2.89377 2.03624 3.09916 2.20733 3.24728 2.42428C3.415 2.66994 3.47556 2.99798 3.59644 3.65278L6.64029 20.1403L21.3356 20.1402C21.9746 20.1402 22.2951 20.1402 22.5598 20.0273C22.7937 19.9275 22.9953 19.766 23.1451 19.5606C23.3144 19.3283 23.3862 19.0174 23.5295 18.3961L23.5306 18.3917L25.7433 8.80328L25.7438 8.80127C25.9613 7.85882 26.0703 7.38645 25.9506 7.01592C25.8456 6.69082 25.6245 6.41518 25.3314 6.23974C24.997 6.03962 24.5138 6.03962 23.545 6.03962H4.52514M22.1509 27.1905C21.3721 27.1905 20.7408 26.5592 20.7408 25.7804C20.7408 25.0017 21.3721 24.3704 22.1509 24.3704C22.9296 24.3704 23.5609 25.0017 23.5609 25.7804C23.5609 26.5592 22.9296 27.1905 22.1509 27.1905ZM8.05029 27.1905C7.27154 27.1905 6.64023 26.5592 6.64023 25.7804C6.64023 25.0017 7.27154 24.3704 8.05029 24.3704C8.82904 24.3704 9.46035 25.0017 9.46035 25.7804C9.46035 26.5592 8.82904 27.1905 8.05029 27.1905Z" stroke="white" stroke-width="2" stroke-linecap="round" stroke-linejoin="round"/>
</svg>
