<svg width="187" height="154" viewBox="0 0 187 154" fill="none" xmlns="http://www.w3.org/2000/svg">
<path d="M131.5 -11.4999C131.5 70.2366 65.0159 136.5 -17 136.5C-99.0159 136.5 -165.5 70.2366 -165.5 -11.4999C-165.5 -93.2365 -99.0159 -159.5 -17 -159.5C65.0159 -159.5 131.5 -93.2365 131.5 -11.4999Z" stroke="#101A24" stroke-opacity="0.3"/>
<path d="M158.5 -3.99994C158.5 78.0159 92.2366 144.5 10.5 144.5C-71.2366 144.5 -137.5 78.0159 -137.5 -3.99994C-137.5 -86.0158 -71.2366 -152.5 10.5 -152.5C92.2366 -152.5 158.5 -86.0158 158.5 -3.99994Z" stroke="#101A24" stroke-opacity="0.3"/>
<circle cx="0.499994" cy="-32.5" r="148.302" transform="rotate(-17.4051 0.499994 -32.5)" stroke="#101A24" stroke-opacity="0.3"/>
</svg>
