<svg width="240" height="157" viewBox="0 0 240 157" fill="none" xmlns="http://www.w3.org/2000/svg">
<g opacity="0.1" filter="url(#filter0_d_6_31)">
<path d="M183.023 119.697C183.701 119.053 183.545 118.236 183.527 117.401C183.551 116.309 183.662 115.221 183.858 114.147C185.17 114.382 186.495 114.544 187.825 114.634C189.286 114.634 190.33 113.921 190.33 112.895C190.356 111.851 190.142 110.815 189.704 109.867C188.15 107.113 185.753 104.93 182.866 103.639C178.553 101.408 174.008 99.6581 169.313 98.4196C169.726 98.2632 170.151 98.141 170.583 98.0542C172.08 98.0542 173.593 98.0542 175.072 97.8976C176.34 97.7397 177.58 97.412 178.76 96.9234C180.97 96.0013 181.405 94.7834 180.5 92.6261C180.135 91.8084 179.648 91.0255 178.969 89.7381C181.666 90.6601 183.858 91.3734 186.015 92.1737C187.633 92.7653 189.164 93.5656 190.8 94.0875C193.293 94.8607 195.644 96.036 197.759 97.5671C199.426 98.8325 201.169 99.9945 202.978 101.047C203.444 101.404 203.991 101.641 204.571 101.738C205.15 101.834 205.745 101.787 206.302 101.599C206.858 101.412 207.361 101.091 207.764 100.664C208.167 100.237 208.46 99.7168 208.615 99.1503C208.841 98.6805 208.998 98.1934 209.224 97.6019C210.111 97.8976 210.964 98.2456 211.799 98.437C214.704 99.0981 216.166 97.4801 215.278 94.6616C214.944 93.5431 214.334 92.5267 213.504 91.7058C212.674 90.8849 211.651 90.286 210.529 89.9642L207.571 88.729L207.728 88.2766C210.598 88.9552 213.469 89.5815 216.427 90.2948C220.48 91.3387 224.517 92.5043 228.605 93.4612C229.562 93.703 230.574 93.6065 231.468 93.1879C232.362 92.7694 233.084 92.0546 233.511 91.1647C234.381 89.7033 234.068 88.294 232.572 86.4847C232.067 85.8757 231.632 85.2146 231.076 84.4491C232.259 83.8576 233.216 83.44 234.103 82.9007C234.524 82.7244 234.883 82.4267 235.134 82.0455C235.385 81.6644 235.517 81.2171 235.512 80.7608C235.425 79.7865 234.66 79.4559 233.772 79.1602C229.051 77.5735 223.987 77.3029 219.123 78.3773C215.687 79.2483 212.136 79.577 208.598 79.3515C210.564 78.1163 212.547 76.8984 214.513 75.6458C215.068 75.4073 215.519 74.9777 215.784 74.4349C216.049 73.8922 216.11 73.2724 215.957 72.6882C215.644 71.105 215.122 70.4786 213.434 70.3221C212.178 70.2879 210.921 70.3578 209.676 70.5308C209.195 70.6123 208.718 70.7227 208.25 70.8614C208.061 70.3434 207.764 69.8713 207.379 69.4759C206.995 69.0805 206.531 68.7709 206.019 68.5672C205.506 68.3635 204.957 68.2704 204.406 68.294C203.855 68.3176 203.315 68.4573 202.822 68.7041C198.49 70.1133 195.167 73.0709 191.704 75.785C188.661 78.5049 185.295 80.842 181.683 82.7441C180.535 81.9786 179.335 81.0043 178.03 80.378C176.963 79.7199 175.783 79.2657 174.55 79.0384C172.254 78.8122 169.922 79.0384 167.591 78.8644C167.032 78.9501 166.461 78.9135 165.917 78.7574C165.374 78.6012 164.87 78.3291 164.442 77.9597C165.76 77.484 167.191 77.4173 168.548 77.7683C171.923 78.2381 173.663 76.5331 172.828 73.6798C172.798 73.513 172.798 73.3422 172.828 73.1753C173.176 72.9665 173.558 72.7578 173.924 72.4968C175.664 71.3659 174.881 69.7653 173.541 69.1738C173.069 68.9487 172.55 68.8412 172.027 68.8606C170.027 68.9824 168.026 69.1738 166.025 69.3826C165.103 69.4696 164.164 69.9045 163.329 69.0694C164.024 68.365 164.878 67.8389 165.821 67.536C166.763 67.233 167.764 67.1623 168.739 67.3296C172.394 67.6241 176.013 68.2708 179.543 69.2608C181.721 69.8331 183.928 70.2861 186.155 70.6178C189.495 71.0006 191.374 68.5823 190.417 65.3985L190.086 64.285C190.618 64.1266 191.14 63.9407 191.652 63.7283C193.253 62.928 193.288 62.3365 192.279 60.7707C191.777 59.9689 191.031 59.3498 190.151 59.0051C189.27 58.6604 188.302 58.6085 187.39 58.8569C186.934 58.9656 186.458 58.9588 186.005 58.8373C185.553 58.7158 185.138 58.4834 184.798 58.161C185.784 57.6218 186.829 57.1958 187.912 56.8909C190.606 56.2477 193.371 55.9496 196.141 56.0036C198.007 55.9364 199.864 55.7094 201.691 55.3251C202.778 55.1191 203.76 54.5412 204.468 53.6905C205.176 52.8398 205.566 51.7692 205.571 50.6625C205.589 49.6789 205.292 48.7153 204.722 47.9134C204.152 47.1116 203.339 46.514 202.404 46.2087C201.795 45.9469 201.212 45.6264 200.664 45.2518C200.264 41.5634 199.725 41.0589 196.228 40.9719C196.019 40.9719 195.793 40.9719 195.567 40.9719C192.869 41.0314 190.249 41.8847 188.034 43.425C186.296 44.7028 184.329 45.6359 182.24 46.1739C183.145 44.4341 183.284 43.0944 182.153 41.9462C180.413 40.2064 178.778 41.2503 177.212 42.2941L176.673 41.6678C175.455 40.2238 174.672 40.1368 173.385 41.4764C172.557 42.2333 171.883 43.1431 171.401 44.1557C169.348 49.3751 166.669 54.5944 165.59 60.1965C165.545 60.6914 165.356 61.1624 165.047 61.5517C164.738 61.941 164.322 62.2318 163.85 62.3887L158.996 64.1284C158.005 62.2147 156.456 61.7971 154.125 62.1973C154.751 61.3448 154.995 60.6315 155.395 60.4575C156.804 60.0921 156.944 58.9265 157.135 57.8652C157.274 57.102 157.338 56.327 157.326 55.5513L154.856 53.5158C155.601 52.1171 156.745 50.9723 158.144 50.2276C160.95 48.6842 163.339 46.4808 165.103 43.8078C165.663 42.6108 166.546 41.594 167.653 40.8717C168.759 40.1493 170.045 39.7502 171.366 39.7193C172.184 39.7193 173.002 39.4931 173.819 39.4409L187.024 38.6406C189.281 38.4936 191.486 37.9024 193.514 36.9008C194.122 36.6168 194.643 36.1753 195.022 35.622C195.402 35.0688 195.626 34.424 195.672 33.7546C195.719 33.0852 195.585 32.4157 195.285 31.8156C194.985 31.2154 194.529 30.7066 193.966 30.3418C193.67 30.1505 193.427 29.8895 192.974 29.5241C194.993 28.2715 194.836 26.5665 194.505 24.6875C194.297 23.4349 193.653 22.9477 192.592 22.9477C191.334 23.0913 190.09 23.3297 188.869 23.6611C188.103 23.8176 187.355 24.0438 186.102 24.3744C186.395 23.763 186.745 23.1805 187.146 22.6346C189.634 20.1467 192.157 17.6936 194.679 15.2405C195.65 14.4799 196.438 13.5117 196.986 12.4069C197.534 11.3021 197.828 10.0886 197.846 8.8555C197.836 8.26693 197.691 7.68847 197.423 7.16471C197.154 6.64095 196.768 6.18588 196.296 5.83457C195.824 5.48326 195.277 5.2451 194.698 5.13843C194.119 5.03177 193.524 5.05945 192.957 5.21935C192.279 5.42813 191.583 5.58471 190.765 5.81088C190.765 5.06277 190.765 4.62783 190.626 4.19288C190.544 3.09917 190.069 2.07207 189.289 1.30135C188.508 0.530627 187.475 0.0683742 186.381 0C183.945 0.104387 182.083 0.974279 181.701 3.60135C181.492 5.31193 181.131 7.00044 180.622 8.64673C179.735 11.2564 178.656 13.8661 177.595 16.354C177.301 16.894 176.951 17.4013 176.551 17.8676L176.064 17.7284C175.888 17.0504 175.777 16.3571 175.733 15.6581C175.733 13.5703 175.89 11.4652 175.907 9.37743C176.011 7.94303 175.952 6.5015 175.733 5.08017C175.638 4.57911 175.42 4.1097 175.097 3.71457C174.775 3.31944 174.359 3.01109 173.887 2.81752C173.415 2.62396 172.902 2.5513 172.395 2.60615C171.888 2.661 171.403 2.84162 170.984 3.13161C170.006 3.53368 169.133 4.15311 168.431 4.94291C167.728 5.73271 167.215 6.67211 166.93 7.68984C166.908 7.9558 166.82 8.212 166.673 8.43514C166.527 8.65829 166.327 8.84129 166.092 8.9675C165.857 9.09372 165.594 9.15913 165.327 9.1578C165.06 9.15647 164.798 9.08844 164.564 8.95989C164.127 8.83178 163.659 8.84902 163.233 9.00902C162.806 9.16901 162.443 9.46313 162.198 9.84718C161.65 10.5249 161.376 11.3836 161.431 12.2535C161.486 13.1233 161.865 13.9409 162.493 14.5446C162.876 14.9621 163.45 15.4145 163.503 15.919C164.073 19.1634 164.201 22.4699 163.885 25.7488C163.59 27.593 163.329 29.4545 163.189 31.3161C163.044 33.3286 162.112 35.2032 160.597 36.5355C159.811 35.9363 159.056 35.2976 158.335 34.6217C158.022 34.2737 157.726 33.5604 157.883 33.2473C158.979 31.0377 158.492 28.1845 160.667 26.4273C160.859 26.1959 160.975 25.91 160.997 25.6096C161.154 23.3653 161.415 21.121 161.397 18.8941C161.38 16.6671 160.858 16.267 158.527 16.267C158.286 16.2153 158.056 16.121 157.848 15.9886C157.834 15.5503 157.875 15.1119 157.97 14.6838C158.136 14.1852 158.198 13.6581 158.153 13.1346C158.109 12.6111 157.957 12.1022 157.709 11.6392C157.584 11.1793 157.324 10.7677 156.961 10.4584C156.599 10.1491 156.151 9.95651 155.677 9.90575C155.204 9.85498 154.726 9.94846 154.306 10.1739C153.886 10.3994 153.544 10.7464 153.325 11.1694C152.814 12.2756 152.457 13.4463 152.264 14.649C151.582 13.1803 151.069 11.6396 150.733 10.056C150.397 7.8239 149.505 5.71205 148.14 3.91451C147.819 3.31615 147.347 2.81292 146.769 2.45556C146.192 2.09819 145.531 1.89931 144.852 1.87897C144.136 1.83052 143.424 2.02837 142.836 2.43973C142.247 2.85108 141.817 3.45124 141.616 4.14069C141.446 4.43533 141.235 4.7047 140.99 4.94099C140.798 4.94099 140.711 4.94099 140.642 4.94099C139.789 4.50604 138.902 4.0363 138.084 3.60135C137.728 3.3457 137.312 3.1835 136.877 3.12956C136.441 3.07563 135.999 3.13167 135.591 3.29258C135.183 3.45349 134.821 3.71413 134.539 4.05071C134.258 4.38728 134.065 4.78906 133.978 5.21935C133.709 5.9269 133.625 6.69164 133.735 7.44079C133.844 8.18994 134.144 8.89856 134.605 9.49922C136.014 11.3434 137.528 13.1006 138.972 14.9273C139.297 15.4138 139.582 15.9258 139.824 16.4584L139.441 16.7367C138.693 16.3018 137.58 16.0234 137.267 15.3623C136.345 13.3963 134.466 12.9266 132.83 12.1263C132.371 11.8971 131.868 11.7721 131.355 11.7602C130.842 11.7484 130.334 11.85 129.865 12.0578C129.396 12.2656 128.979 12.5745 128.643 12.9623C128.308 13.3501 128.062 13.8072 127.924 14.301C127.538 14.9535 127.384 15.7167 127.485 16.4679C127.586 17.219 127.936 17.9142 128.481 18.4417C128.672 18.5983 128.689 18.9636 128.829 19.3464C128.481 19.5726 128.168 19.7639 127.889 19.9727C125.297 21.9735 125.019 23.9046 127.367 26.1837C128.678 27.3908 130.199 28.3463 131.856 29.0022C134.483 30.0635 137.284 30.742 139.946 31.6641C142.423 32.4629 144.649 33.8964 146.4 35.8222C146.343 36.009 146.267 36.1897 146.174 36.3615C144.748 38.6232 142.695 40.5022 141.825 43.1292C141.157 44.6702 139.994 45.9439 138.519 46.748C138.711 45.6171 138.867 44.8864 138.954 44.1731C139.175 43.1498 139.286 42.1058 139.285 41.0589C139.29 40.4216 139.133 39.7934 138.829 39.2334C138.524 38.6734 138.083 38.2 137.545 37.8577C136.745 37.4575 135.161 38.5188 134.292 39.8411C133.77 40.6414 133.195 41.3895 132.656 42.1724C131.973 41.7454 131.184 41.5175 130.379 41.514C129.573 41.5106 128.783 41.7319 128.096 42.1529C127.409 42.574 126.853 43.1783 126.491 43.8978C126.129 44.6173 125.974 45.4236 126.045 46.2261C126.142 48.0241 125.79 49.8181 125.019 51.4454C124.21 51.2157 123.369 51.1274 122.531 51.1844C121.719 51.357 120.959 51.7156 120.31 52.2318C119.661 52.7481 119.141 53.4079 118.79 54.1595C118.303 55.3193 117.833 56.4792 117.381 57.639C117.285 58.1041 117.095 58.5447 116.823 58.9336C116.551 59.3226 116.202 59.6517 115.798 59.9008C115.872 59.2633 116.006 58.6342 116.198 58.0218C117.537 54.9424 119.016 51.8978 120.269 48.7661C121.023 46.8976 121.605 44.9642 122.009 42.9901C122.107 42.385 122.001 41.7645 121.708 41.226C121.415 40.6875 120.952 40.2616 120.391 40.015C119.888 39.676 119.284 39.5188 118.68 39.5694C118.076 39.62 117.507 39.8754 117.068 40.2934C116.859 40.4848 116.581 40.624 116.354 40.8327C115.502 41.5982 114.841 41.2329 114.284 40.4674C114.063 40.0796 113.865 39.6787 113.693 39.2669C112.701 37.5271 110.874 37.4054 109.186 37.301C107.499 37.1966 106.82 38.3622 106.194 39.6323C105.711 40.4727 105.4 41.4005 105.277 42.362C105.155 43.3235 105.224 44.2997 105.481 45.2344C106.201 47.4792 106.426 49.8533 106.142 52.1935C105.885 51.3929 105.447 50.6624 104.861 50.0589C104.276 49.4553 103.559 48.9951 102.767 48.7139C101.218 48.0702 100.157 48.1572 99.931 49.636C99.461 52.6459 97.669 53.4114 95.077 53.4288C94.955 53.4288 94.816 53.307 94.764 53.2896C93.546 49.1489 92.38 45.0604 91.128 40.9893C89.875 36.9182 88.883 36.5355 85.264 38.1013C84.203 37.3184 83.038 36.6224 81.663 37.6315C80.63 38.3603 79.897 39.4392 79.599 40.6679C79.301 41.8967 79.46 43.1916 80.045 44.3123C78.723 43.1814 77.888 42.4507 77.035 41.7548C76.191 41.0162 75.302 40.3305 74.373 39.7019C73.684 39.1805 72.856 38.8753 71.993 38.8251C71.13 38.7748 70.272 38.9816 69.527 39.4194C68.782 39.8571 68.183 40.5061 67.807 41.2842C67.431 42.0623 67.294 42.9345 67.414 43.7904C67.465 44.3476 67.558 44.9002 67.693 45.4432C67.066 45.9651 66.423 46.4696 65.814 47.009C63.204 49.2185 63.361 52.1935 66.127 53.9333C67.517 54.9823 69.222 55.5282 70.963 55.4817C71.641 55.4594 72.314 55.5965 72.929 55.8819C76.165 57.2041 79.384 58.5785 82.603 59.9704C82.724 59.9704 82.724 60.3357 82.759 60.4575C80.497 60.2139 78.271 59.9008 76.044 59.7442C75.328 59.6443 74.6 59.7962 73.985 60.1739C73.369 60.5516 72.904 61.1315 72.668 61.8145C72.356 62.5477 72.305 63.3658 72.523 64.1321C72.742 64.8985 73.217 65.5666 73.869 66.0248C74.513 66.5467 75.226 66.9643 75.87 67.4862C76.148 67.7124 76.583 68.0777 76.548 68.3213C76.287 69.8523 76.774 71.5573 75.591 72.8795C76.59 74.707 78.234 76.0965 80.202 76.7767C81.099 77.1401 81.915 77.6783 82.603 78.3599C83.682 79.2577 84.378 80.5332 84.549 81.9264C84.721 83.3197 84.354 84.7258 83.525 85.8583C82.742 87.1458 81.559 87.4937 79.697 87.7895C80.219 86.9022 80.497 86.4499 80.758 86.0497C80.985 85.7475 81.13 85.3919 81.178 85.0174C81.227 84.6429 81.178 84.2621 81.036 83.9121C80.894 83.562 80.665 83.2546 80.369 83.0194C80.073 82.7843 79.722 82.6296 79.349 82.5701C78.636 82.3269 77.871 82.2792 77.134 82.4322C76.396 82.5852 75.713 82.9333 75.156 83.44C74.069 84.3157 72.905 85.0902 71.677 85.7539C74.049 81.9013 75.424 77.5185 75.678 73.0013C75.278 69.5218 72.39 69.5218 69.815 69.2782C69.815 68.9128 69.815 68.6171 69.728 68.3387C69.616 67.4551 69.213 66.6339 68.583 66.0041C67.953 65.3743 67.132 64.9716 66.249 64.8591C65.475 64.6664 64.661 64.7167 63.917 65.003C63.173 65.2894 62.535 65.7981 62.091 66.4597C61.676 67.0482 61.42 67.7344 61.35 68.4511C61.28 69.1678 61.397 69.8904 61.69 70.5482C62.195 72.288 62.804 74.0278 63.43 75.6806C63.827 76.7873 63.999 77.962 63.937 79.1361C63.874 80.3101 63.577 81.4599 63.065 82.518C62.717 80.7782 62.525 79.2472 62.073 77.7683C61.935 77.3606 61.709 76.9885 61.409 76.679C61.11 76.3695 60.746 76.1304 60.343 75.9789C59.9403 75.8274 59.5088 75.7673 59.0798 75.803C58.6509 75.8386 58.2352 75.9692 57.8629 76.1851C57.3676 76.499 56.8912 76.8418 56.4362 77.2116C55.4703 76.6734 54.3585 76.4558 53.261 76.5903C52.1634 76.7247 51.137 77.2043 50.3296 77.9597C49.765 78.4042 49.3086 78.971 48.9949 79.6174C48.6811 80.2638 48.518 80.973 48.518 81.6916C48.518 82.4101 48.6811 83.1193 48.9949 83.7657C49.3086 84.4121 49.765 84.9789 50.3296 85.4234C51.0577 86.017 51.5934 86.8131 51.8691 87.7112C52.1447 88.6093 52.1478 89.5689 51.878 90.4688C51.5776 91.5518 51.4139 92.6681 51.3909 93.7917C51.4069 94.6215 51.2068 95.4411 50.8102 96.1701C50.4137 96.8991 49.8344 97.5124 49.1291 97.9498C48.0957 98.7028 46.9511 99.2898 45.7366 99.6896C42.9181 100.49 40.0475 101.081 37.2116 101.812C31.8821 103.397 26.6532 105.303 21.5536 107.519C17.1519 109.258 12.8546 111.19 8.4704 112.982C3.9936 114.507 -0.3526 116.393 -4.5258 118.618C-7.3443 120.358 -10.2497 121.907 -12.929 123.838C-17.261 126.882 -21.2451 130.414 -26.1861 132.902C-26.0439 133.389 -25.8204 133.847 -25.525 134.259C-24.4564 135.247 -23.0929 135.858 -21.644 135.996C-20.1951 136.134 -18.7408 135.793 -17.5046 135.025C-15.5908 133.842 -13.7815 132.485 -11.8677 131.336C-8.5795 129.388 -5.2565 127.474 -1.8987 125.647C1.4591 123.82 4.6081 122.168 7.8615 120.55C8.7547 120.084 9.6203 119.567 10.4537 119.001C15.5455 115.67 20.9891 112.91 26.6859 110.772C31.401 109.015 36.2317 107.585 41.1435 106.492C45.132 105.564 49.2375 105.241 53.322 105.535C55.2623 105.595 57.1999 105.349 59.0633 104.805C62.752 103.848 66.353 102.525 70.059 101.656C72.661 101.204 75.334 101.383 77.853 102.178C78.01 102.178 78.097 102.491 78.392 102.873C77.418 103.03 76.653 103.169 75.835 103.256C73.764 103.517 71.659 103.622 69.606 103.987C64.735 104.857 59.8462 105.727 55.0444 106.805C47.6851 108.545 40.2214 109.867 33.0361 112.32C27.445 114.201 21.9871 116.456 16.6996 119.071C13.0286 120.915 9.4621 122.951 5.9303 125.056C4.3068 126.128 2.7444 127.289 1.2503 128.535C0.791 128.912 0.288799 129.233 -0.245899 129.492C-2.7164 130.571 -5.2043 131.649 -7.727 132.606C-9.9713 133.459 -12.2504 134.207 -14.547 134.938C-16.8435 135.668 -18.8616 136.138 -21.0016 136.799C-25.7164 138.261 -30.3616 139.966 -35.3896 140.105C-35.8033 140.102 -36.2096 140.214 -36.563 140.429C-36.9164 140.645 -37.2029 140.954 -37.3903 141.323C-38.1036 142.871 -38.9909 144.402 -40 146.142C-39.3218 146.619 -38.6191 147.06 -37.8949 147.464C-36.0819 148.217 -34.074 148.364 -32.171 147.882C-25.9654 146.606 -19.9287 144.615 -14.1816 141.949C-14.0535 142.195 -13.9021 142.428 -13.7293 142.645C-11.1718 145.115 -9.084 146.507 -6.0394 144.994C-5.7019 144.859 -5.3944 144.659 -5.1346 144.406C-4.8748 144.152 -4.6679 143.849 -4.5258 143.515C-4.0827 142.75 -3.4912 142.082 -2.786 141.549C-2.2989 141.079 -1.7074 140.749 -1.2028 140.296C1.3025 138.174 3.7556 135.947 6.3131 133.894C7.6101 132.883 8.996 131.992 10.4537 131.232C11.4522 130.74 12.495 130.344 13.568 130.049C14.5596 129.701 15.6035 129.492 16.5778 129.109C21.6045 127.114 26.7675 125.48 32.0271 124.221C37.8473 123.047 43.8726 123.407 49.5119 125.264C52.1693 126.047 54.7492 127.072 57.2191 128.326C59.6339 129.516 61.697 131.315 63.204 133.546C64.461 135.494 65.856 137.349 67.379 139.096C69.398 141.305 71.712 141.009 73.538 138.539L74.808 136.799L76.809 137.704C79.262 138.748 80.532 138.034 80.741 135.39C80.763 134.645 80.589 133.907 80.236 133.25C79.199 131.408 77.611 129.936 75.696 129.04C74.756 128.535 73.851 127.926 72.929 127.3C73.817 127.067 74.755 127.122 75.609 127.457C79.262 129.196 82.933 130.936 86.5 132.676C89.283 134.172 92.015 133.633 93.041 130.936C93.348 129.868 93.419 128.746 93.25 127.648C93.105 126.896 92.866 126.165 92.537 125.473C92.771 125.389 93.018 125.342 93.267 125.334C95.199 125.734 95.877 124.29 95.616 122.568C95.535 121.775 95.24 121.019 94.762 120.381C94.284 119.744 93.641 119.249 92.902 118.949C90.34 117.653 87.459 117.122 84.603 117.418C84.025 117.476 83.442 117.476 82.864 117.418C81.002 117.418 79.123 117.418 77.261 117.261C76.14 117.201 75.023 117.061 73.921 116.844C73.573 116.844 73.277 116.287 72.755 115.8C73.695 115.411 74.66 115.085 75.643 114.826C76.219 114.777 76.775 114.594 77.268 114.292C77.76 113.99 78.175 113.577 78.479 113.086C78.961 112.419 79.664 111.944 80.463 111.746C82.516 111.103 84.621 110.494 86.534 112.286C87.074 112.609 87.661 112.844 88.274 112.982C90.936 114.06 93.436 115.5 95.703 117.261C96.148 117.521 96.492 117.924 96.678 118.405C96.864 118.885 96.883 119.414 96.73 119.906C96.573 120.55 96.73 121.646 97.078 121.941C97.612 122.324 98.001 122.876 98.181 123.508C98.361 124.14 98.322 124.814 98.069 125.421C97.962 125.936 97.915 126.461 97.93 126.987C97.917 127.271 97.967 127.555 98.076 127.818C98.185 128.082 98.352 128.317 98.563 128.508C98.774 128.7 99.025 128.842 99.298 128.925C99.57 129.007 99.858 129.029 100.14 128.988C100.934 128.825 101.69 128.512 102.367 128.065C103.184 127.596 103.932 126.987 104.976 126.239C104.931 126.59 104.844 126.935 104.715 127.265C103.497 129.144 102.123 130.954 101.096 132.919C100.61 134.011 100.412 135.209 100.522 136.399C100.469 136.897 100.539 137.401 100.726 137.865C100.913 138.33 101.21 138.742 101.593 139.065C101.976 139.388 102.433 139.612 102.922 139.717C103.412 139.823 103.92 139.806 104.402 139.67C105.136 139.538 105.853 139.328 106.542 139.044C106.968 138.898 107.386 138.729 107.795 138.539C107.916 139.009 107.969 139.287 108.056 139.565C108.189 140.067 108.425 140.535 108.749 140.941C109.073 141.346 109.477 141.68 109.937 141.92C110.397 142.161 110.902 142.303 111.419 142.338C111.937 142.373 112.457 142.3 112.944 142.123C114.028 141.6 114.939 140.78 115.571 139.757C116.876 137.443 118.407 135.025 118.32 132.224C118.32 131.98 118.547 131.754 118.825 131.214C119.225 132.363 119.556 133.198 119.817 134.05C120.017 134.616 120.347 135.127 120.778 135.543C121.21 135.96 121.732 136.271 122.304 136.451C123.401 136.921 123.922 136.155 124.671 135.668C125.278 135.426 125.899 135.223 126.532 135.059C127.245 134.729 128.272 134.451 128.55 133.859C128.989 133.25 129.27 132.542 129.367 131.798C129.465 131.054 129.375 130.297 129.107 129.596C128.847 128.812 128.644 128.009 128.498 127.196C128.036 124.528 127.023 121.986 125.523 119.732C123.992 117.836 122.583 115.852 120.843 113.556C122.583 113.556 123.766 113.556 125.001 113.747C126.88 113.902 128.769 113.591 130.499 112.842C131.003 112.634 131.804 112.059 131.751 111.764C131.491 110.181 132.256 108.476 131.264 106.979C130.934 106.51 130.673 106.005 130.203 105.24C131.721 105.382 133.25 105.122 134.637 104.487C136.023 103.852 137.218 102.863 138.102 101.621C137.503 105.346 136.391 108.97 134.796 112.39C134.309 113.237 133.99 114.171 133.857 115.139C133.63 117.923 134.779 119.593 137.336 119.401C137.73 119.377 138.125 119.377 138.519 119.401C138.745 119.906 138.989 120.358 139.198 120.845C139.378 121.492 139.772 122.06 140.315 122.454C140.858 122.849 141.519 123.049 142.19 123.02C142.789 122.984 143.366 122.778 143.852 122.427C144.339 122.076 144.716 121.594 144.939 121.037C145.774 118.81 146.801 116.653 147.757 114.443C149.863 114.948 149.863 114.948 151.55 113.295C151.776 113.695 151.968 114.078 152.211 114.443C154.577 117.923 156.578 118.653 160.614 117.331C162.354 116.74 162.354 116.774 163.677 118.236C164.155 118.805 164.748 119.267 165.416 119.593C166.669 120.167 167.556 119.836 167.852 118.514C168.339 116.322 168.791 114.025 167.243 112.042C166.147 110.633 164.912 109.328 163.764 107.971C163.137 107.258 162.18 106.771 162.232 105.466C162.543 105.52 162.826 105.68 163.033 105.918C165.19 108.093 167.4 110.215 169.505 112.425C170.531 113.521 171.245 114.808 172.288 115.904C173.471 117.348 174.62 118.827 175.925 120.149C176.441 120.853 177.166 121.376 177.997 121.645C178.828 121.913 179.722 121.914 180.552 121.646C181.485 121.148 182.322 120.488 183.023 119.697ZM107.777 84.049C107.777 81.3175 107.777 81.3175 106.037 78.9514C107.554 78.0286 109.337 77.6426 111.1 77.8553C112.548 77.9511 114.001 77.9511 115.45 77.8553H116.354C115.276 80.291 111.361 83.1269 107.777 84.049ZM53.235 113.086C48.6594 114.234 44.1012 115.504 39.4733 116.444C33.0119 117.776 26.6697 119.632 20.5097 121.994C19.5876 122.342 18.6481 122.585 17.7086 122.864C17.5065 122.89 17.3018 122.89 17.0997 122.864C31.1398 114.756 46.4325 110.685 62.108 107.954L62.317 108.371C61.962 108.702 61.578 108.999 61.168 109.258C59.1677 110.389 57.2887 111.346 55.3402 112.355C54.6653 112.67 53.9599 112.915 53.235 113.086ZM81.246 106.127C78.966 107.084 76.618 107.867 74.391 108.563L71.346 106.266L88.274 103.743C88.274 103.935 88.274 104.109 88.396 104.3C86.169 105.448 83.525 105.17 81.246 106.127Z" fill="white"/>
<path d="M116.041 119.314L117.781 117.575C118.912 118.184 118.025 119.123 118.199 119.575C119.695 121.141 121.087 122.463 122.304 123.942C123.209 125.073 123.053 125.438 122.026 126.361L117.798 121.785C116.615 124.308 115.728 126.569 114.545 128.744C113.362 130.919 111.935 132.641 110.578 134.624C109.465 134.05 109.447 133.546 109.952 132.746C111.031 131.006 111.988 129.266 113.188 127.23C112.519 127.411 111.839 127.55 111.152 127.648C110.822 127.648 110.23 127.509 110.196 127.317C110.142 127.119 110.135 126.91 110.174 126.709C110.214 126.507 110.298 126.316 110.422 126.152C111.241 125.629 112.089 125.152 112.962 124.725C113.936 124.203 115.502 124.516 115.676 122.829C115.78 121.785 115.902 120.637 116.041 119.314ZM114.023 135.338C113.049 135.599 112.666 136.382 112.283 137.217C113.101 136.782 113.936 136.399 114.023 135.338ZM102.036 96.3492C100.818 98.089 101.114 99.2895 102.958 100.438C103.095 99.7295 103.084 99.0006 102.925 98.2969C102.767 97.5932 102.464 96.93 102.036 96.3492ZM180.657 121.785C179.826 122.053 178.932 122.053 178.101 121.784C177.271 121.515 176.546 120.992 176.029 120.289C174.724 118.966 173.576 117.488 172.393 116.044C171.436 114.895 170.653 113.608 169.609 112.564C167.504 110.354 165.295 108.232 163.137 106.057C162.93 105.819 162.648 105.659 162.337 105.605C162.337 106.91 163.242 107.345 163.868 108.11C165.051 109.467 166.286 110.772 167.347 112.181C168.896 114.165 168.444 116.461 167.956 118.653C167.661 119.975 166.773 120.393 165.521 119.732C164.852 119.406 164.259 118.944 163.781 118.375C162.459 116.913 162.476 116.879 160.719 117.47C156.683 118.792 154.682 118.131 152.316 114.582C152.072 114.217 151.881 113.834 151.655 113.434C149.915 115.174 149.915 115.174 147.862 114.582C146.905 116.792 145.879 118.949 145.043 121.176C144.82 121.733 144.443 122.215 143.957 122.566C143.47 122.918 142.894 123.123 142.295 123.159C141.624 123.188 140.963 122.988 140.419 122.594C139.876 122.199 139.482 121.632 139.302 120.985C139.093 120.497 138.85 120.045 138.624 119.541C138.23 119.516 137.835 119.516 137.441 119.541C134.831 119.732 133.683 118.062 133.961 115.278C134.094 114.31 134.413 113.376 134.9 112.529C136.495 109.11 137.608 105.485 138.206 101.76C137.322 103.003 136.127 103.991 134.741 104.626C133.355 105.261 131.826 105.521 130.307 105.379C130.777 106.179 131.038 106.684 131.369 107.119C132.36 108.615 131.595 110.32 131.856 111.903C131.856 112.199 131.108 112.773 130.603 112.982C128.862 113.71 126.967 113.997 125.088 113.817C123.853 113.695 122.6 113.695 120.93 113.625C122.67 115.922 124.079 117.905 125.61 119.802C127.11 122.055 128.123 124.598 128.585 127.265C128.731 128.079 128.934 128.881 129.194 129.666C129.462 130.367 129.551 131.124 129.454 131.868C129.357 132.612 129.076 133.32 128.637 133.929C128.324 134.52 127.332 134.798 126.619 135.129C125.986 135.293 125.365 135.496 124.758 135.738C124.009 136.225 123.487 136.991 122.391 136.521C121.796 136.329 121.256 135.997 120.816 135.552C120.377 135.106 120.052 134.561 119.869 133.963C119.608 133.111 119.277 132.224 118.877 131.128C118.599 131.667 118.373 131.893 118.373 132.137C118.373 135.007 116.876 137.356 115.606 139.739C114.974 140.762 114.062 141.583 112.979 142.106C112.491 142.282 111.972 142.355 111.454 142.321C110.936 142.286 110.432 142.143 109.972 141.903C109.512 141.662 109.107 141.329 108.783 140.923C108.46 140.518 108.224 140.05 108.09 139.548C108.003 139.27 107.951 138.991 107.829 138.522C107.421 138.712 107.003 138.881 106.577 139.026C105.888 139.311 105.17 139.521 104.437 139.652C103.962 139.78 103.463 139.791 102.983 139.685C102.502 139.579 102.055 139.359 101.677 139.043C101.3 138.727 101.005 138.325 100.816 137.871C100.627 137.417 100.55 136.924 100.592 136.434C100.481 135.244 100.679 134.046 101.166 132.954C102.193 130.988 103.567 129.179 104.785 127.3C104.913 126.97 105.001 126.625 105.046 126.274C104.002 127.022 103.306 127.631 102.436 128.1C101.759 128.547 101.003 128.86 100.209 129.022C99.926 129.064 99.637 129.042 99.363 128.958C99.089 128.875 98.837 128.731 98.625 128.538C98.414 128.345 98.248 128.107 98.14 127.841C98.032 127.576 97.984 127.29 98 127.004C97.985 126.479 98.031 125.953 98.139 125.438C98.391 124.832 98.431 124.157 98.251 123.525C98.071 122.893 97.682 122.341 97.147 121.959C96.747 121.68 96.643 120.567 96.799 119.923C96.951 119.421 96.924 118.882 96.725 118.397C96.525 117.913 96.164 117.511 95.703 117.261C93.402 115.53 90.873 114.124 88.187 113.086C87.574 112.948 86.987 112.713 86.447 112.39C84.534 110.65 82.429 111.207 80.376 111.851C79.624 112.04 78.956 112.474 78.479 113.086C78.182 113.603 77.764 114.041 77.261 114.362C76.758 114.683 76.186 114.878 75.591 114.93C74.608 115.19 73.643 115.515 72.703 115.904C73.225 116.392 73.521 116.879 73.869 116.948C74.971 117.165 76.087 117.305 77.209 117.366C79.071 117.453 80.95 117.488 82.811 117.522C83.39 117.581 83.973 117.581 84.551 117.522C87.407 117.226 90.288 117.757 92.85 119.053C93.617 119.334 94.29 119.823 94.795 120.465C95.299 121.107 95.613 121.878 95.703 122.69C95.964 124.429 95.286 125.856 93.354 125.456C93.105 125.463 92.858 125.51 92.624 125.595C92.953 126.287 93.192 127.018 93.337 127.77C93.506 128.868 93.435 129.99 93.128 131.058C92.102 133.755 89.37 134.294 86.587 132.798C83.107 130.884 79.349 129.196 75.696 127.578C74.842 127.244 73.904 127.189 73.016 127.422C73.938 127.996 74.756 128.605 75.783 129.162C77.698 130.057 79.286 131.529 80.323 133.372C80.676 134.029 80.85 134.767 80.828 135.512C80.619 138.156 79.349 138.87 76.896 137.826L74.826 136.782L73.556 138.522C71.729 140.992 69.415 141.288 67.397 139.078C65.873 137.331 64.478 135.476 63.221 133.528C61.714 131.298 59.6513 129.499 57.2365 128.309C54.7604 127.06 52.1747 126.04 49.5119 125.264C43.8726 123.407 37.8473 123.047 32.0271 124.221C26.7733 125.481 21.6163 127.115 16.5952 129.109C15.6209 129.492 14.577 129.701 13.5853 130.049C12.5123 130.344 11.4696 130.74 10.4711 131.232C9.0047 132.014 7.6128 132.928 6.313 133.963C3.7556 136.016 1.3025 138.243 -1.2028 140.366C-1.7074 140.818 -2.2989 141.149 -2.786 141.618C-3.4912 142.151 -4.0827 142.82 -4.5258 143.584C-4.6679 143.919 -4.8748 144.221 -5.1346 144.475C-5.3944 144.729 -5.7019 144.929 -6.0394 145.063C-9.084 146.577 -11.1718 145.185 -13.7293 142.714C-13.9021 142.498 -14.0535 142.265 -14.1816 142.019C-19.9317 144.661 -25.9683 146.628 -32.171 147.882C-34.0684 148.38 -36.0762 148.252 -37.8949 147.516C-38.6203 147.096 -39.323 146.637 -40 146.142C-38.9909 144.402 -38.1036 142.819 -37.2337 141.253C-37.0463 140.884 -36.7598 140.575 -36.4064 140.36C-36.053 140.145 -35.6467 140.032 -35.233 140.035C-30.205 139.896 -25.5598 138.191 -20.845 136.73C-18.705 136.069 -16.5303 135.529 -14.3904 134.868C-12.2504 134.207 -9.8148 133.389 -7.5704 132.537C-5.0477 131.58 -2.5598 130.501 -0.0894012 129.423C0.4454 129.164 0.947598 128.842 1.4069 128.466C2.901 127.22 4.4634 126.058 6.0869 124.986C9.5664 122.881 13.1852 120.845 16.8561 119.001C22.1437 116.386 27.6016 114.131 33.1927 112.251C40.378 109.798 47.8417 108.476 55.201 106.736C60.003 105.587 64.892 104.787 69.763 103.917C71.816 103.552 73.921 103.448 75.991 103.187C76.792 103.1 77.575 102.96 78.549 102.804C78.253 102.421 78.166 102.143 78.01 102.108C75.491 101.313 72.818 101.134 70.215 101.586C66.51 102.456 62.908 103.778 59.2199 104.735C57.3564 105.279 55.4189 105.526 53.4786 105.466C49.3941 105.172 45.2886 105.494 41.3001 106.423C36.3882 107.515 31.5576 108.945 26.8425 110.702C21.0885 112.852 15.5918 115.635 10.4537 119.001C9.6153 119.496 8.7499 119.943 7.8615 120.341C4.6081 122.081 1.3199 123.681 -1.8987 125.438C-5.1173 127.196 -8.5795 129.179 -11.8677 131.128C-13.7815 132.276 -15.5908 133.633 -17.5046 134.816C-18.7408 135.584 -20.1951 135.925 -21.644 135.787C-23.0929 135.649 -24.4564 135.039 -25.525 134.05C-25.7837 133.632 -25.9718 133.173 -26.0817 132.693C-21.1407 130.205 -17.1566 126.674 -12.8246 123.629C-10.1453 121.733 -7.2399 120.149 -4.4214 118.41C-0.248199 116.184 4.098 114.299 8.5748 112.773C12.9416 111.033 17.2737 109.032 21.6579 107.31C26.7576 105.094 31.9865 103.189 37.316 101.603C40.1518 100.873 43.0225 100.281 45.8409 99.4808C47.0555 99.081 48.2001 98.494 49.2335 97.7411C49.9388 97.3037 50.5181 96.6903 50.9146 95.9613C51.3111 95.2323 51.5112 94.4127 51.4952 93.583C51.501 92.5335 51.6295 91.4884 51.878 90.4688C52.188 89.5467 52.2074 88.5517 51.9336 87.6182C51.6598 86.6848 51.106 85.8579 50.347 85.2494C49.7824 84.8049 49.326 84.2381 49.0122 83.5917C48.6985 82.9453 48.5354 82.2361 48.5354 81.5176C48.5354 80.799 48.6985 80.0898 49.0122 79.4434C49.326 78.797 49.7824 78.2302 50.347 77.7857C51.1544 77.0303 52.1808 76.5507 53.2784 76.4163C54.3759 76.2818 55.4877 76.4994 56.4536 77.0376C56.9086 76.6678 57.385 76.3251 57.8802 76.0112C58.2526 75.7952 58.6683 75.6647 59.0972 75.629C59.5262 75.5933 59.9577 75.6534 60.361 75.8049C60.763 75.9564 61.128 76.1956 61.427 76.505C61.726 76.8145 61.953 77.1866 62.091 77.5944C62.543 79.0732 62.734 80.6564 63.082 82.344C63.595 81.2859 63.891 80.1362 63.954 78.9621C64.017 77.7881 63.844 76.6133 63.448 75.5066C62.873 73.7668 62.264 72.0271 61.708 70.3743C61.415 69.7165 61.298 68.9938 61.368 68.2772C61.438 67.5605 61.693 66.8743 62.108 66.2858C62.553 65.6241 63.19 65.1155 63.934 64.8291C64.678 64.5427 65.492 64.4924 66.266 64.6852C67.15 64.7976 67.971 65.2003 68.601 65.8301C69.23 66.46 69.633 67.2812 69.746 68.1647C69.746 68.4431 69.746 68.7389 69.833 69.1042C72.407 69.4348 75.295 69.2782 75.696 72.8274C75.441 77.3445 74.066 81.7273 71.694 85.58C72.922 84.9163 74.087 84.1417 75.174 83.2661C75.731 82.7593 76.414 82.4113 77.151 82.2583C77.889 82.1053 78.654 82.1529 79.367 82.3962C79.74 82.4556 80.091 82.6104 80.386 82.8455C80.682 83.0806 80.912 83.3881 81.054 83.7381C81.195 84.0882 81.244 84.4689 81.196 84.8434C81.147 85.2179 81.002 85.5735 80.776 85.8757C80.515 86.3455 80.236 86.7978 79.715 87.6155C81.576 87.3198 82.759 86.9718 83.542 85.6844C84.36 84.5599 84.723 83.168 84.559 81.7872C84.394 80.4065 83.714 79.1388 82.655 78.2381C81.967 77.5565 81.151 77.0184 80.254 76.6549C78.286 75.9747 76.642 74.5852 75.643 72.7578C76.826 71.4355 76.339 69.7305 76.6 68.1995C76.6 67.956 76.2 67.5906 75.922 67.3644C75.278 66.8425 74.565 66.425 73.921 65.903C73.269 65.4448 72.794 64.7767 72.576 64.0103C72.357 63.244 72.408 62.4259 72.721 61.6927C72.956 61.0098 73.421 60.4298 74.037 60.0521C74.653 59.6744 75.38 59.5225 76.096 59.6224C78.323 59.779 80.55 60.0921 82.811 60.3357C82.811 60.2139 82.811 59.9008 82.655 59.8486C79.436 58.4567 76.218 57.0823 72.982 55.7601C72.367 55.4747 71.693 55.3376 71.016 55.3599C69.271 55.4535 67.547 54.9503 66.127 53.9333C63.308 52.1935 63.152 49.2881 65.692 47.0786C66.301 46.5392 66.945 46.0347 67.571 45.5127C67.436 44.9698 67.343 44.4172 67.292 43.86C67.173 43.0041 67.309 42.1319 67.685 41.3538C68.061 40.5757 68.66 39.9267 69.405 39.489C70.15 39.0512 71.008 38.8444 71.871 38.8946C72.734 38.9449 73.562 39.2501 74.252 39.7715C75.226 40.3728 76.162 41.0353 77.053 41.7548C77.905 42.4507 78.792 43.1814 80.062 44.3123C79.477 43.1916 79.319 41.8967 79.616 40.6679C79.914 39.4392 80.647 38.3603 81.68 37.6315C83.055 36.6225 84.221 37.3184 85.282 38.1013C88.883 36.4833 89.823 36.8312 91.11 40.9719C92.398 45.1126 93.528 49.1315 94.746 53.2722C94.746 53.2722 94.938 53.4114 95.059 53.4114C97.652 53.4114 99.444 52.6285 99.913 49.6186C100.14 48.1398 101.201 48.0528 102.749 48.6966C103.547 48.9772 104.268 49.4391 104.857 50.0459C105.446 50.6527 105.886 51.3879 106.142 52.1935C106.426 49.8533 106.201 47.4792 105.481 45.2344C104.937 43.4166 105.117 41.4588 105.985 39.7715C106.612 38.5014 107.447 37.3706 108.978 37.4402C110.509 37.5097 112.457 37.6141 113.484 39.4061C113.656 39.8179 113.854 40.2188 114.075 40.6066C114.632 41.3721 115.293 41.7374 116.146 40.9719C116.372 40.7631 116.65 40.624 116.859 40.4326C117.298 40.0146 117.867 39.7592 118.471 39.7086C119.076 39.658 119.679 39.8152 120.182 40.1542C120.746 40.4015 121.212 40.8302 121.505 41.3723C121.798 41.9144 121.902 42.5389 121.8 43.1466C121.396 45.1208 120.814 47.0542 120.06 48.9227C118.807 52.0543 117.329 55.099 115.989 58.1784C115.797 58.7908 115.663 59.4199 115.589 60.0573C115.993 59.8083 116.342 59.4792 116.614 59.0902C116.887 58.7013 117.076 58.2607 117.172 57.7956C117.624 56.6358 118.094 55.4759 118.581 54.3161C118.932 53.5645 119.452 52.9047 120.102 52.3884C120.751 51.8722 121.511 51.5136 122.322 51.341C123.16 51.284 124.002 51.3723 124.81 51.602C125.581 49.9747 125.934 48.1807 125.836 46.3826C125.766 45.5802 125.92 44.7739 126.282 44.0544C126.645 43.3349 127.2 42.7306 127.887 42.3095C128.574 41.8884 129.364 41.6672 130.17 41.6706C130.976 41.674 131.764 41.902 132.447 42.3289C132.987 41.546 133.561 40.7979 134.083 39.9976C134.953 38.6754 136.536 37.6141 137.336 38.0143C137.874 38.3565 138.316 38.8299 138.62 39.3899C138.924 39.9499 139.081 40.5781 139.076 41.2155C139.077 42.2624 138.966 43.3064 138.745 44.3297C138.745 45.043 138.502 45.7737 138.31 46.9046C139.785 46.1005 140.948 44.8268 141.616 43.2858C142.573 40.6588 144.539 38.7798 145.965 36.5181C146.059 36.3463 146.134 36.1656 146.192 35.9787C144.44 34.053 142.215 32.6194 139.737 31.8207C137.075 30.8464 134.274 30.22 131.647 29.1588C129.991 28.5029 128.469 27.5474 127.158 26.3403C124.81 24.0612 125.088 22.1301 127.68 20.1293C127.959 19.9205 128.272 19.7292 128.62 19.503C128.481 19.1202 128.463 18.7549 128.272 18.5983C127.728 18.0708 127.377 17.3756 127.276 16.6244C127.175 15.8733 127.33 15.1101 127.715 14.4576C127.835 13.933 128.074 13.4433 128.415 13.0269C128.756 12.6106 129.189 12.279 129.679 12.0581C130.17 11.8372 130.705 11.7331 131.243 11.754C131.78 11.7749 132.306 11.9202 132.778 12.1785C134.413 12.9788 136.258 13.4485 137.214 15.4145C137.528 16.0756 138.641 16.354 139.389 16.7889L139.772 16.5105C139.53 15.978 139.244 15.466 138.919 14.9795C137.475 13.2398 135.962 11.3956 134.553 9.55141C134.091 8.94028 133.796 8.22011 133.695 7.46098C133.594 6.70184 133.692 5.92959 133.978 5.21935C134.066 4.79189 134.259 4.39301 134.539 4.05875C134.82 3.72449 135.179 3.46537 135.585 3.30479C135.991 3.14422 136.43 3.08724 136.864 3.13902C137.297 3.1908 137.71 3.34969 138.067 3.60135C138.937 4.0363 139.807 4.50604 140.624 4.94099C140.624 4.94099 140.781 4.94099 140.972 4.94099C141.217 4.7047 141.428 4.43533 141.599 4.14069C141.799 3.45124 142.23 2.85108 142.818 2.43973C143.407 2.02837 144.118 1.83052 144.835 1.87897C145.513 1.89931 146.175 2.09819 146.752 2.45556C147.329 2.81292 147.802 3.31615 148.123 3.91451C149.488 5.71205 150.379 7.8239 150.715 10.056C151.051 11.6396 151.565 13.1803 152.246 14.649C152.44 13.4463 152.797 12.2756 153.307 11.1694C153.527 10.7464 153.869 10.3994 154.288 10.1739C154.708 9.94846 155.186 9.85498 155.66 9.90575C156.134 9.95651 156.581 10.1491 156.944 10.4584C157.306 10.7677 157.567 11.1793 157.692 11.6392C157.94 12.1022 158.091 12.6111 158.136 13.1346C158.181 13.6581 158.118 14.1852 157.953 14.6838C157.857 15.1119 157.816 15.5503 157.831 15.9886C158.039 16.121 158.268 16.2153 158.509 16.267C160.841 16.267 161.345 16.5975 161.38 18.8941C161.415 21.1906 161.136 23.3653 160.98 25.6096C160.958 25.91 160.842 26.1959 160.649 26.4273C158.475 28.1671 158.909 31.0377 157.866 33.2473C157.709 33.5604 158.005 34.2737 158.318 34.6217C159.038 35.3154 159.793 35.9716 160.58 36.5877C162.095 35.2554 163.026 33.3808 163.172 31.3683C163.311 29.5067 163.572 27.6452 163.868 25.801C164.184 22.5221 164.055 19.2156 163.485 15.9712C163.485 15.4667 162.859 15.0143 162.476 14.5968C161.847 13.9931 161.468 13.1755 161.413 12.3057C161.359 11.4358 161.632 10.5771 162.18 9.89937C162.426 9.51532 162.789 9.22121 163.215 9.06121C163.642 8.90122 164.109 8.88398 164.546 9.01208C164.78 9.14063 165.043 9.20867 165.309 9.21C165.576 9.21133 165.839 9.14591 166.074 9.0197C166.31 8.89348 166.509 8.71048 166.656 8.48734C166.802 8.26419 166.89 8.00799 166.912 7.74204C167.198 6.72431 167.711 5.7849 168.413 4.9951C169.116 4.20531 169.989 3.58587 170.966 3.1838C171.382 2.89007 171.865 2.70484 172.371 2.64489C172.877 2.58494 173.39 2.65217 173.863 2.84048C174.337 3.02879 174.756 3.33224 175.082 3.72332C175.409 4.11441 175.632 4.58078 175.733 5.08017C175.972 6.48175 176.054 7.90556 175.977 9.32524C175.977 11.413 175.82 13.5181 175.803 15.6059C175.843 16.3225 175.954 17.0334 176.133 17.7284L176.62 17.8676C177.021 17.4013 177.371 16.894 177.664 16.354C178.726 13.7965 179.804 11.2564 180.692 8.64673C181.201 7.00044 181.562 5.31193 181.77 3.60135C182.153 0.974279 184.015 0.121785 186.45 0C187.548 0.0688573 188.583 0.533577 189.364 1.30788C190.144 2.08219 190.617 3.11347 190.695 4.21028C190.695 4.64522 190.695 5.08017 190.835 5.82828C191.652 5.6021 192.348 5.44552 193.027 5.23675C193.601 5.06887 194.207 5.03737 194.795 5.14474C195.384 5.25211 195.939 5.49539 196.418 5.85523C196.896 6.21507 197.283 6.68153 197.549 7.21749C197.815 7.75345 197.953 8.34412 197.95 8.94249C197.932 10.1756 197.639 11.389 197.091 12.4939C196.543 13.5987 195.755 14.5669 194.784 15.3275C192.261 17.7806 189.738 20.2337 187.251 22.7216C186.849 23.2675 186.499 23.85 186.207 24.4614C187.459 24.1308 188.207 23.9046 188.973 23.7481C190.194 23.4167 191.439 23.1783 192.696 23.0347C193.757 22.9478 194.436 23.4871 194.61 24.7745C194.94 26.6535 195.097 28.3585 193.079 29.6111C193.531 29.9765 193.775 30.2374 194.071 30.4288C194.634 30.7936 195.089 31.3024 195.389 31.9026C195.689 32.5027 195.823 33.1722 195.777 33.8416C195.731 34.511 195.506 35.1558 195.126 35.709C194.747 36.2623 194.226 36.7038 193.618 36.9878C191.591 37.9894 189.385 38.5806 187.129 38.7276L173.924 39.5279C173.106 39.5279 172.288 39.8063 171.471 39.8063C170.15 39.8372 168.863 40.2363 167.757 40.9586C166.65 41.681 165.767 42.6978 165.208 43.8947C163.443 46.5678 161.055 48.7712 158.248 50.3146C156.824 51.0193 155.642 52.1342 154.856 53.5158L157.605 55.5339C157.617 56.3096 157.553 57.0846 157.413 57.8478C157.135 58.9091 156.996 60.0747 155.673 60.4401C155.273 60.5445 155.03 61.2578 154.403 62.1799C156.735 61.7797 158.283 62.1799 159.275 64.111L164.129 62.3713C164.6 62.2144 165.016 61.9236 165.325 61.5343C165.634 61.145 165.823 60.6741 165.869 60.1791C166.947 54.5248 169.627 49.4273 171.68 44.1383C172.162 43.1257 172.835 42.2159 173.663 41.4591C174.95 40.1194 175.733 40.2064 176.951 41.6504L177.49 42.2767C179.056 41.2329 180.744 40.2238 182.431 41.9288C183.562 43.0771 183.423 44.5037 182.518 46.1565C184.607 45.6185 186.574 44.6854 188.312 43.4076C190.527 41.8673 193.147 41.014 195.845 40.9545C196.071 40.9545 196.297 40.9545 196.506 40.9545C199.986 41.0415 200.543 41.546 200.943 45.2344C201.49 45.609 202.073 45.9295 202.682 46.1913C203.618 46.4967 204.43 47.0942 205 47.8961C205.57 48.6979 205.868 49.6615 205.849 50.6451C205.844 51.7518 205.454 52.8224 204.746 53.6731C204.038 54.5238 203.057 55.1017 201.969 55.3077C200.142 55.692 198.285 55.919 196.419 55.9862C193.65 55.9322 190.884 56.2303 188.19 56.8735C187.111 57.1962 186.072 57.6398 185.093 58.1958C185.433 58.5182 185.849 58.7506 186.301 58.8721C186.754 58.9936 187.23 59.0004 187.686 58.8917C188.598 58.6433 189.566 58.6952 190.446 59.0399C191.327 59.3846 192.073 60.0037 192.574 60.8055C193.583 62.3713 193.549 62.9628 191.948 63.7631C191.436 63.9755 190.913 64.1614 190.382 64.3198L190.713 65.4333C191.652 68.6693 189.791 71.0876 186.45 70.6526C184.224 70.3209 182.016 69.8679 179.839 69.2956C176.221 68.3124 172.515 67.6889 168.774 67.434C167.799 67.2666 166.797 67.3374 165.855 67.6403C164.913 67.9433 164.058 68.4693 163.363 69.1738C164.198 70.0089 165.103 69.574 166.06 69.487C168.061 69.2782 170.062 69.0868 172.062 68.965C172.585 68.9456 173.104 69.0531 173.576 69.2782C174.916 69.8697 175.664 71.4703 173.959 72.6012C173.593 72.8622 173.211 73.0709 172.863 73.2797C172.833 73.4466 172.833 73.6174 172.863 73.7842C173.698 76.6375 171.958 78.3425 168.583 77.8727C167.226 77.5217 165.795 77.5884 164.477 78.0641C164.905 78.4334 165.408 78.7056 165.952 78.8618C166.496 79.0179 167.067 79.0545 167.626 78.9688C169.94 79.0906 172.271 78.9688 174.585 79.1428C175.818 79.3701 176.998 79.8243 178.065 80.4824C179.369 81.1783 180.57 82.083 181.718 82.8485C185.33 80.9464 188.695 78.6093 191.739 75.8894C195.219 73.1753 198.524 70.2177 202.856 68.8085C203.35 68.5617 203.889 68.422 204.44 68.3984C204.991 68.3748 205.541 68.4679 206.054 68.6716C206.566 68.8753 207.03 69.1849 207.414 69.5803C207.799 69.9757 208.095 70.4478 208.285 70.9658C208.753 70.8271 209.229 70.7167 209.711 70.6352C210.956 70.4621 212.213 70.3923 213.469 70.4265C215.209 70.583 215.679 71.2094 215.992 72.7926C216.145 73.3768 216.084 73.9966 215.819 74.5393C215.554 75.082 215.103 75.5117 214.548 75.7502C212.582 77.0028 210.598 78.2207 208.633 79.4559C212.17 79.6814 215.722 79.3527 219.158 78.4817C224.022 77.4073 229.086 77.6779 233.807 79.2646C234.607 79.5603 235.373 79.8909 235.547 80.8652C235.551 81.3215 235.42 81.7688 235.169 82.1499C234.918 82.5311 234.559 82.8288 234.138 83.0051C233.25 83.5444 232.294 83.962 231.111 84.5535C231.667 85.319 232.102 85.9801 232.607 86.5891C234.103 88.3288 234.347 89.8076 233.546 91.2691C233.119 92.159 232.397 92.8738 231.503 93.2923C230.609 93.7108 229.597 93.8074 228.64 93.5656C224.569 92.6087 220.533 91.443 216.462 90.3992C213.591 89.6859 210.72 89.0595 207.763 88.381L207.606 88.8334L210.598 89.9816C211.721 90.3034 212.744 90.9023 213.574 91.7232C214.404 92.5441 215.014 93.5605 215.348 94.679C216.218 97.4975 214.757 99.1155 211.869 98.4544C211.016 98.263 210.129 97.915 209.294 97.6193C209.067 98.2108 208.911 98.6979 208.685 99.1677C208.514 99.7301 208.207 100.242 207.792 100.658C207.377 101.074 206.866 101.381 206.304 101.553C205.742 101.725 205.146 101.756 204.569 101.643C203.992 101.531 203.452 101.278 202.996 100.907C201.186 99.8553 199.443 98.6933 197.776 97.4279C195.661 95.8969 193.311 94.7215 190.817 93.9483C189.182 93.4264 187.651 92.6261 186.033 92.0346C183.875 91.2343 181.683 90.521 178.987 89.5989C179.665 90.8863 180.152 91.6692 180.518 92.4869C181.492 94.6442 181.057 95.8621 178.778 96.7842C177.598 97.2728 176.357 97.6005 175.089 97.7585C173.611 97.9324 172.097 97.8628 170.601 97.915C170.168 98.0018 169.743 98.124 169.331 98.2804C174.026 99.5189 178.571 101.269 182.884 103.5C185.763 104.834 188.136 107.061 189.651 109.85C190.09 110.798 190.304 111.833 190.278 112.877C190.278 113.921 189.234 114.617 187.773 114.617C186.442 114.527 185.118 114.364 183.806 114.13C183.61 115.204 183.499 116.292 183.475 117.383C183.475 118.218 183.649 119.123 182.971 119.68C182.33 120.512 181.546 121.225 180.657 121.785ZM-8.8057 141.932C-8.152 142.05 -7.48 142.017 -6.8408 141.836C-6.2017 141.655 -5.6122 141.331 -5.1173 140.888L2.9205 134.277C-0.280697 134.59 -6.7353 138.957 -8.8057 141.932ZM182.936 84.4143C181.927 85.0928 181.405 85.7192 181.683 86.9892C182.832 87.4067 183.962 87.8243 185.163 88.2071C190.396 89.8267 195.396 92.1192 200.038 95.027C201.395 95.9665 202.735 96.9234 204.161 97.7237C205.901 98.7153 206.371 98.4892 207.136 96.6102C207.745 95.1488 208.232 94.8704 209.729 95.288C210.303 95.4446 210.825 95.7925 211.468 95.8969C212.112 96.0013 212.982 96.0709 213.904 96.1753C213.884 95.3271 213.62 94.5026 213.145 93.7996C212.67 93.0965 212.004 92.5443 211.225 92.2086C209.972 91.6866 208.754 91.1125 207.519 90.608C207.049 90.5105 206.609 90.3026 206.235 90.0015C205.861 89.7004 205.564 89.3147 205.369 88.8762C205.173 88.4377 205.085 87.9591 205.111 87.4797C205.137 87.0004 205.277 86.5341 205.518 86.1193C206.58 86.2411 207.763 86.3107 208.893 86.5369C210.024 86.763 211.521 87.1806 212.825 87.5285C216.496 88.5028 220.167 89.5293 223.873 90.4514C225.613 90.8863 227.544 91.1125 229.371 91.443C230.397 91.6344 230.85 90.8863 231.371 90.2426C231.893 89.5989 231.667 88.8682 231.128 88.2418C230.589 87.6155 230.014 86.8326 229.51 86.0845C229.22 85.7869 229.012 85.4191 228.907 85.0171C228.802 84.6151 228.803 84.1927 228.91 83.7912C229.017 83.3897 229.226 83.0228 229.517 82.7265C229.808 82.4301 230.172 82.2144 230.571 82.1004L232.555 81.0565C231.919 80.7128 231.248 80.4386 230.554 80.2388C226.999 79.6942 223.385 79.6532 219.819 80.1171C217.679 80.378 215.539 80.813 213.4 81.0391C211.26 81.2653 209.52 81.2653 207.571 81.3523C207.099 81.437 206.611 81.3504 206.197 81.1081C205.782 80.8657 205.468 80.4835 205.31 80.0301C204.927 78.847 205.971 78.4991 206.719 78.0467C208.633 76.8811 210.581 75.7328 212.477 74.5671C212.967 74.3524 213.362 73.9688 213.592 73.4866C213.822 73.0043 213.871 72.4554 213.73 71.9401C212.721 72.0271 211.764 72.0445 210.859 72.201C209.955 72.3576 209.276 72.7404 208.476 72.897C208.043 73.0406 207.572 73.0187 207.155 72.8356C206.737 72.6524 206.402 72.321 206.214 71.9053C205.257 70.0785 205.24 70.1655 203.378 70.6526C199.255 71.8183 196.419 74.8281 192.94 77.2464C189.46 79.6647 186.328 82.1004 182.936 84.4143ZM167.034 62.5278C166.425 63.2933 165.19 63.5717 164.233 64.0415C163.109 64.6396 161.947 65.1626 160.754 65.6073C159.244 66.0768 157.89 66.9489 156.839 68.1299C156.283 68.9036 155.615 69.5897 154.856 70.1655C151.254 72.3054 147.601 74.3584 143.982 76.4461C143.735 76.606 143.503 76.7864 143.286 76.9854C144.527 76.6913 145.725 76.2411 146.853 75.6458C147.768 75.0468 148.805 74.6608 149.889 74.5163C150.973 74.3717 152.076 74.4724 153.116 74.8107C153.584 75.0022 154.109 75.0022 154.577 74.8107C157.761 73.0709 161.276 73.2797 164.668 72.8796C165.347 72.8796 166.043 72.7578 166.408 74.0278C162.65 75.1587 158.353 74.3062 155.343 76.5505C155.117 78.1685 154.943 79.3689 154.769 80.552L159.988 81.4567C161.885 81.5245 163.7 82.2503 165.121 83.5096C163.189 84.1012 161.641 83.2661 160.11 83.1443C158.579 83.0225 156.735 82.7615 155.239 82.5701C154.734 83.5444 154.403 84.3099 153.969 84.9537C152.733 86.8152 150.715 86.9892 148.749 87.1632C147.275 87.2498 145.829 87.6096 144.487 88.2244C145.043 89.4423 145.043 89.5293 145.757 89.5119C148.906 89.5119 152.09 89.7207 155.065 88.3636C155.625 88.0109 156.206 87.6914 156.804 87.4068C159.153 86.6412 161.484 85.8061 163.885 85.2668C166.213 84.7268 168.581 84.3834 170.966 84.2403C172.153 84.2066 173.32 84.5484 174.301 85.217C175.282 85.8855 176.027 86.8467 176.429 87.9635C176.979 87.8772 177.516 87.7254 178.03 87.5111C179.543 86.676 180.117 84.2403 178.934 83.3704C177.506 82.0373 175.664 81.233 173.715 81.0913C171.488 81.0913 169.261 81.0913 167.034 80.9695C166.097 81.0847 165.146 80.9257 164.297 80.512C163.448 80.0983 162.737 79.4475 162.25 78.6382C161.484 77.2116 161.745 76.4809 163.259 75.8546C164.913 75.34 166.677 75.2918 168.357 75.7154C168.814 75.8467 169.298 75.8548 169.759 75.7387C170.22 75.6226 170.643 75.3864 170.984 75.0543C170.653 74.08 170.34 73.1927 170.009 72.2706L171.575 70.931C171.296 70.8154 171.004 70.7337 170.705 70.6874C166.634 71.2094 162.58 71.7487 158.527 72.2532C157.431 72.3924 156.248 72.5838 155.708 71.0354C156.235 70.7796 156.732 70.4644 157.187 70.0959C159.507 67.5595 162.539 65.7827 165.886 64.9983C169.227 64.4843 172.642 64.7341 175.872 65.729C179.213 66.5467 182.588 67.2079 185.928 68.0256C187.285 68.3561 188.051 67.9038 188.364 67.1035C188.109 65.8927 187.935 64.6664 187.842 63.4325C187.842 62.0233 189.582 62.3887 190.539 61.2404C189.373 61.0316 188.538 60.8402 187.686 60.7533C186.833 60.6663 185.58 60.7533 184.571 60.5097C183.562 60.2661 182.188 59.257 182.188 58.4045C182.188 57.1867 182.971 56.5604 183.928 56.0558C185.951 55.0754 188.14 54.4852 190.382 54.3161C193.27 54.0029 196.193 53.8463 199.081 53.6897C199.834 53.6667 200.574 53.4932 201.258 53.1794C201.942 52.8657 202.557 52.4181 203.065 51.863C203.953 50.9409 204.074 50.2972 203.291 49.3055C202.758 48.6879 202.13 48.1593 201.43 47.7397C200.828 47.4255 200.206 47.1523 199.568 46.922C199.334 46.849 199.116 46.7299 198.928 46.5716C198.74 46.4133 198.586 46.2191 198.474 46.0003C198.362 45.7815 198.295 45.5425 198.277 45.2975C198.259 45.0524 198.289 44.8062 198.368 44.5733C198.428 44.2163 198.469 43.8561 198.49 43.4946C196.958 42.9586 195.308 42.8563 193.723 43.1988C190.685 43.8929 187.812 45.1755 185.267 46.9742C184.237 47.5785 183.147 48.0741 182.014 48.453C181.716 48.615 181.366 48.6529 181.04 48.5585C180.714 48.464 180.439 48.2448 180.274 47.9484C179.999 47.2892 179.903 46.569 179.996 45.8607C179.996 45.4084 180.657 45.043 180.831 44.5733C180.953 44.1081 181.006 43.6273 180.987 43.1466C180.446 43.0607 179.894 43.0607 179.352 43.1466C178.882 43.2858 178.552 43.8078 178.117 44.0861C176.76 44.9734 176.464 44.9038 175.403 43.5642C175.281 43.4076 175.055 43.3554 174.742 43.1988C174.253 43.7696 173.821 44.3873 173.454 45.043C172.393 47.3569 171.349 49.6708 170.444 52.0021C169.54 54.3335 168.704 57.0823 167.835 59.6398C167.487 60.5271 167.608 61.7971 167.034 62.5278ZM154.351 55.9688C154.247 55.9688 154.125 56.108 153.882 56.2646C154.229 56.6822 154.577 57.0997 155.082 57.6738C155.673 56.4734 155.169 56.1254 154.334 55.9688H154.351ZM144.121 61.4318C141.825 64.4764 139.685 67.6254 137.388 70.67C136.803 71.4443 136.07 72.0948 135.231 72.5838C134.674 72.812 134.049 72.812 133.491 72.5838C133.126 72.4098 132.917 71.6095 132.917 71.0876C132.935 70.4178 133.095 69.7594 133.387 69.1564C134.118 67.6254 134.935 66.1292 135.77 64.5634C135.457 63.9023 135.127 63.2064 134.831 62.5452C134.155 63.0639 133.439 63.5292 132.691 63.9371C131.769 64.372 131.23 63.5021 130.534 63.1194C130.119 62.8837 129.661 62.7358 129.187 62.6847C128.713 62.6336 128.233 62.6805 127.778 62.8224C127.323 62.9643 126.902 63.1983 126.541 63.5098C126.18 63.8212 125.887 64.2035 125.68 64.633C125.308 65.3691 124.833 66.0486 124.27 66.6511C123.92 66.984 123.667 67.4061 123.538 67.872C123.409 68.3379 123.41 68.83 123.54 69.2956C123.971 71.9777 123.513 74.7274 122.235 77.1246C120.358 80.8539 117.193 83.7772 113.327 85.3538C111.602 86.0907 109.814 86.6729 107.986 87.0936C106.472 87.4415 104.889 87.372 103.358 87.6329C102.513 87.9279 101.706 88.3252 100.957 88.816C101.529 88.9523 102.111 89.0396 102.697 89.0769C104.767 88.816 106.855 88.5724 108.908 88.1723C110.491 87.8591 112.022 87.1458 113.606 86.9196C115.537 86.6238 117.52 86.7108 118.547 84.6057C118.633 84.4491 118.947 84.4143 119.138 84.2925C121.261 82.9529 123.418 81.6307 125.506 80.2388C125.909 79.9306 126.197 79.4955 126.323 79.0036C127.367 75.4958 128.027 71.8848 128.289 68.2343C128.289 68.0778 128.568 67.9386 128.742 67.7646C128.968 67.8864 129.281 67.9386 129.316 68.0777C130.273 71.4703 128.95 74.6715 128.411 78.1511C131.513 77.1665 134.4 75.602 136.919 73.5407C140.224 70.4787 144.034 67.9734 146.644 64.1806C146.902 63.8764 147.187 63.5968 147.497 63.3455C147.775 63.5195 147.984 63.5717 148.018 63.6587C148.158 64.1458 148.262 64.6504 148.366 65.1201C150.385 65.6247 150.385 65.6246 150.419 66.9991L149.115 66.8773C148.595 66.8079 148.072 66.773 147.549 66.7729C147.266 66.7657 146.984 66.8162 146.721 66.9212C146.459 67.0262 146.22 67.1836 146.02 67.3837C145.819 67.5839 145.662 67.8227 145.557 68.0855C145.452 68.3484 145.402 68.6299 145.409 68.9128C145.536 69.4612 145.753 69.9845 146.052 70.4613L144.504 70.9136C143.784 71.006 143.084 71.2177 142.434 71.5399C140.572 72.9143 138.85 74.4628 137.006 75.872C136.042 76.5836 135.03 77.2288 133.978 77.8031C132.917 78.4295 131.821 79.0036 130.725 79.5429C131.966 79.9818 133.258 80.2567 134.57 80.3606C135.753 80.5172 136.919 80.7956 138.049 81.0217C138.838 81.217 139.641 81.345 140.45 81.4045C142.469 81.4045 144.487 81.2827 146.505 81.4045C146.737 81.4477 146.953 81.5507 147.133 81.7033C147.313 81.8558 147.451 82.0527 147.531 82.2744C147.531 82.9703 147.114 83.3009 146.366 83.2313C144.869 83.0921 143.391 82.9703 141.894 82.8659L137.632 82.6397C135.161 82.518 132.708 82.344 130.238 82.3266C129.107 82.3266 127.941 83.1095 126.897 81.996C126.758 81.8568 126.115 81.996 125.871 82.1874C124.462 83.3183 123.122 84.5187 121.487 85.9279C126.115 85.9279 130.342 85.9279 134.57 85.9279C137.197 85.9279 139.789 85.9279 142.434 85.6496C145.078 85.3712 147.653 84.9363 150.332 84.5535C150.774 84.5427 151.204 84.4015 151.566 84.1477C151.928 83.8939 152.207 83.5388 152.368 83.1269L151.063 80.6738C151.55 80.2736 151.898 80.0127 152.211 79.7169C152.536 79.5207 152.775 79.2098 152.881 78.8458C152.988 78.4817 152.953 78.091 152.785 77.7509C152.627 77.4046 152.358 77.12 152.022 76.9408C151.686 76.7617 151.3 76.6979 150.924 76.7593C150.038 76.8913 149.172 77.1369 148.349 77.49C146.4 78.2729 144.452 79.0906 142.556 79.9953C142.124 80.2268 141.623 80.2962 141.144 80.1909C140.666 80.0856 140.241 79.8126 139.946 79.4211C139.761 79.2504 139.616 79.0416 139.519 78.8092C139.423 78.5767 139.378 78.3262 139.388 78.0748C139.398 77.8235 139.462 77.5772 139.577 77.3531C139.691 77.129 139.853 76.9323 140.05 76.7767C140.965 75.8987 141.968 75.1174 143.043 74.4454C144.174 73.732 145.444 73.2275 146.522 72.549C148.784 71.2268 151.046 69.9219 153.22 68.4779C154.693 67.5973 155.822 66.2412 156.422 64.633C152.942 64.633 152.072 63.5195 152.785 60.4749V60.2661C153.412 57.7086 152.368 56.6126 149.863 57.2911C147.537 57.9937 145.511 59.4505 144.104 61.4318H144.121ZM125.366 97.5323C126.189 97.7498 126.947 98.1599 127.579 98.7287C128.212 99.2974 128.7 100.008 129.003 100.803L130.186 97.1843C127.646 95.8447 126.323 94.5921 129.246 91.965C129.977 91.3213 130.986 90.8515 131.125 89.6511C126.567 88.1201 113.727 89.2683 106.96 91.7736C106.96 92.6609 107.099 93.3916 108.351 93.2002C109.023 93.1391 109.698 93.1391 110.37 93.2002C111.046 93.1258 111.729 93.2654 112.322 93.5993C112.915 93.9333 113.388 94.4448 113.675 95.0618C113.849 95.7823 113.795 96.539 113.521 97.2276C113.246 97.9162 112.766 98.5028 112.144 98.9067L106.472 102.821L106.577 103.326C107.06 103.446 107.56 103.481 108.056 103.43C111.268 102.781 114.342 101.574 117.137 99.8636C118.308 99.2119 119.516 98.631 120.756 98.1238C122.18 97.4041 123.807 97.1952 125.366 97.5323ZM100.557 89.912L100.331 89.5641L94.242 91.704L95.547 93.7396L100.557 89.912ZM111.953 75.7328C114.091 76.3259 116.342 76.3916 118.512 75.9242C117.489 75.4461 116.38 75.1825 115.252 75.1496C114.124 75.1167 113.001 75.3152 111.953 75.7328ZM119.573 73.993C119.573 72.8448 119.695 71.9749 119.782 70.6526L115.885 73.0709L115.989 73.4711L119.573 73.993ZM105.968 78.9514C107.847 81.3175 107.847 81.3175 107.708 84.049C111.292 83.1269 115.206 80.291 116.215 77.9423H115.311C113.862 78.0381 112.409 78.0381 110.961 77.9423C109.231 77.7193 107.476 78.0741 105.968 78.9514ZM138.015 63.0498C137.901 63.1389 137.81 63.2525 137.746 63.382C137.683 63.5116 137.65 63.6537 137.649 63.7979C137.823 65.7116 136.501 66.9469 135.666 68.4083C135.529 68.7308 135.435 69.0701 135.388 69.4174L135.718 69.5914L141.686 61.4492L141.338 61.1012C140.224 61.7101 139.093 62.3539 138.015 63.0498ZM150.993 53.133C150.193 53.7071 149.254 53.9507 149.515 55.0294C151.376 54.751 151.376 54.751 150.993 53.133ZM143.53 55.3425C141.146 57.2389 139.128 58.8221 137.127 60.4749C137.006 60.5793 137.006 60.875 136.901 61.2926C138.918 60.4322 140.785 59.2578 142.434 57.813C142.956 57.4129 143.06 56.4386 143.53 55.3425ZM164.407 35.9439C162.963 37.9447 161.31 39.7889 159.814 41.7548C158.909 42.9727 158.074 44.2601 157.257 45.5127H157.152C156.178 45.043 155.5 45.6345 154.821 46.2261C154.142 46.8176 153.36 47.2873 152.577 46.3131C152.716 45.6519 152.872 45.0256 153.012 44.3993L152.577 44.2079C150.89 47.2685 148.634 49.9789 145.931 52.1935C145.327 52.8995 144.786 53.6562 144.313 54.4552C144.434 54.577 144.539 54.6988 144.661 54.8032C146.481 54.0453 148.199 53.0635 149.776 51.8804C151.515 50.6277 153.255 49.3577 154.995 48.1398C155.969 47.4787 156.926 46.835 157.065 45.5301V45.4432C157.682 45.1685 158.266 44.8241 158.805 44.4167C161.119 42.4159 163.311 40.276 165.642 38.31C166.421 37.6232 167.371 37.1602 168.391 36.9704C170.701 36.5801 173.045 36.4343 175.385 36.5355C180.246 36.6593 185.108 36.2921 189.895 35.4394C190.773 35.3318 191.602 34.9747 192.284 34.4104C192.965 33.8461 193.47 33.0983 193.74 32.2556C193.114 31.9076 192.557 31.6989 192.087 31.3683C191.746 31.2229 191.453 30.9857 191.239 30.6831C191.025 30.3805 190.899 30.0245 190.876 29.6547C190.852 29.2849 190.932 28.9158 191.106 28.5887C191.28 28.2615 191.541 27.9891 191.861 27.8017C192.066 27.6713 192.241 27.4996 192.375 27.2974C192.51 27.0953 192.6 26.8673 192.641 26.628C192.682 26.3888 192.672 26.1437 192.613 25.9083C192.554 25.673 192.446 25.4527 192.296 25.2617C191.113 25.54 189.912 25.8532 188.677 26.1316C188.03 26.3057 187.374 26.4451 186.711 26.5491C186.285 26.6481 185.84 26.6205 185.429 26.4697C185.019 26.3189 184.662 26.0516 184.401 25.7005C184.141 25.3494 183.988 24.9298 183.963 24.4933C183.937 24.0569 184.04 23.6225 184.258 23.2435C184.755 22.1567 185.425 21.1578 186.241 20.2859C187.633 18.8419 189.269 17.624 190.713 16.2148C192.218 14.7763 193.641 13.2545 194.975 11.6566C195.516 10.9467 195.837 10.0938 195.897 9.20346C195.958 8.86783 195.936 8.52239 195.832 8.19738C195.729 7.87236 195.547 7.57766 195.303 7.33905C195.06 7.10044 194.761 6.92519 194.434 6.82864C194.107 6.73208 193.761 6.71715 193.427 6.78516C192.757 6.86822 192.094 7.00199 191.443 7.18531C189.617 7.53326 189.147 7.18531 188.729 5.30634C188.549 4.51112 188.274 3.7402 187.912 3.00983C187.722 2.69993 187.425 2.47078 187.077 2.36611C186.379 2.29937 185.679 2.46204 185.082 2.82942C184.486 3.1968 184.025 3.74881 183.771 4.40165C183.284 6.14144 182.971 7.75944 182.397 9.36004C181.457 11.9697 180.378 14.5794 179.335 17.1021C179.091 17.7171 178.776 18.3011 178.395 18.8419C178.21 19.2193 177.915 19.5325 177.55 19.7412C177.185 19.9498 176.766 20.0443 176.346 20.0125C175.927 19.9806 175.527 19.824 175.197 19.5626C174.868 19.3012 174.624 18.9472 174.498 18.5461C174.208 18.0095 174.042 17.4152 174.011 16.8063C174.011 14.649 174.011 12.4916 174.011 10.3343C174.107 8.91511 174.107 7.49106 174.011 6.07185C173.837 4.8018 172.984 4.45385 171.871 5.11497C171.142 5.476 170.493 5.97901 169.961 6.59446C169.429 7.20991 169.026 7.9254 168.774 8.69892C168.712 9.14777 168.558 9.57907 168.323 9.96605C168.087 10.353 167.774 10.6874 167.404 10.9485C167.034 11.2095 166.614 11.3916 166.17 11.4835C165.726 11.5754 165.268 11.5751 164.825 11.4826C165.079 13.2172 165.553 14.9126 166.234 16.5279C166.631 17.8113 166.876 19.1368 166.965 20.4773C166.965 23.1565 166.826 25.8532 166.721 28.5499C166.705 31.1877 165.906 33.7613 164.425 35.9439H164.407ZM156.978 36.2397C155.5 37.6489 155.882 39.4931 155.83 41.2851C156.909 40.1194 158.77 39.7541 159.083 37.9099L156.978 36.2397ZM152.681 41.9462C152.683 42.2162 152.718 42.4851 152.785 42.7465H153.238C153.447 41.8592 153.673 41.0067 153.882 40.0846C154.195 38.7798 154.438 37.4576 154.786 36.1701C155.134 34.8827 155.552 33.7344 155.969 32.534C156.438 30.6551 157.115 28.8344 157.987 27.1058C159.727 24.2352 159.344 21.2776 159.24 18.2155L157.9 18.0242C156.161 17.7806 155.604 17.1021 155.847 15.3449C155.917 14.8966 156.022 14.4544 156.161 14.0227C156.279 13.595 156.267 13.1421 156.128 12.7209C155.988 12.2998 155.727 11.9294 155.378 11.6566C154.142 12.683 154.125 12.6656 154.055 13.6225C153.986 14.5794 154.055 15.1361 154.055 15.8842C154.101 16.4024 154.036 16.9242 153.864 17.4152C153.571 17.9844 153.101 18.4425 152.524 18.7201C152.155 18.8098 151.766 18.7506 151.44 18.5552C151.115 18.3598 150.879 18.044 150.785 17.6762C150.633 17.3295 150.5 16.9753 150.385 16.6149C150.12 15.2926 149.783 13.9858 149.375 12.7004C148.384 10.0386 147.288 7.48107 146.122 4.8192C145.618 3.67094 144.956 3.58395 144.034 4.41905C143.511 4.9399 143.055 5.52439 142.677 6.15884C142.525 6.52656 142.288 6.85311 141.986 7.1118C141.684 7.37049 141.324 7.55398 140.938 7.6473C140.551 7.74061 140.147 7.74109 139.76 7.6487C139.373 7.55632 139.014 7.37368 138.711 7.11572C138.049 6.73296 137.354 6.4372 136.64 6.07185C135.84 8.0378 137.197 8.8729 137.98 9.88197C138.989 11.1694 140.242 12.2829 141.251 13.5703C142.625 15.3101 143.304 17.9546 140.694 19.6596C139.963 19.2594 139.215 18.9289 138.519 18.4939C136.779 17.3978 135.04 16.2496 133.3 15.1709C132.395 14.6316 131.299 14.0227 130.481 15.1709C129.664 16.3192 130.621 16.9107 131.212 17.7284C132.186 19.068 132.047 19.8857 130.847 21.0514C130.473 21.4223 130.078 21.7709 129.664 22.0953C128.341 23.1217 128.272 24.1134 129.664 25.0181C130.798 25.7254 132.006 26.3087 133.265 26.7579C136.049 27.8365 139.024 28.3237 141.842 29.3502C144.204 30.1998 146.4 31.4537 148.332 33.0559C151.15 35.3698 153.116 38.1013 152.698 41.9462H152.681ZM128.759 51.254C128.759 52.6807 128.289 53.8985 126.706 54.1421C126.706 55.2033 126.706 56.0732 126.602 57.0649C128.341 57.3433 128.62 58.5959 128.428 60.2661C130.822 58.0901 132.353 55.1262 132.743 51.9152C132.743 50.0884 132.969 48.279 133.108 46.4522H133.752C135.266 50.3841 134.187 54.1943 132.761 58.074C133.484 57.812 134.165 57.4425 134.779 56.9779C139.098 53.814 143.17 50.3243 146.957 46.5392C147.962 45.5522 148.58 44.2372 148.697 42.8335C148.861 42.1003 148.875 41.3414 148.738 40.6027C148.6 39.8641 148.314 39.161 147.897 38.5362C146.55 39.2324 145.482 40.3681 144.869 41.7548C144.104 43.2162 143.53 44.7646 142.712 46.1913C141.88 47.7045 140.901 49.1322 139.789 50.4537C139.006 51.3584 138.189 51.1844 137.232 50.4537C136.827 50.1113 136.525 49.6634 136.359 49.1598C136.193 48.6562 136.17 48.1165 136.292 47.6005C136.518 45.9825 136.779 44.3471 136.971 42.7117C136.971 41.9288 137.18 41.0589 136.101 40.6414L133.874 44.3645C132.778 46.1043 132.012 46.1043 130.829 44.3645C130.633 44.1328 130.424 43.912 130.203 43.7034C129.339 45.014 128.884 46.5525 128.898 48.1224C128.759 49.1489 128.759 50.1928 128.759 51.254ZM101.723 52.3327C100.836 55.6557 100.627 55.8123 97.286 55.6209C97.165 55.6209 97.043 55.7427 96.747 55.8993C97.043 57.0475 95.825 58.0566 96.556 59.3788C98.709 63.8073 99.155 68.8738 97.808 73.6103C97.808 74.0278 97.808 74.4628 97.686 74.7237L102.906 76.2721C103.915 75.8372 105.429 75.2109 106.907 74.5323C109.343 73.4015 111.761 72.2184 114.18 71.0528C116.225 70.2647 118.025 68.9503 119.399 67.2427C120.101 66.3904 120.907 65.6304 121.8 64.9809C122.287 64.5982 123.174 64.5634 123.54 64.0936C124.444 62.667 125.158 61.1012 125.958 59.5702C125.771 59.283 125.542 59.025 125.279 58.8047C124.759 58.492 124.36 58.0118 124.149 57.4429C123.937 56.8739 123.925 56.2499 124.114 55.6731C124.288 55.0642 123.679 54.2465 123.453 53.5853C121.278 53.7767 120.704 55.2207 120.078 56.717C119.452 58.313 118.707 59.86 117.851 61.3448C117.692 61.6926 117.44 61.9898 117.123 62.2033C116.806 62.4169 116.436 62.5385 116.054 62.5547C115.673 62.5709 115.294 62.4811 114.96 62.2952C114.626 62.1093 114.35 61.8345 114.162 61.5014C113.806 61.107 113.57 60.6195 113.481 60.0958C113.391 59.5721 113.453 59.0338 113.658 58.5437C114.441 56.5256 115.397 54.5422 116.146 52.5241C117.363 49.4621 118.547 46.4174 119.625 43.338C119.661 43.1652 119.654 42.9864 119.605 42.8168C119.557 42.6472 119.468 42.4918 119.347 42.3637C119.191 42.2794 119.019 42.2281 118.843 42.2131C118.666 42.1981 118.488 42.2198 118.32 42.2767C117.985 42.4358 117.669 42.6344 117.381 42.8683C114.98 44.3819 113.901 44.1383 112.161 41.7374C111.953 41.4417 111.814 41.0763 111.605 40.7631C111.471 40.5059 111.275 40.2862 111.034 40.1241C110.794 39.962 110.516 39.8626 110.228 39.8349C109.939 39.8073 109.648 39.8522 109.381 39.9657C109.114 40.0792 108.88 40.2576 108.699 40.4848C108.256 41.0255 107.95 41.6655 107.807 42.3503C107.665 43.035 107.69 43.744 107.882 44.4167C108.56 48.0876 108.978 51.8108 109.413 55.5339C109.436 56.3572 109.33 57.1791 109.099 57.9696C108.957 58.4623 108.711 58.9188 108.378 59.3083C108.044 59.6977 107.631 60.0111 107.166 60.2271C106.701 60.4432 106.195 60.5569 105.682 60.5606C105.169 60.5643 104.661 60.458 104.193 60.2487C102.906 59.6224 103.149 58.3698 102.749 57.2911C104.489 57.2911 104.089 55.9341 104.193 54.9598C104.385 53.4114 104.646 51.7934 102.749 50.7321C102.454 50.9931 102.227 51.1149 102.14 51.2888C101.948 51.617 101.796 51.9676 101.688 52.3327H101.723ZM87.718 85.2494C90.81 82.7527 93.282 79.5725 94.938 75.959C95.645 74.3889 96.091 72.7142 96.26 71.0006C96.72 67.0261 95.968 63.0055 94.103 59.4658C93.881 58.9885 93.717 58.4861 93.615 57.9696C93.215 56.369 92.85 54.7858 92.45 53.1852C92.293 52.5415 92.102 51.8978 91.91 51.2366C90.971 47.9311 90.049 44.6081 89.075 41.3025C88.792 40.6256 88.442 39.9787 88.031 39.3713C86.291 39.928 84.69 41.3721 83.124 39.3713C81.089 40.9893 80.915 42.1202 82.342 43.6338C83.159 44.4863 84.081 45.1996 84.986 46.0521C85.305 46.3499 85.508 46.751 85.559 47.1842C85.61 47.6173 85.505 48.0546 85.264 48.4182C85.052 48.8712 84.673 49.2251 84.207 49.4065C83.74 49.5879 83.222 49.5828 82.759 49.3925C82.106 49.0879 81.515 48.6629 81.019 48.1398C78.735 45.6695 76.237 43.4049 73.556 41.3721C73.104 41.0477 72.575 40.8494 72.021 40.7974C71.468 40.7454 70.911 40.8417 70.407 41.0763C70.007 41.4718 69.728 41.9738 69.605 42.5227C69.482 43.0717 69.518 43.6444 69.711 44.1731C70.511 46.7654 70.476 46.922 68.302 48.6966C67.397 49.4447 66.91 50.245 67.397 51.1844L69.954 52.1935C70.335 52.4056 70.737 52.5748 71.155 52.6981C74.711 53.252 78.162 54.3493 81.385 55.9515C82.683 56.5406 83.899 57.2949 85.003 58.1958C86.291 59.2396 86.343 60.1965 85.595 61.8145C85.412 62.4465 84.99 62.9822 84.418 63.3072C83.846 63.6322 83.169 63.7209 82.533 63.5543C80.793 63.2933 79.053 62.8932 77.227 62.5974C76.566 62.5508 75.904 62.5508 75.243 62.5974C78.949 64.7548 80.097 67.4862 79.227 71.0876C78.984 72.114 79.541 72.6012 80.532 72.8274C81.397 72.8974 82.234 73.1624 82.981 73.6023C83.728 74.0422 84.366 74.6457 84.847 75.3674C86.428 77.4653 87.3 80.0128 87.335 82.6397C87.368 83.5209 87.496 84.3959 87.718 85.2494ZM59.3939 100.072C61.775 99.2175 64.099 98.2122 66.353 97.0626C70.128 95.114 73.817 92.9915 78.253 92.8001C78.897 92.8001 79.697 91.8084 79.993 91.0603C80.289 90.3122 79.61 89.7903 79.001 89.3205C77 87.7721 76.948 87.0936 78.514 85.1102C78.604 84.9514 78.675 84.7819 78.723 84.6057C77.366 83.9098 76.566 84.7449 75.643 85.3886C74.428 86.2457 73.155 87.0188 71.833 87.7025C71.463 87.8716 71.049 87.9206 70.65 87.8426C70.251 87.7646 69.886 87.5635 69.606 87.2676C69.314 86.9156 69.132 86.4855 69.083 86.0307C69.033 85.5759 69.118 85.1167 69.328 84.7101C69.578 84.2555 69.851 83.8142 70.146 83.3878C70.895 82.1898 71.558 80.9398 72.129 79.6473C72.604 78.2247 72.982 76.7715 73.26 75.2978C74.078 71.8183 73.677 71.4007 70.128 71.3659C68.389 71.3659 67.832 70.844 67.64 69.1738C67.64 69.0172 67.64 68.878 67.64 68.7215C67.466 67.3644 66.736 66.5989 65.727 66.7033C65.406 66.7201 65.092 66.8072 64.809 66.9586C64.525 67.1099 64.279 67.3217 64.086 67.579C63.893 67.8363 63.76 68.1328 63.695 68.4475C63.629 68.7622 63.634 69.0873 63.709 69.4C64.079 71.0035 64.561 72.5791 65.153 74.1148C66.192 76.7941 66.32 79.741 65.518 82.5006C65.335 83.1606 64.981 83.7607 64.491 84.2403C63.03 85.7018 61.499 85.319 61.012 83.3183C60.751 82.2396 60.733 81.1087 60.542 79.9953C60.403 79.2472 60.159 78.5165 59.794 77.1942C58.9241 78.2207 58.3674 78.7774 57.9498 79.3863C56.5754 81.4045 56.5058 81.4219 54.4703 80.0127C53.322 79.2124 52.5913 79.3342 51.8432 80.4476C51.5325 80.8316 51.3629 81.3107 51.3629 81.8046C51.3629 82.2986 51.5325 82.7777 51.8432 83.1617C52.2155 83.6324 52.6164 84.0798 53.0436 84.5013C53.7008 85.1234 54.2011 85.8923 54.5035 86.7452C54.806 87.598 54.9019 88.5104 54.7834 89.4075C54.5399 91.1473 54.2267 92.8871 53.9657 94.6269C53.6578 96.5751 52.6618 98.3485 51.1584 99.6253C49.655 100.902 47.7437 101.598 45.7713 101.586C42.861 101.6 39.9757 102.124 37.2464 103.134C32.5664 104.718 27.9038 106.405 23.3281 108.162C18.9961 109.902 14.6292 111.642 10.4015 113.382C5.9241 115.098 1.5601 117.097 -2.6642 119.367C-4.5954 120.497 -6.6657 121.402 -8.5447 122.637C-12.233 125.038 -15.8518 127.561 -19.4532 130.084C-20.4796 130.797 -21.3669 131.667 -22.3238 132.467L-21.9236 133.059C-21.6142 133.028 -21.3134 132.939 -21.0364 132.798C-20.6203 132.404 -20.1786 132.037 -19.7141 131.702C-18.1483 130.901 -16.4955 130.24 -14.9123 129.423C-12.1287 127.961 -9.3798 126.413 -6.6135 124.916L3.7034 119.454C5.8955 118.305 8.1398 117.244 10.2972 115.974C15.6076 112.872 21.1648 110.213 26.9121 108.023C29.0823 107.164 31.2946 106.414 33.5407 105.779C37.0202 104.926 40.3954 104.248 43.875 103.656C46.1367 103.256 48.5028 103.343 50.7123 102.804C53.6567 102.062 56.5554 101.15 59.3939 100.072ZM81.402 93.6874C80.942 93.8859 80.509 94.1432 80.115 94.4529C82.289 95.5837 84.29 93.6004 86.187 94.7138C86.291 94.7138 86.621 94.3659 86.9 94.2615C89.283 93.322 90.884 94.2615 90.553 96.6102C91.234 96.8055 91.961 96.7619 92.613 96.4864C93.265 96.211 93.803 95.7205 94.137 95.0966C93.424 93.6526 91.823 92.7479 92.015 90.6601C92.989 90.1208 94.05 89.4597 95.199 88.9204C97.321 87.9635 99.879 87.8069 101.218 85.4408C101.357 85.1972 101.897 85.2146 102.193 85.0406C103.238 84.5173 104.234 83.9001 105.168 83.1965C105.375 82.9621 105.527 82.6839 105.611 82.3825C105.695 82.0812 105.71 81.7646 105.655 81.4567C105.446 80.6738 104.646 80.7782 103.915 80.9348C103.344 81.0686 102.761 81.1444 102.175 81.1609C100.14 81.1609 99.687 80.5172 100.435 78.5338C100.497 78.2758 100.544 78.0144 100.575 77.7509C97.721 76.8463 96.643 77.2812 95.077 79.7865C93.993 81.8856 92.496 83.7438 90.675 85.2494C88.466 86.7978 86.169 88.2244 83.89 89.6337C83.125 90.1034 82.307 90.434 82.655 91.6866C84.587 91.0278 86.363 89.9797 87.874 88.6072C89.93 86.8845 92.29 85.5627 94.833 84.7101C96.225 84.2925 97.565 83.6662 98.974 83.1095C100.105 84.1012 100.087 84.9885 98.87 85.5104C98.512 85.6207 98.145 85.6964 97.773 85.7366C94.926 86.3801 92.227 87.5611 89.823 89.2161C87.299 91.1881 84.449 92.7015 81.402 93.6874ZM85.525 98.9067C85.525 98.1064 85.525 97.3061 85.438 96.3318C85.291 96.2893 85.139 96.2602 84.986 96.2449C81.263 96.2449 77.54 96.1057 73.834 96.1231C72.944 96.1802 72.071 96.3983 71.259 96.7668C69.606 97.4279 67.867 98.2978 66.127 99.1677C65.693 99.4096 65.285 99.6953 64.909 100.02C66.874 99.897 68.818 99.5467 70.702 98.9763C73.155 98.3302 75.749 98.4763 78.114 99.3939C80.126 99.9362 82.18 100.303 84.255 100.49C85.421 100.577 85.647 100.159 85.525 98.9241V98.9067ZM88.379 101.342C92.572 101.673 93.998 100.907 93.842 98.3326L88.622 98.5588C88.518 99.4809 88.448 100.42 88.379 101.36V101.342ZM88.379 104.283C88.379 104.091 88.292 103.917 88.257 103.726L71.346 106.266L74.408 108.563C76.566 107.867 78.966 107.084 81.246 106.127C83.525 105.17 86.169 105.448 88.379 104.387V104.283ZM39.4733 116.566C44.1012 115.626 48.6594 114.356 53.235 113.208C53.9618 113.02 54.6673 112.758 55.3402 112.425C57.2887 111.468 59.2373 110.459 61.168 109.45C61.578 109.19 61.962 108.893 62.317 108.563L62.108 108.145C46.4499 110.946 31.1398 114.948 17.0997 123.055C17.3018 123.082 17.5065 123.082 17.7086 123.055C18.6481 122.777 19.5876 122.533 20.5097 122.185C26.6676 119.799 33.0099 117.92 39.4733 116.566ZM73.782 113.312C74.182 113.312 74.6 113.121 75 113.034C74.44 112.642 73.769 112.441 73.086 112.46C71.346 112.46 71.033 111.99 71.346 110.25C71.346 109.885 71.503 109.537 71.625 109.032C70.845 108.645 69.993 108.426 69.124 108.39C68.255 108.354 67.388 108.502 66.579 108.823C64.839 109.467 63.221 110.459 61.516 111.242C58.9868 112.537 56.391 113.698 53.7396 114.721C51.7214 115.435 49.4423 115.417 47.3893 116.044C43.6662 117.174 39.7343 117.609 36.2547 119.523C35.8525 119.661 35.4234 119.703 35.0021 119.645C34.1428 119.573 33.2779 119.608 32.4272 119.749C29.7479 120.55 27.2079 121.489 24.5112 122.359C19.1701 124.099 13.8115 125.839 8.54 127.683C5.2344 128.866 2.0332 130.362 -1.2028 131.736C-7.8755 134.437 -14.6946 136.76 -21.6279 138.696C-25.351 139.792 -29.1611 140.679 -32.9191 141.671C-34.6589 142.123 -35.32 142.958 -35.6853 145.15C-33.4236 144.68 -31.2489 144.159 -29.0394 143.776C-20.6536 142.28 -13.1377 138.556 -5.5175 134.938C-0.976601 132.815 3.7382 131.041 8.4008 129.162C9.3577 128.779 10.4189 128.64 11.3932 128.274C13.9333 127.196 16.5604 126.169 19.1527 125.264C19.5661 125.082 19.9902 124.925 20.4227 124.795C22.6148 124.151 24.807 123.455 27.0165 122.881C30.9136 121.785 34.8107 120.724 38.7774 120.045C40.7652 119.723 42.7919 119.723 44.7797 120.045C46.0085 120.39 47.1806 120.911 48.2592 121.594L58.9067 126.413C60.899 127.302 62.679 128.607 64.126 130.24C65.379 131.632 66.666 132.989 67.936 134.346L71.416 137.93C71.799 137.269 72.059 136.921 72.251 136.538C73.399 134.207 74.252 133.963 76.444 135.32C77.035 135.686 77.696 135.947 78.375 136.277C79.036 135.059 79.071 134.172 78.184 133.407C77.296 132.641 76.305 131.667 75.278 131.023C73.643 129.84 71.92 128.796 70.268 127.544C69.901 127.281 69.637 126.899 69.521 126.463C69.405 126.027 69.443 125.564 69.63 125.154C69.817 124.743 70.14 124.41 70.545 124.211C70.95 124.013 71.412 123.961 71.851 124.064C73.475 124.326 75.079 124.698 76.653 125.177C79.384 126.204 81.994 127.526 84.708 128.657C86.621 129.44 88.587 130.084 90.345 130.71C91.545 129.962 91.754 129.196 91.301 128.222L90.466 126.482C89.51 124.412 90.153 123.368 92.467 123.159L93.807 123.02C93.742 122.548 93.544 122.104 93.236 121.74C92.928 121.377 92.522 121.108 92.067 120.967C90.895 120.494 89.684 120.121 88.448 119.854C84.822 119.364 81.157 119.23 77.505 119.454C75.857 119.611 74.196 119.36 72.668 118.723C72.255 118.549 71.904 118.252 71.665 117.872C71.425 117.493 71.308 117.049 71.329 116.6C71.258 115.846 71.47 115.092 71.923 114.485C72.376 113.877 73.039 113.46 73.782 113.312ZM105.655 123.751L102.471 122.011C101.827 123.542 101.288 124.864 100.731 126.413C102.958 126.326 103.619 124.325 105.655 123.733V123.751ZM113.014 113.312L113.953 114.269C115.989 116.339 115.954 116.792 113.745 118.688C113.543 118.852 113.38 119.059 113.269 119.294C113.157 119.528 113.1 119.785 113.101 120.045C113.362 121.889 112.162 122.603 110.822 123.212C109.952 123.594 109.082 123.855 108.125 124.168C108.265 126.58 107.564 128.966 106.142 130.919C105.202 132.659 103.828 134.19 103.776 136.138C104.919 136.397 106.084 136.549 107.255 136.59C108.891 136.59 110.039 136.956 110.457 138.696L112.196 137.321C112.666 138.574 110.717 138.713 110.944 139.861C112.231 140.192 112.388 140.209 113.049 139.444C114.609 137.719 115.584 135.545 115.832 133.233C116.044 131.527 116.387 129.84 116.859 128.187C117.102 127.248 117.468 126.274 118.755 126.308C119.279 126.361 119.772 126.583 120.158 126.941C120.544 127.299 120.803 127.773 120.895 128.292C120.982 128.734 120.982 129.189 120.895 129.631C120.812 130.318 120.865 131.015 121.054 131.681C121.242 132.347 121.56 132.969 121.991 133.511L127.019 132.224C127.019 132.224 127.019 132.415 127.019 132.224C126.584 127.422 125.958 122.69 122.461 118.914C121.707 118.185 121.052 117.361 120.512 116.461C118.877 113.086 116.146 113.19 113.101 113.364L113.014 113.312ZM127.019 104.979C126.51 104.644 126.152 104.122 126.025 103.526C125.898 102.93 126.012 102.308 126.341 101.795C126.474 101.508 126.585 101.212 126.671 100.907C126.303 100.279 125.721 99.8027 125.031 99.5665C124.342 99.3302 123.59 99.3492 122.913 99.62C121.806 99.8483 120.747 100.266 119.782 100.855C116.521 102.821 113.01 104.337 109.343 105.361C108.782 105.573 108.184 105.666 107.585 105.636C106.987 105.606 106.4 105.454 105.863 105.187C105.439 105.076 105.058 104.841 104.768 104.512C104.477 104.184 104.291 103.776 104.234 103.341C104.176 102.907 104.249 102.465 104.443 102.072C104.637 101.678 104.944 101.352 105.324 101.134C105.791 100.751 106.286 100.402 106.803 100.09C107.969 99.2895 109.204 98.5588 110.283 97.6889C110.978 97.1495 112.022 96.6624 111.587 95.3228C111.231 95.2167 110.863 95.1582 110.491 95.1488C109.674 95.1488 108.873 95.3924 108.056 95.4967C107.238 95.6011 106.142 95.6707 105.533 94.5921C104.437 92.5913 103.236 92.3303 101.201 93.3568C99.635 94.1571 99.183 95.6707 98.504 97.0799C97.016 100.507 94.681 103.501 91.719 105.779C91.081 106.256 90.353 106.6 89.579 106.788C86.587 107.536 83.577 108.162 80.584 108.858C80.178 109.031 79.797 109.259 79.454 109.537C80.025 109.674 80.621 109.674 81.193 109.537C83.281 109.363 85.369 108.563 87.439 109.363C89.192 110.012 90.885 110.809 92.502 111.746C96.625 114.182 100.609 116.844 104.68 119.245C106.13 120.002 107.684 120.541 109.291 120.845C110.091 121.054 111.031 120.724 111.031 119.61C110.914 118.934 111.034 118.238 111.37 117.639C111.706 117.04 112.237 116.575 112.875 116.322C112.875 116.131 112.875 115.939 112.875 115.765L110.613 114.547C110.003 114.315 109.42 114.018 108.873 113.66C107.499 112.547 107.725 111.137 109.378 110.581C110.165 110.336 110.99 110.23 111.814 110.268C115.85 110.372 119.886 110.581 123.992 110.633C125.487 110.676 126.981 110.506 128.428 110.128C130.307 109.606 130.568 108.702 129.455 107.153C128.735 106.332 127.917 105.601 127.019 104.979ZM129.403 104.178L128.637 102.004C127.941 103.169 128.481 103.639 129.42 104.178H129.403ZM145.513 114.53C145.682 113.495 145.992 112.488 146.435 111.538C146.825 110.916 147.274 110.334 147.775 109.798L149.515 111.746C150.315 108.128 149.115 102.578 147.114 100.89C147.179 101.782 147.114 102.679 146.922 103.552C145.966 106.109 144.887 108.615 143.739 111.103C143.53 111.59 142.869 111.903 142.19 112.494C142.087 112.015 141.918 111.552 141.686 111.12C140.346 109.38 140.346 109.154 142.277 108.476C143.391 108.093 143.582 107.519 143.06 106.649C142.538 105.779 142.747 104.909 143.721 104.752C145.026 104.422 145.165 103.482 145.461 102.421C145.737 100.281 145.535 98.1061 144.869 96.0535C144.49 94.0001 143.444 92.1291 141.894 90.7297C141.633 91.8084 142.625 93.0784 140.938 93.6352L140.102 91.7388C137.91 91.7388 139.267 94.6442 137.406 94.8182C137.173 94.5077 137.011 94.15 136.932 93.7704C136.852 93.3907 136.856 92.9982 136.944 92.6204C137.032 92.2425 137.201 91.8884 137.44 91.5828C137.679 91.2773 137.982 91.0277 138.328 90.8515C139.267 90.2252 140.259 89.6685 141.233 89.1117L141.077 88.642C139.076 88.729 137.075 88.7638 135.092 88.9204C134.877 88.9694 134.675 89.0629 134.498 89.1947C134.321 89.3265 134.174 89.4938 134.065 89.6859C133.178 91.1125 132.326 92.5913 131.386 94.3659C131.701 94.4217 132.01 94.5091 132.308 94.6269C133.683 95.2706 133.926 95.8795 133.352 97.2365C133.212 97.5015 133.055 97.7572 132.882 98.002C131.804 99.881 131.873 100.612 133.126 101.221C134.379 101.83 134.866 101.325 135.77 99.6026C136.206 98.658 136.736 97.7603 137.354 96.9234C138.032 96.0709 139.476 96.0187 139.859 96.8016C140.482 97.9794 140.894 99.2571 141.077 100.577C141.082 101.764 140.876 102.942 140.468 104.056C139.667 106.84 138.728 109.624 137.893 112.407C137.427 113.509 137.353 114.738 137.684 115.887C137.887 115.953 138.097 115.994 138.31 116.009C140.381 115.73 141.216 116.357 141.425 118.305C141.429 118.747 141.518 119.184 141.686 119.593C141.86 119.958 142.277 120.532 142.486 120.497C142.719 120.442 142.938 120.34 143.13 120.196C143.321 120.052 143.481 119.871 143.599 119.662C144.549 118.083 145.203 116.344 145.531 114.53H145.513ZM160.075 105.535C159.767 105.099 159.628 104.567 159.682 104.036C159.737 103.505 159.981 103.012 160.371 102.647C161.241 101.795 162.111 102.212 163.068 102.647C164.024 103.082 164.807 103.674 165.729 104.23C165.851 103.978 165.919 103.702 165.928 103.422C165.937 103.141 165.888 102.862 165.783 102.602C165.678 102.341 165.52 102.106 165.319 101.91C165.119 101.714 164.879 101.562 164.616 101.464C163.85 100.984 163.054 100.554 162.232 100.177C160.166 99.0748 157.976 98.2221 155.708 97.6367C155.708 98.5066 155.534 99.2199 155.447 99.9332C156.335 100.316 157.431 100.42 157.031 101.864L156.195 101.743H155.378C155.378 103.813 155.378 104.074 156.248 104.683C158.196 105.935 157.726 107.988 158.196 109.711C158.196 109.937 157.883 110.285 157.709 110.598C157.344 110.372 156.735 110.198 156.7 109.937C156.68 109.27 156.744 108.604 156.891 107.954C156.317 107.292 155.726 106.614 155.152 105.918C154.307 105.038 153.72 103.944 153.453 102.754C153.186 101.564 153.25 100.324 153.638 99.1677C154.212 97.5845 153.969 97.1147 152.542 96.2275L150.802 95.201C149.88 94.6443 149.845 93.9831 150.646 93.1306L153.307 94.6269L156.526 93.5134L157.796 91.1647L159.397 92.6957C161.136 92.2781 162.876 92.2433 163.398 90.2078C163.398 89.999 164.39 89.8076 164.72 89.9642C165.051 90.1208 165.503 90.7993 165.869 91.2169C167.347 91.2169 168.774 91.2169 169.453 89.4771L171.297 90.7471C170.653 91.3909 170.235 92.1216 169.661 92.2955C168.165 92.7305 166.565 92.8349 165.068 93.235C162.381 93.7031 159.785 94.5957 157.378 95.8795C159.104 97.3018 161.209 98.1852 163.433 98.4196C163.623 97.6937 164.066 97.059 164.681 96.6288C165.296 96.1987 166.043 96.0009 166.791 96.0709C168.339 96.0709 169.905 96.0709 171.453 96.0709C173.461 95.941 175.459 95.697 177.438 95.3402C177.752 95.2582 178.04 95.1014 178.28 94.8832C178.519 94.665 178.702 94.392 178.813 94.0875C178.813 93.6526 178.238 93.0089 177.769 92.6087C177.212 92.2494 176.631 91.9296 176.029 91.6518C175.229 91.1473 174.289 90.7471 173.767 89.912C173.245 89.0769 173.558 88.1723 173.471 87.0588C172.863 86.7804 172.08 86.1193 171.384 86.1889C168.919 86.3924 166.475 86.7998 164.077 87.4068C161.641 88.0853 159.344 89.2509 156.961 90.1208C153.664 91.2266 150.183 91.6758 146.714 91.443C147.516 94.3222 148.534 97.137 149.758 99.8636C151.838 103.605 153.318 107.65 154.142 111.851C154.363 113.038 155.021 114.1 155.987 114.826C156.235 115.054 156.527 115.229 156.846 115.34C157.165 115.45 157.503 115.494 157.839 115.468C158.176 115.442 158.503 115.346 158.801 115.188C159.099 115.03 159.361 114.812 159.571 114.547C161.206 112.808 161.728 112.912 163.346 114.652L166.234 117.749C166.581 116.441 166.553 115.062 166.153 113.77C165.753 112.478 164.997 111.324 163.972 110.441C163.172 109.641 162.424 108.806 161.711 107.954C161.095 107.198 160.547 106.388 160.075 105.535ZM181.631 117.714C181.751 116.908 181.792 116.092 181.753 115.278C181.857 112.094 182.692 111.468 185.807 112.181C186.155 112.319 186.528 112.384 186.903 112.373C187.447 112.229 187.976 112.037 188.486 111.799C186.838 108.553 184.096 105.996 180.744 104.578C175.84 102.378 170.795 100.506 165.642 98.9763C165.486 98.9763 165.26 99.0981 165.068 99.1677C164.877 99.2373 165.068 99.3765 165.068 99.4113C165.486 99.8288 165.903 100.246 166.338 100.647C169.192 103.239 172.236 105.448 176.307 105.605C176.707 105.605 177.473 105.988 177.456 106.109C177.229 107.484 178.552 107.849 179.039 108.823C179.207 109.389 179.306 109.974 179.335 110.563L175.855 108.51C175.855 109.38 175.994 109.989 176.081 110.789C173.802 110.511 174.028 108.615 173.506 107.414L169.052 104.926C168.913 105.414 168.757 105.883 168.565 106.527L166.826 105.309L166.547 105.674C167.067 106.312 167.65 106.895 168.287 107.414C170.147 108.69 171.722 110.337 172.915 112.251C173.854 113.608 174.655 115 175.768 116.287C176.53 117.307 177.432 118.215 178.447 118.984C178.715 119.186 179.03 119.316 179.362 119.36C179.694 119.405 180.032 119.363 180.344 119.239C180.655 119.115 180.929 118.912 181.14 118.651C181.35 118.39 181.489 118.079 181.544 117.749L181.631 117.714ZM106.142 108.423C107.69 108.249 109.326 107.466 110.474 108.615C112.701 108.145 114.667 107.849 116.581 107.31C118.494 106.771 120.321 106.04 121.939 105.466C121.748 104.561 121.556 103.726 121.278 102.473C120.46 103.03 119.677 103.326 119.312 103.9C118.954 104.415 118.492 104.848 117.955 105.172C117.419 105.496 116.82 105.702 116.198 105.779C115.032 106.057 113.936 106.562 112.718 105.779C112.509 105.657 112.144 105.779 111.866 105.779C108.786 106.318 105.724 106.962 102.645 107.414C101.345 107.446 100.045 107.347 98.765 107.119C99.948 105.883 100.836 105.083 101.549 104.161C102.262 103.239 103.48 102.543 102.993 100.681L100.157 103.448C99.809 102.804 99.496 102.265 98.922 101.255C98.643 102.195 98.313 102.682 98.417 102.995C98.65 103.755 98.627 104.571 98.35 105.316C98.073 106.061 97.559 106.695 96.886 107.119C95.442 107.014 93.981 106.858 92.502 106.84C92.264 106.86 92.034 106.941 91.836 107.075C91.638 107.209 91.478 107.392 91.371 107.606C91.267 107.936 91.649 108.545 91.997 108.823C93.217 109.688 94.7 110.101 96.19 109.989C98.124 110.006 99.998 110.667 101.514 111.868C102.923 112.999 104.472 113.956 105.95 115L106.316 114.634C105.603 112.094 103.028 111.155 101.566 109.258C103.08 109.05 104.593 108.615 106.142 108.423ZM175.403 60.8924C175.838 60.8924 176.534 60.8924 176.69 61.1186C177.873 63.015 180.17 62.0755 181.701 63.189C181.875 63.3107 182.431 62.9106 182.814 62.7366C182.673 62.3589 182.492 61.9973 182.275 61.6579C182.06 61.4475 181.797 61.2923 181.509 61.2056L175.089 58.8221C175.55 58.295 176.07 57.8222 176.638 57.4129C178.569 56.2994 180.518 55.1512 182.553 54.2291C186.502 52.4893 190.521 50.7495 194.523 49.1315C195.306 48.8183 196.036 48.5748 196.263 47.3917C194.349 46.6436 192.957 48.2964 191.043 48.4704C191.374 48.0006 191.513 47.7571 191.687 47.5483C192.139 47.0438 192.766 46.4348 192.07 45.8085C191.374 45.1822 190.626 45.9303 190.33 46.5044C189.81 47.4995 189.356 48.5283 188.973 49.5838L182.692 51.7238C182.397 51.0627 182.292 50.2798 181.909 50.0884C181.109 49.7056 180.483 50.1928 180.17 51.0279C179.996 51.515 179.839 52.0195 179.63 52.4893C179.422 52.959 179.23 53.5332 178.847 53.7941C177.543 54.6988 176.168 55.5339 174.376 56.5778C174.916 54.751 175.281 53.394 175.716 52.0717C176.151 50.7495 176.638 49.6882 176.986 48.4704C177.247 47.5831 177.177 46.7306 176.012 46.4174C175.281 48.366 174.585 50.158 173.924 51.9847C173.699 52.4579 173.546 52.9623 173.471 53.481C173.291 54.9032 172.685 56.2376 171.732 57.3085C171.279 57.9174 170.792 58.4915 170.392 59.0483C169.714 60.1617 170.183 60.9446 171.506 60.9098C172.828 60.875 174.15 60.8924 175.403 60.8924ZM193.879 80.6912C193.794 81.1963 193.558 81.6635 193.201 82.0308C192.209 82.7396 191.134 83.3239 189.999 83.7706C189.633 83.8854 189.315 84.1184 189.094 84.4331C188.874 84.7478 188.764 85.1266 188.782 85.5104C188.782 86.3803 189.495 86.5543 190.208 86.5716C192.221 86.8024 194.118 87.6328 195.654 88.9552C196.941 89.8424 198.246 90.6949 199.586 91.5648C199.98 91.8986 200.475 92.0917 200.991 92.1138C201.508 92.1358 202.017 91.9855 202.439 91.6866L200.09 89.6685C200.525 89.1987 200.873 88.7986 201.221 88.3984C200.779 88.0799 200.307 87.806 199.812 87.5807C199.303 87.4381 198.772 87.3909 198.246 87.4415C197.329 87.4359 196.423 87.2379 195.586 86.8603C194.75 86.4828 194.003 85.934 193.392 85.2494L203.605 84.8319C204.014 84.5287 204.482 84.3153 204.979 84.2055C207.055 84.0143 209.142 83.962 211.225 84.049C215.766 84.3795 220.289 84.8841 224.83 85.3016C225.305 85.2462 225.772 85.1352 226.222 84.9711C225.247 83.875 223.96 83.2313 224.482 81.3871C223.294 81.3891 222.116 81.6011 221.002 82.0134C219.268 82.897 217.277 83.1374 215.383 82.6919C211.068 82.1439 206.701 82.1439 202.387 82.6919C200.316 83.0399 198.211 83.1965 196.123 83.3878C195.53 83.3326 194.946 83.204 194.384 83.0051C195.027 82.5701 195.323 82.3962 195.602 82.17C198.237 79.7198 201.251 77.7106 204.527 76.2199C205.049 76.0286 205.362 75.3674 205.849 74.8455C205.351 74.4806 204.738 74.3094 204.123 74.3638C203.508 74.4182 202.934 74.6946 202.508 75.1413C202.079 75.5349 201.517 75.7533 200.934 75.7533C200.351 75.7533 199.789 75.5349 199.359 75.1413C199.359 75.1413 199.099 75.2457 198.82 75.3674C198.82 76.0112 198.942 76.7071 199.012 77.3508L196.158 79.4385L194.297 77.8553C194.105 79.3515 194.053 80.0301 193.879 80.6216V80.6912ZM114.719 133.963L114.18 135.164L115.119 134.259L114.719 133.963ZM152.733 30.5854C152.24 29.7184 152.031 28.7191 152.134 27.7271C152.237 26.7352 152.647 25.8002 153.307 25.0529C153.843 24.0149 154.213 22.8996 154.403 21.7473C154.502 21.3181 154.566 20.8818 154.595 20.4425C152.142 20.6338 152.681 23.6437 150.559 24.2352C149.723 21.8343 148.923 19.4856 148.071 17.1717C147.902 16.5441 147.551 15.9808 147.062 15.5537C145.922 14.8021 145.123 13.6342 144.835 12.3003C144.4 10.9084 143.878 9.53402 143.391 8.14219H142.677C142.677 8.80331 142.26 9.55141 142.451 10.1255C142.946 12.6215 143.947 14.9898 145.391 17.0847C146.164 18.0053 146.802 19.0303 147.288 20.1293C147.972 21.3313 148.321 22.6955 148.297 24.0786L143.721 22.3388C143.408 21.5559 144.243 20.1989 142.59 20.1641C142.225 20.8252 141.86 21.4341 141.529 22.0257C139.835 21.3233 138.021 20.957 136.188 20.947C136.362 22.3736 137.284 22.7912 138.31 23.0695C140.416 23.6263 142.538 24.0612 144.608 24.8093C147.131 25.6444 149.497 26.7579 150.228 29.7329C150.374 30.3138 150.668 30.8472 151.08 31.2813C151.258 31.3982 151.459 31.4744 151.67 31.5045C151.88 31.5346 152.095 31.5178 152.298 31.4553C152.44 31.3521 152.554 31.2155 152.63 31.0576C152.705 30.8998 152.741 30.7256 152.733 30.5506V30.5854ZM68.702 114.913C69.311 114.408 69.606 113.904 69.102 113.173C68.989 113.114 68.864 113.082 68.736 113.082C68.609 113.082 68.484 113.114 68.371 113.173C67.867 113.834 67.971 114.408 68.702 114.913ZM111.622 50.6625C111.344 51.863 110.752 53.2026 112.527 54.2291C112.927 52.1239 113.31 50.2276 113.71 48.2094C111.64 48.1398 111.848 49.6186 111.622 50.6625ZM100.435 61.5362C101.357 62.6148 102.419 63.5717 103.323 64.6678C105.307 67.0687 105.063 69.0694 102.801 71.0702C102.45 71.3491 102.134 71.6705 101.862 72.0271C101.73 72.1744 101.636 72.3512 101.587 72.5427C101.537 72.7341 101.535 72.9345 101.579 73.1271C101.624 73.3197 101.713 73.4989 101.841 73.6496C101.969 73.8002 102.131 73.918 102.314 73.993C103.876 73.0614 105.28 71.8868 106.472 70.5134C106.932 69.9523 107.485 69.4755 108.108 69.1042C109.726 68.3561 111.413 67.7472 113.084 67.0861C113.762 66.8251 114.719 66.7207 114.354 65.6595C113.988 64.5982 113.188 64.9287 112.44 65.1723C112.014 65.3058 111.596 65.4626 111.187 65.642C110.387 65.99 109.604 66.3728 108.717 66.7729C108.612 65.903 108.543 65.2941 108.421 64.4068C107.847 64.8591 107.534 65.1549 107.168 65.3811C106.862 65.5673 106.542 65.7301 106.211 65.8682L100.314 58.4393C100.112 58.6473 99.954 58.8941 99.851 59.1647C99.747 59.4354 99.699 59.7243 99.711 60.0138C99.722 60.3034 99.792 60.5877 99.917 60.8494C100.041 61.111 100.218 61.3447 100.435 61.5362ZM110.457 63.102C111.222 61.0838 111.814 59.518 112.353 57.8826C112.353 57.6912 112.127 57.3781 111.918 56.9431C110.178 58.2306 110.317 60.0399 109.726 61.5188C109.621 61.8319 110.039 62.2669 110.457 63.102ZM69.015 93.67C69.815 92.6087 69.137 91.8084 68.684 90.8167L63.465 91.0081C64.404 89.8598 65.205 88.8856 66.057 87.8243C67.034 86.5303 67.929 85.1764 68.736 83.7706C69.094 83.222 69.272 82.576 69.248 81.9217C69.223 81.2674 68.995 80.6369 68.597 80.1171C67.187 84.3525 64.439 88.0156 60.768 90.5558C60.119 89.0615 59.5841 87.5203 59.1677 85.9453C58.9067 84.5187 59.5156 82.9355 58.4892 81.3523C58.2108 81.6704 57.955 82.0076 57.7237 82.3614C57.5787 82.623 57.4564 82.8965 57.3583 83.1791C56.6102 83.3878 55.7925 82.4658 55.4793 83.5966C55.1662 84.7275 56.0013 84.7623 56.558 85.058C56.9609 85.2571 57.3877 85.4033 57.828 85.493C58.089 86.8326 58.3152 87.8591 58.4718 88.9726C58.7849 91.2169 58.9589 93.4612 56.906 95.1488C56.7279 95.3716 56.5923 95.6251 56.5058 95.8969C57.5845 96.6276 58.2456 95.8969 58.6805 95.2706C59.816 94.1276 61.32 93.4248 62.926 93.2872C63.465 93.9309 63.882 94.4703 64.544 95.2532L65.083 93.148C66.684 91.965 67.693 93.7396 69.015 93.67ZM69.606 73.8712C68.806 75.3298 68.536 77.0203 68.841 78.6556C70.511 76.5505 70.668 75.6632 69.606 73.8712ZM91.18 72.9143C91.946 71.1234 92.099 69.1295 91.615 67.2427L93.772 66.1118L91.301 64.5634C91.301 63.9023 91.301 63.189 91.301 62.493L93.041 62.1451C93.65 60.4053 91.719 60.7707 91.301 60.0921V55.9167C89.318 57.0997 90.275 58.9787 89.37 60.6489C88.73 57.9705 87.181 55.5971 84.986 53.9333C84.76 53.0982 85.908 52.0543 84.569 51.2714L83.368 51.7586C82.202 51.1496 81.176 50.5407 80.097 50.0188C79.019 49.4969 78.601 49.0445 78.775 47.9484C78.879 47.3047 78.775 46.7132 77.836 46.661L76.792 48.4878L73.956 47.4961C73.956 46.1043 74.443 44.6081 72.895 43.6512C71.781 44.9038 73.295 46.0347 72.895 46.9742L71.52 47.8093C71.829 48.2577 72.191 48.6667 72.599 49.0271C73.08 49.2445 73.581 49.4135 74.095 49.5316C76.861 50.5929 79.906 51.1323 82.098 53.394C82.985 54.2987 83.838 55.2729 84.708 56.1428C86.837 58.3716 88.384 61.0903 89.214 64.0588C89.453 65.0162 89.639 65.9862 89.77 66.9643C87.787 66.3206 86.674 64.4068 84.551 64.9287C84.585 65.4009 84.486 65.8733 84.265 66.2917C84.043 66.7101 83.708 67.0577 83.298 67.2948C83.055 67.434 83.09 68.1125 82.933 68.8259L87.109 67.6254L90.588 69.6783C90.327 70.4439 90.084 71.1398 89.823 71.9227C88.831 71.9227 87.961 71.9227 87.074 71.9227C86.187 71.9227 85.647 72.5316 86.117 73.5407L89.457 73.6277C89.008 74.4968 88.831 75.481 88.949 76.4523C89.066 77.4236 89.474 78.3369 90.118 79.0732C90.371 78.3393 90.574 77.5896 90.727 76.8289C90.735 75.5133 90.875 74.2019 91.145 72.9143H91.18ZM67.484 115.33C66.127 115.017 66.109 115.017 65.448 113.886C65.1 113.295 64.752 112.895 63.917 113.521L64.526 116.27C62.685 117.045 60.789 117.685 58.8545 118.184C57.6715 118.427 56.1579 118.601 55.375 117.488C53.6352 117.488 52.0694 117.749 50.5384 117.714C49.5119 117.714 49.2335 118.114 49.2161 119.123L51.0429 119.332C52.3104 119.337 53.5766 119.412 54.8356 119.558C55.9292 119.714 56.9882 120.055 57.9672 120.567C59.0203 121.194 60.006 121.929 60.907 122.759C61.75 123.371 62.48 124.125 63.065 124.986C63.969 126.726 65.744 127.37 67.171 128.953C67.399 128.487 67.449 127.954 67.311 127.454C67.174 126.954 66.857 126.522 66.423 126.239C65.698 125.614 65.018 124.94 64.387 124.221C63.796 123.577 63.291 122.846 62.647 122.185C62.004 121.524 61.795 121.333 61.395 120.932L80.776 123.246L81.785 126.065C83.525 125.804 82.255 124.499 82.985 123.664C83.423 123.677 83.859 123.723 84.29 123.803C84.773 123.985 85.267 124.137 85.769 124.255C86.134 124.255 86.5 123.977 86.865 123.82C86.681 123.497 86.471 123.189 86.239 122.898C85.96 122.62 85.438 122.463 85.334 122.15C84.725 120.497 84.377 120.219 82.881 120.985C81.945 121.431 80.893 121.577 79.871 121.402C75.487 120.915 71.172 120.515 66.701 120.01C65.528 119.795 64.367 119.522 63.221 119.193C64.387 117.279 67.153 117.714 67.484 115.33ZM114.023 135.286C114.023 135.286 114.023 135.164 114.023 135.094V135.286ZM182.692 32.6557C184.451 32.6393 186.202 32.4234 187.912 32.012C188.225 32.012 188.434 31.4031 188.677 31.0899C188.392 30.8119 188.063 30.5827 187.703 30.4114C187.259 30.3411 186.807 30.3411 186.363 30.4114L181.527 30.7594C181.527 29.8199 182.901 29.4371 181.927 28.2019C181.04 28.7412 180.187 29.3154 179.213 29.8547C178.778 30.0983 178.308 30.5158 177.873 30.4984C176.133 30.4984 174.394 30.2722 172.236 30.1157C173.628 28.9326 174.724 28.1497 175.716 27.2102C176.249 26.4411 176.962 25.814 177.793 25.3834C178.624 24.9528 179.547 24.7318 180.483 24.7397C180.883 24.7397 181.318 24.2874 181.735 24.0438L181.074 22.9825C180.953 22.8086 180.813 22.6694 180.657 22.4432C181.753 21.1036 182.884 19.8161 183.91 18.4765C185.493 16.4062 187.077 14.3358 188.538 12.1785C188.827 11.6925 189.003 11.1473 189.051 10.5838C189.099 10.0203 189.019 9.45314 188.816 8.92509L187.077 11.0476L186.05 10.0386C185.839 10.0969 185.645 10.205 185.483 10.3538C185.322 10.5025 185.199 10.6876 185.124 10.8937C185.049 11.0997 185.025 11.3207 185.053 11.5381C185.081 11.7556 185.16 11.9632 185.285 12.1437C185.49 12.5885 185.55 13.0867 185.457 13.5677C185.363 14.0487 185.12 14.4879 184.763 14.823C184.221 15.5385 183.64 16.2238 183.023 16.8759C181.544 18.4417 180.048 20.0075 178.534 21.5385C176.794 23.4001 174.863 25.2617 172.984 27.071C172.303 27.5759 171.582 28.0239 170.827 28.4107C170.949 26.4447 171.053 24.9311 171.158 23.4871L172.584 22.0779L170.514 20.6338C170.148 19.2594 169.348 17.7632 171.384 16.8411C171.527 16.6983 171.628 16.5192 171.677 16.323C171.726 16.1268 171.721 15.921 171.662 15.7276C171.53 15.5719 171.359 15.4532 171.167 15.383C170.975 15.3129 170.768 15.2938 170.566 15.3275C169.855 15.6086 169.174 15.9582 168.53 16.3714C168.53 17.3456 168.53 18.1112 168.53 18.8593C168.687 21.9735 168.878 25.0703 169 28.1845C169.11 28.7772 169.04 29.3893 168.798 29.9415C168.556 30.4936 168.154 30.9604 167.643 31.2813C167.417 31.4031 167.313 31.7337 167.156 31.9424C168.235 33.1081 168.27 33.1081 169.331 32.4818C169.87 32.1686 170.479 31.6815 171.071 31.7163C175.02 31.9772 178.865 32.4644 182.692 32.6557ZM189.321 12.857C189.826 12.7497 190.313 12.5679 190.765 12.3177C191.095 12.0567 191.2 11.5348 191.409 11.1346C190.939 11.0302 190.4 10.7171 190.034 10.8563C189.83 10.9064 189.641 11.0073 189.486 11.1496C189.331 11.292 189.214 11.4711 189.146 11.6705C189.079 11.87 189.062 12.0832 189.099 12.2906C189.136 12.498 189.224 12.6928 189.356 12.857H189.321Z" fill="#132939"/>
</g>
<defs>
<filter id="filter0_d_6_31" x="-44" y="0" width="283.547" height="156.18" filterUnits="userSpaceOnUse" color-interpolation-filters="sRGB">
<feFlood flood-opacity="0" result="BackgroundImageFix"/>
<feColorMatrix in="SourceAlpha" type="matrix" values="0 0 0 0 0 0 0 0 0 0 0 0 0 0 0 0 0 0 127 0" result="hardAlpha"/>
<feOffset dy="4"/>
<feGaussianBlur stdDeviation="2"/>
<feComposite in2="hardAlpha" operator="out"/>
<feColorMatrix type="matrix" values="0 0 0 0 0 0 0 0 0 0 0 0 0 0 0 0 0 0 0.25 0"/>
<feBlend mode="normal" in2="BackgroundImageFix" result="effect1_dropShadow_6_31"/>
<feBlend mode="normal" in="SourceGraphic" in2="effect1_dropShadow_6_31" result="shape"/>
</filter>
</defs>
</svg>
