<svg width="99" height="90" viewBox="0 0 99 90" fill="none" xmlns="http://www.w3.org/2000/svg">
<g opacity="0.1" filter="url(#filter0_d_6_27)">
<path d="M66.9498 0.0337858C65.5193 0.571072 64.1938 1.35472 63.0338 2.34924C62.6483 2.75561 62.2272 3.12627 61.775 3.45661C60.8186 4.05378 60.1378 5.00594 59.8827 6.10424C59.7946 6.71801 59.6459 7.3216 59.4397 7.9063C59.2737 8.22284 59.2003 8.57996 59.2288 8.93611C59.2574 9.29257 59.3862 9.63375 59.6006 9.91994C59.9733 10.4633 60.2952 11.0372 60.6073 11.6009C60.839 12.0037 60.8288 12.3861 60.3456 12.6076C59.8623 12.8292 59.9932 13.0201 60.1444 13.3628C60.2447 13.6078 60.2447 13.8828 60.1444 14.1277C59.6108 15.3157 58.9864 16.4635 58.5032 17.6612C57.7368 19.2902 56.8202 20.8439 55.7651 22.3023C55.2518 23.1074 54.4865 23.7419 53.9228 24.5068C52.9161 25.8863 51.7181 27.1145 50.7416 28.5338C49.1308 30.8594 47.2886 32.9936 45.4966 35.2082C43.9941 37.1545 42.7489 39.2861 41.792 41.5506C41.3993 42.4667 40.9362 43.3528 40.5033 44.2383C39.7282 45.8394 38.9329 47.4195 38.198 49.0205C37.6946 50.0975 37.302 51.2148 36.8188 52.2923C36.2449 53.5705 35.6409 54.8293 35.0269 56.0876C34.1107 57.99 33.2651 59.9231 32.2382 61.7655C30.5979 64.4491 28.5883 66.8893 26.2684 69.0138C26.0738 69.2124 25.8362 69.3637 25.5738 69.4563C23.7886 70.0002 21.9966 70.5272 20.198 71.037C19.448 71.1841 18.7521 71.532 18.1845 72.0437C17.1779 73.0505 16.1107 74.0572 15.0939 75.1246C14.6053 75.6455 13.9637 75.9979 13.2617 76.1313C12.7432 76.2413 12.2189 76.3218 11.6913 76.3727C11.2383 76.3727 10.7852 76.282 10.3322 76.3121C9.70254 76.3793 9.11733 76.6685 8.68121 77.1279C8.31315 77.5393 7.87306 77.8805 7.38255 78.1346C6.39229 78.572 5.52462 79.2463 4.85571 80.0977C4.52871 80.5443 4.24233 81.0194 4 81.5169C4.7953 81.8087 5.34899 82.0002 6.01342 81.688C6.67785 81.3758 7.59396 80.9832 8.38926 80.611C9.33941 80.0748 10.3865 79.7326 11.4698 79.6042C12.7115 79.537 13.9564 79.5604 15.1946 79.6745C15.7078 79.7346 16.2278 79.676 16.7148 79.5034C17.5167 79.1581 18.2767 78.7223 18.9799 78.2049C19.7177 77.5806 20.6003 77.1513 21.547 76.9568C22.4976 76.7943 23.4643 76.747 24.4262 76.8157C26.6611 77.0168 28.8859 77.3091 31.1107 77.6208C33.4002 78.045 35.7335 78.1835 38.057 78.0338C39.5168 77.8825 40.9765 77.8423 42.4261 77.6916C43.8598 77.6294 45.2801 77.3896 46.6544 76.9766C46.9578 76.9069 47.27 76.8829 47.5806 76.9063C48.8591 76.9063 50.1376 76.9063 51.406 76.8055C52.8557 76.6848 54.2953 76.4027 55.7452 76.2219C57.6441 75.9037 59.4921 75.3349 61.2418 74.5303C63.4564 73.6244 65.6309 72.6278 67.8154 71.6511C68.6501 71.3216 69.4577 70.928 70.2317 70.4733C71.9025 69.3962 73.5738 68.3192 75.1646 67.1511C76.7549 65.9834 78.6376 65.0877 79.8052 63.396C79.8505 63.3161 79.9167 63.2499 79.9967 63.2051C80.6342 62.8399 81.1603 62.3073 81.5167 61.6646C81.6232 61.5119 81.7408 61.3667 81.8691 61.2318C83.0566 60.028 84.1474 58.732 85.1307 57.3561C86.6238 55.4836 88.0089 53.5272 89.2784 51.4969C90.333 49.8755 91.1686 48.1222 91.7649 46.2819C92.0369 45.2049 92.4397 44.1477 92.7717 43.0707C93.1949 41.6107 93.6577 40.1411 93.9394 38.6511C94.3936 36.5261 94.4547 34.3354 94.1206 32.188C93.9195 31.0005 93.8793 29.7819 93.7183 28.574C93.6175 27.8392 93.366 27.1242 93.285 26.3792C93.0243 24.6855 92.5405 23.0336 91.8454 21.4667C91.2216 19.7755 90.4965 18.1144 89.9429 16.433C89.6537 15.3845 89.1109 14.4236 88.3623 13.6342C88.0797 13.3435 87.8205 13.0303 87.5872 12.6983C86.4155 10.861 84.9576 9.2228 83.2685 7.84585C82.2617 7.11098 81.4261 6.05393 80.1072 5.74182C80.0634 5.72981 80.0227 5.70821 79.9875 5.67863C79.9529 5.64904 79.9249 5.61223 79.906 5.57072C79.4834 4.64454 78.5271 4.24184 77.8926 3.55729C77.7658 3.41979 77.5947 3.33083 77.4093 3.30563C76.5126 3.04765 75.5837 2.91882 74.6508 2.92304C74.026 2.98089 73.4037 2.78912 72.9194 2.38947C71.5975 1.4392 70.1233 0.720886 68.5604 0.26533C68.0589 0.027928 67.4977 -0.0527829 66.9498 0.0337858Z" fill="white"/>
<path d="M66.9498 0.0337858C65.5193 0.571072 64.1938 1.35472 63.0338 2.34924C62.6483 2.75561 62.2272 3.12627 61.775 3.45661C60.8186 4.05378 60.1378 5.00594 59.8827 6.10424C59.7946 6.71801 59.6459 7.3216 59.4397 7.9063C59.2737 8.22284 59.2003 8.57996 59.2288 8.93611C59.2574 9.29257 59.3862 9.63375 59.6006 9.91994C59.9733 10.4633 60.2952 11.0372 60.6073 11.6009C60.839 12.0037 60.8288 12.3861 60.3456 12.6076C59.8623 12.8292 59.9932 13.0201 60.1444 13.3628C60.2447 13.6078 60.2447 13.8828 60.1444 14.1277C59.6108 15.3157 58.9864 16.4635 58.5032 17.6612C57.7368 19.2902 56.8202 20.8439 55.7651 22.3023C55.2518 23.1074 54.4865 23.7419 53.9228 24.5068C52.9161 25.8863 51.7181 27.1145 50.7416 28.5338C49.1308 30.8594 47.2886 32.9936 45.4966 35.2082C43.9941 37.1545 42.7489 39.2861 41.792 41.5506C41.3993 42.4667 40.9362 43.3528 40.5033 44.2383C39.7282 45.8394 38.9329 47.4195 38.198 49.0205C37.6946 50.0975 37.302 51.2148 36.8188 52.2923C36.2449 53.5705 35.6409 54.8293 35.0269 56.0876C34.1107 57.99 33.2651 59.9231 32.2382 61.7655C30.5979 64.4491 28.5883 66.8893 26.2684 69.0138C26.0738 69.2124 25.8362 69.3637 25.5738 69.4563C23.7886 70.0002 21.9966 70.5272 20.198 71.037C19.448 71.1841 18.7521 71.532 18.1845 72.0437C17.1779 73.0505 16.1107 74.0572 15.0939 75.1246C14.6053 75.6455 13.9637 75.9979 13.2617 76.1313C12.7432 76.2413 12.2189 76.3218 11.6913 76.3727C11.2383 76.3727 10.7852 76.282 10.3322 76.3121C9.70254 76.3793 9.11733 76.6685 8.68121 77.1279C8.31315 77.5393 7.87306 77.8805 7.38255 78.1346C6.39229 78.572 5.52462 79.2463 4.85571 80.0977C4.52871 80.5443 4.24233 81.0194 4 81.5169C4.7953 81.8087 5.34899 82.0002 6.01342 81.688C6.67785 81.3758 7.59396 80.9832 8.38926 80.611C9.33941 80.0748 10.3865 79.7326 11.4698 79.6042C12.7115 79.537 13.9564 79.5604 15.1946 79.6745C15.7078 79.7346 16.2278 79.676 16.7148 79.5034C17.5167 79.1581 18.2767 78.7223 18.9799 78.2049C19.7177 77.5806 20.6003 77.1513 21.547 76.9568C22.4976 76.7943 23.4643 76.747 24.4262 76.8157C26.6611 77.0168 28.8859 77.3091 31.1107 77.6208C33.4002 78.045 35.7335 78.1835 38.057 78.0338C39.5168 77.8825 40.9765 77.8423 42.4261 77.6916C43.8598 77.6294 45.2801 77.3896 46.6544 76.9766C46.9578 76.9069 47.27 76.8829 47.5806 76.9063C48.8591 76.9063 50.1376 76.9063 51.406 76.8055C52.8557 76.6848 54.2953 76.4027 55.7452 76.2219C57.6441 75.9037 59.4921 75.3349 61.2418 74.5303C63.4564 73.6244 65.6309 72.6278 67.8154 71.6511C68.6501 71.3216 69.4577 70.928 70.2317 70.4733C71.9025 69.3962 73.5738 68.3192 75.1646 67.1511C76.7549 65.9834 78.6376 65.0877 79.8052 63.396C79.8505 63.3161 79.9167 63.2499 79.9967 63.2051C80.6342 62.8399 81.1603 62.3073 81.5167 61.6646C81.6232 61.5119 81.7408 61.3667 81.8691 61.2318C83.0566 60.028 84.1474 58.732 85.1307 57.3561C86.6238 55.4836 88.0089 53.5272 89.2784 51.4969C90.333 49.8755 91.1686 48.1222 91.7649 46.2819C92.0369 45.2049 92.4397 44.1477 92.7717 43.0707C93.1949 41.6107 93.6577 40.1411 93.9394 38.6511C94.3936 36.5261 94.4547 34.3354 94.1206 32.188C93.9195 31.0005 93.8793 29.7819 93.7183 28.574C93.6175 27.8392 93.366 27.1242 93.285 26.3792C93.0243 24.6855 92.5405 23.0336 91.8454 21.4667C91.2216 19.7755 90.4965 18.1144 89.9429 16.433C89.6537 15.3845 89.1109 14.4236 88.3623 13.6342C88.0797 13.3435 87.8205 13.0303 87.5872 12.6983C86.4155 10.861 84.9576 9.2228 83.2685 7.84585C82.2617 7.11098 81.4261 6.05393 80.1072 5.74182C80.0634 5.72981 80.0227 5.70821 79.9875 5.67863C79.9529 5.64904 79.9249 5.61223 79.906 5.57072C79.4834 4.64454 78.5271 4.24184 77.8926 3.55729C77.7658 3.41979 77.5947 3.33083 77.4093 3.30563C76.5126 3.04765 75.5837 2.91882 74.6508 2.92304C74.026 2.98089 73.4037 2.78912 72.9194 2.38947C71.5975 1.4392 70.1233 0.720886 68.5604 0.26533C68.0589 0.027928 67.4977 -0.0527829 66.9498 0.0337858ZM67.0302 1.66464L68.037 3.37605C67.1911 3.37605 67.0302 2.57071 66.3759 2.36936C65.9328 3.26535 67.2013 3.37605 67.0501 4.08077C66.5974 4.37271 66.3555 3.93982 66.0438 3.70827C65.7515 3.41873 65.4755 3.11288 65.2179 2.79217L67.0302 1.66464ZM64.6445 13.0003C64.5095 12.6041 64.2386 12.2685 63.8791 12.0541C63.3857 11.7017 62.772 11.44 62.6509 10.725C62.6412 10.6812 62.6218 10.6405 62.5938 10.6059C62.5658 10.5707 62.5302 10.5427 62.4899 10.5239C61.775 10.3528 61.5937 9.67806 61.2617 9.18461C60.9806 8.72682 60.84 8.19661 60.8579 7.65958C60.8757 7.12254 61.0514 6.60267 61.3625 6.16469C61.4328 6.43646 61.4832 6.70829 61.5738 6.97003C61.6354 7.17556 61.7419 7.36473 61.886 7.52371C61.9563 7.60427 62.1579 7.52371 62.3086 7.52371C62.3086 7.39284 62.3086 7.27205 62.2582 7.14118L61.775 5.57072C62.2638 5.0288 62.8749 4.61124 63.5573 4.3526C63.3256 4.3526 63.1845 4.17137 63.4162 4.00021C63.8995 3.62776 64.423 3.29554 64.896 2.99352C65.2281 3.47672 65.5203 3.86934 65.7821 4.30224C65.8493 4.47166 65.8804 4.65355 65.8722 4.83581C65.6869 4.80072 65.5076 4.73971 65.3391 4.65457C65.0539 4.4105 64.7815 4.15176 64.5233 3.87942L63.5165 4.40291C64.453 4.3526 65.0065 4.98679 64.8054 6.06401L63.7986 4.87609C63.1142 4.81569 63.7182 5.54053 63.3358 5.72171C63.0205 5.90539 62.7211 6.11412 62.4395 6.34587C62.3692 6.60761 62.2985 6.88947 62.2282 7.17138C62.413 7.1921 62.5847 7.277 62.7135 7.41128C62.8423 7.54556 62.9197 7.72069 62.933 7.9063C63.0134 9.24521 64.0502 10.0304 64.6643 11.057C64.7993 11.2536 64.9077 11.467 64.9867 11.6915C65.0366 11.8682 65.1221 12.0327 65.2388 12.1753C65.3549 12.3174 65.499 12.434 65.6624 12.518C65.8259 12.602 66.0046 12.6519 66.188 12.6637C66.3713 12.6754 66.5551 12.6494 66.7282 12.5873C66.3473 12.543 65.9888 12.3846 65.7001 12.1336C65.4109 11.882 65.2041 11.549 65.1074 11.1782C65.7317 11.5709 66.2149 11.8525 66.6676 12.185C66.7481 12.2451 66.6676 12.4467 66.7282 12.5975C67.2456 12.6642 67.7666 12.7013 68.2885 12.7085C68.8324 12.6688 69.3737 12.598 69.9094 12.4966L70.9161 14.0976L70.0403 14.309C69.9394 13.5436 69.6879 12.9799 68.8925 12.9198C68.8925 13.4433 68.8925 13.4433 69.225 14.1679C69.0035 14.3594 68.8222 14.5407 68.5905 14.1679C68.2361 13.6872 67.8037 13.2686 67.3118 12.93C67.3118 13.4229 67.3118 13.6745 67.3118 14.0172L66.7583 13.5237C66.6376 13.6342 66.4965 13.705 66.4365 13.8257C66.4039 13.8975 66.3555 13.9612 66.2954 14.0121C66.2348 14.063 66.1635 14.0992 66.0871 14.1185C66.0107 14.1379 65.9308 14.1399 65.8534 14.1241C65.7765 14.1078 65.7037 14.0747 65.641 14.0269C65.2133 13.7921 64.866 13.4346 64.6445 13.0003ZM73.6441 8.37942C72.6781 9.22892 71.601 9.94336 70.4431 10.5035C70.0718 10.668 69.6711 10.7541 69.2652 10.7551C70.7206 9.8461 72.0191 8.70695 73.1109 7.38276C72.7682 7.33245 72.5569 7.23177 72.4464 7.30225C71.9937 7.5091 71.5868 7.80333 71.2482 8.16804C70.383 9.14897 69.3009 9.91434 68.0874 10.4027C67.6764 10.6252 67.2446 10.807 66.7985 10.9465C66.577 11.027 66.2954 11.0978 66.1946 10.6548L69.2754 8.86278C69.3559 8.81237 69.4664 8.792 69.5168 8.72172C69.9797 8.08748 70.4329 7.4432 70.9966 6.64789C70.7807 6.6817 70.5704 6.74612 70.3723 6.83916C69.9496 7.15121 69.5468 7.48343 69.1445 7.84585C68.3588 8.48906 67.4839 9.01453 66.547 9.40613C66.2246 9.55737 65.832 9.49677 65.5402 9.9398C65.2484 10.3828 64.9561 9.72847 64.6944 9.46673C66.6172 7.89622 68.9729 7.02034 70.5133 4.8962C71.2283 5.24854 72.0639 5.50025 72.4566 6.40627C72.5854 6.62101 72.7651 6.80076 72.98 6.92975L74.8927 8.36934L74.1879 9.03388C74.1879 8.67131 74.1879 8.4801 74.1879 8.19824C73.997 8.22477 73.8126 8.28618 73.6441 8.37942ZM86.3391 18.366C86.3391 18.6782 86.3391 19 86.2683 19.3121H86.1476L85.8253 18.5977C86.0066 18.5071 86.1675 18.4062 86.3391 18.3258L86.9833 17.7015C87.5068 18.5172 87.5068 18.5172 86.9833 18.9297L86.2984 18.3258L86.3391 18.366ZM80.9428 21.6077L82.3223 21.6882C82.443 22.2519 82.5438 22.6949 82.6543 23.2989L81.1343 23.0672C81.0839 22.6445 81.0233 22.1913 80.9428 21.6077ZM80.1474 22.9266C79.6743 22.6445 79.6545 22.5437 79.8556 21.4967C80.208 22.121 80.208 22.121 80.1474 22.9266ZM73.6038 29.8827L72.3858 29.762L73.3925 30.6175C73.3925 30.9098 73.3019 31.2118 73.2418 31.6243L71.3286 30.839C71.6713 31.6548 72.5166 31.8458 73.0299 32.4095C73.0299 32.7919 72.9296 33.1749 72.8492 33.6678L70.2414 32.2888L71.6509 27.7989C72.3053 28.131 72.8991 28.3927 73.4531 28.715C74.0066 29.0374 73.7749 29.43 73.6038 29.8827ZM75.1142 30.7789L74.2078 30.3054C74.2078 29.9733 74.2984 29.6816 74.3392 29.3893C75.4763 29.5003 75.5975 29.732 75.1142 30.7789ZM74.0469 31.1812C75.1341 31.4832 75.1442 31.4832 74.8927 32.5709L73.8859 32.0474C73.9364 31.6747 73.9964 31.4129 74.0469 31.1812ZM73.7851 32.8327L74.7919 33.2655C74.691 33.6377 74.5805 34.0105 74.4598 34.453C74.0973 34.2819 73.7953 34.1414 73.4531 33.9601C73.5438 33.5272 73.6543 33.1947 73.7851 32.8021V32.8327ZM74.7114 27.0239C75.4666 27.1446 75.5669 27.225 75.5873 27.8794C75.5873 28.272 75.5873 28.6646 75.5873 29.1881C74.359 28.3626 74.359 28.3626 74.7114 26.9933V27.0239ZM73.7653 28.0306C72.9597 27.7786 72.9296 27.6177 73.3222 26.2081L74.1273 26.5004L73.7653 28.0306ZM72.3354 27.4262C71.9631 27.4766 71.7518 27.3763 71.7818 27.0539C71.9127 25.2319 72.0537 23.4094 72.2045 21.4565C72.8089 21.7788 72.6781 22.1613 72.6979 22.4632C72.6577 23.0799 72.6577 23.6986 72.6979 24.3158C72.7886 24.8795 72.3756 25.3226 72.4968 25.9163C72.5207 26.4052 72.4667 26.8946 72.3354 27.3661V27.4262ZM74.8122 25.9265C74.8122 25.3928 75.2349 25.4132 75.6576 25.2319C75.6576 25.6444 75.6576 26.0171 75.6576 26.4602C75.2145 26.3191 74.8525 26.3089 74.8122 25.8659V25.9265ZM73.9964 25.735C73.2015 25.5339 72.9897 25.1917 73.2718 24.245C74.3086 24.628 74.3188 24.658 73.9964 25.6749V25.735ZM74.8423 23.0575C75.849 23.47 75.849 23.4904 75.4966 24.6982C74.5199 24.3759 75.2451 23.4802 74.8423 22.9969V23.0575ZM74.1477 23.8927C73.3523 23.8927 73.2514 23.7521 73.312 23.1074C73.312 22.7754 73.4027 22.4434 73.4633 22.0406C74.3992 22.534 74.47 22.5137 74.1477 23.8326V23.8927ZM74.9126 21.4769C75.4666 21.4769 75.5471 21.8191 75.5369 22.3624C75.0134 22.121 74.7012 21.9698 74.9126 21.4163V21.4769ZM74.1273 21.7488L73.312 21.376C73.3625 21.0741 73.4027 20.8123 73.4429 20.5404C74.2684 20.7319 74.2684 20.7319 74.1273 21.6882V21.7488ZM75.3052 19.7353L75.406 20.8424C74.7516 20.2486 74.7516 20.2486 75.3052 19.6645V19.7353ZM74.3794 20.1279C74.1813 20.0948 73.9863 20.048 73.7953 19.9869C73.6838 19.9375 73.5763 19.8804 73.473 19.8158C73.4633 19.6615 73.4633 19.5067 73.473 19.3524C73.5132 19.1619 73.5636 18.974 73.6242 18.7887C74.3488 18.8793 74.2383 19.4532 74.3794 20.1076V20.1279ZM72.6577 20.9834H72.4566C72.4566 20.0673 72.5569 19.1614 72.6276 18.0538C72.9077 18.9847 72.9179 19.9762 72.6577 20.9132V20.9834ZM73.4633 15.2653H73.6945C73.9802 16.2456 74.1059 17.265 74.0672 18.2855C73.8355 18.1343 73.614 18.064 73.6038 17.9734C73.5336 17.0873 73.4633 16.1514 73.4633 15.2653ZM72.8186 17.7116C72.5874 17.5507 72.4061 17.5003 72.4061 17.4198C72.3267 16.5465 72.426 15.6661 72.6979 14.8325C73.0442 15.7552 73.0834 16.765 72.8089 17.7116H72.8186ZM74.6309 16.0806C75.0052 16.8668 75.1417 17.7452 75.0236 18.6074C74.633 17.8267 74.496 16.9432 74.6309 16.0806ZM76.6444 15.5169C77.2682 15.3157 77.5504 15.5169 77.6512 16.131L77.0269 16.4432C77.1374 16.5638 77.1878 16.6647 77.2484 16.6647C77.4205 16.6596 77.5885 16.7171 77.7215 16.8261C77.8549 16.9356 77.944 17.0889 77.973 17.2584C78.2348 18.4266 78.5271 19.5943 78.829 20.8826L77.7316 21.0843C77.3894 19.2215 77.0269 17.4097 76.6643 15.5474L76.6444 15.5169ZM71.1881 12.0541C71.4595 12.6581 71.7014 13.2218 71.9529 13.7855L71.7818 13.896L70.5841 12.2955L71.1881 12.0541ZM67.0002 12.215C67.3322 12.0164 67.7044 11.8957 68.0894 11.8606C68.4744 11.826 68.8624 11.8779 69.225 12.0139C68.9138 12.2583 68.5401 12.4101 68.1469 12.4528C67.7538 12.4956 67.3561 12.4274 67.0002 12.2553V12.215ZM76.3022 14.5503C76.1612 14.1379 75.9397 13.6948 76.4733 13.1815L77.2484 14.6614C76.564 15.1242 76.483 15.0738 76.3022 14.5911V14.5503ZM79.9162 15.0036C80.4397 14.8121 80.5808 15.2047 80.8018 15.7384C80.3287 15.7384 79.9463 16.0908 79.795 15.5169C79.7349 15.4165 79.8154 15.0738 79.9162 15.0738V15.0036ZM78.7888 16.0806C78.3554 16.0103 78.3356 15.6783 78.2953 15.3458C78.9293 15.3962 78.9293 15.3962 78.7888 16.0806ZM82.8153 17.1983C82.1915 17.1983 82.2011 16.7451 82 16.5236C82 16.7451 82 16.9768 82.0906 17.319L80.3088 17.5105L80.0573 16.5037C80.5706 16.5037 80.9734 16.1412 81.396 16.6041C81.4765 16.6947 81.7887 16.6041 82 16.5338L82.3722 16.3423L82.8153 17.1983ZM83.3189 16.4834C83.6911 16.7253 83.7013 16.7151 83.9931 17.2488C83.5302 17.0873 83.5302 17.0873 83.3693 16.5236L83.3189 16.4834ZM80.7921 19L80.4698 18.1949C82.0204 17.6011 82.5739 17.7722 82.8657 18.8895C82.2918 19.2016 82.3524 18.5371 82.0102 18.3258C81.9414 18.5702 81.7831 18.7795 81.5661 18.9124C81.3497 19.0448 81.091 19.0906 80.8425 19.0407L80.7921 19ZM79.7451 19.1008C79.6041 19.1008 79.3826 19.1008 79.3525 19.1008C79.2369 18.8681 79.1422 18.6257 79.0704 18.3762C79.3321 18.1343 79.5236 18.1649 79.6143 18.4266C79.6769 18.6471 79.7207 18.8727 79.7451 19.1008ZM78.9095 17.591C78.8061 17.3099 78.7287 17.0201 78.6778 16.7253C79.2013 16.8159 79.574 17.3893 79.3423 17.6312C79.2731 17.6617 79.1977 17.675 79.1218 17.6699C79.0465 17.6648 78.9736 17.6409 78.9095 17.6011V17.591ZM84.0435 17.9836C84.6577 18.064 84.6678 18.0742 84.6979 18.9195C83.9931 18.9598 83.9931 18.9598 84.0435 17.9937V17.9836ZM79.5032 19.6543C79.6275 19.7037 79.7375 19.7822 79.8235 19.884C79.9101 19.9853 79.9707 20.1065 79.9992 20.2364C80.0283 20.3668 80.0247 20.5017 79.989 20.6305C79.9534 20.7589 79.8867 20.8765 79.795 20.9732C79.6611 20.7843 79.5664 20.5699 79.5165 20.3433C79.4661 20.1172 79.4615 19.883 79.5032 19.6543ZM83.0673 21.8491C83.9025 21.3862 84.3659 21.5874 84.6072 23.2989C83.4696 23.5606 83.2883 23.3997 83.0368 21.8491H83.0673ZM85.4933 23.0071C85.423 22.6848 85.2921 22.3726 85.1511 21.9398L85.8655 21.7488C86.1904 22.2499 86.3681 22.8324 86.3793 23.4298C85.8859 23.5907 85.5437 23.5606 85.4632 23.0071H85.4933ZM80.9128 21.1143C80.9128 20.571 80.8425 20.1982 80.812 19.7149L81.9195 19.6141C82 20.0877 82.0703 20.4701 82.1512 20.9936L80.9128 21.1143ZM82.5938 19.7251C82.7501 19.6487 82.9288 19.6309 83.0969 19.6752C83.2649 19.72 83.4116 19.8234 83.5098 19.9665C83.8826 20.4299 83.9127 20.4701 83.7818 21.1347H82.9864C82.8555 20.631 82.7246 20.1682 82.5938 19.6747V19.7251ZM84.7279 21.1143C84.5874 20.6713 84.4463 20.2084 84.3053 19.7353C85.312 19.5642 85.7046 19.9466 85.6848 21.2554L84.7279 21.1143ZM87.6575 19.413C88.3221 20.3087 88.3119 20.4701 87.517 20.6713C87.0638 19.7048 87.0638 19.7048 87.6575 19.4333V19.413ZM85.644 17.8527C85.0503 17.1581 85.3222 16.685 86.4598 16.4233C86.802 17.2284 86.802 17.2284 85.6746 17.8726L85.644 17.8527ZM84.8288 16.5542C84.8288 16.131 84.8288 15.8092 84.9092 15.688C84.9897 15.5673 85.5539 15.1548 86.027 15.7786L84.8288 16.5542ZM82.5739 15.4364C81.7082 15.7689 81.5671 15.7282 81.1847 14.9129L82.0204 14.5407C82.2515 14.8931 82.4328 15.1645 82.6039 15.4568L82.5739 15.4364ZM84.3455 14.6614C84.6149 14.4999 84.8939 14.3553 85.1811 14.2285C85.1811 14.5004 85.3018 14.8121 85.2417 14.8426C84.9744 15.0285 84.6607 15.137 84.3353 15.1548C84.1342 15.1548 84.1443 14.8223 84.376 14.6812L84.3455 14.6614ZM79.0302 13.5034C78.9395 12.9096 78.1141 12.5975 78.6579 11.883C79.3826 12.5776 79.5032 12.9498 79.0602 13.5237L79.0302 13.5034ZM80.0369 12.0638L81.5167 13.896C81.5213 13.953 81.5213 14.0106 81.5167 14.0671C81.3054 14.0671 81.0034 14.1277 80.9026 14.007C80.4871 13.4433 80.1235 12.8439 79.8154 12.215L80.0369 12.0638ZM77.6609 13.8257C77.5503 13.5339 77.4597 13.262 77.2988 12.819C78.1243 13.2416 78.1645 13.4031 77.641 13.8461L77.6609 13.8257ZM73.4633 13.3022C73.2418 13.5843 72.9999 13.7249 72.7585 13.4127C72.5166 13.1011 72.1138 12.4564 71.7518 11.9329C71.9025 11.8423 72.0537 11.7114 72.094 11.7318C72.6669 12.1412 73.1353 12.6789 73.4633 13.3022ZM69.9394 11.6814L71.2482 11.3692C71.1926 11.4924 71.1096 11.6009 71.0052 11.6864C70.9003 11.772 70.7776 11.8321 70.6462 11.8621C70.5144 11.8927 70.3779 11.8922 70.2465 11.8606C70.1151 11.829 69.9929 11.7679 69.889 11.6814H69.9394ZM64.3018 8.60089C64.1307 7.65459 64.3018 7.18146 65.0269 6.88947C65.7515 6.59753 66.4059 6.35595 67.0404 6.05393C67.3882 5.86984 67.7243 5.66478 68.0471 5.43985C68.48 5.19822 68.9026 4.93648 69.3457 4.73513C69.5835 4.67219 69.8361 4.69353 70.0606 4.79553C68.3186 6.33833 66.3616 7.62011 64.2519 8.60089H64.3018ZM22.7852 71.0171C23.5086 70.6276 24.3196 70.4305 25.141 70.4432L22.8255 71.2183L22.7852 71.0171ZM31.1812 76.554L30.7886 75.5472L32.4698 74.903L34.7751 76.3829C33.6216 76.7999 32.3691 76.8595 31.1812 76.554ZM25.6342 74.6413L26.3188 75.2855C26.2893 75.3293 26.2656 75.3766 26.2483 75.4265L24.6477 75.1846L25.6342 74.6413ZM23.6208 75.0034L23.047 74.8929V74.7218L23.6308 74.8124C23.6058 74.8745 23.5856 74.9382 23.5704 75.0034H23.6208ZM44.208 67.8558C44.4295 68.0071 44.651 68.1476 44.8926 68.2887C43.8859 69.1447 43.8053 69.2954 42.6275 67.9266L43.4832 67.3828C43.6946 67.564 43.9262 67.7148 44.1577 67.8558H44.208ZM44.208 67.0304L45.2147 66.4061L46.5033 67.2519C45.4866 68.1578 45.1342 68.1176 44.208 67.0304ZM41.9027 68.3691C42.3356 68.581 42.7383 68.8626 43.1611 69.1243C42.6477 69.658 42.6477 69.658 41.3893 68.6411C41.6208 68.5204 41.8222 68.3289 41.9027 68.3691ZM33.5369 72.6278C35.208 71.45 35.208 71.8624 36.2147 72.6579L34.5738 73.4635C34.2013 73.1712 33.8691 72.9094 33.5369 72.6278ZM33.7886 73.6346C32.9027 74.3393 32.5906 74.3291 31.5839 73.5139C32.6309 72.7286 32.6309 72.7286 33.7886 73.6544V73.6346ZM38.3792 71.5406L36.9094 72.3157L35.9732 71.5707L37.2215 70.8058L38.3792 71.5406ZM38.0872 70.5339C39.094 69.8693 39.094 69.8693 40.1007 70.7854L39.0436 71.2891L38.0872 70.5339ZM37.604 72.7887C38.3792 72.1644 38.7215 72.0437 39.3456 72.0941L40.7147 71.2483L41.5402 71.6817C41.5402 71.3894 41.5402 71.1984 41.5402 70.9769L42.7684 70.4432L43.453 70.9769C41.7834 72.0661 40.0096 72.9868 38.1577 73.7252L37.604 72.7887ZM39.8288 69.7084C40.8356 68.8926 40.9362 68.9028 41.8423 69.8189C41.2483 70.7248 40.5235 70.6444 39.8288 69.7084ZM39.8893 68.6309C39.1745 69.2654 39.1745 69.2654 38.4094 68.8223L36.7483 67.8762C36.7483 67.7856 36.7483 67.7051 36.7483 67.6241L37.755 67.0604L39.8893 68.6309ZM38.2785 69.6376L37.4127 70.101L35.208 68.7317L36.3456 68.198C36.6778 68.9329 37.6342 68.9833 38.2785 69.6076V69.6376ZM36.698 70.3826L35.208 71.1078L33.4161 70.101L34.4228 69.1946L36.698 70.3826ZM33.9798 71.3894C32.4597 72.2148 32.9027 72.3961 31.3121 71.2081C32.4094 70.5038 33.1946 70.5441 33.9798 71.45V71.3894ZM31.8456 72.557L30.8389 73.0805L29.6208 72.2856C30.2248 71.3792 30.7584 71.45 31.8456 72.5774V72.557ZM28.2819 72.2148L30.1745 73.4635C29.7114 73.7654 29.3892 73.9966 29.057 74.1881C29.0013 74.2181 28.9391 74.2339 28.8758 74.2339C28.8126 74.2339 28.7503 74.2181 28.6946 74.1881C27.8691 73.6646 27.0638 73.1213 26.2483 72.5774C26.2483 72.5774 26.198 72.4669 26.1376 72.3258L27.5973 71.5406L28.2819 72.2148ZM31.6745 74.5303C30.9295 74.5303 30.2651 75.3359 29.4094 74.6311C30.7382 73.7756 31.0604 73.6946 31.6745 74.5507V74.5303ZM25.8053 73.2924C25.3624 73.7654 25.3221 73.7552 24.5671 72.8692C24.6772 72.8152 24.797 72.7836 24.9194 72.777C25.0419 72.7699 25.1645 72.7877 25.2799 72.829C25.3954 72.8702 25.5014 72.9344 25.5917 73.0174C25.682 73.1004 25.7546 73.2007 25.8053 73.3122V73.2924ZM24.1342 73.6447C23.5503 73.7654 23.5503 73.7654 23.3792 73.1615L24.1342 73.6447ZM28.0101 74.7116L27.1543 75.2554C26.7617 74.8725 26.4094 74.5104 26.0168 74.1377C26.8624 73.7552 27.2248 73.8759 28.0402 74.7116H28.0101ZM30.2852 76.3625L28.9161 76.2316C29.7617 75.4769 29.8725 75.4769 30.3154 76.3625H30.2852ZM42.0235 76.3625C40.1593 76.8101 38.2388 76.9761 36.3255 76.8559C37.4731 76.554 38.641 76.3024 39.7584 75.9296C40.1345 75.7494 40.5574 75.6903 40.9685 75.7606C41.3797 75.8308 41.7589 76.0274 42.0537 76.3223L42.0235 76.3625ZM45.0436 75.9098L44.6308 75.9699C44.6358 75.9098 44.6358 75.8492 44.6308 75.7886H45.0436C45.0526 75.8151 45.0593 75.8421 45.0637 75.8696L45.0436 75.9098ZM41.8523 75.396C41.9869 75.2412 42.152 75.1159 42.3373 75.0278C42.5226 74.9397 42.7241 74.8908 42.9292 74.8842C43.1343 74.8776 43.3386 74.9132 43.5292 74.9891C43.7198 75.065 43.8926 75.1796 44.0369 75.3257C43.3322 75.8191 42.6577 76.141 41.8725 75.3557L41.8523 75.396ZM46.4933 75.7285C46.302 75.7886 46.0302 75.5172 45.7181 75.3461C46.4731 74.8022 47.1275 74.43 48.0134 75.094C47.587 75.4428 47.0629 75.6506 46.5134 75.6883L46.4933 75.7285ZM57.9094 68.6813C57.3355 69.5674 57.1945 69.6178 56.3996 69.215L55.6138 68.7618L56.0874 68.2989C56.2183 68.168 56.3588 68.0473 56.5503 67.8859L57.9094 68.6813ZM57.1038 67.423L57.8488 66.708L58.6544 67.0604L59.3689 67.423C58.5434 68.4297 58.5434 68.4297 57.1038 67.423ZM59.9331 69.7486C59.349 70.4432 59.0669 70.4432 58.0907 69.7486C58.8255 69.0439 58.9966 69.0439 59.9331 69.7385V69.7486ZM54.6275 68.802C53.7114 69.6779 53.6208 69.6779 52.7047 69.0943C53.4396 68.1884 53.661 68.1476 54.6275 68.7923V68.802ZM55.0099 69.054L56.4398 69.7685C55.7447 70.5537 55.4931 70.7752 54.2248 69.7084L55.0099 69.054ZM57.1746 70.0608L57.8188 70.292L58.4329 70.5339C57.4262 71.2891 57.4262 71.3996 56.4194 70.7248L57.1746 70.0608ZM55.0404 70.8257C53.9228 71.6817 53.9228 71.6817 52.9665 70.9265L53.7013 70.1311L55.0404 70.8257ZM56.6812 71.5406C56.1979 71.7621 55.8353 71.9434 55.4631 72.0743C55.3521 72.0743 55.2014 72.0035 55.0404 71.9531C55.7549 71.178 55.7549 71.178 56.6812 71.5605V71.5406ZM53.2382 71.8426C52.594 72.5876 52.594 72.5876 51.698 72.0137C52.3221 71.2891 52.4832 71.2687 53.2382 71.8624V71.8426ZM49.9765 71.9531C49.0604 72.9598 48.9195 72.9598 47.4496 72.2148L48.9295 71.3491L49.9765 71.9531ZM50.9832 72.3055L51.9194 72.7989C51.1946 73.6447 51.0235 73.6646 49.8456 73.0505L50.9832 72.3055ZM47.9631 73.2318C47.2282 74.1178 46.3926 73.7853 45.4564 73.4833C46.5235 72.527 46.8859 72.5372 48.0235 73.2521L47.9631 73.2318ZM50.1174 73.8657C48.7886 75.0237 48.8288 74.8725 47.7315 74.2181C48.547 73.7451 49.2416 73.0805 50.1778 73.8861L50.1174 73.8657ZM45.557 74.2787C45.2047 74.8725 45.2047 74.8725 43.6644 74.3694C44.4094 73.8158 45.0033 74.0776 45.6174 74.2991L45.557 74.2787ZM49.4228 75.3557C50.2685 74.7722 51.0134 74.1983 51.8087 73.7349C52.3361 73.5022 52.8859 73.3234 53.4497 73.2017C53.4497 73.1213 53.4497 72.8997 53.3893 72.668C53.7013 72.4669 53.953 72.0743 54.5067 72.3559L53.8624 72.9298C54.5601 72.9211 55.2472 72.7597 55.8756 72.4567C56.4373 72.1787 57.0157 71.9368 57.6075 71.7316C56.3996 73.2618 51.3154 75.9296 49.4832 75.3761L49.4228 75.3557ZM62.0169 72.7286C60.9327 73.2007 59.8027 73.5587 58.6442 73.7955C59.4295 73.2822 60.2147 72.7887 61.0203 72.2754C61.4934 72.0335 61.6747 72.4567 62.077 72.7485L62.0169 72.7286ZM62.772 72.2454C61.9715 71.9281 61.2403 71.4602 60.6175 70.8659C59.983 71.1174 60.4566 71.5004 60.4866 71.7718C57.3355 74.1983 53.8826 75.7988 52.3322 75.4163C52.4389 75.3344 52.5536 75.2636 52.6745 75.205C54.8696 74.3337 56.9093 73.1136 58.7145 71.591C59.2584 71.148 60.0034 70.9667 60.3756 70.2823C60.4143 70.2212 60.4693 70.1728 60.5345 70.1418C60.5997 70.1107 60.672 70.099 60.7433 70.1071C60.8151 70.1158 60.8828 70.1443 60.9388 70.1891C60.9948 70.2344 61.0371 70.2945 61.0605 70.3628C61.2113 71.0273 61.7347 71.2789 62.1981 71.6211C62.4487 71.7932 62.6641 72.0116 62.8321 72.2652L62.772 72.2454ZM66.0739 68.6915C66.3657 68.4094 66.4864 68.2082 66.5974 68.2082C67.2115 68.2082 67.6041 68.6411 68.1072 69.0739C67.2217 69.7186 66.9294 68.7118 66.134 68.7118L66.0739 68.6915ZM69.9094 68.5504C69.7082 68.9736 69.4867 69.2048 68.9026 68.9935C69.3054 68.6614 69.5066 68.4297 69.97 68.5708L69.9094 68.5504ZM71.0669 67.8456L70.3224 68.2082C70.6142 67.6746 70.6142 67.6746 71.1275 67.866L71.0669 67.8456ZM72.567 66.678C71.8928 67.4031 71.8928 67.4031 71.4193 66.9097C71.8322 66.7284 72.0537 66.2151 72.6276 66.6984L72.567 66.678ZM74.1981 65.6712C73.3222 66.3964 73.3222 66.3964 72.7988 65.8327C73.4633 65.1075 73.4633 65.1075 74.2582 65.7217L74.1981 65.6712ZM75.5068 64.6645C74.9329 65.2786 74.9329 65.2786 74.0672 64.7653C74.7618 64.0305 74.7618 64.0305 75.5669 64.6849L75.5068 64.6645ZM77.0875 63.4464C76.6139 64.2418 76.453 64.2719 75.4462 63.7285C75.9901 62.8425 76.594 63.4968 77.1476 63.4668L77.0875 63.4464ZM77.8926 62.7819L77.611 63.1648L76.4932 62.6312C76.9866 62.5777 77.4857 62.6362 77.9532 62.8023L77.8926 62.7819ZM78.8993 61.7751C78.3758 62.3292 78.1344 62.319 76.3022 61.6646C76.4229 61.4233 76.5334 61.2017 76.6444 61.0001L78.8993 61.7751ZM80.3689 60.4262C79.574 61.3728 79.463 61.4329 78.3554 60.9095L77.611 60.5672C78.4262 60.4466 79.0602 61.1009 79.7451 60.497C79.3724 59.9735 78.7384 60.1645 78.2653 59.9027C77.7856 59.6893 77.2906 59.5111 76.785 59.3695C76.6343 59.6715 76.5232 59.8828 76.4331 60.0942H75.1646L75.9799 60.9599C75.5975 61.6142 74.7919 61.5944 74.1777 62.0674L75.1845 63.0742C74.9126 63.507 74.5805 63.5671 74.1176 63.2651C73.7933 63.1012 73.4567 62.9632 73.1109 62.8527C72.6073 63.8594 73.9465 63.4765 73.9465 64.1716C73.7749 64.4634 73.5437 64.7047 73.0707 64.3523C72.7483 64.1532 72.4117 63.9781 72.0639 63.8289C71.792 64.3523 71.792 64.3523 72.7382 65.0775C72.4464 65.8123 72.0838 65.7217 71.6005 65.3795C71.1173 65.0373 70.5938 64.745 70.1411 64.4333C70.0846 64.5148 70.0469 64.608 70.0301 64.7057C70.0138 64.8035 70.0184 64.9033 70.0443 64.9991C70.0703 65.0948 70.1166 65.1839 70.1798 65.2603C70.2434 65.3362 70.3229 65.3973 70.4125 65.4401C70.7649 65.6814 71.1376 65.8928 71.5099 66.1143C71.047 66.9397 70.9161 66.98 70.2114 66.4366C70.0403 66.3057 69.9094 66.1041 69.7179 66.0236C69.5315 65.9926 69.3411 65.9926 69.1542 66.0236C69.1542 66.2253 69.1542 66.4768 69.2754 66.5975C69.5926 66.8812 69.9292 67.1439 70.2816 67.3828C70.1207 67.5136 70 67.6343 69.8692 67.755L68.067 66.376C67.9916 66.4539 67.9361 66.5486 67.9056 66.653C67.875 66.7569 67.8704 66.8669 67.8923 66.9733C67.9142 67.0798 67.9616 67.1791 68.0308 67.2626C68.1001 67.3461 68.1882 67.4118 68.2885 67.453C68.6109 67.6745 68.9632 67.866 69.4159 68.1278L68.6613 68.7923C67.9667 68.4501 67.3724 68.0977 67.3928 67.121C67.0908 67.2921 66.7481 67.3624 66.5872 67.5742C66.5067 67.728 66.3937 67.863 66.2562 67.9689C66.1182 68.0748 65.9588 68.1497 65.7897 68.1879C65.6202 68.226 65.444 68.2271 65.2744 68.1904C65.1043 68.1542 64.9444 68.0814 64.8054 67.9765C64.9159 68.4399 64.9969 68.7419 65.057 68.9833C65.9277 69.1747 66.7099 69.6488 67.2818 70.3322C67.02 70.6041 66.7985 70.6545 66.547 70.403C66.0535 69.9197 65.5402 69.4568 65.057 68.9833H64.896C64.6643 68.9232 64.3924 68.7419 64.2615 69.0943C64.1307 69.4467 64.4326 69.4665 64.6343 69.6178C65.1476 70.0104 65.641 70.4534 66.0937 70.8557C65.9028 71.3491 65.6512 71.339 65.3289 71.1174C64.7147 70.6846 64.1006 70.2721 63.4763 69.8693C63.24 69.7405 62.9946 69.6295 62.7415 69.5373C62.4599 70.1713 62.8724 70.3628 63.2049 70.5441C63.7482 70.8761 64.3221 71.178 65.0972 71.5508L63.8287 72.0641C62.8917 71.5162 62.1116 70.736 61.5636 69.799C62.2786 69.245 63.0338 68.7017 63.7584 68.1176C64.1419 67.8059 64.5055 67.4693 64.8456 67.1108C65.0972 66.8389 65.0773 66.819 64.8456 66.2752C64.7081 66.3821 64.5773 66.4962 64.453 66.6179C63.4901 67.6868 62.3616 68.5942 61.1109 69.3056C60.9852 69.3937 60.836 69.4406 60.6827 69.4406C60.5299 69.4406 60.3802 69.3937 60.2549 69.3056C59.9127 69.1045 59.5502 68.943 59.1677 68.7317C59.2782 68.4934 59.4544 68.2907 59.6754 68.1481C59.8964 68.0055 60.1531 67.9287 60.4158 67.9266C60.8441 68.0203 61.2551 68.1797 61.6344 68.3997L61.7347 68.2286L60.8792 67.423C61.03 67.1312 61.5234 66.8796 61.0906 66.3256L59.9631 67.121L58.3626 66.2956C59.0669 65.6412 59.7116 65.0271 60.3756 64.4129C60.478 64.2912 60.6195 64.2087 60.7759 64.1812C60.9327 64.1537 61.0941 64.1823 61.2316 64.2622L62.7013 65.1075C62.1376 65.7018 61.6344 65.9834 60.9093 65.5709C60.7759 65.4655 60.6114 65.408 60.4413 65.408C60.2712 65.408 60.1062 65.4655 59.9733 65.5709C60.5482 65.9345 61.1629 66.2319 61.8055 66.4565C62.3891 66.5873 62.8123 67.2723 63.5975 66.9499C63.3658 66.376 62.7114 66.5675 62.4293 66.1443C62.8525 65.7721 63.2349 65.3494 63.8689 65.8123C64.1307 66.0038 64.3827 65.933 64.6042 65.5806L63.9295 65.1075C64.5243 64.2042 65.198 63.3553 65.943 62.5706C66.2048 62.3796 66.5571 62.0873 66.3056 61.5638C66.1141 61.6544 65.8722 61.6947 65.7515 61.8459C65.0162 62.4621 64.369 63.177 63.8287 63.9699C63.4763 64.6747 63.1647 64.745 62.4899 64.3625C62.1172 64.1614 61.7653 63.9297 61.3824 63.6883C62.0871 62.953 62.7216 62.3292 63.3154 61.6748C63.5069 61.4533 63.8287 61.1208 63.2548 60.7989C62.6712 61.4233 62.0973 62.0776 61.4934 62.6816C60.4062 63.7484 59.3088 64.8056 58.191 65.8327C57.9731 65.9849 57.7317 66.1005 57.4766 66.1749C57.3513 66.4346 57.1996 66.681 57.0234 66.9097C56.6206 67.3023 56.1877 67.6649 55.7549 68.0167C55.1408 68.5306 55.1408 68.5306 54.3255 67.9164C54.6903 67.6751 55.0277 67.395 55.3322 67.0808C55.5537 66.7987 56.1073 66.5471 55.6444 65.9432C55.2314 66.3358 54.8691 66.708 54.4765 67.0406C54.0839 67.3726 53.9832 67.6343 53.5302 67.5437C53.4891 67.5462 53.4491 67.5574 53.4126 67.5768C53.3762 67.5956 53.3442 67.6221 53.3188 67.6547C53.2483 68.3997 52.4732 68.3691 52.1711 68.8223L51.094 68.3895C51.4161 69.5373 52.5436 69.326 53.1074 69.9197C52.9362 70.3826 52.4429 70.433 52.1007 70.6846C51.3521 70.3312 50.5696 70.0547 49.7651 69.8591C50.1074 70.5741 50.9027 70.6245 51.4563 71.0976C51.4178 71.1994 51.3572 71.2911 51.2789 71.3664C51.2006 71.4418 51.1065 71.4989 51.0035 71.5335C50.9005 71.5681 50.791 71.5798 50.6831 71.5671C50.5751 71.5544 50.4713 71.5177 50.3792 71.4602C50.0702 71.3216 49.7737 71.1567 49.4933 70.9667C49.2909 70.8221 49.0421 70.7574 48.7948 70.7849C48.5476 70.8129 48.3194 70.9316 48.1543 71.1174C48.0134 71.2784 47.8467 71.4143 47.6611 71.5202C46.1007 72.3661 44.5604 73.2216 42.9799 74.0272C41.3258 74.8903 39.5559 75.5111 37.7248 75.8696C37.6342 75.8696 37.5335 75.8696 37.453 75.8696C36.849 76.0305 36.2047 76.4231 35.6711 76.3121C35.0428 76.0503 34.464 75.6822 33.9597 75.2249L33.1443 74.6311C34.0805 74.0374 34.4329 74.0374 35.1577 74.6311C35.4094 74.8226 35.6107 75.064 35.8624 75.2351C36.1141 75.4062 36.2852 75.4566 36.2752 75.064C36.2093 74.9163 36.1248 74.7773 36.0235 74.651C35.7718 74.3892 35.4899 74.1682 35.1376 73.8657L36.7785 73.1213L37.7148 73.8255C37.2718 74.3393 36.4262 74.3291 36.2752 75.064C38.1582 74.4284 39.9836 73.6335 41.7316 72.6879C42.7986 72.1145 43.8456 71.5101 44.8826 70.8964C45.1455 70.7029 45.3914 70.4875 45.6174 70.2518C45.0637 69.99 44.7416 70.3225 44.4094 70.4835C44.0772 70.6444 43.7047 70.594 43.4027 70.1311L45.6778 68.8223C46.0604 68.8223 46.4329 69.6279 46.9362 68.8728L46.2819 68.309L47.047 67.6949L48.1242 68.2286L47.5604 68.8524C47.7868 68.8605 48.0134 68.8402 48.2349 68.7923C49.8131 68.0575 51.2886 67.12 52.6241 66.0038C52.9665 65.6916 53.3691 65.4599 53.7416 65.1783C53.8423 65.0973 53.9228 64.9767 54.0939 64.7954C53.9103 64.7837 53.726 64.8096 53.5528 64.8718C53.3796 64.9344 53.2211 65.0316 53.0872 65.1579C51.9899 65.8729 50.8825 66.5573 49.8154 67.3125C49.5409 67.5269 49.2025 67.6435 48.854 67.6435C48.5055 67.6435 48.1671 67.5269 47.8926 67.3125C48.5772 66.7987 49.2315 66.3057 49.906 65.8123C50.5805 65.3189 51.2248 64.8056 51.9194 64.2418C52.2416 63.9597 52.2416 63.8793 52.2013 63.3359C51.708 63.3359 51.4362 63.6781 51.1141 63.9399C50.0168 64.7954 48.9295 65.6712 47.8221 66.5273C47.5972 66.6749 47.3616 66.8063 47.1175 66.9199L45.8993 66.0338C46.7544 64.9986 47.7708 64.1079 48.9094 63.396C50.1375 62.7294 51.2604 61.8846 52.2416 60.8896C52.3322 60.7786 52.4732 60.6681 52.5034 60.527C52.519 60.4567 52.5181 60.3839 52.5007 60.3137C52.4832 60.2439 52.4496 60.1792 52.4027 60.1242C52.3411 60.0901 52.2718 60.0718 52.2013 60.0718C52.1309 60.0718 52.0615 60.0901 52 60.1242C51.6514 60.5199 51.2817 60.8962 50.8926 61.2517C49.4731 62.3592 48.0235 63.4266 46.5637 64.4832C45.557 65.2282 44.4799 65.9228 43.4329 66.6479L41.6006 65.2384C41.4396 66.3658 42.4866 66.376 42.7785 66.9499C42.0939 67.4836 41.8926 67.4734 41.2785 66.9499C40.928 66.6923 40.5615 66.4565 40.1812 66.2451C40.1107 66.7987 40.1107 66.7987 41.1879 67.6949C41.057 68.0473 40.7953 68.198 40.4732 68.0269C39.8087 67.6445 39.1846 67.2117 38.4597 66.7488C39.3557 66.0338 40.161 65.3794 40.9866 64.7353C41.9933 63.9399 43 63.2051 44.0067 62.3796C44.4206 61.96 44.7885 61.4976 45.104 61.0001C45.1348 60.9288 45.1506 60.8514 45.1506 60.7735C45.1506 60.6956 45.1348 60.6187 45.104 60.5474C42.712 62.7956 40.1171 64.8178 37.3524 66.5873C34.6384 68.4246 31.8217 70.1051 28.9161 71.6211L28.2517 71.1679C28.8054 70.8659 29.2584 70.6041 29.7718 70.3322C30.2852 70.0608 30.5671 69.8495 30.9497 69.5775C31.3322 69.3056 31.9061 68.9028 32.3691 68.5708C32.5824 68.3742 32.781 68.1624 32.9631 67.9363L32.8423 67.7754C32.6854 67.8008 32.5329 67.8482 32.3893 67.9164C31.151 68.6915 29.9731 69.5877 28.6745 70.2319C27.0436 71.0574 25.3221 71.6913 23.6409 72.3859C23.399 72.4374 23.1531 72.4674 22.9061 72.4766C22.2819 72.6176 21.6678 72.7785 20.8926 72.9598C21.4664 73.7853 22.1309 73.3224 22.7248 73.383V74.0068L20.4597 74.5002C20.1044 74.9372 19.7175 75.3481 19.302 75.7285C18.6376 76.2418 17.9128 76.6645 17.2081 77.1279C17.1074 77.1981 16.9564 77.2384 16.906 77.329C16.1812 78.4967 14.8926 78.3963 13.8255 78.5069C12.772 78.5318 11.7182 78.4712 10.6745 78.3256L15.9295 77.8326C15.8188 77.2384 15.4966 77.299 15.1342 77.3392C13.6846 77.4899 12.2248 77.6111 10.7752 77.7618C10.4987 77.8087 10.2261 77.8759 9.95975 77.9635C10.1208 78.1346 10.1711 78.2252 10.2517 78.2553C10.3977 78.2858 10.5457 78.3062 10.6946 78.3159C10.3077 78.2899 9.91906 78.3103 9.53689 78.376C9.08183 78.5338 8.64346 78.736 8.22819 78.9799C7.72691 79.3786 7.12989 79.6389 6.49664 79.7351C6.66195 79.5645 6.83672 79.4031 7.02013 79.2518C7.95638 78.5873 8.90268 77.9233 9.85908 77.2384C10.0585 77.0978 10.2909 77.0112 10.5335 76.9868C11.3967 76.8386 12.2827 76.8936 13.1208 77.1477C13.7047 77.3998 14.198 77.0072 14.7416 76.9766C14.7689 76.9725 14.7948 76.9624 14.8175 76.9466C14.8402 76.9308 14.859 76.9104 14.8725 76.886C15.1342 75.9398 15.9798 75.4769 16.604 74.8725C17.2364 74.2018 17.9087 73.5699 18.6174 72.9802C19.0464 72.6899 19.4974 72.4343 19.9664 72.2148L20.7316 72.638C21.2355 72.4903 21.7216 72.2876 22.1812 72.0335C23.06 71.5895 23.9997 71.2773 24.9698 71.1078C25.9094 70.791 26.8304 70.4213 27.7282 70.0002C28.2896 69.6845 28.8249 69.3245 29.3288 68.9232C29.9074 68.5642 30.4592 68.1639 30.9799 67.725C31.9866 66.7182 32.9933 65.6208 34 64.584C33.7685 64.1716 33.5268 64.3223 33.3456 64.4832C32.6611 65.0673 31.9765 65.6514 31.3322 66.2655C30.6879 66.8796 30.1846 67.3929 29.6208 67.9669L29.4496 67.836C29.5587 67.647 29.6798 67.4653 29.8121 67.2921C30.3456 66.7284 30.8993 66.1749 31.4329 65.6208C32.5281 64.3692 33.4584 62.982 34.2013 61.4935C34.8436 60.3885 35.425 59.2494 35.943 58.0807C36.8087 56.1278 37.5738 54.1245 38.4496 52.1716C39.2248 50.4499 40.0906 48.7684 40.9161 47.0671C41.4094 46.0609 41.8624 45.0541 42.3859 44.0474C43.151 42.5574 43.8758 41.0272 44.7819 39.6278C46.3121 37.292 48.0336 35.0773 49.5637 32.742C50.9731 30.5773 52.5839 28.5943 54.0939 26.4602C55.6042 24.3255 56.8823 22.4332 58.2114 20.4197C58.9162 19.3223 59.5099 18.1547 60.1241 17.0069C60.6475 16.0001 61.1308 15.0738 61.6242 14.0976C61.7953 13.7453 61.9364 13.3725 62.0973 12.9901C62.4696 13.0507 62.5602 13.2518 62.4197 13.5237L60.5167 17.0873L60.2952 17.5003L58.8658 20.3393C58.3626 21.346 57.859 22.3527 57.3457 23.3595C56.9368 24.1539 56.476 24.9208 55.9662 25.6546C55.1509 26.8126 54.4564 28.0607 53.7013 29.2991C53.7732 29.3572 53.8582 29.3974 53.949 29.4162C54.0399 29.4346 54.1338 29.431 54.2229 29.405C54.3119 29.3796 54.3934 29.3327 54.4604 29.2686C54.5273 29.2044 54.5778 29.125 54.6074 29.0374C55.3119 27.7689 56.4194 26.7219 56.7922 25.262C56.8197 25.1387 56.8788 25.0241 56.9633 24.9299C57.7842 24.08 58.464 23.1049 58.9763 22.0406C59.4936 21.1474 59.9606 20.2267 60.3756 19.2821C61.2011 17.5706 61.9863 15.8591 62.8021 14.1481C62.8021 14.0472 62.963 13.9866 63.2146 13.7554C62.7517 16.0307 61.4226 17.6816 60.6776 19.5841C59.9331 21.4871 59.0873 23.3289 58.2516 25.2722C58.4125 25.2722 58.5836 25.2721 58.6743 25.2014C59.0542 24.9249 59.3623 24.5608 59.5726 24.1406C59.7829 23.72 59.8888 23.2556 59.8827 22.7856C59.8618 22.6191 59.8791 22.45 59.9331 22.2916C59.9871 22.1328 60.0767 21.9886 60.1948 21.8695C61.0926 20.8291 61.746 19.6014 62.1075 18.2754C62.2985 17.7015 62.7114 17.178 62.5806 16.5134C62.5729 16.4839 62.5729 16.4528 62.5806 16.4233L63.8491 14.6614C63.9193 14.782 64.0904 14.9333 64.0604 15.0336C63.9769 15.5876 63.789 16.1208 63.5069 16.6041C63.3297 16.8719 63.2003 17.1683 63.1239 17.4799C62.772 18.4867 62.3891 19.4934 61.9461 20.4095C60.8324 22.893 59.6714 25.3592 58.463 27.8091C57.8891 28.9467 57.2148 30.0238 56.5803 31.1313L54.4262 34.9465C55.0231 34.7107 55.5186 34.2722 55.8257 33.7085C56.949 31.995 57.9578 30.2091 58.8454 28.3627C59.6408 26.5406 60.6374 24.7991 61.5336 23.0168C61.7149 22.6547 61.8254 22.2621 61.9965 21.8995C62.1676 21.537 62.3086 21.3154 62.4696 21.0135C63.4162 21.4463 63.6678 22.3726 64.3221 23.027C64.2315 23.3595 64.1307 23.7017 63.9998 24.1447L62.2486 22.5743L62.0973 22.6649C62.1284 22.8416 62.19 23.0117 62.2786 23.168C62.5403 23.47 62.8724 23.7215 63.1341 24.0235C63.8088 24.7991 63.819 25.0303 63.265 25.9866C62.5908 25.5033 62.5908 25.5033 62.6509 24.658L61.3824 24.6982C62.0367 25.2722 61.7047 25.7855 61.3824 26.339C61.1512 26.7418 60.9897 27.1746 60.7382 27.7185C61.6242 27.3961 61.9766 28.0505 62.3993 28.5037C63.0837 29.2283 63.7182 30.0034 64.3425 30.7789C64.5472 31.0835 64.729 31.4033 64.8859 31.7353C65.057 32.0271 64.8858 32.1783 64.6643 32.4299L61.282 28.9666L61.141 29.0374C61.141 29.1275 61.141 29.2686 61.1914 29.319C61.9364 29.9433 61.8458 30.6481 61.3319 31.4532L60.6175 30.8492C60.4464 31.3829 60.9597 31.5138 61.0906 31.9466L60.7586 32.7115C60.6374 32.9635 60.5269 33.2151 60.4062 33.4768L59.7518 33.3159C60.4464 34.423 59.7518 35.168 59.2986 36.0438L58.4528 35.2988C58.5556 35.858 58.8179 36.3754 59.208 36.7888C59.8786 37.763 60.6043 38.6974 61.3824 39.5876C61.5754 39.7612 61.693 40.0031 61.7118 40.2618C61.7307 40.521 61.6487 40.7766 61.4832 40.9767L61.1914 41.43C60.04 40.355 58.9763 39.1904 58.0103 37.9463L57.3559 39.4261L58.1009 38.9027C58.1651 38.92 58.2262 38.947 58.2817 38.9836L60.5065 42.0741C60.7784 42.4464 60.6175 42.7081 60.2045 43.0101L57.5066 39.9094L57.3457 40.0306C58.1096 41.3867 58.9462 42.701 59.8521 43.9664L59.3994 44.4599L56.5503 41.4396C56.6206 42.2855 57.2953 42.7285 57.6879 43.3426C58.0805 43.9567 58.6244 44.5805 59.0873 45.1748C54.6879 52.5138 49.745 59.3695 43.1611 64.9466C43.4038 64.8697 43.6369 64.7648 43.8557 64.6345C44.5544 64.1364 45.2264 63.6023 45.8691 63.034C47.0168 62.0272 48.1644 60.9196 49.2114 59.7718C50.4194 58.4433 51.5369 57.0337 52.6644 55.6242C53.7919 54.2151 54.7785 53.0169 55.7452 51.5977C56.7112 50.178 57.7582 48.4767 58.7649 46.9164C59.3286 46.0507 59.9331 45.215 60.4464 44.329C60.9597 43.4429 61.2617 42.7285 61.6645 41.9331C62.2384 40.7552 62.8724 39.6176 63.376 38.4097C63.8791 37.2013 64.1612 36.1141 64.5538 34.9668C65.1476 33.2553 65.802 31.5738 66.3254 29.8425C66.9599 27.7587 67.5333 25.6444 68.037 23.5204C68.3247 22.1918 68.5329 20.847 68.6613 19.4934C68.782 18.4164 68.7616 17.319 68.8222 16.0403L69.3961 16.574C69.3457 16.1712 69.3054 15.8896 69.255 15.5673L70.1309 15.2954C70.2317 16.3021 70.3422 17.1581 70.3926 18.0538C70.3478 19.579 70.1757 21.0975 69.8793 22.5941C69.6777 24.2354 69.3253 25.846 69.0539 27.4868C69.0539 27.7689 68.842 28.0805 69.1746 28.3728C69.5595 27.7979 69.7979 27.138 69.8692 26.45C70.1411 24.628 70.2918 22.7958 70.634 20.9936C70.8652 19.3972 70.9462 17.7829 70.8759 16.1712C70.8942 15.8698 70.938 15.5698 71.0068 15.2755C71.4697 15.2755 71.4294 15.5372 71.4294 15.7689C71.4294 16.4533 71.4294 17.1377 71.4294 17.7819C71.434 18.12 71.4681 18.4566 71.5303 18.7887C71.7075 19.5306 71.6795 20.3067 71.4498 21.0338C71.3118 21.5797 71.2507 22.1419 71.2685 22.7051C71.2079 23.883 71.1779 25.0705 71.1173 26.2585C71.1173 26.6211 71.1173 27.0641 70.4833 26.9735C70.6401 27.2133 70.7623 27.474 70.8459 27.7485C70.8306 27.995 70.773 28.2369 70.6742 28.4635C70.0301 30.5773 69.4562 32.7216 68.6613 34.8054C68.2081 36.0739 67.9061 37.3729 67.5135 38.6409C67.0404 40.1513 66.3254 41.5909 65.7215 43.0605C65.6008 43.3625 65.4598 43.6644 65.2785 44.0672C65.475 44.0031 65.6533 43.8926 65.7989 43.7459C65.944 43.5988 66.052 43.419 66.1141 43.2219C67.0908 41.3734 67.8669 39.4261 68.4296 37.4132C68.7234 36.3657 69.0799 35.337 69.4964 34.3323C69.6879 33.8088 69.8992 33.3256 70.1105 32.7318C70.2918 32.8016 70.4665 32.8856 70.634 32.9834C71.6408 33.6276 72.7382 34.3023 73.7953 34.9969C74.3188 35.3192 74.329 35.309 74.0672 36.1044C72.7794 35.5219 71.5348 34.8492 70.3422 34.091C70.5235 34.6649 70.5133 34.6649 71.9331 35.6614C72.5166 36.0642 73.1308 36.4466 73.7653 36.8591L73.6344 37.7655C72.1846 37.3826 71.2283 36.1243 69.7082 36.0138C70.8255 36.7787 71.9127 37.5639 73.0503 38.2987C73.1552 38.3415 73.2484 38.4087 73.3222 38.4948C73.3961 38.5808 73.4485 38.6832 73.475 38.7932C73.5015 38.9032 73.5015 39.0182 73.475 39.1282C73.4485 39.2382 73.3961 39.3406 73.3222 39.4261L70.9564 38.2284C71.2186 38.8044 71.6555 39.283 72.2045 39.5977C72.3557 39.7082 72.5472 39.7587 72.7081 39.8595C73.2112 40.1915 73.2112 40.2119 72.8894 40.9869C72.1042 40.5139 71.3189 40.0606 70.5133 39.5876C70.5133 40.1212 70.8657 40.4431 72.6577 41.7722C72.6709 41.8821 72.6709 41.9937 72.6577 42.1042C72.5976 42.206 72.5304 42.3038 72.4566 42.396C71.681 42.1648 71.2787 41.3897 70.3224 41.2181C70.7262 41.8007 71.2145 42.3201 71.7716 42.7585C72.2549 43.1313 72.2447 43.141 71.9229 43.9165L69.5972 42.4061C69.6981 42.7081 69.7082 42.8996 69.8086 42.9902C70.3224 43.4333 70.8153 43.8559 71.3892 44.2786C71.7014 44.5306 71.8623 44.7822 71.4498 45.1544L70.332 44.359L70.1508 44.5505L71.2181 45.8694C71.2181 46.1011 71.1575 46.3323 71.1076 46.6445L72.2549 46.3323C72.1082 45.8465 72.095 45.3301 72.2172 44.8377C72.3394 44.3448 72.5925 43.8946 72.9495 43.5336C72.9495 43.4531 73.1007 43.3727 73.0905 43.3024C72.8792 42.1042 73.6344 41.1076 73.7953 39.9904C73.9562 38.8726 74.1777 38.037 74.3891 37.0608C74.4278 36.8128 74.5021 36.5719 74.6106 36.3458C75.1015 35.2143 75.4396 34.0227 75.6173 32.8021C75.8597 31.7791 76.0481 30.7443 76.181 29.7014C76.318 28.3637 76.3786 27.0193 76.3623 25.6749C76.3623 23.6615 76.2416 21.5772 76.151 19.5235C76.151 18.8493 76.0201 18.1847 75.9397 17.5105C76.4428 17.5105 76.4932 17.8425 76.5334 18.0941C76.7886 20.0673 77.0335 22.0406 77.2682 24.0138C77.2637 24.1075 77.2637 24.2018 77.2682 24.2955C77.4572 25.7065 77.531 27.1308 77.4898 28.5541C77.476 28.7441 77.5081 28.935 77.5835 29.1102C77.6588 29.2854 77.7749 29.4397 77.9226 29.5609C78.1833 28.8805 78.2495 28.1416 78.1141 27.4262C78.0132 25.6143 77.8926 23.8122 77.7719 22.0105C77.7719 21.8593 77.7719 21.7081 77.7719 21.4769H78.8891C79.0027 22.8146 79.2934 24.132 79.7548 25.3928H79.9463C79.9463 24.7787 79.9967 24.1544 80.0267 23.3793C80.6174 24.7237 80.9423 26.1699 80.9831 27.638C80.3995 28.2924 79.795 27.2953 79.1106 27.638C79.6743 28.2822 80.4698 28.0403 81.1241 28.3627C81.396 30.205 81.6776 32.0775 81.9598 34.0105L80.953 34.1011L80.8924 34.2722L81.7382 34.6043C81.7382 35.0875 81.7382 35.611 81.7382 36.1747H80.621C80.7015 36.9396 81.3859 36.5775 81.6277 36.9299C81.5468 37.2217 81.4765 37.544 81.3757 37.8862C82.1309 37.9967 81.8992 37.2619 82.2515 37.0404L84.5874 37.1815C84.5069 37.7151 84.4361 38.1882 84.3455 38.8125L81.8895 38.4499C82.1915 39.0137 82.634 38.9632 82.9864 39.0335C83.3388 39.1043 83.7818 39.1547 84.2854 39.2352C84.1744 39.7184 84.0837 40.1309 83.9631 40.6244L82.5637 40.413C82.8153 41.047 83.3892 40.8158 83.6713 41.1076C83.8622 41.792 83.4396 42.2753 83.047 42.839L82.3626 42.7387C82.3381 42.7799 82.3177 42.8237 82.302 42.8695L83.0571 43.4333L82.2617 46.1108L80.6709 45.7487C81.0335 46.2116 81.6777 46.5136 83.2282 46.977C83.0541 48.496 82.5927 49.9682 81.8691 51.3156C81.06 53.0358 80.0461 54.6515 78.8489 56.1278C78.3748 56.8336 77.9669 57.5816 77.6308 58.3628C78.6376 58.9367 80.0568 58.7855 81.0136 59.7316C80.7921 59.9934 80.5803 60.2149 80.3893 60.4567L80.3689 60.4262ZM65.1175 30.5269L61.6945 27.225C61.8758 26.8324 62.0571 26.4296 62.2582 26.0171C63.1341 26.4098 63.0338 27.0239 62.7919 27.8692L63.5267 27.4364L65.6309 29.9127C65.6309 30.0538 65.5 30.3155 65.3992 30.5875C65.3024 30.5849 65.2067 30.5646 65.1175 30.5269ZM63.7482 26.782C63.9397 26.3293 64.0904 25.9565 64.2519 25.5843C64.7382 25.9382 65.0926 26.4449 65.2586 27.0239C65.3075 27.1349 65.3798 27.2342 65.4699 27.3157C65.6512 27.5072 65.9731 27.6681 66.0031 27.8692C65.9975 28.2659 65.9328 28.6595 65.8121 29.0374L63.7482 26.782ZM65.9629 25.0705C66.7481 25.6444 66.7583 25.6749 66.4461 26.6109C65.6008 26.2285 65.5703 26.148 65.9629 25.0705ZM65.2082 25.3526C64.5136 24.8189 64.5136 24.8189 64.896 23.7923C65.7414 24.2252 65.2382 24.7991 65.2082 25.3526ZM66.4161 22.7148C66.5811 22.8141 66.7252 22.945 66.8398 23.1003C66.9538 23.2556 67.0363 23.4318 67.0822 23.6192C67.128 23.8061 67.1366 24.0006 67.1066 24.1911C67.0771 24.3815 67.0098 24.5638 66.9095 24.7283C66.7216 24.6524 66.5551 24.5328 66.4227 24.38C66.2903 24.2267 66.1961 24.0444 66.1482 23.8478C66.0998 23.6513 66.0988 23.4461 66.1457 23.249C66.192 23.0524 66.2847 22.8691 66.4161 22.7148ZM65.7215 23.2485C64.9765 23.1884 65.1578 22.4836 64.7147 22.2417C64.3659 22.0009 64.0298 21.7422 63.708 21.4667L64.3924 20.4599C64.9867 20.8424 64.6542 21.4667 64.866 21.9097L65.3487 21.5976C66.1844 22.0508 65.6207 22.6746 65.7515 23.2485H65.7215ZM63.6072 20.3693C63.5135 20.5842 63.406 20.7925 63.2853 20.9936C63.1041 20.6916 62.8525 20.4498 62.9029 20.3087C63.1224 19.4237 63.5125 18.5895 64.0502 17.8527C64.1108 18.1547 64.2213 18.3456 64.1612 18.4566C63.926 19.0759 63.7508 19.7165 63.6377 20.3693H63.6072ZM64.8558 18.9399C65.2281 19.3829 65.0065 19.6044 64.7249 19.826C64.7952 19.5739 64.8253 19.3223 64.8859 18.9399H64.8558ZM66.6274 21.1143C67.5333 21.7386 67.5333 21.7386 67.3322 22.4836C66.7787 22.121 66.3458 21.789 66.6274 21.1143ZM65.913 21.1143C65.5703 20.6514 65.8121 20.3693 65.913 19.8962C66.2552 20.4299 66.0337 20.6815 65.913 21.1143ZM67.2415 18.698C68.1678 19.1614 67.7548 19.8662 67.7044 20.5104C66.7787 20.1076 66.7583 19.9971 67.2415 18.7082V18.698ZM66.2348 19.4028C65.7215 18.7586 66.2348 18.2754 66.2348 17.6612C66.6478 18.2957 66.6478 18.336 66.2149 19.413L66.2348 19.4028ZM65.2281 18.396C64.9062 17.651 65.3992 17.3088 65.4195 16.8358L65.7317 16.9264C65.5504 17.3995 65.4093 17.8425 65.198 18.4363L65.2281 18.396ZM64.3726 17.4901C64.2717 17.289 64.2213 17.2284 64.2315 17.1882C64.3624 16.8358 64.5034 16.4834 64.7046 15.9701C64.9062 16.7151 64.5233 17.0272 64.3425 17.5304L64.3726 17.4901ZM67.8455 16.6749C67.8455 17.0171 67.8455 17.3593 67.8455 17.7921C67.4228 17.3796 67.4228 17.3796 67.8154 16.7151L67.8455 16.6749ZM66.5067 16.9468C66.577 16.4732 66.6376 16.0709 66.6982 15.5876C67.1107 16.3927 67.0908 16.5236 66.4767 16.987L66.5067 16.9468ZM65.9328 16.0403H65.6915C65.6915 15.7185 65.7821 15.3962 65.8422 15.0336C66.245 15.4262 65.8524 15.7486 65.9028 16.0806L65.9328 16.0403ZM61.1609 34.6343C61.0422 34.5309 60.9607 34.3904 60.9297 34.2356C60.8986 34.0808 60.92 33.9204 60.9897 33.7788C61.141 33.4366 61.2515 33.0842 61.473 32.4803C62.0169 33.1749 62.4798 33.6983 62.8423 34.2218C63.0582 34.5065 63.2599 34.8023 63.4463 35.1074C63.7885 35.6614 63.4463 36.1141 63.1443 36.658L61.1609 34.6343ZM62.8423 37.8256C62.6911 38.289 62.5403 38.7417 62.3387 39.3762L59.4096 36.356C59.7116 36.0438 59.9331 35.8325 60.1342 35.6008C60.3354 35.3691 60.4866 35.168 60.6878 34.9164C61.555 35.7663 62.2822 36.7486 62.8423 37.8256ZM63.4565 33.8694C63.2146 33.6678 63.0134 33.4366 62.772 33.2451C61.9461 32.5908 61.4832 31.8758 62.3891 30.809L64.1108 32.8225C64.4734 33.2553 64.2615 33.6882 64.0604 34.232C63.8389 34.1108 63.6276 34.0003 63.4565 33.8694ZM83.8928 23.9736C85.0803 23.9736 85.2015 24.1045 85.5539 25.6846L81.5167 25.4432C81.4363 24.8795 81.3456 24.3662 81.2754 23.8728C81.4653 23.7643 81.6766 23.6976 81.8946 23.6772C82.1125 23.6564 82.3325 23.6818 82.5398 23.7526C82.747 23.8229 82.937 23.9364 83.0974 24.0856C83.2578 24.2343 83.3846 24.4161 83.4696 24.6178L83.8928 23.9736ZM85.7148 24.1946L86.3391 24.0739L87.1844 25.7956H86.1777C85.9964 25.1413 85.8655 24.7181 85.7148 24.1946ZM87.7283 25.0705C87.3051 24.6478 87.3657 24.3459 87.7283 24.0638C87.8592 24.4564 87.8592 24.4564 87.6881 25.0705H87.7283ZM89.3991 24.7181C89.6206 25.7248 89.6206 25.7248 88.9362 25.7248C88.8053 25.3226 88.5639 24.8693 89.3588 24.7181H89.3991ZM85.5437 28.2216L81.8187 27.97C81.7586 27.2551 81.6878 26.6211 81.6176 25.846L85.8757 26.1078C86.0168 26.4571 86.0601 26.8385 86.002 27.2108C85.9435 27.583 85.7851 27.9324 85.5437 28.2216ZM87.7181 27.3457C87.7181 27.6278 87.7181 27.8998 87.7181 28.2216C87.5302 28.2318 87.3423 28.2318 87.1544 28.2216C86.3391 28.1513 86.3188 28.1009 86.389 27.2148C86.4104 26.8798 86.4104 26.5437 86.389 26.2081C87.5572 26.2585 87.6275 26.3293 87.6779 27.3457H87.7181ZM85.5437 30.5472C85.3222 30.5472 85.1007 30.2152 84.8288 29.9835C84.6378 30.396 84.2146 30.4164 83.7415 30.3257C83.2685 30.2351 82.6442 30.1546 82.0504 30.064C81.9598 29.5609 81.8691 29.0572 81.7683 28.5842C82.4512 28.4014 83.1697 28.4014 83.8526 28.5842C84.4967 28.5842 85.1409 28.7655 85.7953 28.8561L86.1476 29.7416H86.3391C86.4094 29.4499 86.4797 29.1682 86.5403 28.9065C86.6029 28.8688 86.6706 28.8418 86.7414 28.8255C88.0603 28.9467 88.1107 29.0374 87.7482 30.6679C86.9935 30.6679 86.9935 30.6679 86.5907 30.2152C86.2612 30.3802 85.9078 30.4922 85.5437 30.5472ZM86.2984 32.6111L84.9494 32.6712C85.0304 32.1279 85.1007 31.6044 85.1913 30.9903L86.2984 31.1512V32.6111ZM87.104 31.2922L87.8388 31.5336C87.8388 31.9568 87.8388 32.3494 87.8388 32.8327L86.9431 32.7721C86.9227 32.2588 86.9935 31.7857 87.0638 31.2922H87.104ZM83.0169 32.3794C82.5739 32.299 82.2719 32.1177 82.3121 31.584C82.2826 31.2444 82.2251 30.9078 82.141 30.5773L84.4163 30.9098C84.4499 31.0111 84.4733 31.1155 84.4865 31.2215C84.3857 32.5302 84.265 32.631 82.9767 32.3794H83.0169ZM85.342 33.1647C86.0972 33.3256 86.8723 33.3964 87.6881 33.5171C87.6881 34.121 87.6173 34.5238 87.5872 35.0473L85.1913 34.4734C84.2783 34.6491 83.3337 34.5544 82.4731 34.2015C82.4731 33.7085 82.4731 33.1947 82.4731 32.7919C83.7013 32.7216 84.0333 32.8729 84.2951 33.6479C84.4005 33.4824 84.5522 33.3516 84.731 33.2711C84.9097 33.1906 85.1083 33.1642 85.3018 33.1947L85.342 33.1647ZM86.0366 36.5877C85.9842 36.6096 85.9277 36.6208 85.8706 36.6208C85.8136 36.6208 85.7571 36.6096 85.7046 36.5877C85.6568 36.5577 85.6155 36.5184 85.5844 36.4711C85.5534 36.4242 85.5325 36.3713 85.5233 36.3158C85.5233 35.9532 85.5233 35.5906 85.5941 35.2286L85.8156 35.0773C85.9867 35.2184 86.2984 35.3594 86.2984 35.5C86.2556 35.8763 86.1538 36.243 85.9964 36.5877H86.0366ZM87.1646 35.6813C87.5572 36.2755 87.5572 36.3356 87.0133 36.7486C87.0235 36.4161 87.0739 36.0739 87.1243 35.6813H87.1646ZM84.7687 36.688L82.3824 36.4665C82.3824 35.8926 82.4328 35.3997 82.4629 34.8156L84.9897 35.1883C84.8792 35.6212 84.8089 36.0943 84.7279 36.6778L84.7687 36.688ZM85.8655 38.5004C85.8655 38.8023 85.6746 39.0335 85.2112 38.7921C85.3222 38.3089 85.4429 37.7854 85.5737 37.2421C86.1981 37.6245 85.8559 38.0976 85.8253 38.4902L85.8655 38.5004ZM86.8723 37.7956C87.4966 38.0675 87.0739 38.5808 87.2349 39.0539C86.4899 38.8324 86.4899 38.8324 86.802 37.7854L86.8723 37.7956ZM87.0841 39.8091C86.9431 40.2317 86.7816 40.7048 86.6009 41.2181L84.7081 40.8056C84.7788 40.4828 84.8664 40.1635 84.9698 39.8493C85.0304 39.6884 85.2015 39.4567 85.2921 39.4766C85.475 39.5407 85.6359 39.6558 85.755 39.8091C85.8355 39.8895 85.8457 40.0204 85.9058 40.1711C86.2582 40.1009 86.359 39.3258 87.0133 39.7989L87.0841 39.8091ZM85.4531 41.6515C85.2315 42.1846 85.0202 42.7183 84.7885 43.2922L83.9834 43.1715C83.8021 41.4498 84.0736 41.158 85.3823 41.6413L85.4531 41.6515ZM84.7783 45.6779L85.5437 46.0003C85.3522 46.4734 85.2616 46.9464 84.4865 46.7249C84.537 46.3827 84.5971 46.0807 84.7081 45.6683L84.7783 45.6779ZM83.2583 46.4128C83.2079 46.3679 83.1676 46.3119 83.1417 46.2488C83.1152 46.1861 83.1035 46.1184 83.1076 46.0507C83.1076 45.517 83.3693 45.406 84.1143 45.6178C83.988 45.8796 83.8434 46.1316 83.6809 46.3725C83.6127 46.429 83.5282 46.4621 83.4396 46.4672C83.351 46.4728 83.2629 46.4504 83.188 46.4031L83.2583 46.4128ZM82.0402 58.4937C81.7683 59.0172 81.5972 59.1883 81.1542 58.9464C80.5029 58.594 79.8302 58.2813 79.1407 58.0104C78.829 57.8795 78.8789 57.7385 78.9899 57.5572L82.0402 58.4937ZM82.886 57.3561C82.3926 58.0608 82.0703 58.0807 81.1241 57.4767C81.6176 56.7216 81.8992 56.7017 82.886 57.3561ZM83.2685 55.5839L83.8928 55.7856C83.8928 55.7856 83.8928 55.7856 84.0537 55.9063L83.5501 56.6411L82.0906 56.2587C82.5841 55.3426 82.5841 55.3426 83.2685 55.5743V55.5839ZM85.3925 54.3358L84.537 55.3426L83.1172 54.7687C83.6209 53.6713 83.8826 53.6209 85.3925 54.3358ZM86.3289 52.9064L85.6746 53.7319L84.1443 53.188L84.6678 52.2719C85.2733 52.2999 85.8548 52.5184 86.3289 52.8962V52.9064ZM87.3357 51.034L86.7114 52.2118L85.8253 51.9598C85.5941 51.8793 85.3624 51.7688 85.1409 51.6782C85.7347 50.3694 85.9363 50.3088 87.3861 51.0238L87.3357 51.034ZM88.2518 49.4432L87.8189 50.3694L86.9731 50.1378L86.2887 49.9162C86.6105 48.9899 87.104 48.8693 88.3022 49.433L88.2518 49.4432ZM89.1679 47.4297C88.9464 47.8829 88.7855 48.2251 88.5736 48.6376L87.0938 48.2954L87.7079 47.0574L89.1679 47.4297ZM89.7316 46.0807L89.2585 46.9566C89.0874 46.3628 89.4296 46.2116 89.5401 45.9499L89.7316 46.0807ZM90.8692 43.2621L89.3492 43.0305C89.0161 42.9678 88.68 42.924 88.3424 42.8996C88.0812 42.9189 87.8261 42.9836 87.5872 43.091C87.5872 43.091 87.5872 43.3828 87.5872 43.4129C87.8694 43.584 88.2716 43.8961 88.4529 43.8055C89.1877 43.4333 89.8222 43.8055 90.4664 43.9063C90.3559 44.7516 90.3559 44.7516 89.8823 45.2349C89.4597 44.9029 89.8823 44.3998 89.6206 44.027C88.9764 43.9466 89.1373 44.6411 88.7753 44.9233H87.7685C87.5068 44.9233 87.1946 44.9233 87.2649 45.3057C87.3102 45.4096 87.3774 45.5028 87.463 45.5776C87.548 45.6525 87.6494 45.7075 87.7583 45.7385C88.0629 45.7742 88.3699 45.7742 88.6744 45.7385C88.6138 46.5238 88.594 46.5339 88.0405 46.4535L86.389 46.2819C86.389 46.866 86.389 46.866 86.8723 47.2886C86.7918 47.4903 86.7516 47.7922 86.5907 47.9231C86.3737 48.0667 86.1986 48.2653 86.084 48.4991C85.9689 48.7323 85.918 48.9925 85.9363 49.2517C85.9363 49.433 85.5636 49.6845 85.3222 49.8256C85.1078 49.8948 84.8827 49.9254 84.6576 49.9162C84.3256 50.4901 84.8792 50.5003 85.0706 50.7519L84.6576 51.4266L83.5302 51.2453C83.41 51.258 83.2919 51.2855 83.1778 51.3258C83.1778 51.5773 83.1778 51.8289 83.2384 52.1212L84.1342 52.0204C84.1163 52.2185 84.0573 52.4104 83.96 52.5841C83.8627 52.7577 83.7303 52.9085 83.5704 53.0271C83.2181 52.9365 82.7648 52.5235 82.4629 53.0271C82.1609 53.5302 82.7348 53.6209 83.0571 53.8928C82.7648 54.3557 82.4731 54.6276 81.9496 54.4967C81.8309 54.4667 81.7062 54.4667 81.587 54.4967C81.5096 54.5079 81.4373 54.5405 81.3772 54.5904C81.3171 54.6403 81.2718 54.706 81.2468 54.7799C81.2219 54.8542 81.2178 54.9337 81.2351 55.0095C81.2524 55.0859 81.2906 55.1557 81.3456 55.2117C81.3854 55.2743 81.4459 55.3207 81.5167 55.3426C81.6578 55.4027 81.8085 55.4434 81.9699 55.5035C81.8391 56.027 81.5671 56.1879 81.0335 55.9969C80.4998 55.8055 80.4092 55.8258 80.2987 56.5204L81.0941 56.7618C80.6006 57.8393 79.906 56.9431 79.1509 57.0739C79.2593 56.7939 79.3871 56.5214 79.5333 56.2587C80.1576 55.3726 80.8726 54.537 81.4062 53.601C82.1512 52.3025 82.775 50.953 83.4192 49.574C83.5022 49.2766 83.5628 48.9742 83.6005 48.6681C83.7166 48.2837 83.8648 47.9099 84.0435 47.5504C84.1948 47.2484 84.4463 47.3192 84.7182 47.5504C84.7182 48.2551 84.1846 48.7588 83.9228 49.433L84.537 49.5236C85.0126 48.9691 85.3874 48.3356 85.644 47.6512C85.7871 46.9887 85.8711 46.315 85.8961 45.6377L84.4565 44.8423L83.4498 45.0842C83.5603 44.5306 83.6407 44.1579 83.7517 43.6446L86.772 44.6513C86.772 43.997 86.772 43.997 85.4429 43.4129L85.8457 41.792C86.3086 41.7014 86.4598 41.9132 86.389 42.3461C86.3188 42.7789 86.0672 43.1613 86.389 43.6044C87.0938 43.4027 86.8626 42.7183 87.0536 42.3461C88.4382 42.0914 89.8513 42.0334 91.2516 42.1749C91.1106 42.507 91.0001 42.8695 90.8692 43.2621ZM91.5837 40.3927C91.5134 40.8255 91.463 41.1982 91.3927 41.6413L90.5769 41.3994C90.6375 41.0373 90.6777 40.7048 90.7485 40.2822L91.5837 40.3927ZM91.7349 39.7485L90.9196 39.6782C91.0704 38.8324 91.0704 38.8324 91.9264 38.8125L91.7349 39.7485ZM89.8421 39.5168C89.7112 39.5168 89.48 39.2953 89.4999 39.1949C89.4999 38.7621 89.8823 38.8222 90.3055 38.893C90.3055 39.2856 90.2851 39.5876 89.8222 39.5168H89.8421ZM88.8354 39.3457L87.8286 39.7785L88.7045 40.9263C89.3186 41.047 89.1475 39.9196 89.973 40.2419C89.9226 40.5541 89.8727 40.8963 89.8222 41.2487L87.3357 41.3994C87.3357 41.2787 87.2552 41.1682 87.3357 41.1076C87.9631 39.4832 88.2279 37.7411 88.1107 36.0036C88.0955 35.7251 88.0955 35.4465 88.1107 35.168C88.292 33.7788 88.483 32.3896 88.6846 31.0101C88.7116 30.7728 88.7946 30.5452 88.926 30.3461C88.926 31.4333 89.4398 32.4497 89.0166 33.5873C88.8904 34.1811 88.9143 34.7973 89.0874 35.3793C89.1552 35.5647 89.1832 35.7622 89.1694 35.9593C89.1557 36.1559 89.1002 36.3479 89.007 36.522C88.9138 36.6957 88.7849 36.8479 88.6286 36.9686C88.4723 37.0893 88.2925 37.1753 88.1005 37.2217C88.3827 37.3928 88.594 37.4534 88.6846 37.5939C88.7753 37.735 88.8557 38.0772 88.7753 38.148C88.3119 38.5406 88.4025 38.9434 88.7753 39.3457H88.8354ZM90.7582 33.3862C90.9797 34.6949 90.9395 34.7555 89.9429 34.7051C89.782 33.6983 89.782 33.6983 90.6981 33.3862H90.7582ZM92.1071 38.1077L89.5707 38.2284C89.5707 37.8557 89.6308 37.6245 89.6608 37.2217L92.1474 36.7787C92.1071 37.2823 92.0771 37.6545 92.0471 38.1077H92.1071ZM89.9027 36.5673C89.5503 35.5606 89.6308 35.4801 90.7984 35.3997V36.3158L89.9027 36.5673ZM92.3689 36.2755H91.3621C91.5933 35.3615 91.655 34.4128 91.5434 33.4768C91.5434 32.9732 91.5434 32.9732 92.3287 32.8927C92.2884 34.0202 92.2986 35.1176 92.3088 36.2755H92.3689ZM89.9027 32.9834C89.8324 32.5404 89.7718 32.1579 89.7016 31.7353L90.7078 31.2821C90.7078 31.584 90.8086 31.7954 90.829 32.0067C90.8488 32.2185 90.829 32.3693 90.829 32.5908L89.9027 32.9834ZM92.3088 31.7047C92.3088 32.2486 91.9462 32.2684 91.493 32.3188C91.4177 32.0362 91.4044 31.7398 91.4548 31.4511C91.5052 31.1624 91.6178 30.8884 91.7853 30.6481L90.9293 30.1745L89.7112 30.9297C89.7112 30.4362 89.6511 30.1246 89.6206 29.6816L92.0369 28.7955C92.1071 29.8725 92.1881 30.7886 92.2482 31.7047H92.3088ZM92.0165 28.2822L89.5101 29.0674C89.5101 28.6947 89.5101 28.3728 89.4194 28.0607L90.2149 27.7786L90.5367 28.4732C90.6676 28.0505 90.7485 27.8091 90.8387 27.5372L91.7247 27.3559C91.7649 27.638 91.8556 27.9497 91.9564 28.2822H92.0165ZM89.2081 27.0437C89.0065 26.6313 89.2988 26.4398 89.7214 26.3089L90.0942 27.0137C89.6511 27.2052 89.3588 27.4669 89.1475 27.0437H89.2081ZM91.5434 25.4835C91.5434 25.8761 91.5434 26.2687 91.5434 26.752L90.5367 26.9129C90.4781 26.8187 90.4415 26.7122 90.4303 26.6017C90.4191 26.4907 90.4338 26.3792 90.4725 26.2753C90.5117 26.1709 90.5739 26.0772 90.6548 26.0009C90.7358 25.925 90.8331 25.8685 90.9395 25.8359C91.1248 25.7299 91.3031 25.6123 91.4732 25.4835L90.2347 25.4132C90.1746 25.0608 90.1038 24.7385 90.0438 24.4065L90.7786 24.1345L91.4833 25.5033L91.5434 25.4835ZM90.5769 22.3023C90.4562 23.6915 90.2749 23.8524 88.5639 24.0943C88.4529 23.7923 88.3424 23.4802 88.2014 23.0876C88.6245 22.9725 89.0411 22.835 89.4495 22.6746C89.7718 22.5238 90.0942 22.2015 90.5769 22.3023ZM87.104 22.9266C87.104 22.6145 87.1743 22.4434 87.2048 22.2621H87.6881C87.8088 21.8293 87.6881 21.2049 88.4529 21.1347C88.5538 21.3659 88.6744 21.6276 88.8257 21.9902L87.104 22.9266ZM90.3152 21.5976L89.4495 21.9698C89.3303 21.6836 89.2524 21.3822 89.2183 21.0741C89.2183 20.8526 89.4897 20.6713 89.7515 20.3189C89.9531 20.8123 90.114 21.1143 90.3055 21.5976H90.3152ZM89.5707 19.9161L88.8455 20.2588C88.6444 19.8759 88.4427 19.5138 88.262 19.1614C89.1175 18.4465 89.2183 18.5071 89.5707 19.9161ZM88.9362 18.034L88.0501 18.5172L87.5572 17.4397L88.4932 16.8561C88.6744 17.289 88.7951 17.621 88.9566 18.034H88.9362ZM88.3119 15.7486C88.2416 16.2517 88.0002 16.5842 87.5872 16.6244C87.3657 16.6244 87.1142 16.3729 86.8825 16.2216C87.245 15.5169 87.7385 15.6177 88.3322 15.7486H88.3119ZM87.3051 14.8829L86.5301 15.5474L86.3391 15.4466C86.3391 15.2755 86.3391 15.054 86.4196 14.943C86.5 14.8325 86.9028 14.5004 87.3255 14.8829H87.3051ZM86.7317 14.0671L86.0972 14.4699C85.7347 14.1781 85.7347 13.9164 86.0972 13.6948C86.4598 13.4733 86.5504 13.7351 86.7317 14.0671ZM80.51 7.36265C82.2704 8.75075 83.877 10.3232 85.3018 12.0541C85.3018 12.0541 85.4128 12.1544 85.4128 12.2048C85.4128 12.2553 85.4128 12.5776 85.4128 12.7686C85.2214 12.7686 84.9494 12.7686 84.8588 12.6581C84.4662 12.1748 84.1443 11.6513 83.7818 11.1278C83.5908 10.8559 83.3892 10.5539 82.8356 10.725C83.4523 11.827 84.1525 12.8806 84.9296 13.8761L83.7716 14.4398C83.2282 13.4937 82.7648 12.5776 82.1711 11.6814C81.9236 11.3616 81.6512 11.0616 81.3558 10.7856C80.8221 10.2316 80.3491 9.64801 79.765 9.11434C79.6244 8.99162 79.5323 8.82306 79.5043 8.63872C79.4768 8.45428 79.5155 8.26602 79.6143 8.10759L82.5235 10.3828C82.5866 10.1649 82.5744 9.93165 82.4883 9.72134C82.4028 9.51154 82.248 9.33636 82.0504 9.22484C81.285 8.56065 80.5304 7.88613 79.7752 7.21166L79.9259 7.02034C80.1296 7.11883 80.3246 7.2333 80.51 7.36265ZM77.4898 6.71837C77.5417 6.79608 77.5758 6.88433 77.5896 6.9767C77.6033 7.06913 77.5962 7.16338 77.5692 7.25286C77.5427 7.34228 77.4959 7.42467 77.4337 7.49413C77.3711 7.56359 77.2942 7.61838 77.2082 7.65459C77.1277 8.25863 77.9226 8.66113 77.6308 9.28544L76.8858 9.62764C77.1776 10.0304 76.6343 10.0101 76.6241 10.1211C76.6399 10.4012 76.7117 10.6751 76.8354 10.9262C76.3119 11.5103 76.1108 10.2922 75.5369 10.7454L75.8791 11.5805L75.4162 12.104L73.8859 11.0978H73.8355C73.6038 11.4298 73.8355 11.6213 74.057 11.8423C74.2786 12.0638 74.1675 12.2853 73.7749 12.4162C73.5636 12.104 73.3324 11.7618 73.0203 11.2786L73.8355 11.0978C73.8564 10.9588 73.9252 10.8315 74.0301 10.7378C74.135 10.6441 74.2689 10.5896 74.4094 10.584C75.1845 10.4933 75.6071 9.83897 76.1912 9.45654C76.3572 9.30886 76.4611 9.10416 76.483 8.88264C76.563 8.36308 76.6037 7.83811 76.6042 7.31233C76.5691 7.07549 76.4637 6.85459 76.3022 6.67809C75.8689 6.09421 75.4162 5.52036 74.9329 4.88612C75.4971 4.88576 76.0471 5.06236 76.5059 5.39102C76.9647 5.71967 77.309 6.18389 77.4898 6.71837ZM72.567 4.40291C73.2616 4.48347 73.5738 5.08747 74.0066 5.51028C74.3942 5.92459 74.7603 6.35804 75.104 6.80896C75.0628 6.87038 75.0154 6.92771 74.963 6.98011C74.274 6.76726 73.6665 6.34933 73.2214 5.7821C72.8604 5.16278 72.343 4.64907 71.7212 4.2922C71.4534 4.09717 71.1977 3.88533 70.9564 3.65796C71.8826 3.39622 71.9931 4.33243 72.567 4.40291ZM69.5468 2.22841C69.6237 2.30235 69.6792 2.39558 69.7077 2.4983C69.7357 2.60101 69.7363 2.70947 69.7082 2.81234C69.6273 2.96332 69.3156 3.0338 69.1038 3.01364C68.8925 2.99352 68.8222 2.80225 68.6913 2.67138L67.5435 1.56401C68.4296 1.81568 69.0035 1.98683 69.587 2.22841H69.5468ZM38.4396 55.9465C38.0961 56.6645 37.6704 57.3403 37.1711 57.96L37 57.8795C37.0005 57.7151 37.0277 57.5516 37.0805 57.3963C37.9362 55.4933 38.8121 53.6112 39.6476 51.7082C40.0503 50.8023 40.3624 49.8658 40.7147 48.94C40.8331 48.5551 40.9917 48.1838 41.1879 47.8325C42.0738 46.5136 42.4563 44.9233 43.5235 43.7047C43.83 42.6933 44.356 41.762 45.0637 40.9767C46.0704 39.5876 46.6443 37.9565 47.7013 36.6279C49.1409 34.8054 50.4899 32.9131 51.8691 31.0407C52.1007 30.7387 52.3221 30.4668 52.7147 30.4566C53.0369 30.7285 52.8356 30.9297 52.7147 31.1211C51.4866 32.6814 50.2383 34.2218 49.0503 35.8121C48.4967 36.547 48.0436 37.3826 47.5906 38.1582C47.3691 38.5004 47.1175 38.8023 46.8859 39.1644C45.7383 40.8459 44.8725 42.6679 43.7751 44.4094C42.73 46.1714 41.818 48.0087 41.047 49.9061C40.161 51.8793 39.2953 53.9132 38.4396 55.9465ZM76.7952 52.5642C75.8572 54.6633 74.5434 56.5739 72.9194 58.2014C72.7183 58.3928 72.5065 58.5538 72.2951 58.7351L72.0838 58.5843C72.2549 58.3124 72.4163 58.0303 72.5971 57.7685C73.4027 56.5505 74.2786 55.3726 75.0134 54.1245C75.9697 52.4934 76.8054 50.7921 77.7215 49.0908C78.275 48.1192 78.7109 47.0849 79.02 46.0105C79.2792 45.2171 79.6163 44.4517 80.0267 43.725C80.4978 43.0982 80.7269 42.3226 80.6709 41.5405C81.2448 41.6209 81.2046 42.0135 81.1043 42.3155C80.8848 42.9291 80.6185 43.5244 80.3088 44.0973C79.8353 44.9187 79.5593 45.8388 79.5032 46.7855C79.4579 47.1827 79.3311 47.5667 79.131 47.9129C78.3758 49.4635 77.5402 50.9933 76.7952 52.5642ZM52.5839 32.9029C52.8154 33.6678 52.3322 34.0507 52.0805 34.5034C51.5369 35.4501 50.9429 36.356 50.349 37.2619C49.755 38.1678 49.0302 39.0539 48.4463 40C47.4396 41.6107 46.1107 43.0203 45.5067 44.8423C45.4946 44.9054 45.4669 44.964 45.4262 45.0134C44.1678 46.121 44.0067 47.8024 43.2517 49.1712C43.2132 49.2553 43.1585 49.3306 43.0906 49.3927C43.0906 49.3927 42.9798 49.3927 42.7886 49.3927C42.8124 48.6014 43.0451 47.8304 43.4631 47.1577C44.1879 45.7085 44.9027 44.2587 45.7383 42.8894C46.5738 41.5206 47.4396 40.4833 48.2953 39.2352C48.9597 38.2284 49.5738 37.2217 50.2383 36.2149C50.9027 35.2082 51.5772 34.2722 52.2517 33.2955C52.3221 33.1947 52.4127 32.9732 52.5839 32.9029ZM52.6342 57.3561C52.6875 57.1447 52.7688 56.9416 52.8758 56.7521C53.8826 55.393 54.9697 54.0537 55.9565 52.7251C56.9429 51.3961 57.7485 50.0369 58.6646 48.6982C59.3791 47.6914 60.1241 46.6246 60.8492 45.5776C60.9999 45.3561 61.141 45.104 61.282 44.8728L61.9766 43.695L62.2684 43.8157C62.1656 44.2536 62.024 44.6814 61.8458 45.0944C61.5336 45.6683 61.1206 46.1816 60.7682 46.7351C60.4158 47.2886 60.1948 47.7418 59.8725 48.2449C59.5502 48.7486 59.0572 49.4936 58.6244 50.0975C58.191 50.7015 57.6176 51.5167 57.0539 52.1716C56.9857 52.2266 56.9297 52.2953 56.8884 52.3728C56.8477 52.4502 56.8227 52.5352 56.8151 52.6223C56.808 52.7099 56.8176 52.7974 56.8451 52.881C56.8721 52.9645 56.9154 53.0414 56.973 53.1076C56.0268 53.2888 55.7045 54.0639 55.2518 54.6984C54.7987 55.3324 54.4966 55.836 54.0939 56.3997C53.9294 56.6508 53.7149 56.8652 53.4637 57.0296C53.2126 57.1941 52.9302 57.3051 52.6342 57.3561ZM51.1544 54.678C53.3188 51.5575 54.9798 48.1044 57.2953 45.0944L57.4562 45.1646C57.4618 45.1911 57.4618 45.2186 57.4562 45.2451C57.471 45.3047 57.471 45.3668 57.4562 45.4264C57.1364 46.1653 56.7733 46.8848 56.369 47.5809C54.7483 50.0771 53.349 52.7353 51.3355 54.9398C51.2852 55.0004 51.1745 55.01 51.0335 55.0706C51.0464 54.9235 51.0875 54.7799 51.1544 54.648V54.678ZM64.2417 47.0269C63.7783 47.6812 63.2349 48.3157 62.8423 48.9803C62.6106 49.3327 62.5001 49.7752 62.2582 50.1179C61.5937 51.2341 60.8217 52.2826 59.953 53.2486C59.0572 54.1245 58.3723 55.1613 57.527 56.057C57.335 56.2393 57.1334 56.4104 56.9231 56.5708L56.7214 56.3692C57.6777 55.1715 58.6544 53.9834 59.5705 52.745C60.4866 51.5071 61.4226 50.1276 62.3188 48.799C62.8021 48.0738 63.2248 47.3192 63.678 46.5844C63.7564 46.4494 63.8587 46.3297 63.9799 46.232C64.0604 46.1714 64.2519 46.1311 64.312 46.1816C64.3726 46.232 64.5335 46.4433 64.5136 46.5538C64.4698 46.7147 64.3944 46.8654 64.2921 46.9968L64.2417 47.0269ZM62.1075 60.2149C60.537 61.876 58.8556 63.4464 57.2148 65.0474C57.0549 65.163 56.8828 65.2613 56.7015 65.3392C56.339 65.0067 56.2081 64.745 56.5905 64.443C57.1542 64.0101 57.6879 63.5269 58.272 63.1343C60.1373 61.8413 61.7566 60.225 63.0536 58.3628C63.9397 57.1447 64.6745 55.8156 65.6105 54.3358C65.4598 54.7987 65.3895 55.0706 65.2887 55.3426C64.5564 57.159 63.4758 58.814 62.1075 60.2149ZM75.0638 50.7218C75.6219 49.6076 76.1128 48.4614 76.5334 47.2886C76.5686 47.0992 76.6674 46.9276 76.814 46.8028C76.9612 46.6781 77.1465 46.6083 77.339 46.6042C77.2637 47.1252 77.1389 47.6374 76.9663 48.1344C76.5737 48.9803 76.0604 49.7655 75.6479 50.591C75.3357 51.1949 75.1442 51.8595 74.8122 52.443C74.2281 53.4498 73.5738 54.4565 72.9296 55.4633C72.7891 55.7016 72.6236 55.9241 72.4362 56.1278C72.1948 56.3794 71.9229 56.6111 71.6713 56.8524L71.5099 56.7317C71.5501 56.578 71.6077 56.4298 71.681 56.2887C72.8089 54.4265 74.0066 52.6141 75.0638 50.7218ZM58.6544 58.675C59.4193 57.7787 60.064 56.9232 60.8186 56.168C62.161 54.7193 63.3612 53.1447 64.4026 51.4668C64.5635 51.2249 64.7448 50.9933 64.9261 50.7621L65.1175 50.8624C64.9592 51.3528 64.7499 51.8253 64.4932 52.2719C63.5145 53.9223 62.3382 55.447 60.9897 56.8122C60.8477 56.9741 60.6812 57.1137 60.4968 57.2252C60.2952 57.3031 60.1123 57.4233 59.9616 57.5781C59.8104 57.7324 59.6943 57.9177 59.6209 58.1209C59.5619 58.32 59.429 58.4886 59.2487 58.592C59.0684 58.6948 58.8556 58.7249 58.6544 58.675ZM70.4431 63.8996C70.3224 64.0198 70.2175 64.1553 70.1309 64.3024C68.9867 64.8438 67.9937 65.66 67.2415 66.678C66.7583 66.5171 66.7384 66.1749 66.9798 65.8928C67.3174 65.4548 67.7299 65.08 68.1979 64.7857C70.2297 63.7031 72.0481 62.2599 73.5636 60.527C73.6746 61.1513 73.6746 61.2017 73.1511 61.6443C72.2951 62.3893 71.379 63.1445 70.4431 63.8996ZM47.6007 46.1714C49.2013 43.7149 50.7919 41.2487 52.4832 38.6312C52.506 38.8909 52.4855 39.1532 52.4228 39.4063C51.859 40.5139 51.2752 41.6107 50.6711 42.6984C50.4295 43.1313 50.0973 43.5035 49.8456 43.9262C49.302 44.9233 48.3456 45.4366 47.6409 46.2218L47.6007 46.1714ZM65.7113 64.8661L70.1508 60.6783C70.3224 60.94 70.2215 61.1916 70.0301 61.4533C69.7082 61.906 69.3961 62.3796 69.0839 62.8323C68.9933 62.953 68.8925 63.1144 68.7718 63.1648C67.8755 63.5997 67.0745 64.2087 66.4161 64.9568C66.2048 65.2084 65.9328 65.3494 65.7113 64.8661ZM79.5537 37.3225H79.3423C79.2934 36.989 79.2695 36.6524 79.2715 36.3158C79.4381 34.5849 79.4381 32.8418 79.2715 31.111C79.2715 31.111 79.3423 31.0203 79.433 30.9195C80.0369 31.0809 80.0873 31.7047 80.0771 32.0877C80.1046 33.8465 79.929 35.6034 79.5537 37.3225ZM75.1743 46.7957L75.7482 45.1443L77.2886 40.715C77.4597 40.8744 77.5779 41.0827 77.6262 41.3113C77.6751 41.5399 77.6522 41.7783 77.5605 41.9937C77.0727 43.529 76.4565 45.021 75.7182 46.4535C75.6591 46.5477 75.5796 46.6276 75.4854 46.6867C75.3917 46.7463 75.2853 46.7835 75.1743 46.7957ZM57.6675 57.7589C58.2516 57.1142 58.8658 56.4904 59.4595 55.8559C59.5466 55.7235 59.6596 55.6104 59.792 55.5239C59.953 55.4434 60.2447 55.3125 60.3257 55.3828C60.5773 55.6043 60.396 55.8258 60.2045 56.0071L59.5303 56.6513L56.1276 59.9531C55.9362 60.1344 55.7854 60.3559 55.6042 60.5571L55.3928 60.3763C56.1475 59.5101 56.9027 58.6245 57.6675 57.7589ZM65.9028 58.4835C65.3793 58.9566 65.1175 59.7418 64.1913 59.9633L69.7887 53.1778C69.6196 53.85 69.2917 54.4718 68.8324 54.9902C68.3593 55.5641 67.9163 56.168 67.4427 56.7419C66.9676 57.3545 66.4527 57.9366 65.9028 58.4835ZM54.4463 64.5739C54.4463 64.4231 54.4463 64.2821 54.5167 64.2317C56.0676 63.1399 57.5163 61.9101 58.8454 60.5571C58.8454 60.5571 58.9666 60.5571 59.1071 60.4868C58.7451 61.685 56.6409 63.5172 54.4463 64.5739ZM71.0872 54.789C70.6121 56.3727 69.6059 57.7451 68.2381 58.675C68.98 57.2389 69.9415 55.9282 71.0872 54.789ZM77.5605 45.5975C77.8569 44.139 78.2638 42.7056 78.7786 41.3088C79.2715 41.4198 79.3525 41.6413 79.2619 41.9132C79.1208 42.3863 78.9497 42.8492 78.7684 43.3024C78.5871 43.7551 78.3356 44.4599 78.0937 45.0236C77.9812 45.2665 77.7943 45.4671 77.5605 45.5975ZM72.5268 52.715C72.9408 51.3319 73.5331 50.0089 74.2887 48.7786C74.772 49.4635 74.3794 49.9565 74.1981 50.3694C73.8676 51.2876 73.2932 52.0983 72.537 52.715H72.5268ZM80.3491 51.1043L81.6476 48.8693H81.8589C81.9002 49.1061 81.9002 49.3474 81.8589 49.5842C81.5167 50.3089 81.285 50.953 80.3593 51.1043H80.3491ZM53.3289 64.0606C53.8903 63.1709 54.7234 62.4865 55.7045 62.1077C55.0572 62.9163 54.2479 63.5819 53.3289 64.0606ZM53.4295 60.3763C53.7568 59.6466 54.3408 59.0625 55.0705 58.7351C54.6822 59.4205 54.115 59.9877 53.4295 60.3763ZM70.2317 58.3628L70.3926 58.4835L69.1848 60.0035C69.2652 59.2988 69.2652 59.2988 70.2317 58.3628ZM62.9732 10.2316L62.822 10.282C62.822 10.1613 62.7517 10.0406 62.7114 9.91994L62.8622 9.86952C62.9029 10.0406 62.9431 10.1109 62.9732 10.2316ZM28.1611 72.195C28.2112 72.2011 28.2593 72.2184 28.302 72.2454C28.302 72.3055 28.302 72.3763 28.302 72.4063L27.8087 72.8188C27.7483 72.7185 27.6376 72.6074 27.6577 72.527C27.6657 72.4705 27.6856 72.4165 27.7161 72.3681C27.7466 72.3202 27.787 72.279 27.8346 72.2474C27.8822 72.2164 27.9359 72.1955 27.9922 72.1863C28.0484 72.1771 28.106 72.1802 28.1611 72.195Z" fill="#101A24"/>
</g>
<defs>
<filter id="filter0_d_6_27" x="0" y="0" width="98.3326" height="89.8481" filterUnits="userSpaceOnUse" color-interpolation-filters="sRGB">
<feFlood flood-opacity="0" result="BackgroundImageFix"/>
<feColorMatrix in="SourceAlpha" type="matrix" values="0 0 0 0 0 0 0 0 0 0 0 0 0 0 0 0 0 0 127 0" result="hardAlpha"/>
<feOffset dy="4"/>
<feGaussianBlur stdDeviation="2"/>
<feComposite in2="hardAlpha" operator="out"/>
<feColorMatrix type="matrix" values="0 0 0 0 0 0 0 0 0 0 0 0 0 0 0 0 0 0 0.25 0"/>
<feBlend mode="normal" in2="BackgroundImageFix" result="effect1_dropShadow_6_27"/>
<feBlend mode="normal" in="SourceGraphic" in2="effect1_dropShadow_6_27" result="shape"/>
</filter>
</defs>
</svg>
