<svg width="60" height="60" viewBox="0 0 60 60" fill="none" xmlns="http://www.w3.org/2000/svg">
<g opacity="0.2" filter="url(#filter0_d_6_23)">
<path d="M55.2008 34.2488C54.8241 33.4166 54.3038 32.6572 53.6646 32.0047C53.4088 31.7897 53.1697 31.5552 52.95 31.3034C52.7577 31.0316 52.5119 30.8005 52.2287 30.6255C51.9455 30.4499 51.6296 30.333 51.3003 30.2816C50.9323 30.2522 50.5677 30.1874 50.2117 30.0879C50.016 29.9997 49.7996 29.9704 49.5872 30.0018C49.3755 30.0338 49.1772 30.1267 49.0162 30.2682C48.709 30.502 48.3483 30.7157 48.0544 30.9361C47.7606 31.1565 47.5936 31.0964 47.44 30.8226C47.2864 30.5488 47.1795 30.6289 46.9792 30.7358C46.8322 30.7885 46.672 30.7885 46.525 30.7358C45.797 30.4686 45.0891 30.1414 44.3544 29.9009C43.3526 29.5109 42.3908 29.0253 41.4825 28.4516C40.9816 28.1778 40.5742 27.7838 40.0933 27.4431C39.2318 26.8955 38.4504 26.2342 37.5688 25.7066C36.1262 24.8451 34.777 23.8165 33.3945 22.8615C32.1777 22.038 30.8573 21.3801 29.4674 20.9046C28.9064 20.7042 28.3654 20.4638 27.8111 20.2367C26.8293 19.8427 25.8609 19.4286 24.8724 19.0546C24.2045 18.8008 23.5366 18.6071 22.8688 18.3867C22.0873 18.0995 21.3126 17.7856 20.5379 17.4784C19.3624 16.9975 18.1803 16.5701 17.0449 16.0291C15.3785 15.1628 13.8431 14.0655 12.4833 12.7698C12.359 12.659 12.2615 12.522 12.1961 12.3691C11.804 11.3272 11.4193 10.2807 11.0406 9.23008C10.9224 8.7973 10.692 8.40323 10.3728 8.088C9.70488 7.5203 9.07041 6.93258 8.40921 6.37156C8.08395 6.10642 7.84885 5.74709 7.73464 5.34303C7.64248 5.03914 7.57369 4.72857 7.5276 4.41467C7.5276 4.14751 7.5276 3.86702 7.5276 3.59987C7.45681 3.22987 7.26112 2.89525 6.97326 2.65148C6.70878 2.45111 6.48237 2.204 6.30538 1.92349C6.00684 1.33442 5.56604 0.8295 5.02306 0.454152C4.74589 0.275829 4.45336 0.123557 4.14814 0C4.00121 0.487551 3.91438 0.821483 4.1281 1.18214C4.34183 1.54279 4.60897 2.09714 4.86276 2.5513C5.20338 3.09896 5.43113 3.71007 5.53064 4.34789C5.62481 5.08523 5.66289 5.82857 5.64419 6.57192C5.61681 6.88649 5.66756 7.20307 5.79111 7.49359C6.03355 7.95844 6.32943 8.39323 6.67272 8.78928C7.07478 9.2047 7.36665 9.71429 7.52093 10.272C7.66051 10.831 7.72797 11.4054 7.72129 11.9817C7.72129 13.3175 7.60775 14.6532 7.50757 15.989C7.35195 17.3722 7.36331 18.7694 7.54096 20.1499C7.6879 21.0114 7.77471 21.8797 7.92165 22.7346C8.01248 23.5868 8.21217 24.4243 8.51606 25.2258C8.57083 25.4034 8.59755 25.5878 8.59621 25.7734C8.67636 26.5415 8.67636 27.3029 8.81661 28.0509C8.95019 28.9058 9.17727 29.754 9.33756 30.6089C9.60404 31.7289 10.0175 32.8095 10.5665 33.8214C11.1943 35.1037 11.9022 36.3526 12.5701 37.6149C12.7932 38.1025 13.055 38.5713 13.3515 39.0174C14.0595 39.9725 14.7674 40.9276 15.5288 41.8225C16.2902 42.7175 16.918 43.8262 17.9999 44.434C18.052 44.456 18.0961 44.4934 18.1268 44.5408C18.3539 44.9141 18.6798 45.2167 19.0685 45.4157C19.1627 45.4725 19.2522 45.5373 19.3357 45.6094C20.1118 46.2693 20.9379 46.8683 21.8068 47.3993C22.983 48.2148 24.2045 48.9622 25.4668 49.6367C26.4693 50.2017 27.5433 50.6305 28.6593 50.9123C29.3272 51.0326 29.955 51.2262 30.6095 51.3665C31.4977 51.5535 32.3927 51.7739 33.281 51.8875C34.554 52.0738 35.851 52.0284 37.1079 51.7539C37.7758 51.5869 38.5305 51.5134 39.2385 51.3665C39.6793 51.2797 40.0934 51.0994 40.5342 51.0259C41.534 50.7881 42.4997 50.4221 43.406 49.9373C44.3811 49.4898 45.3429 49.0022 46.338 48.6015C46.9538 48.3891 47.5075 48.0265 47.9476 47.5463C48.1085 47.3639 48.2849 47.197 48.4752 47.0453C49.5218 46.2733 50.4394 45.3402 51.1935 44.2803C51.5875 43.6124 52.1819 43.1049 52.3222 42.3168C52.3262 42.2894 52.3362 42.2633 52.3509 42.2406C52.3663 42.2179 52.3857 42.1979 52.409 42.1832C52.95 41.896 53.1504 41.3083 53.5511 40.9075C53.6286 40.8254 53.676 40.7192 53.6847 40.607C53.7989 40.0627 53.8369 39.5057 53.7982 38.9507C53.7528 38.572 53.8583 38.1899 54.0921 37.8887C54.3479 37.4773 54.5709 37.0459 54.76 36.5997C54.9363 36.1509 55.0772 35.6887 55.1807 35.2172C55.2842 34.904 55.2909 34.5661 55.2008 34.2488Z" fill="white"/>
<path d="M55.2008 34.2488C54.8241 33.4166 54.3038 32.6572 53.6646 32.0047C53.4088 31.7897 53.1697 31.5552 52.95 31.3034C52.7577 31.0316 52.5119 30.8005 52.2287 30.6255C51.9455 30.4499 51.6296 30.333 51.3003 30.2816C50.9323 30.2522 50.5677 30.1874 50.2117 30.0879C50.016 29.9997 49.7996 29.9704 49.5872 30.0018C49.3755 30.0338 49.1772 30.1267 49.0162 30.2682C48.709 30.502 48.3483 30.7157 48.0544 30.9361C47.7606 31.1565 47.5936 31.0964 47.44 30.8226C47.2864 30.5488 47.1795 30.6289 46.9792 30.7358C46.8322 30.7885 46.672 30.7885 46.525 30.7358C45.797 30.4686 45.0891 30.1414 44.3544 29.9009C43.3526 29.5109 42.3908 29.0253 41.4825 28.4516C40.9816 28.1778 40.5742 27.7838 40.0933 27.4431C39.2318 26.8955 38.4504 26.2342 37.5688 25.7066C36.1262 24.8451 34.777 23.8165 33.3945 22.8615C32.1777 22.038 30.8573 21.3801 29.4674 20.9046C28.9064 20.7042 28.3654 20.4638 27.8111 20.2367C26.8293 19.8427 25.8609 19.4286 24.8724 19.0546C24.2045 18.8008 23.5366 18.6071 22.8688 18.3867C22.0873 18.0995 21.3126 17.7856 20.5379 17.4784C19.3624 16.9975 18.1803 16.5701 17.0449 16.0291C15.3785 15.1628 13.8431 14.0655 12.4833 12.7698C12.359 12.659 12.2615 12.522 12.1961 12.3691C11.804 11.3272 11.4193 10.2807 11.0406 9.23008C10.9224 8.7973 10.692 8.40323 10.3728 8.088C9.70488 7.5203 9.07041 6.93258 8.40921 6.37156C8.08395 6.10642 7.84885 5.74709 7.73464 5.34303C7.64248 5.03914 7.57369 4.72857 7.5276 4.41467C7.5276 4.14751 7.5276 3.86702 7.5276 3.59987C7.45681 3.22987 7.26112 2.89525 6.97326 2.65148C6.70878 2.45111 6.48237 2.204 6.30538 1.92349C6.00684 1.33442 5.56604 0.8295 5.02306 0.454152C4.74589 0.275829 4.45336 0.123557 4.14814 0C4.00121 0.487551 3.91438 0.821483 4.1281 1.18214C4.34183 1.54279 4.60897 2.09714 4.86276 2.5513C5.20338 3.09896 5.43113 3.71007 5.53064 4.34789C5.62481 5.08523 5.66289 5.82857 5.64419 6.57192C5.61681 6.88649 5.66756 7.20307 5.79111 7.49359C6.03355 7.95844 6.32943 8.39323 6.67272 8.78928C7.07478 9.2047 7.36665 9.71429 7.52093 10.272C7.66051 10.831 7.72797 11.4054 7.72129 11.9817C7.72129 13.3175 7.60775 14.6532 7.50757 15.989C7.35195 17.3722 7.36331 18.7694 7.54096 20.1499C7.6879 21.0114 7.77471 21.8797 7.92165 22.7346C8.01248 23.5868 8.21217 24.4243 8.51606 25.2258C8.57083 25.4034 8.59755 25.5878 8.59621 25.7734C8.67636 26.5415 8.67636 27.3029 8.81661 28.0509C8.95019 28.9058 9.17727 29.754 9.33756 30.6089C9.60404 31.7289 10.0175 32.8095 10.5665 33.8214C11.1943 35.1037 11.9022 36.3526 12.5701 37.6149C12.7932 38.1025 13.055 38.5713 13.3515 39.0174C14.0595 39.9725 14.7674 40.9276 15.5288 41.8225C16.2902 42.7175 16.918 43.8262 17.9999 44.434C18.052 44.456 18.0961 44.4934 18.1268 44.5408C18.3539 44.9141 18.6798 45.2167 19.0685 45.4157C19.1627 45.4725 19.2522 45.5373 19.3357 45.6094C20.1118 46.2693 20.9379 46.8683 21.8068 47.3993C22.983 48.2148 24.2045 48.9622 25.4668 49.6367C26.4693 50.2017 27.5433 50.6305 28.6593 50.9123C29.3272 51.0326 29.955 51.2262 30.6095 51.3665C31.4977 51.5535 32.3927 51.7739 33.281 51.8875C34.554 52.0738 35.851 52.0284 37.1079 51.7539C37.7758 51.5869 38.5305 51.5134 39.2385 51.3665C39.6793 51.2797 40.0934 51.0994 40.5342 51.0259C41.534 50.7881 42.4997 50.4221 43.406 49.9373C44.3811 49.4898 45.3429 49.0022 46.338 48.6015C46.9538 48.3891 47.5075 48.0265 47.9476 47.5463C48.1085 47.3639 48.2849 47.197 48.4752 47.0453C49.5218 46.2733 50.4394 45.3402 51.1935 44.2803C51.5875 43.6124 52.1819 43.1049 52.3222 42.3168C52.3262 42.2894 52.3362 42.2633 52.3509 42.2406C52.3663 42.2179 52.3857 42.1979 52.409 42.1832C52.95 41.896 53.1504 41.3083 53.5511 40.9075C53.6286 40.8254 53.676 40.7192 53.6847 40.607C53.7989 40.0627 53.8369 39.5057 53.7982 38.9507C53.7528 38.572 53.8583 38.1899 54.0921 37.8887C54.3479 37.4773 54.5709 37.0459 54.76 36.5997C54.9363 36.1509 55.0772 35.6887 55.1807 35.2172C55.2842 34.904 55.2909 34.5661 55.2008 34.2488ZM54.2323 34.3557L53.2505 35.0235C53.2505 34.5226 53.6914 34.4024 53.7648 33.995C53.2172 33.7679 53.2238 34.5293 52.7697 34.4692C52.576 34.2087 52.8298 34.0484 52.9567 33.8748C53.1176 33.6891 53.2893 33.5128 53.471 33.3472L54.2323 34.3557ZM47.4133 33.3939C47.6424 33.3004 47.8301 33.1274 47.9409 32.9064C48.1346 32.5925 48.2615 32.2385 48.6823 32.1183C48.729 32.1183 48.7958 32.0582 48.8025 32.0181C48.8693 31.584 49.2633 31.4437 49.5505 31.23C49.8096 31.0503 50.1149 30.9495 50.4301 30.9388C50.7447 30.9281 51.0566 31.0082 51.327 31.1699C51.1688 31.2153 51.0125 31.2687 50.8595 31.3301C50.738 31.3729 50.6278 31.4437 50.539 31.5372C50.4922 31.5773 50.539 31.7042 50.539 31.7843L50.766 31.7443L51.6543 31.3903C51.9956 31.6581 52.2681 32.0041 52.4491 32.3988C52.4491 32.2585 52.5426 32.1717 52.6561 32.3053C52.8966 32.5791 53.117 32.873 53.324 33.1401C53.0502 33.3605 52.8298 33.5542 52.5827 33.7212C52.4838 33.7666 52.3776 33.794 52.2688 33.8013C52.2788 33.6878 52.3082 33.5776 52.3556 33.4741C52.4865 33.2931 52.6294 33.1214 52.783 32.9598L52.4291 32.3787C52.4958 32.9331 52.1419 33.287 51.494 33.2136C51.7411 32.9798 51.9415 32.7861 52.1619 32.5858C52.1619 32.1717 51.7612 32.5858 51.641 32.3453C51.5201 32.1623 51.3838 31.9907 51.2336 31.8311L50.7527 31.7376C50.7487 31.8485 50.7059 31.954 50.6311 32.0361C50.5563 32.1182 50.4555 32.171 50.3453 32.1851C49.5438 32.2919 49.1231 32.9331 48.5353 33.3405C48.4218 33.4293 48.2982 33.5055 48.168 33.5676C48.0645 33.6036 47.9696 33.6604 47.8895 33.7345C47.8087 33.8093 47.7446 33.8995 47.7005 33.9997C47.6571 34.0998 47.6344 34.2087 47.6344 34.3176C47.6344 34.4271 47.6564 34.536 47.7005 34.6362C47.7132 34.4084 47.794 34.1894 47.9322 34.007C48.0698 33.8254 48.2588 33.6885 48.4752 33.6143C48.2682 34.0084 48.1212 34.2822 47.9409 34.5894C47.9409 34.6362 47.794 34.6295 47.7005 34.6362C47.6838 34.9474 47.6838 35.26 47.7005 35.5712C47.7472 35.8931 47.812 36.2117 47.8942 36.5263L46.9792 37.1941C46.9191 37.0071 46.8723 36.8669 46.8189 36.6865C47.2663 36.593 47.5936 36.4261 47.6003 35.9452C47.2864 35.9452 47.2864 35.9452 46.8723 36.1923C46.7454 36.0654 46.6319 35.9719 46.8723 35.8116C47.1381 35.5812 47.3639 35.308 47.5402 35.0035H46.8723C46.9792 34.8632 47.046 34.7697 47.1461 34.6495C47.0727 34.5827 47.0259 34.5026 46.9525 34.4692C46.907 34.4538 46.8663 34.4284 46.8322 34.3944C46.7988 34.3603 46.7735 34.3196 46.7588 34.2742C46.7434 34.2288 46.7394 34.18 46.7468 34.1332C46.7534 34.0858 46.7715 34.0411 46.7988 34.0017C46.9404 33.7439 47.1542 33.5328 47.4133 33.3939ZM50.5256 38.57C49.982 38.0363 49.5124 37.4326 49.1297 36.7734C49.0202 36.5663 48.9548 36.3393 48.9361 36.1055C49.5358 36.935 50.2671 37.661 51.1 38.2561C51.1 38.0557 51.1668 37.9221 51.1 37.862C50.9577 37.6035 50.7647 37.3765 50.5323 37.1941C49.9138 36.7153 49.4136 36.1002 49.0696 35.3975C48.9214 35.1611 48.7958 34.91 48.6956 34.6495C48.6422 34.5226 48.5888 34.3557 48.8426 34.2755L50.038 36.0454C50.0594 36.0961 50.0915 36.1416 50.1316 36.179L51.4206 36.947C51.3872 36.8201 51.3398 36.6966 51.2803 36.5797C51.0733 36.3459 50.8596 36.1122 50.6124 35.9118C50.197 35.4704 49.8484 34.9714 49.5772 34.4291C49.4837 34.2488 49.5037 34.0084 49.2232 33.8547C48.9427 33.7011 49.3234 33.5008 49.4703 33.3271C50.4722 34.3891 51.1133 35.7582 52.4157 36.5864C52.2287 37.0272 52.1152 37.5347 51.5942 37.8086C51.4733 37.8947 51.3731 38.0063 51.3003 38.1358C51.0466 38.5165 50.7994 38.9039 50.5189 39.338L50.0982 38.944L50.5924 38.8972C50.5804 38.7817 50.5483 38.6688 50.4989 38.5633L50.5256 38.57ZM45.049 46.5244H44.4746C44.4746 46.5244 44.4746 46.4776 44.4746 46.4509L44.882 46.2305L45.069 46.5244L45.4631 46.8851C44.9956 47.2257 44.9956 47.2257 44.7351 46.9585C44.8419 46.8116 44.9555 46.6646 45.069 46.5244H45.049ZM42.9051 43.4455C42.9051 43.726 42.9051 43.9731 42.9051 44.267L41.9567 44.5341C41.9567 44.2069 42.0035 43.9397 42.0302 43.6191L42.9051 43.4455ZM42.0703 43.0247C42.2172 42.7308 42.2773 42.7108 42.9118 42.791C42.6046 43.0247 42.6046 43.0247 42.0703 43.0247ZM37.689 39.4048C37.689 39.1911 37.689 39.0041 37.689 38.6768L37.2148 39.298L36.6137 39.2512L37.0278 38.0691C36.5536 38.3028 36.4868 38.8104 36.1595 39.1443L35.3915 39.0976C35.6386 38.5566 35.859 38.0557 36.1128 37.488L38.8377 38.1559C38.6708 38.5633 38.5372 38.9239 38.3635 39.2645C38.1899 39.6052 37.9628 39.4916 37.689 39.4048ZM37.2148 40.3399L37.4619 39.7788L38.0096 39.8189C37.9895 40.4935 37.856 40.5803 37.2148 40.3399ZM36.9476 39.7187C36.8074 40.3866 36.8074 40.3866 36.1595 40.2797L36.4267 39.6119L36.9476 39.7187ZM35.9525 39.6252C35.8724 39.8456 35.8123 40.0126 35.7321 40.2196L35.0108 40.0727C35.0976 39.8456 35.1778 39.6653 35.2646 39.4449L35.9525 39.6252ZM39.4522 39.9458C39.4121 40.4066 39.3654 40.4668 38.978 40.5068C38.7442 40.5068 38.5038 40.5068 38.1966 40.5068C38.624 39.7922 38.624 39.7922 39.4522 39.9458ZM38.8311 39.4048C38.9446 38.9106 39.0381 38.8839 39.8997 39.0642C39.8596 39.2178 39.8128 39.3647 39.7594 39.5584L38.8311 39.4048ZM39.1316 38.5232C39.0915 38.3095 39.1316 38.1826 39.332 38.1826H42.6713C42.4977 38.5499 42.2706 38.4898 42.0836 38.5098C41.7149 38.5152 41.3469 38.5439 40.9816 38.5967C40.6477 38.6701 40.3672 38.4431 40.0199 38.5433C39.726 38.5914 39.4255 38.5914 39.1316 38.5433V38.5232ZM40.1267 39.9458C40.4406 39.8924 40.4473 40.1729 40.5742 40.4133L39.8396 40.4467C39.8729 40.2196 39.8596 40.0059 40.1267 39.9659V39.9458ZM40.2069 39.4449C40.3004 38.9707 40.4941 38.8572 41.0684 38.9573C40.8414 39.6119 40.828 39.6186 40.2069 39.4649V39.4449ZM41.8365 39.8456C41.6295 40.44 41.6161 40.44 40.8881 40.2998C41.0017 39.7321 41.5627 40.1261 41.8365 39.8657V39.8456ZM41.3156 39.4649C41.3156 38.9907 41.3556 38.9239 41.7497 38.9373C41.95 38.9373 42.1437 38.9373 42.3842 38.984C42.0703 39.5851 42.1103 39.6119 41.3156 39.485V39.4649ZM42.7782 39.8256C42.7782 40.1595 42.6046 40.2129 42.2773 40.2263C42.3508 39.9324 42.4376 39.7387 42.7782 39.8456V39.8256ZM42.5845 39.4048C42.658 39.2045 42.7114 39.0575 42.7715 38.9039L43.2791 38.944C43.1656 39.4048 43.1656 39.4048 42.5845 39.4048ZM43.8401 40.0193L43.1723 40.1261C43.4661 39.7054 43.4661 39.7054 43.8401 40.0059V40.0193ZM43.5663 39.485C43.5783 39.3661 43.5984 39.2472 43.6264 39.131C43.6531 39.0622 43.6845 38.9954 43.7199 38.9306C43.8134 38.9239 43.9069 38.9239 44.0004 38.9306C44.1006 38.9306 44.2075 38.9707 44.3344 38.9974C44.2676 39.4048 43.9203 39.3647 43.5663 39.4716V39.485ZM42.9853 38.4898V38.3763H44.7351C44.1747 38.5833 43.5656 38.618 42.9853 38.4765V38.4898ZM46.3848 38.7436C46.3848 38.7904 46.3848 38.8371 46.3848 38.8772C45.8217 39.0869 45.2286 39.2018 44.6282 39.2178C44.7084 39.0775 44.7418 38.944 44.7952 38.9306C45.3362 38.8438 45.8571 38.7904 46.3848 38.7369V38.7436ZM44.9021 38.4564C44.9889 38.3095 45.0156 38.2026 45.0624 38.196C45.5786 38.1171 46.1056 38.1418 46.6118 38.2694C46.0749 38.5078 45.4758 38.5686 44.9021 38.4431V38.4564ZM45.9306 39.4783C45.4778 39.7341 44.9602 39.853 44.4412 39.8189C44.8874 39.5464 45.409 39.4222 45.9306 39.4649V39.4783ZM46.3447 40.6671C46.4916 41.0344 46.3447 41.2081 46.0241 41.2949L45.8104 40.9342C45.7436 41.0077 45.6902 41.0411 45.6835 41.0812C45.6942 41.182 45.6675 41.2835 45.608 41.3657C45.5492 41.4485 45.4617 41.5066 45.3629 41.5287C44.695 41.7357 44.0271 41.9561 43.2391 42.1965C43.1723 41.9494 43.1255 41.7491 43.0788 41.5287L46.3447 40.6671ZM48.188 37.2676L47.1862 37.7886L47.1127 37.695C47.3999 37.4479 47.6871 37.1941 48.0211 36.9136L48.188 37.2676ZM47.9209 34.7764C48.0558 34.9681 48.1446 35.1885 48.1807 35.4202C48.2167 35.652 48.1987 35.8884 48.1279 36.1122C47.9683 35.9305 47.8641 35.7068 47.8274 35.4677C47.7906 35.2286 47.8234 34.9841 47.9209 34.7631V34.7764ZM46.899 40.4066C47.1461 40.3131 47.3999 40.1595 47.7272 40.4601C47.4133 40.6471 47.1395 40.814 46.879 40.981C46.5985 40.5736 46.5985 40.5202 46.899 40.3933V40.4066ZM46.7788 42.5839C46.9124 42.8911 46.6786 42.9847 46.3714 43.1383C46.3714 42.8578 46.131 42.644 46.4649 42.5238C46.5517 42.477 46.7454 42.5104 46.7788 42.5705V42.5839ZM46.1109 41.9561C46.1109 41.689 46.3313 41.6689 46.5317 41.6289C46.5317 41.9962 46.5317 41.9962 46.0775 41.9427L46.1109 41.9561ZM45.61 44.4273C45.61 44.0599 45.8505 44.0466 45.9774 43.9197L45.5032 44.0132C45.4431 43.6592 45.3829 43.3453 45.3161 42.9579L45.9172 42.7643C45.9172 43.0715 46.171 43.2985 45.9172 43.5724C45.8705 43.6191 45.9573 43.7995 45.984 43.9197L46.1109 44.1334L45.61 44.4273ZM46.0508 44.7011C45.9239 44.9282 45.9306 44.9349 45.6234 45.1352C45.7236 44.8013 45.7236 44.8013 46.0308 44.6877L46.0508 44.7011ZM44.4479 43.2919L44.9221 43.0715C45.3362 43.9664 45.256 44.307 44.6015 44.5274C44.3945 44.1935 44.7885 44.2069 44.9021 43.9931C44.8226 43.9804 44.7458 43.9517 44.6783 43.9083C44.6102 43.8649 44.5521 43.8075 44.5073 43.74C44.4626 43.6732 44.4325 43.5971 44.4192 43.5176C44.4052 43.4381 44.4085 43.3566 44.4279 43.2785L44.4479 43.2919ZM44.3678 42.624C44.3678 42.5438 44.3277 42.4102 44.3678 42.3902C44.5013 42.3121 44.6423 42.2473 44.7885 42.1965C44.9488 42.3368 44.9355 42.4503 44.7885 42.5171C44.6463 42.5705 44.498 42.6086 44.3477 42.6307L44.3678 42.624ZM45.236 42.063C45.401 41.9928 45.5706 41.9347 45.7436 41.8893C45.7436 42.2099 45.3763 42.457 45.2226 42.3301C45.1625 42.2967 45.1692 42.0763 45.216 42.0763L45.236 42.063ZM45.2026 45.1419C45.2026 45.5092 45.2026 45.5159 44.6683 45.5693C44.6082 45.1552 44.6082 45.1552 45.1826 45.1486L45.2026 45.1419ZM44.0338 42.4704C44.0098 42.5465 43.967 42.6153 43.9096 42.6707C43.8528 42.7262 43.7834 42.7669 43.7066 42.7896C43.6304 42.8117 43.5496 42.815 43.4715 42.799C43.3933 42.7829 43.3205 42.7482 43.2591 42.6974C43.4748 42.5345 43.7446 42.4604 44.0138 42.4904L44.0338 42.4704ZM42.865 44.6811C43.1723 45.1619 43.0788 45.4424 42.0636 45.6561C41.8432 45.0283 41.93 44.9148 42.845 44.7011L42.865 44.6811ZM42.2706 46.1704C42.4643 46.117 42.6446 46.0235 42.8984 45.9233C42.9519 46.0903 42.9919 46.2038 43.0387 46.3441C42.7622 46.5705 42.4256 46.7121 42.0703 46.7515C41.9233 46.471 41.93 46.2839 42.2506 46.1904L42.2706 46.1704ZM43.2324 43.4121L44.0739 43.2852C44.1073 43.5056 44.1407 43.7126 44.1808 43.9531L43.3659 44.1467C43.3125 43.8929 43.2724 43.6726 43.2324 43.4121ZM44.1273 44.3538C44.1794 44.4453 44.1968 44.5522 44.1761 44.6557C44.1554 44.7592 44.0973 44.8507 44.0138 44.9148C43.76 45.1486 43.7333 45.1753 43.3459 45.1218C43.3459 44.9749 43.3459 44.828 43.2992 44.6476L44.1273 44.3538ZM43.3392 45.6895L44.1474 45.3823C44.2876 46.0101 44.0806 46.2305 43.2925 46.2706C43.3125 46.0435 43.3259 45.8766 43.3392 45.6762V45.6895ZM44.4746 47.3726C43.9604 47.8067 43.8735 47.8 43.7132 47.3726C44.2876 47.0119 44.2876 47.0119 44.4746 47.3592V47.3726ZM45.3228 46.1304C45.7102 45.7497 45.9907 45.8899 46.2044 46.5578C45.7503 46.7515 45.7503 46.7515 45.3228 46.117V46.1304ZM46.0775 45.576C46.3246 45.576 46.5183 45.5226 46.5918 45.576C46.6653 45.6294 46.9391 45.9367 46.5918 46.2439L46.0775 45.576ZM46.6519 44.1868C46.4181 43.6859 46.4382 43.6258 46.9057 43.3386C46.9925 43.4922 47.066 43.6458 47.1662 43.8262L46.6519 44.1868ZM47.1862 45.2087C47.2904 45.3636 47.3866 45.5239 47.4734 45.6895C47.3198 45.6895 47.1328 45.7897 47.1127 45.7497C46.9919 45.6001 46.9151 45.4197 46.8923 45.2287C46.8857 45.0884 47.0727 45.0818 47.1729 45.2087H47.1862ZM47.6671 41.9962C48.0077 41.9227 48.1613 41.4218 48.6155 41.7157C48.2214 42.1565 48.0077 42.2299 47.6537 41.9962H47.6671ZM48.5554 42.5105L47.5402 43.5056H47.42C47.42 43.3787 47.3665 43.1984 47.42 43.1316C47.7406 42.8604 48.0845 42.6193 48.4485 42.4103C48.4819 42.4236 48.5086 42.4704 48.542 42.5105H48.5554ZM47.4133 41.1747L47.9943 40.9209C47.7806 41.4085 47.6871 41.4619 47.4133 41.168V41.1747ZM47.5669 38.6367C47.3933 38.5098 47.2998 38.3696 47.4734 38.2227C47.647 38.0757 48.0211 37.7952 48.3149 37.5548C48.375 37.6416 48.4619 37.7285 48.4485 37.7552C48.2234 38.1138 47.9169 38.4137 47.5535 38.6301L47.5669 38.6367ZM48.3951 36.4728C48.4685 36.7266 48.5487 36.9804 48.6288 37.2342C48.556 37.2068 48.4906 37.1634 48.4371 37.1073C48.383 37.0512 48.343 36.9838 48.3196 36.9103C48.2956 36.8362 48.2889 36.758 48.2996 36.6812C48.3102 36.6037 48.3383 36.5309 48.3817 36.4661L48.3951 36.4728ZM49.998 32.9865C50.559 32.8463 50.8462 32.9531 51.0532 33.3472C51.2603 33.7412 51.4206 34.1553 51.6276 34.5426C51.7532 34.7477 51.8894 34.946 52.035 35.1371C52.2067 35.3748 52.3649 35.6226 52.5092 35.8784C52.5626 36.016 52.5626 36.1683 52.5092 36.3059C51.5101 35.3261 50.6599 34.2054 49.9846 32.9798L49.998 32.9865ZM11.1609 10.7395C11.432 11.1542 11.589 11.6338 11.615 12.1287C11.428 11.6812 11.241 11.227 11.0607 10.7929L11.1609 10.7395ZM8.18881 15.9823L8.7565 15.7085L9.20397 16.697L8.42256 18.1195C8.12602 17.4483 8.04388 16.7016 8.18881 15.9823ZM9.1038 12.6029L8.74982 13.0303L8.67635 12.9969C8.67635 12.7231 8.71643 12.4492 8.74982 12.0352L9.1038 12.6029ZM8.80325 11.4007L8.84332 11.0534H8.95019C8.95019 11.1669 8.95019 11.2805 8.95019 11.4007H8.80325ZM13.8858 23.3757L13.652 23.8032C13.1044 23.2422 12.9842 23.1954 13.7856 22.4674L14.1329 22.9483L13.8858 23.3757ZM14.38 23.3757L14.7874 23.9234L14.34 24.7115C13.7589 24.1839 13.7656 23.9701 14.38 23.3757ZM13.4918 22.04C13.3782 22.3005 13.2313 22.5476 13.091 22.8147C12.7504 22.5342 12.7504 22.5342 13.3047 21.7394C13.3916 21.893 13.5118 22.04 13.4918 22.04ZM10.6199 17.2179C11.3813 18.1596 11.1408 18.1997 10.7067 18.8208L10.1524 17.8724L10.6199 17.2179ZM10.0121 17.4183C9.55795 16.9107 9.55127 16.7504 10.0121 16.0825C10.5197 16.697 10.5197 16.6969 10.0121 17.4383V17.4183ZM11.448 20.0898L10.9271 19.2483L11.3345 18.6605L11.8488 19.3685C11.7419 19.5688 11.6284 19.7692 11.448 20.0831V20.0898ZM12.0491 19.8761C12.4833 20.417 12.4833 20.4171 11.9757 21.0582C11.8688 20.8579 11.7619 20.6708 11.635 20.4437L12.0491 19.8761ZM10.7134 19.6757C11.1141 20.1165 11.2009 20.3436 11.1943 20.6842L11.7553 21.4723C11.6751 21.6459 11.615 21.7728 11.5282 21.9732L11.949 21.9265L12.3363 22.6611L12.0491 23.0886C11.3265 22.1342 10.698 21.1123 10.1724 20.0363L10.7134 19.6757ZM12.6369 20.8779C13.1578 21.4389 13.1578 21.5457 12.6369 22.0667C12.0625 21.7795 12.0759 21.3254 12.6102 20.8712L12.6369 20.8779ZM13.3047 20.8779C12.904 20.4772 12.904 20.4772 13.1311 20.0096L13.632 18.9811H13.7856L14.1596 19.5755L13.3047 20.8779ZM12.6369 19.9562L12.3296 19.462C12.53 19.0746 12.7638 18.6271 13.0376 18.0862C13.1779 18.3266 13.278 18.5203 13.4049 18.754C12.9441 18.9611 12.9508 19.5354 12.6035 19.9428L12.6369 19.9562ZM12.1293 19.0479L11.6284 18.193L12.156 17.091L12.7371 17.6587C12.5033 18.1129 12.323 18.5269 12.0959 19.0345L12.1293 19.0479ZM11.3479 17.4517C10.7935 16.5834 10.7334 16.8506 11.3479 15.8621C11.8421 16.4899 11.8421 16.9307 11.3479 17.4517ZM10.5798 16.2361C10.4529 16.0224 10.3461 15.8487 10.2325 15.6484C10.3661 15.3946 10.513 15.1408 10.6533 14.8937C11.2277 15.2209 11.2143 15.5415 10.5798 16.2361ZM10.6399 14.0922L10.0121 15.2811C9.81175 15.0139 9.66481 14.8336 9.53124 14.6132C9.51654 14.5798 9.50919 14.543 9.50919 14.5063C9.50919 14.4696 9.51654 14.4328 9.53124 14.3995C9.81842 13.8919 10.1056 13.3843 10.3995 12.8767C10.3995 12.8767 10.4596 12.8433 10.5397 12.8032L11.074 13.6381L10.6399 14.0922ZM9.39766 16.2094C9.39766 15.7619 8.86336 15.4013 9.25073 14.8737C9.8251 15.615 9.88521 15.8087 9.39766 16.2094ZM9.89857 12.6897C9.59803 12.4426 9.6047 12.4225 10.1056 11.935C10.2325 12.2622 10.1724 12.496 9.89857 12.6897ZM9.6381 11.7279C9.5446 11.3806 9.5446 11.3806 9.8919 11.2538L9.6381 11.7279ZM9.15723 14.0254C9.04369 13.8785 8.93683 13.7316 8.80325 13.5379L9.42437 12.8233C9.67817 13.3108 9.62474 13.5312 9.15723 14.0254ZM8.26227 15.4747C8.26227 15.1541 8.26227 14.9204 8.26227 14.6532C8.7565 15.1074 8.7565 15.1742 8.26227 15.4747ZM8.7565 22.4607C8.41321 21.3694 8.23756 20.232 8.23555 19.088C8.46263 19.7558 8.65631 20.4237 8.90343 21.0916C9.0183 21.3087 9.06573 21.5544 9.03968 21.7989C9.01364 22.0426 8.91478 22.2731 8.7565 22.4607ZM9.15055 24.2373C9.12651 24.1585 9.10847 24.0783 9.09712 23.9969H9.20397L9.24405 24.2373H9.15055ZM9.34423 22.3138C9.44107 22.3879 9.52188 22.4808 9.58133 22.5876C9.64077 22.6938 9.67817 22.8114 9.69086 22.9329C9.70288 23.0545 9.69086 23.1767 9.65413 23.2929C9.6174 23.4098 9.55728 23.5173 9.47781 23.6095C9.11047 23.2088 8.89007 22.8147 9.34423 22.3138ZM9.34423 25.0922C9.30416 24.9853 9.45777 24.8117 9.5446 24.618C9.89857 25.0454 10.1457 25.4194 9.78503 25.9537C9.55194 25.7193 9.39833 25.4181 9.34423 25.0922ZM14.0194 31.6174C13.465 31.3035 13.4316 31.2233 13.6454 30.7358C13.7055 30.5822 13.7856 30.4419 13.8791 30.2482L14.173 30.5087C14.2598 30.5821 14.3333 30.6623 14.4401 30.7692L14.0194 31.6174ZM14.6873 31.0764L15.1414 31.4838C15.0746 31.6775 15.0212 31.8311 14.9611 31.978C14.901 32.1249 14.8609 32.2452 14.7874 32.4255C14.1129 31.9713 14.1129 31.9713 14.6873 31.0764ZM13.4183 32.8529C12.9775 32.5323 12.9641 32.3654 13.3181 31.7509C13.7589 32.165 13.7723 32.2652 13.3983 32.8529H13.4183ZM13.7656 29.6538C13.2112 29.1395 13.2046 29.1128 13.5118 28.5184C14.0595 28.9191 14.0928 29.0527 13.7455 29.6538H13.7656ZM13.632 29.8942C13.5051 30.1948 13.3849 30.4753 13.2647 30.7692C12.7638 30.3885 12.6369 30.2482 13.2112 29.4334L13.632 29.8942ZM13.1044 31.23C13.0576 31.3769 13.0309 31.4971 12.9909 31.624L12.864 31.998C12.3764 31.4237 12.3163 31.397 12.6703 30.8226L13.1044 31.23ZM12.5634 29.9877C12.0024 29.3199 12.0024 29.3199 12.4165 28.7588L12.9174 29.1595L12.5634 29.9877ZM12.1961 30.9962C12.0491 30.7157 11.9289 30.5087 11.8287 30.2883C11.8287 30.2282 11.8621 30.128 11.8888 30.0345C12.3697 30.4218 12.3697 30.4219 12.176 30.9896L12.1961 30.9962ZM11.8822 28.9525C11.4147 28.5985 11.4147 28.5985 11.7219 28.0442C12.1694 28.3982 12.1827 28.4783 11.8621 28.9459L11.8822 28.9525ZM11.6818 27.0157C11.0607 26.5081 11.0139 26.428 11.428 25.5196L12.0157 26.3611L11.6818 27.0157ZM11.5148 27.6836L11.261 28.2579C10.7267 27.8572 10.7067 27.757 11.0273 27.0357L11.5148 27.6836ZM10.847 25.927C10.2859 25.5263 10.4529 25.012 10.5932 24.4443C11.2009 24.972 11.2076 25.1924 10.8269 25.8937L10.847 25.927ZM10.5531 27.2628C9.81175 26.5148 9.88521 26.5348 10.2525 25.8536C10.5464 26.2276 10.9739 26.6149 10.5331 27.2094L10.5531 27.2628ZM10.1256 24.5579C9.75832 24.3709 9.75831 24.3709 9.99875 23.4359C10.346 23.7698 10.2125 24.1304 10.1056 24.5045L10.1256 24.5579ZM9.61806 26.8487C9.99875 27.3363 10.3728 27.7503 10.68 28.1845C10.8383 28.4897 10.9658 28.8096 11.0607 29.1395L11.3746 29.0794C11.5082 29.2597 11.7553 29.3933 11.615 29.7473L11.241 29.3866C11.2944 29.79 11.4287 30.1781 11.635 30.5287C11.8261 30.85 11.993 31.1853 12.136 31.5305C11.1542 30.8894 9.34423 27.9574 9.61806 26.8487ZM11.6885 34.2488C11.3599 33.611 11.1021 32.9391 10.9204 32.2452C11.2544 32.6993 11.5883 33.1401 11.9222 33.5809C12.0892 33.8748 11.8621 33.995 11.6885 34.2488ZM12.0091 34.6762C12.1654 34.1893 12.4125 33.7359 12.7371 33.3405C12.5634 32.9731 12.3564 33.267 12.1961 33.3004C10.6266 31.5172 9.55795 29.5202 9.69821 28.5852C9.74963 28.646 9.79639 28.7108 9.83847 28.7789C10.4449 30.0585 11.2544 31.2313 12.2361 32.2518C12.5167 32.559 12.6569 32.9865 13.0777 33.1869C13.1157 33.2056 13.1478 33.2343 13.1698 33.2704C13.1925 33.3064 13.2046 33.3485 13.2046 33.3906C13.2046 33.4326 13.1925 33.4747 13.1698 33.5108C13.1478 33.5468 13.1157 33.5756 13.0777 33.5943C12.6836 33.7145 12.5567 34.0351 12.3697 34.3223C12.2776 34.4632 12.1567 34.5841 12.0157 34.6762H12.0091ZM14.2531 36.5062C14.4335 36.6665 14.5604 36.7266 14.567 36.8001C14.567 37.1607 14.3466 37.3945 14.1062 37.7351C13.6988 37.1941 14.2799 36.9804 14.2531 36.5062ZM14.4936 38.7837C14.2264 38.6835 14.0862 38.5566 14.1863 38.196C14.4134 38.3896 14.5804 38.4965 14.4936 38.7837ZM14.9611 39.4516C14.8876 39.3314 14.8208 39.2178 14.714 39.0241C15.0546 39.1377 15.0546 39.1377 14.9611 39.4449V39.4516ZM15.7091 40.2998C15.255 39.9258 15.255 39.9258 15.5288 39.6319C15.6624 39.8189 15.9763 39.9324 15.7091 40.2931V40.2998ZM16.377 41.2348C15.9028 40.7406 15.9028 40.7406 16.2234 40.4066C16.6909 40.7406 16.6909 40.7406 16.3636 41.2281L16.377 41.2348ZM17.0449 41.9695C16.6508 41.6556 16.6508 41.6556 16.9247 41.1146C17.3588 41.4619 17.3588 41.4619 17.0315 41.9628L17.0449 41.9695ZM17.8263 42.8644C17.3387 42.6106 17.312 42.5171 17.5992 41.896C18.1402 42.1431 17.7729 42.5238 17.8129 42.8577L17.8263 42.8644ZM18.2604 43.3186L18.0266 43.1583L18.3005 42.4904C18.3412 42.7649 18.3232 43.0447 18.2471 43.3119L18.2604 43.3186ZM18.9283 43.8529C18.5743 43.5657 18.5743 43.4188 18.8882 42.2967L19.3023 42.477C19.122 42.9512 19.0017 43.4121 18.8815 43.8462L18.9283 43.8529ZM19.7898 44.6744C19.1954 44.2403 19.1754 44.1735 19.4225 43.4722C19.4626 43.352 19.5093 43.2385 19.5962 43.0114C19.6963 43.4922 19.329 43.8996 19.7164 44.2803C20.0169 44.0399 19.8767 43.6592 20.0169 43.3787C20.1411 43.0862 20.244 42.7849 20.3242 42.477L19.8767 42.2967C19.8767 42.083 19.8767 41.8827 19.8433 41.542L19.3624 42.0696C18.955 41.8559 18.935 41.4018 18.6277 41.0344L18.0801 41.6622C17.8129 41.522 17.7595 41.3216 17.9198 41.0344C18.0046 40.8421 18.0741 40.6437 18.1268 40.44C17.5057 40.1795 17.7929 40.9543 17.3788 40.9877C17.1985 40.8942 17.0449 40.7673 17.2386 40.4668C17.3421 40.2724 17.4336 40.0714 17.5124 39.8657C17.1851 39.7321 17.1851 39.7321 16.7911 40.3198C16.3436 40.1796 16.3837 39.9591 16.564 39.6519C16.7443 39.3447 16.9046 39.0442 17.0716 38.7436C17.0202 38.7156 16.9627 38.6988 16.9046 38.6942C16.8458 38.6895 16.7871 38.6975 16.7316 38.7169C16.6762 38.7362 16.6261 38.7677 16.5834 38.8077C16.5406 38.8478 16.5066 38.8966 16.4839 38.9507C16.357 39.1711 16.2501 39.3981 16.1299 39.6185C15.6156 39.3781 15.5889 39.3046 15.8894 38.8638C15.9756 38.767 16.0511 38.6614 16.1165 38.5499C16.1366 38.437 16.1366 38.3222 16.1165 38.2093C16.003 38.2093 15.8494 38.2093 15.7826 38.3095C15.627 38.5072 15.484 38.7149 15.3551 38.9306L15.0613 38.7369L15.816 37.6082C15.482 37.4079 15.3151 37.5682 15.1481 37.7819C14.9811 37.9956 14.9277 38.2026 14.7874 38.4498L14.3667 38.0357C14.5403 37.6016 14.7273 37.2409 15.3084 37.2075C15.2015 37.0339 15.1414 36.8335 15.0078 36.7534C14.9137 36.7106 14.8295 36.6478 14.7614 36.5697C14.6933 36.4909 14.6432 36.3987 14.6138 36.2992C14.5851 36.1996 14.5777 36.0955 14.5924 35.9926C14.6071 35.8898 14.6445 35.7916 14.7006 35.7048L14.0728 35.8985C13.9933 36.4254 13.7422 36.9116 13.3582 37.281C13.1845 37.134 13.1445 37.0071 13.2847 36.8401C13.5519 36.5329 13.8123 36.2124 14.0728 35.8985C14.0695 35.8651 14.0695 35.8316 14.0728 35.7983C14.0728 35.658 14.193 35.4844 13.9793 35.4242C13.7656 35.3641 13.7656 35.5445 13.6788 35.6647C13.465 35.992 13.2246 36.2925 13.0109 36.5864C12.7103 36.4862 12.7103 36.3459 12.8306 36.1389C13.0576 35.7582 13.2847 35.3775 13.4984 34.9835C13.5652 34.8379 13.6233 34.6883 13.6721 34.536C13.278 34.3957 13.1779 34.6428 13.071 34.8499C12.8973 35.1905 12.7437 35.5178 12.5167 36.0254L12.1627 35.2907C12.4525 34.7117 12.8847 34.2154 13.4183 33.8481C13.7789 34.2555 14.1329 34.6763 14.5069 35.0837C14.716 35.3027 14.939 35.5078 15.1748 35.6981C15.3418 35.8384 15.3551 35.825 15.669 35.6447C15.6009 35.5645 15.5268 35.4884 15.4486 35.4176C14.7734 34.8886 14.189 34.2521 13.7188 33.5342C13.6561 33.4661 13.616 33.3792 13.6053 33.2871C13.5946 33.1942 13.6133 33.1007 13.6587 33.0199C13.7723 32.8129 13.8524 32.5925 13.9593 32.352C14.2799 32.5323 14.5003 32.7594 14.4936 33.0667C14.4495 33.3251 14.3707 33.5769 14.2598 33.8147L14.3667 33.8681C14.4936 33.6945 14.6271 33.5275 14.7808 33.3271C14.9611 33.414 15.1281 33.6878 15.4486 33.414L14.9344 32.7461C15.0679 32.4255 15.2149 32.0782 15.3685 31.7376C15.7893 32.125 16.1833 32.4923 16.5774 32.8462C16.6642 32.905 16.7243 32.9945 16.7457 33.0967C16.7664 33.1996 16.747 33.3058 16.6909 33.3939C16.5506 33.6945 16.4037 33.9883 16.2501 34.3089C15.8761 33.9883 15.6824 33.7011 15.8961 33.2603C15.9596 33.1795 15.9936 33.0793 15.9936 32.9765C15.9936 32.8736 15.9596 32.7735 15.8961 32.6926C15.6998 33.0513 15.5475 33.4327 15.442 33.828C15.3819 34.182 15.0012 34.4959 15.2149 34.91C15.5488 34.7564 15.4086 34.3757 15.6557 34.1887C15.8894 34.4224 16.1633 34.6295 15.9095 35.0302C15.8026 35.1905 15.856 35.3441 16.0698 35.4577L16.3302 35.0369C16.8939 35.3521 17.4262 35.7215 17.9198 36.1389C18.0467 36.2791 18.2337 36.4862 18.5276 36.3125C18.4674 36.199 18.4341 36.0588 18.3406 35.992C17.9438 35.5812 17.4944 35.2239 17.0048 34.93C16.5774 34.7564 16.5239 34.5694 16.7243 34.1486C16.8311 33.9215 16.958 33.7011 17.0783 33.4807C17.5458 33.8748 17.9465 34.2287 18.3673 34.5493C18.5008 34.6562 18.7079 34.8365 18.8815 34.4826C18.4875 34.162 18.0734 33.8147 17.6927 33.5074C17.0248 32.9063 16.357 32.2919 15.6891 31.6641C15.5922 31.5412 15.5154 31.4036 15.462 31.2567C15.3017 31.1919 15.1494 31.1091 15.0078 31.0096C14.754 30.7892 14.527 30.5487 14.2932 30.3016C14.0595 30.0545 13.966 29.961 14.2932 29.4534C14.4522 29.6491 14.6318 29.8288 14.8275 29.9877C15.0078 30.108 15.1748 30.4285 15.4954 30.1347C15.2483 29.9009 15.0145 29.7005 14.7941 29.4668C14.5737 29.233 14.4268 29.193 14.4602 28.9258C14.4602 28.8857 14.4134 28.8056 14.3867 28.8056C13.9392 28.8056 13.9259 28.3247 13.6454 28.1377L13.8591 27.4698C13.1912 27.7036 13.3582 28.3715 13.0309 28.7455C12.7504 28.6653 12.697 28.3781 12.5367 28.2112C12.7157 27.749 12.8479 27.2701 12.9307 26.7819C12.5233 27.0223 12.5233 27.4965 12.2629 27.8372C12.2014 27.8178 12.1453 27.7858 12.0979 27.7423C12.0505 27.6989 12.0131 27.6462 11.9884 27.5874C11.9637 27.528 11.9523 27.4638 11.9543 27.3997C11.957 27.3363 11.973 27.2735 12.0024 27.216C12.0759 27.027 12.1627 26.844 12.2629 26.6684C12.3463 26.5448 12.3791 26.3932 12.3524 26.2456C12.3263 26.0987 12.2442 25.9678 12.1226 25.8803C12.0204 25.8001 11.9303 25.706 11.8555 25.5998C11.2944 24.7048 10.7201 23.8165 10.1791 22.9283C9.58868 21.9806 9.13853 20.9527 8.84332 19.8761C8.84332 19.8226 8.84332 19.7625 8.84332 19.7091C8.72311 19.3618 8.46263 18.9945 8.50938 18.6672C8.63828 18.2812 8.83464 17.9218 9.09044 17.6053C9.19062 17.4383 9.29748 17.2713 9.41102 17.0977C9.79839 17.632 9.81175 17.839 9.50453 18.2932C9.38498 18.4361 9.27344 18.5857 9.17059 18.7407C9.12384 18.8275 9.05036 19.0011 9.2908 18.9744C9.37696 18.9303 9.45777 18.8769 9.53124 18.8141C9.67149 18.6538 9.79839 18.4735 9.95868 18.2531C10.1524 18.6004 10.306 18.8876 10.4729 19.2015L10.0923 19.7825C9.76499 19.5421 9.73828 19.0412 9.2908 18.9744C9.73895 20.0737 10.2839 21.131 10.9204 22.1335C11.3011 22.7413 11.7085 23.3424 12.1159 23.9368C12.2375 24.0877 12.3744 24.2266 12.5233 24.3509C12.6636 24.0102 12.4499 23.8299 12.343 23.6362C12.2361 23.4425 12.2495 23.2221 12.51 23.0552C12.8038 23.4826 13.091 23.91 13.3849 24.3575C13.3849 24.5846 12.9307 24.8317 13.3849 25.1056L13.6988 24.7048L14.0928 25.1323C13.9927 25.3727 13.9125 25.5664 13.8123 25.8001L13.425 25.4929C13.4243 25.6265 13.4443 25.7594 13.4851 25.887C13.9973 26.7913 14.6258 27.6241 15.3551 28.3648C15.5555 28.5585 15.7091 28.7922 15.8894 29.0326C15.9669 29.1034 16.0497 29.1683 16.1366 29.2264C16.1379 29.1142 16.1152 29.0033 16.0704 28.9011C16.0257 28.7989 15.9589 28.7067 15.8761 28.6319C15.4086 28.0041 14.9544 27.3697 14.4602 26.7686C14.3173 26.6163 14.2298 26.4206 14.2104 26.2122C14.191 26.0045 14.2411 25.7961 14.3533 25.6198L15.3017 26.7151C15.6356 27.0891 15.9696 27.4565 16.3169 27.8171C16.4972 27.9975 16.544 27.9974 16.8645 27.9507C16.8645 27.6568 16.6308 27.5099 16.4638 27.3229C15.9095 26.7018 15.3485 26.094 14.7874 25.4729C14.6926 25.34 14.6058 25.2017 14.527 25.0588C14.6806 24.825 14.8342 24.5779 15.0078 24.3041C15.6604 24.7896 16.2287 25.378 16.6909 26.0473C17.135 26.7519 17.682 27.387 18.3138 27.9307C18.3779 27.9941 18.4554 28.0422 18.5409 28.0709C18.583 28.077 18.6257 28.0729 18.6658 28.0602C18.7065 28.0475 18.7433 28.0262 18.7747 27.9974C18.7947 27.9607 18.8047 27.9193 18.8047 27.8772C18.8047 27.8352 18.7947 27.7938 18.7747 27.757C18.5142 27.5613 18.2644 27.3516 18.0266 27.1292C17.3588 26.3278 16.6375 25.5063 15.9495 24.7115C15.4687 24.1304 15.0078 23.5294 14.5336 22.935L15.3017 21.7862C14.6338 21.7394 14.6338 22.3606 14.3333 22.5543C13.986 22.1669 13.986 22.0533 14.2531 21.666C14.3934 21.4589 14.4936 21.2252 14.6272 20.9981C14.2932 20.9981 14.2932 20.9981 13.799 21.6259C13.5853 21.5658 13.4851 21.4122 13.5786 21.2185C13.7723 20.8044 14.006 20.417 14.2465 19.9629C14.7006 20.4638 15.1281 20.918 15.5488 21.3855C15.9696 21.853 16.5373 22.5476 17.0649 23.0886C17.3321 23.319 17.6233 23.5206 17.9331 23.6896C17.9752 23.709 18.0206 23.7197 18.0667 23.7197C18.1128 23.7197 18.1582 23.709 18.2003 23.6896C16.7704 22.3525 15.4647 20.8885 14.2999 19.315C13.0957 17.7702 11.981 16.158 10.9605 14.4863L11.2076 14.0722C11.408 14.3928 11.5816 14.6733 11.7686 14.9471C11.9556 15.2209 12.0825 15.4013 12.2562 15.615C12.4298 15.8287 12.7037 16.1627 12.9241 16.4231C13.059 16.526 13.2019 16.6175 13.3515 16.697L13.445 16.6168C13.419 16.524 13.3836 16.4345 13.3381 16.3496C12.8306 15.6818 12.2495 15.0139 11.8087 14.2325C11.2544 13.2975 10.8069 12.2956 10.326 11.3139C10.2853 11.1716 10.2566 11.0267 10.2392 10.8797C10.1323 10.5124 10.0121 10.1518 9.87185 9.71095C9.40434 10.0916 9.71157 10.459 9.69153 10.8196H9.3242C9.18394 10.3254 9.05036 9.87125 8.9435 9.48388C8.665 9.28351 8.40386 9.05978 8.16208 8.816C7.83482 8.44199 7.54764 8.02123 7.24709 7.62718C7.20034 7.56707 7.17363 7.48023 7.11352 7.44684C6.38553 7.06615 6.39888 6.31146 6.29202 5.66361C6.24527 5.03648 6.24527 4.40733 6.29202 3.78019C6.46567 4.80873 6.63265 5.83725 6.79962 6.88582C7.14691 6.799 7.10016 6.61199 7.06009 6.39826C6.91316 5.5367 6.78626 4.67514 6.63932 3.81358C6.59725 3.65262 6.54582 3.49434 6.48571 3.33939C6.39221 3.44625 6.33878 3.47964 6.32542 3.51971C6.31874 3.61054 6.31874 3.70271 6.32542 3.79354C6.32275 3.56847 6.29404 3.34406 6.2386 3.12567C6.11772 2.86987 5.97211 2.62609 5.80448 2.39768C5.54801 2.1165 5.36835 1.77389 5.28353 1.40255C5.40175 1.49939 5.51328 1.60425 5.61747 1.71645C6.05159 2.25075 6.47903 2.78506 6.8998 3.32604C6.9933 3.43958 7.05541 3.57516 7.08013 3.72009C7.20034 4.22701 7.20034 4.75596 7.08013 5.26288C6.95323 5.62354 7.20702 5.93076 7.24709 6.22463C7.24709 6.22463 7.24709 6.29809 7.3072 6.29809C7.8749 6.4183 8.1888 6.90586 8.58953 7.24648C9.01764 7.60647 9.42571 7.98983 9.81174 8.39523C10.0008 8.63834 10.1684 8.89748 10.3127 9.16998C10.2258 9.36366 10.139 9.54398 10.0923 9.64416C10.2045 9.9387 10.348 10.2212 10.5197 10.4857C10.8202 10.9913 11.0453 11.5376 11.1876 12.1086C11.4187 12.6556 11.6771 13.1906 11.9623 13.7115C12.1774 14.0315 12.4185 14.3327 12.6836 14.6132C12.918 14.9478 13.1799 15.2623 13.465 15.5549C14.1329 16.1426 14.8008 16.6903 15.4687 17.2513C15.7024 17.0977 15.6023 16.9641 15.5021 16.8572C15.1281 16.4699 14.7474 16.0892 14.36 15.7218C13.9726 15.3545 13.6387 15.0874 13.278 14.7668L13.3448 14.6666C13.4637 14.7207 13.5779 14.7855 13.6854 14.8603C14.0461 15.1542 14.3934 15.4614 14.7474 15.7553C15.5401 16.3357 16.4017 16.8158 17.312 17.1845C17.9799 17.5171 18.6645 17.8157 19.3624 18.0795C20.5646 18.5203 21.7868 18.8943 22.989 19.3351C24.0442 19.7291 25.0794 20.1833 26.128 20.604C26.7425 20.8578 27.3703 21.0916 27.978 21.3587C28.9111 21.7307 29.8254 22.1502 30.7163 22.6143C32.1723 23.4292 33.5615 24.3642 35.0175 25.179C36.3532 25.9404 37.6088 26.8487 38.9312 27.6301C40.2536 28.4115 41.4491 29.1262 42.7315 29.8408C43.3993 30.2215 44.134 30.5087 44.842 30.8493C45.4297 31.1164 46.0308 31.3702 46.6319 31.624C46.8456 31.7108 47.0727 31.7777 47.2997 31.8578C47.2997 32.0849 47.1662 32.145 46.9992 32.0715C46.2512 31.7509 45.5098 31.4036 44.7618 31.0897L44.5147 30.9762L42.7715 30.2415L40.9415 29.4534C40.4527 29.2417 39.9798 28.9966 39.5257 28.7188C38.7977 28.2846 38.0296 27.924 37.2615 27.5166C37.2295 27.562 37.2088 27.6148 37.2021 27.6702C37.1948 27.7256 37.2008 27.7817 37.2195 27.8338C37.2388 27.8866 37.2702 27.9333 37.311 27.9714C37.3517 28.0088 37.4011 28.0362 37.4552 28.0509C38.2366 28.4182 38.9045 29.0393 39.7928 29.1996C39.8676 29.2096 39.9371 29.2424 39.9932 29.2931C40.5328 29.746 41.1419 30.1086 41.7964 30.3684C42.3394 30.6496 42.8998 30.8967 43.4728 31.1098C44.5214 31.5372 45.5766 31.9379 46.6252 32.352C46.6853 32.352 46.7254 32.4389 46.879 32.5791C45.5032 32.3921 44.4679 31.6708 43.3058 31.3034C42.1437 30.9361 41.0083 30.502 39.8195 30.0812C39.8195 30.1814 39.8195 30.2883 39.8796 30.335C40.0593 30.5514 40.2884 30.721 40.5475 30.8292C40.8073 30.9374 41.0892 30.9809 41.369 30.9561C41.4672 30.9388 41.5673 30.9434 41.6635 30.9702C41.7597 30.9969 41.8485 31.0443 41.9233 31.1098C42.5799 31.6 43.3372 31.9379 44.1407 32.0982C44.4947 32.1917 44.8086 32.4188 45.2093 32.312H45.2627L46.3647 32.9798C46.2979 33.0266 46.2111 33.1335 46.151 33.1201C45.8184 33.0927 45.4945 33.0019 45.1959 32.8529C45.0296 32.7594 44.8493 32.694 44.6616 32.6593C44.0532 32.4936 43.4534 32.2973 42.865 32.0715C41.3423 31.4838 39.8262 30.8827 38.3168 30.2549C37.6155 29.9677 36.9409 29.587 36.2597 29.2731L33.9021 28.1377C34.0651 28.505 34.3576 28.8002 34.7236 28.9659C35.7895 29.5676 36.8935 30.0986 38.0296 30.5554C39.145 30.9562 40.2202 31.4771 41.3156 31.9446C41.5426 32.0315 41.7831 32.0849 41.9834 32.1717C42.1711 32.2451 42.3541 32.33 42.5311 32.4255C42.3107 33.0065 41.7697 33.1936 41.4291 33.6076L40.7612 33.4607L41.6295 32.352L41.5694 32.2652C41.4638 32.2879 41.3643 32.3313 41.2755 32.3921C41.1085 32.5591 40.9749 32.7661 40.8013 32.9331C40.3672 33.3739 40.2469 33.3805 39.6392 33.0934C39.8997 32.6659 39.8997 32.6659 40.4006 32.6726C40.4006 32.4455 40.3405 32.2118 40.3071 31.9246C39.9932 32.3387 39.6392 32.165 39.332 31.998C39.0247 31.8311 38.8177 31.7977 38.4838 31.6708C38.7108 32.185 38.3301 32.4188 38.083 32.6926C37.6756 33.1268 37.2415 33.5342 36.8007 33.9416C36.6284 34.0751 36.4454 34.1933 36.253 34.2955C36.0861 34.4157 35.9859 34.2956 35.8323 34.1954C36.5002 33.4607 37.128 32.7461 37.7624 32.0248L37.709 31.9446C37.6556 31.9446 37.5755 31.9446 37.5487 31.9847C37.2014 32.4522 36.7807 32.4255 36.2731 32.1517L36.6137 31.7042C36.2864 31.624 36.2263 31.9313 35.9458 32.0315L35.485 31.8645L35.0108 31.6841L35.0843 31.2901C34.4498 31.7442 33.9756 31.3502 33.4346 31.1298L33.842 30.5955C33.5141 30.6783 33.2169 30.8546 32.9871 31.1031C32.4354 31.5359 31.9092 31.9994 31.4109 32.4923C31.3148 32.6152 31.1745 32.6953 31.0196 32.7167C30.8653 32.7381 30.7083 32.698 30.5828 32.6058L30.2956 32.4455C30.8947 31.7302 31.5465 31.0604 32.2458 30.4419L31.3842 30.1347L31.7248 30.5554C31.7182 30.5928 31.7041 30.6295 31.6848 30.6623L29.9349 32.1116C29.7212 32.2852 29.5609 32.1984 29.3605 31.9713L31.097 30.2349L31.0236 30.148C30.2468 30.6583 29.4981 31.2086 28.7795 31.7977L28.4656 31.5506L30.182 29.7273C29.6811 29.8007 29.4474 30.2215 29.0934 30.482C28.7394 30.7424 28.4255 31.0897 28.0582 31.3903C23.4832 29.0393 19.2088 26.3678 15.6156 22.6678C15.6697 22.81 15.7412 22.9449 15.8293 23.0685C16.1533 23.4766 16.4985 23.8666 16.8645 24.2373C17.5324 24.9052 18.2003 25.513 18.9416 26.094C19.7765 26.7619 20.6648 27.3763 21.5464 27.9908C22.428 28.6052 23.1827 29.1462 24.0376 29.6605C24.8924 30.1747 25.9811 30.7491 26.9562 31.2901C27.4905 31.5906 28.0114 31.9179 28.5591 32.1917C29.1067 32.4656 29.5409 32.6192 30.0351 32.8195C30.7564 33.1201 31.4644 33.4474 32.199 33.7011C32.9337 33.9549 33.6016 34.0751 34.3028 34.2621C35.338 34.5493 36.3733 34.8699 37.4218 35.117C38.6908 35.4109 39.9731 35.6714 41.2555 35.8784C42.0649 35.9993 42.8817 36.0708 43.6999 36.0921C44.3678 36.0921 45.0356 36.0921 45.7636 36.0454L45.4698 36.4127L46.0842 36.2858C46.151 36.4461 46.2111 36.6064 46.2846 36.8001C45.7102 36.8936 45.1826 37.0004 44.6483 37.0606C43.7406 37.0973 42.831 37.0572 41.93 36.9403C40.9416 36.8802 39.9664 36.74 38.978 36.6398C38.8043 36.6398 38.6173 36.5396 38.457 36.7534C38.8144 36.9571 39.2151 37.0713 39.6258 37.0873C40.7211 37.1741 41.8232 37.1941 42.9118 37.3277C43.8709 37.3992 44.8339 37.3832 45.7903 37.281C45.9707 37.2676 46.151 37.2676 46.3313 37.281C46.3714 37.5615 46.1911 37.5481 46.0508 37.5548L44.8286 37.6149C44.6236 37.6316 44.4205 37.665 44.2208 37.7151C43.784 37.8393 43.3219 37.8393 42.8851 37.7151C42.5545 37.655 42.2172 37.6409 41.8833 37.675L39.7594 37.7284C39.539 37.7284 39.2785 37.7285 39.3052 37.3745C39.1723 37.48 39.0234 37.5635 38.8645 37.6216C38.7169 37.6289 38.5692 37.6062 38.4303 37.5548C37.1413 37.2542 35.839 36.9938 34.57 36.6331C33.8019 36.4194 33.0138 36.2858 32.2391 36.1055C31.3174 35.8851 30.4358 35.5177 29.5676 35.2172L28.8997 34.9902C28.9465 35.1057 29.0193 35.2079 29.1134 35.2894C29.2076 35.3708 29.3198 35.4283 29.4407 35.4577C30.5868 35.9499 31.7823 36.3172 33.0072 36.553C33.6443 36.6885 34.2728 36.8602 34.8906 37.0672C35.2112 37.1607 35.5584 37.2609 35.8657 37.3745C35.8296 37.4813 35.7875 37.5862 35.7388 37.6884L34.6969 39.6519C34.5232 39.9792 34.5299 39.9792 34.029 39.859C34.3222 39.0709 34.6675 38.3028 35.0642 37.5615C34.7303 37.6884 34.7303 37.6884 34.196 38.57C33.9756 38.9373 33.7752 39.3113 33.5281 39.7121L32.9804 39.672C33.1474 38.7904 33.862 38.1692 33.8687 37.2609C33.4546 37.9288 33.0339 38.6368 32.6398 39.338C32.6185 39.4035 32.5824 39.4622 32.5336 39.511C32.4849 39.5591 32.4254 39.5945 32.3593 39.6152C32.2939 39.6352 32.2244 39.6392 32.157 39.6272C32.0895 39.6152 32.026 39.5872 31.9719 39.5451L32.573 38.0958C32.2404 38.2741 31.9719 38.5519 31.805 38.8905C31.7449 38.984 31.7248 39.1043 31.6714 39.1978C31.4911 39.5117 31.4777 39.5183 31.0035 39.3581L31.7449 37.882C31.4243 37.9221 31.244 38.1291 30.5226 39.2178C30.4559 39.2271 30.3884 39.2271 30.3223 39.2178C30.2622 39.2178 30.2021 39.1443 30.142 39.1109C30.2488 38.6368 30.7163 38.3629 30.7564 37.7752C30.4251 38.0363 30.1366 38.3469 29.9015 38.6969C29.6945 38.9974 29.6878 38.9907 29.2336 38.8371L30.0485 37.488C29.8748 37.5615 29.7613 37.5748 29.7145 37.6349C29.4674 37.9622 29.2336 38.3028 29.0066 38.6301C28.8663 38.8238 28.7261 38.9306 28.4856 38.6969L28.9131 38.029L28.7928 37.9288L28.0515 38.5967L27.584 38.5633L27.8177 39.2312C28.1016 39.1243 28.4088 39.0963 28.7074 39.149C29.0059 39.2018 29.2844 39.334 29.5142 39.5317C29.5542 39.5317 29.6143 39.6185 29.6544 39.6052C30.3624 39.4382 30.9902 39.8456 31.658 39.899C32.3259 39.9525 32.8335 40.046 33.4212 40.1328C33.5695 40.1488 33.7151 40.1822 33.8554 40.233C34.5493 40.4868 35.2753 40.6397 36.0126 40.6871C36.6311 40.7947 37.2555 40.8661 37.8827 40.9009C38.6801 40.9296 39.4782 40.9122 40.2737 40.8474C41.5092 40.7406 42.7381 40.607 43.9403 40.4734C44.341 40.4267 44.7351 40.3398 45.1492 40.2664C45.1492 40.5602 44.9755 40.607 44.8286 40.6404C43.6598 40.8741 42.4977 41.0945 41.3289 41.3083C41.2755 41.3083 41.2154 41.3083 41.162 41.3083C40.3291 41.4939 39.4829 41.6101 38.6307 41.6556C38.5145 41.6522 38.3989 41.6776 38.2941 41.7284C38.1892 41.7798 38.0984 41.8553 38.0296 41.9494C38.4484 42.0696 38.8932 42.0696 39.3119 41.9494C40.3872 41.8225 41.4558 41.6756 42.5244 41.5353C42.6112 41.5353 42.7048 41.5353 42.845 41.5353C42.845 41.7758 42.845 41.9828 42.845 42.2032C42.0556 42.3248 41.2855 42.5492 40.5542 42.8711V42.9913H41.7296C40.9496 43.3954 40.0993 43.6472 39.2251 43.7327C38.811 43.4054 39.3854 43.0114 39.145 42.6173C38.7843 42.978 38.9646 43.4455 38.7977 43.8462L35.4583 44.5675C35.4249 44.3404 35.3982 44.1668 35.3648 43.9931H35.2646C35.2178 44.1467 35.1644 44.3004 35.0976 44.5074H34.1626C34.1626 44.267 34.1626 44.0666 34.1626 43.8395C33.7084 43.913 33.9555 44.307 33.7552 44.5074L33.1675 44.3938C33.1341 44.8413 33.5615 44.6811 33.7084 44.8814C33.7084 45.3289 33.7084 45.783 33.7084 46.2773L32.7267 46.2038C32.7667 45.7096 32.8001 45.2554 32.8402 44.7211C32.5196 44.9282 32.5664 45.182 32.5396 45.389C32.5129 45.5961 32.4996 45.8632 32.4729 46.1704L31.6313 46.0302C31.6313 45.7563 31.6714 45.5092 31.6981 45.1886C31.3375 45.3623 31.4977 45.6962 31.3375 45.8565C30.9367 45.9968 30.6295 45.763 30.2755 45.556C30.2755 45.4291 30.2755 45.2822 30.2755 45.1352H30.1887L29.8882 45.6094L28.2585 45.2421C28.312 44.9148 28.3654 44.5742 28.4188 44.2803C28.1517 44.5141 27.9981 44.9081 27.7843 45.8565C26.876 45.7957 25.9864 45.5693 25.1596 45.1886C24.103 44.7832 23.1005 44.2496 22.1742 43.5991C21.7481 43.34 21.3013 43.1162 20.8384 42.9312C20.5379 43.5991 20.6848 44.3939 20.1705 45.0016L19.7898 44.6744ZM36.961 34.3757C37.5554 33.661 38.1565 32.9598 38.7977 32.1984L39.5323 32.4856C39.3386 33.0266 38.9513 32.9932 38.4504 32.8796L38.7442 33.3004L37.3484 34.6362L36.9343 34.5226C36.9476 34.4692 36.9343 34.4091 36.961 34.3757ZM39.1383 33.3939L39.8729 33.641C39.6846 33.9489 39.3974 34.1847 39.0581 34.3089C38.9927 34.3396 38.9352 34.3857 38.8912 34.4425C38.7843 34.5627 38.7042 34.7631 38.5839 34.7831C38.3462 34.7965 38.1071 34.7744 37.876 34.7163C38.3368 34.2621 38.7309 33.8414 39.1383 33.3939ZM40.2469 34.6428C39.9397 35.1371 39.9197 35.1438 39.3453 34.9968C39.5457 34.4892 39.5991 34.4692 40.2469 34.6562V34.6428ZM40.0466 34.2087C40.3405 33.7679 40.3405 33.7679 40.9616 33.9616C40.7345 34.4959 40.3805 34.2154 40.0666 34.2221L40.0466 34.2087ZM41.6695 34.8365C41.6174 34.9414 41.5446 35.0342 41.4558 35.1104C41.367 35.1865 41.2635 35.2439 41.1519 35.2793C41.0411 35.3147 40.9235 35.3274 40.8066 35.3167C40.6904 35.3061 40.5769 35.2726 40.474 35.2172C40.5128 35.101 40.5782 34.9961 40.6657 34.9107C40.7532 34.8252 40.8601 34.7617 40.977 34.7257C41.0938 34.6896 41.218 34.6822 41.3383 34.7036C41.4591 34.7257 41.572 34.7757 41.6695 34.8499V34.8365ZM41.3222 34.4425C41.3222 34.0017 41.7564 34.0751 41.8833 33.8414C42.0108 33.6243 42.1517 33.4146 42.304 33.2136L42.9385 33.5809C42.7381 33.9483 42.3708 33.7679 42.097 33.9215L42.2973 34.1954C42.0703 34.6696 41.6629 34.3624 41.3222 34.4559V34.4425ZM42.9585 33.0733C42.8236 33.0319 42.6941 32.9758 42.5712 32.9064C42.7448 32.7862 42.8717 32.6259 42.9585 32.6526C43.4975 32.7427 44.0131 32.9404 44.4746 33.2336C44.2943 33.2871 44.1874 33.3539 44.1207 33.3271C43.7426 33.2076 43.3532 33.1267 42.9585 33.0867V33.0733ZM43.8535 33.7412C43.6064 33.9817 43.4661 33.8614 43.3259 33.7011L43.8535 33.7412ZM42.6446 34.8699C42.304 35.4376 42.304 35.4376 41.8565 35.3441C42.0703 35.0302 42.2172 34.7297 42.6446 34.8966V34.8699ZM42.5912 34.4425C42.8584 34.2221 43.0387 34.3557 43.3192 34.369C43.0253 34.6495 42.8584 34.5226 42.5912 34.4692V34.4425ZM44.0872 35.1104C43.8468 35.6781 43.4194 35.4643 43.0253 35.4643C43.2591 34.9434 43.2992 34.93 44.0739 35.1638L44.0872 35.1104ZM43.6264 34.5293C43.9871 34.2021 44.2943 34.4492 44.6616 34.4759C44.3077 34.7965 44.2876 34.7965 43.6264 34.5828V34.5293ZM44.1674 33.8614C44.5949 33.6344 44.8353 33.9149 45.1024 33.9082L45.0624 34.0952L44.1674 33.8614ZM44.675 33.3939C44.7885 33.3271 44.8286 33.287 44.8486 33.2937L45.59 33.5275C45.1759 33.6945 44.9822 33.4807 44.675 33.3939ZM45.2961 35.3975H44.6282C44.8887 35.2373 44.8887 35.2372 45.2961 35.4309V35.3975ZM45.0824 34.6095L45.8972 34.6695C45.4564 34.9968 45.4097 34.9901 45.0824 34.6428V34.6095ZM45.6033 34.2288C45.6067 34.18 45.6067 34.1306 45.6033 34.0818L46.2245 34.1352C46.0041 34.4425 45.797 34.2221 45.6033 34.2621V34.2288ZM34.3563 32.1784C34.413 32.1036 34.4932 32.0495 34.584 32.0254C34.6742 32.0014 34.771 32.008 34.8572 32.0448C35.0709 32.1183 35.2846 32.1717 35.652 32.2786C35.2579 32.6325 34.9841 32.8997 34.6702 33.1602C34.5119 33.3064 34.3416 33.4407 34.1626 33.5609C33.8487 33.788 33.5749 33.601 33.2276 33.4407L34.3563 32.1784ZM32.5196 33.3071L31.5779 33.0733L33.2409 31.2099C33.4413 31.3769 33.5749 31.4971 33.7218 31.6107L34.1492 31.9112C33.6837 32.4602 33.1334 32.9311 32.5196 33.3071ZM34.9039 33.5208C35.0108 33.3672 35.1444 33.2336 35.2445 33.0867C35.6052 32.5657 36.0126 32.2652 36.6805 32.7594L35.5451 33.8614C35.298 34.0952 35.0308 33.9883 34.7036 33.8614C34.7643 33.7446 34.8311 33.631 34.9039 33.5208ZM41.5827 45.2955C41.6228 46.0101 41.5827 46.0836 40.6276 46.3574C40.6276 45.5493 40.6276 44.7612 40.6276 43.9197L41.5493 43.706C41.6221 43.8148 41.6702 43.9377 41.6916 44.0666C41.7136 44.1955 41.7069 44.3271 41.6735 44.454C41.6402 44.5802 41.58 44.6978 41.4979 44.7993C41.4151 44.9008 41.3122 44.9829 41.1953 45.0417L41.5827 45.2955ZM41.5226 46.3908L41.6161 46.7582C41.2955 46.9518 41.0017 47.1188 40.6276 47.3325C40.6276 47.0787 40.6276 46.8917 40.6276 46.7181L41.5226 46.3908ZM41.0818 47.6064C41.3222 47.3326 41.4959 47.3592 41.6896 47.5463C41.4892 47.6798 41.4892 47.6798 41.1152 47.6064H41.0818ZM41.4024 48.5815C40.8414 48.7551 40.8414 48.7551 40.7345 48.3477C41.0083 48.2742 41.2688 48.1273 41.4024 48.5815ZM39.165 46.4309V44.2002L40.4206 43.9931C40.4206 44.8614 40.4206 45.6829 40.4206 46.5444C40.2176 46.6386 39.9938 46.6773 39.7708 46.6573C39.5484 46.6373 39.3346 46.5591 39.1516 46.4309H39.165ZM39.7661 47.6865L39.2518 47.7533C39.2518 47.6197 39.2518 47.5195 39.2518 47.4127C39.2518 46.9318 39.2919 46.9118 39.7995 46.9251C39.9798 46.9251 40.1601 46.8917 40.3805 46.8717C40.4006 47.5663 40.3605 47.6131 39.7527 47.6865H39.7661ZM37.7624 46.5177C37.7624 46.3842 37.9495 46.2439 38.0697 46.0702C37.8226 45.97 37.7892 45.7229 37.8292 45.4023C37.8693 45.0818 37.8827 44.7345 37.9094 44.3872L38.7843 44.1601C38.9172 44.5655 38.9426 44.9976 38.8578 45.4157C38.8578 45.8031 38.7977 46.1905 38.7709 46.5912L38.2567 46.8316V46.9451L38.7576 47.032C38.7576 47.0854 38.8177 47.1188 38.8177 47.1455C38.8177 47.9403 38.7442 47.9737 37.7624 47.8535C37.7224 47.406 37.7224 47.406 37.9829 47.1455C37.8747 46.9499 37.8005 46.7381 37.7624 46.5177ZM36.5603 47.052C36.5603 46.7715 36.5068 46.5378 36.4734 46.2506L37.4886 46.324C37.4886 46.5645 37.4886 46.7515 37.4352 46.9919L36.5603 47.052ZM37.3884 47.4795L37.2682 47.9269H36.4935V47.4194L37.3884 47.4795ZM36.567 45.0885C36.6003 44.8213 36.6938 44.6343 37.0211 44.6343C37.2281 44.6049 37.4312 44.5555 37.6289 44.4874C37.5888 44.9883 37.5554 45.4291 37.522 45.8632C37.4639 45.8852 37.4031 45.9006 37.3417 45.9099C36.5336 45.9367 36.4734 45.8632 36.567 45.0885ZM36.1996 46.5044C36.1328 46.9585 36.1195 47.4193 36.0794 47.9136H35.1644C35.2379 47.4594 35.318 47.0186 35.4115 46.4643C35.2706 45.9273 35.2886 45.361 35.4649 44.8347L36.3065 44.7478C36.3933 45.4758 36.3065 45.6829 35.8657 45.8699C35.9859 45.9213 36.0847 46.0121 36.1455 46.1277C36.2063 46.2432 36.2257 46.3761 36.1996 46.5044ZM34.196 47.052C34.1626 47.052 34.1426 46.9184 34.1626 46.8583C34.1779 46.8283 34.2 46.8022 34.226 46.7815C34.2528 46.7608 34.2835 46.7461 34.3162 46.7381C34.5366 46.7381 34.7503 46.7381 34.9841 46.7381L35.0776 46.8583C34.9974 46.9652 34.924 47.1589 34.8438 47.1656C34.6207 47.1622 34.4004 47.1242 34.1893 47.052H34.196ZM34.777 47.7199C34.4364 47.9737 34.403 47.9737 34.1091 47.6665L34.777 47.7199ZM34.1091 46.324C34.1091 45.8432 34.1092 45.389 34.1426 44.8948H35.131C35.0909 45.4157 35.0509 45.9033 35.0108 46.4109L34.1091 46.324ZM33.0673 47.052C32.8869 47.052 32.7467 46.9585 32.8669 46.678L33.8086 46.8249C33.5749 47.219 33.281 47.032 33.0406 47.0253L33.0673 47.052ZM33.5281 47.6064C33.3878 47.9871 33.0739 47.76 32.7934 47.8735C32.8669 47.4193 32.8669 47.4193 33.5014 47.5796L33.5281 47.6064ZM32.3393 47.8134L31.4844 47.5863C31.5445 47.1789 31.5912 46.825 31.6514 46.4376C31.8784 46.4843 32.0588 46.5044 32.2324 46.5578C32.4061 46.6112 32.4729 46.678 32.4662 46.7314C32.4361 46.845 32.3733 46.9471 32.2859 47.0253C32.2458 47.072 32.1589 47.0854 32.0721 47.1255C32.1055 47.3459 32.573 47.3793 32.3126 47.7867L32.3393 47.8134ZM31.1504 46.8851L30.1486 46.5644C30.1486 46.3975 30.1486 46.2572 30.182 46.0769C31.2039 45.9367 31.3842 46.0836 31.1504 46.8851ZM28.7127 46.6513C28.6459 46.8516 28.6058 46.9719 28.5524 47.1188C28.2585 47.0253 27.9713 46.9852 28.0782 46.5177L28.7127 46.6513ZM28.2118 45.7764C28.2365 45.743 28.2692 45.7163 28.306 45.6976C28.3434 45.6789 28.3841 45.6695 28.4255 45.6695C28.7394 45.6695 28.8129 45.7964 28.7194 46.2372C28.5571 46.1764 28.4001 46.1003 28.2519 46.0101C28.2292 45.9761 28.2151 45.9373 28.2104 45.8966C28.2058 45.8558 28.2111 45.8144 28.2251 45.7764H28.2118ZM20.9453 45.5359C20.618 45.389 20.5112 45.2955 20.6381 45.0217C20.8237 44.6209 20.982 44.2082 21.1122 43.7861C21.179 43.5924 21.2659 43.6191 21.3794 43.6793C21.2458 44.287 21.1122 44.8814 20.9586 45.5359H20.9453ZM21.6799 46.0302C21.2458 45.763 21.2191 45.576 21.5397 44.9883C22.0339 45.2487 22.0339 45.4157 21.6933 46.0302H21.6799ZM22.7486 46.1904C22.7486 46.3173 22.6884 46.4442 22.6617 46.5644C22.6424 46.6018 22.6203 46.6373 22.5949 46.6713L22.1341 46.3975C22.1942 46.1036 22.241 45.8365 22.3011 45.5159C22.8621 45.7697 22.8621 45.7697 22.7619 46.1904H22.7486ZM23.5901 47.4194L22.9222 46.9786C23.0357 46.6313 23.1226 46.3708 23.2027 46.1103C23.9107 46.324 23.9574 46.471 23.5901 47.4194ZM24.485 47.9203L23.9641 47.5663C24.0509 47.2524 24.1377 46.9652 24.2312 46.6379L24.7923 46.9051C24.7949 47.2604 24.6874 47.6083 24.485 47.9002V47.9203ZM25.6405 48.4813C25.4 48.3678 25.1663 48.2609 24.9125 48.154C24.9592 47.9336 24.9859 47.7733 25.0327 47.613C25.0701 47.4701 25.1175 47.3292 25.173 47.1923C25.9611 47.4193 26.0412 47.5663 25.6405 48.4612V48.4813ZM26.6222 48.9555L26.0412 48.7551L26.148 48.2408C26.148 48.1006 26.2148 47.9603 26.2549 47.8201C26.8226 47.9202 26.9161 48.2075 26.6222 48.9354V48.9555ZM27.8445 49.423L27.0964 49.1157C27.1499 48.8018 27.2033 48.5214 27.2634 48.1874C27.5639 48.3143 27.7643 48.4011 28.0248 48.5013C27.9647 48.7551 27.9113 49.049 27.8445 49.423ZM28.6659 49.7035L28.125 49.423C28.4723 49.3028 28.5791 49.4965 28.7394 49.5566L28.6659 49.7035ZM30.3891 50.2378C30.3891 49.9105 30.4358 49.6167 30.4625 49.3228C30.4899 49.1191 30.5013 48.9141 30.4959 48.7084C30.4779 48.5514 30.4305 48.3998 30.3557 48.2609C30.3557 48.2609 30.182 48.2609 30.162 48.2943C30.0752 48.4679 29.9015 48.7217 29.9616 48.8286C30.2154 49.2493 30.0418 49.6367 29.9616 50.0441C29.454 50.0441 29.454 50.0441 29.1468 49.7436C29.3271 49.4831 29.6477 49.7436 29.8548 49.5432C29.8548 49.1558 29.4741 49.276 29.2871 49.0757C29.2871 48.8887 29.2871 48.6683 29.2871 48.4479C29.2871 48.2275 29.2336 48.1073 29.04 48.1674C28.9805 48.1988 28.9284 48.2422 28.8864 48.2949C28.8449 48.3484 28.8156 48.4092 28.7995 48.4746C28.7761 48.6563 28.7761 48.8406 28.7995 49.0223C28.3253 49.0223 28.3187 49.0223 28.3454 48.675C28.3721 48.3277 28.3921 48.0071 28.4188 47.6865C28.0782 47.7199 28.0782 47.7199 27.8311 48.0205C27.7042 47.9737 27.5239 47.967 27.4437 47.8668C27.3496 47.7439 27.2247 47.6491 27.0811 47.5917C26.9375 47.5342 26.7819 47.5162 26.6289 47.5396C26.5154 47.5396 26.3484 47.3325 26.2616 47.1923C26.2075 47.068 26.1781 46.9338 26.1748 46.7982C25.8208 46.6246 25.8342 46.9518 25.6939 47.0854C25.5536 47.0053 25.4067 46.9318 25.2731 46.865C25.2731 46.6179 25.3132 46.4042 25.3266 46.1971C25.3132 46.1257 25.2905 46.0562 25.2598 45.9901L24.7856 46.0569C24.7856 46.2573 24.8457 46.3975 24.8791 46.5912C24.7635 46.5845 24.6507 46.5544 24.5478 46.503C24.4443 46.4516 24.3521 46.3788 24.278 46.2906C24.3181 46.0769 24.5451 45.7897 24.2246 45.6228C23.904 45.4558 23.8839 45.8031 23.737 46.0035C23.4498 45.8565 23.2762 45.6895 23.3363 45.3756C23.353 45.3028 23.353 45.228 23.3363 45.1552C23.3276 45.1085 23.3056 45.0651 23.2735 45.0297C23.2408 44.995 23.1994 44.9696 23.1533 44.9569C23.1079 44.9442 23.0591 44.9449 23.013 44.9589C22.9676 44.9729 22.9269 44.999 22.8955 45.035C22.8694 45.0617 22.8487 45.0938 22.8354 45.1285C22.8354 45.2154 22.7886 45.3022 22.7619 45.4023C22.4413 45.3422 22.3345 45.1953 22.428 44.8614C22.5215 44.5274 22.5081 44.4874 22.0873 44.4473C22.054 44.5942 22.0139 44.7479 21.9738 44.9349C21.3059 44.6811 21.8202 44.267 21.7133 43.7861C21.8836 43.8382 22.0493 43.905 22.2076 43.9865C22.7686 44.3204 23.2895 44.7078 23.8706 44.995C24.672 45.3823 25.5002 45.7029 26.3284 46.0368C26.5094 46.0716 26.6924 46.0963 26.876 46.1103C27.1051 46.1617 27.3289 46.2359 27.5439 46.3307C27.7242 46.4109 27.6908 46.5578 27.5439 46.7314C27.1231 46.7314 26.7959 46.4643 26.3885 46.3307C26.3885 46.4643 26.3885 46.5912 26.3885 46.7047C26.7378 46.9665 27.1318 47.1635 27.5506 47.2858C27.96 47.3425 28.3727 47.3672 28.7862 47.3592L29.2003 46.4643C29.2003 46.3574 29.1067 46.1771 29.0199 45.8899L29.8882 46.0101C29.7145 46.678 29.5542 47.239 29.3939 47.8401C29.788 47.8401 29.788 47.8401 30.0618 47.0053L31.0436 47.1789C31.1104 47.4461 30.9968 47.5463 30.7364 47.5196C30.4759 47.4928 30.2288 47.3659 29.9817 47.5596C30.1353 47.967 30.5293 47.8 30.7631 47.9002C30.9681 48.7164 31.0576 49.5572 31.0302 50.3981L30.3891 50.2378ZM32.1389 50.5316L31.3842 50.4582C31.4243 50.2845 31.4577 50.151 31.4978 50.004L32.1656 50.0508C32.1656 50.2311 32.1523 50.3647 32.1389 50.5183V50.5316ZM32.5263 50.6051C32.5263 50.4248 32.5263 50.2712 32.5263 50.1109C33.0405 50.171 33.0406 50.171 33.0806 50.6452L32.5263 50.6051ZM32.5931 49.4631C32.5931 49.3829 32.7133 49.236 32.7734 49.2426C33.0339 49.2426 33.0138 49.4631 32.9871 49.7169C32.7534 49.7235 32.5664 49.7302 32.5931 49.423V49.4631ZM32.6532 48.8353C32.5463 48.6282 32.4729 48.488 32.3526 48.2676L31.6848 48.8353C31.6313 49.2093 32.3526 49.0557 32.1389 49.5633L31.5378 49.5165C31.471 49.0156 31.4042 48.528 31.3441 48.0338C31.4176 48.0338 31.4777 47.9804 31.5178 48.0004C32.5103 48.313 33.5595 48.4018 34.59 48.2609C34.757 48.2509 34.924 48.2509 35.0909 48.2609L37.5888 48.4345C37.7304 48.4406 37.868 48.4813 37.9895 48.5548C37.3217 48.6015 36.754 48.9421 36.066 48.7417C35.7067 48.6823 35.3381 48.7191 34.9974 48.8486C34.8919 48.898 34.7777 48.9248 34.6615 48.9268C34.5453 48.9294 34.4297 48.9067 34.3222 48.8613C34.2153 48.8159 34.1192 48.7491 34.0397 48.6636C33.9602 48.5788 33.8994 48.4779 33.862 48.3677C33.7685 48.5414 33.7418 48.6683 33.6617 48.7284C33.5815 48.7885 33.3878 48.8152 33.3878 48.7551C33.114 48.5147 32.8803 48.5814 32.6532 48.8219V48.8353ZM36.2798 49.7369C35.5117 49.9239 35.4716 49.9039 35.4583 49.3028C36.0594 49.1959 36.0593 49.1959 36.2798 49.7235V49.7369ZM33.5214 50.7187C33.468 50.2244 33.4212 49.7703 33.3678 49.2426H33.9489L34.3095 50.7053L33.5214 50.7187ZM34.3496 49.3428C34.9106 49.0957 35.0175 49.1358 35.0843 49.8304H34.5366L34.3496 49.3428ZM34.6301 50.7988C34.6301 50.5984 34.6301 50.4582 34.57 50.2111C35.1243 50.3119 35.692 50.3119 36.2464 50.2111C36.5469 50.2111 36.5469 50.2111 36.6271 50.6585L34.6301 50.7988ZM36.4868 49.2026L37.2215 49.0289L37.5354 49.59C37.355 49.63 37.2281 49.6701 37.1012 49.6902C36.9743 49.7102 36.8875 49.6902 36.754 49.6902L36.4868 49.2026ZM37.3417 50.5851C37.0211 50.6252 36.9944 50.3914 36.941 50.1243C37.1066 50.0681 37.2829 50.0488 37.4566 50.0675C37.6309 50.0862 37.7992 50.1416 37.9494 50.2311L38.1765 49.7369L37.6823 49.069L38.417 48.9622L39.0448 50.3647L37.3417 50.5851ZM39.3453 50.2712C39.1516 49.777 38.9713 49.3228 38.7776 48.8152L39.3988 48.715L39.5991 49.1759L39.1984 49.3963L39.7661 49.5365C39.8061 49.6901 39.8529 49.8504 39.9063 50.0642L39.3453 50.2712ZM39.9664 48.5481C40.2069 48.4078 40.3338 48.5481 40.4273 48.8286L40.0266 49.0757C39.9197 48.8553 39.7527 48.6883 39.9932 48.5481H39.9664ZM40.995 49.8838L40.2403 49.964C40.2002 49.777 40.1535 49.59 40.1067 49.3896C40.1601 49.3475 40.2229 49.3188 40.2897 49.3054C40.3565 49.2927 40.4253 49.2954 40.4907 49.3148C40.5555 49.3335 40.6156 49.3676 40.665 49.4143C40.7145 49.4611 40.7519 49.5192 40.7746 49.5833C40.8427 49.6908 40.9208 49.791 41.0083 49.8838C41.0083 49.6501 41.0083 49.4096 41.0083 49.1492C41.2154 49.0891 41.4091 49.0423 41.6295 48.9888L41.8031 49.4096L41.0217 49.8838H40.995ZM42.8517 49.2159C42.0168 49.2159 41.9167 49.1024 41.7029 48.0672L42.2706 47.8134C42.3528 48.0619 42.4509 48.305 42.5645 48.5414C42.7381 48.7551 42.9251 48.9154 42.8784 49.2026L42.8517 49.2159ZM42.3374 47.1722H42.7381V47.4661C43.0053 47.5129 43.3659 47.3993 43.4394 47.8802L42.9452 48.134L42.3374 47.1722ZM43.2591 49.0356L43.0053 48.5347C43.1696 48.4465 43.3486 48.3878 43.5329 48.361C43.6598 48.361 43.78 48.508 44.0004 48.6483L43.2591 49.0356ZM44.2342 48.5414L44.0271 48.0872L44.6549 47.6865C45.1225 48.1874 45.0891 48.2542 44.2609 48.528L44.2342 48.5414ZM45.3562 48.0872L45.0356 47.5796L45.6568 47.239L46.0441 47.7733L45.3562 48.0872ZM46.692 47.6264C46.3914 47.6264 46.1844 47.4728 46.1443 47.2257C46.1443 47.0988 46.2779 46.9385 46.3514 46.7915C46.7855 46.9585 46.7454 47.2524 46.692 47.613V47.6264ZM47.1662 46.9585L46.7454 46.5444L46.7988 46.4242C46.9057 46.4242 47.0393 46.4242 47.1061 46.4242C47.1595 46.4449 47.2069 46.4803 47.2417 46.5257C47.2771 46.5711 47.2984 46.6259 47.3051 46.6834C47.3111 46.7401 47.3011 46.7982 47.277 46.8503C47.2523 46.9024 47.2143 46.9465 47.1662 46.9786V46.9585ZM47.607 46.5711L47.3398 46.2105C47.5001 45.9834 47.6604 45.97 47.8073 46.1571C47.9543 46.3441 47.8207 46.4776 47.607 46.5912V46.5711ZM51.3805 42.6039C50.6118 43.7119 49.7302 44.7372 48.749 45.6628C48.749 45.6628 48.6956 45.7296 48.6689 45.7296H48.3283C48.3283 45.6161 48.3283 45.4491 48.375 45.3957C48.6489 45.1419 48.9561 44.9281 49.2433 44.7278C49.3461 44.675 49.4249 44.5842 49.4617 44.474C49.4991 44.3645 49.4931 44.2449 49.4436 44.1401C48.8152 44.5555 48.2167 45.015 47.6537 45.5159C47.5201 45.2888 47.4066 45.0952 47.273 44.848C47.8073 44.4874 48.3416 44.1467 48.8492 43.7794C49.0309 43.6211 49.1985 43.4462 49.3501 43.2585C49.6574 42.9245 50.018 42.5906 50.2785 42.2433C50.348 42.1511 50.4481 42.087 50.561 42.0623C50.6739 42.0376 50.7914 42.0543 50.8929 42.1097L49.6307 43.9731C49.7629 43.9905 49.8965 43.9677 50.0153 43.9083C50.1349 43.8489 50.2331 43.7547 50.2985 43.6392C50.6592 43.1583 51.0332 42.6841 51.4005 42.2032L51.5207 42.2767C51.48 42.3949 51.4333 42.5105 51.3805 42.624V42.6039ZM51.6343 40.7406C51.5902 40.7753 51.5388 40.7994 51.484 40.8114C51.4292 40.8234 51.3731 40.8227 51.3184 40.81C51.2636 40.7973 51.2128 40.772 51.1694 40.7372C51.126 40.7018 51.0906 40.6577 51.0666 40.607C50.7059 40.607 50.5123 41.0745 50.1115 40.9276L49.8778 40.5001C49.6507 40.6871 49.644 40.3666 49.5772 40.3599C49.4109 40.3839 49.25 40.438 49.103 40.5202C48.7357 40.233 49.457 40.066 49.1631 39.7388L48.6756 39.9792L48.3417 39.7187L48.8893 38.7703C48.6823 38.6434 48.5821 38.8104 48.4552 38.9306C48.3283 39.0508 48.1947 39.0108 48.1012 38.7837L48.7691 38.2828L48.9093 38.7703C48.9935 38.7763 49.0736 38.8111 49.1344 38.8698C49.1959 38.9286 49.2339 39.0068 49.2433 39.0909C49.3234 39.5518 49.7308 39.7588 49.9846 40.1061C50.0801 40.1909 50.2043 40.2363 50.3319 40.233C50.6458 40.253 50.9597 40.253 51.2736 40.233C51.4099 40.1969 51.5348 40.1255 51.6343 40.0259C51.9682 39.7454 52.3022 39.4515 52.6428 39.1376C52.6675 39.4776 52.5833 39.8162 52.4017 40.1047C52.2207 40.3933 51.9515 40.6163 51.6343 40.7406ZM52.8231 37.7485C52.8231 38.1626 52.4558 38.3696 52.222 38.6434C51.9916 38.9112 51.7465 39.165 51.4874 39.4048L51.3805 39.3247C51.4874 38.9046 51.7204 38.5266 52.0484 38.2427C52.401 37.9996 52.6855 37.671 52.8765 37.2877C52.9567 37.134 53.0769 37.0071 53.2172 36.8001C53.4242 37.321 52.8431 37.4012 52.8231 37.7685V37.7485ZM53.9986 35.8851C53.9585 35.9345 53.9051 35.9719 53.845 35.9933C53.7849 36.014 53.7201 36.0187 53.658 36.0053C53.6072 35.9619 53.5671 35.9078 53.5417 35.8464C53.5164 35.7842 53.5057 35.7175 53.511 35.6513C53.511 35.5645 53.6312 35.4777 53.7047 35.3909C53.8717 35.1838 54.052 34.9768 54.3191 34.6629C54.1989 35.1705 54.1255 35.5512 53.9986 35.9051V35.8851ZM20.7516 19.4954C20.3155 19.3204 19.9007 19.0966 19.516 18.8275L19.5561 18.7206C19.6536 18.7073 19.7524 18.7073 19.85 18.7206C21.0121 19.1548 22.1675 19.6022 23.3363 20.0564C23.8906 20.2568 24.465 20.4037 25.026 20.5773C25.2558 20.6328 25.4795 20.7109 25.6939 20.8111C26.5154 21.2919 27.4771 21.479 28.2452 22.04C28.8616 22.1796 29.4393 22.4554 29.9349 22.8481C30.8031 23.3891 31.7849 23.6696 32.6064 24.2507C33.7552 25.0321 34.9373 25.7601 36.1061 26.5081C36.2931 26.6283 36.4668 26.7552 36.4868 26.9889C36.3332 27.1893 36.2063 27.0758 36.0861 26.9889C35.111 26.3211 34.1425 25.6532 33.1541 24.9853C32.6866 24.6914 32.179 24.4711 31.6914 24.2106C31.4844 24.097 31.2907 23.9501 31.0837 23.8299C30.0351 23.2154 28.9131 22.7479 27.8378 22.1869C26.7438 21.6379 25.6124 21.1664 24.4516 20.7777L20.7516 19.4954ZM24.3047 42.2032C23.0157 41.7257 21.8235 41.0197 20.785 40.1194C20.6648 40.0126 20.5579 39.8857 20.4444 39.7721L20.5245 39.6386C20.6915 39.7321 20.8651 39.8122 21.0321 39.9124C21.7868 40.3399 22.5215 40.814 23.3029 41.2014C24.3114 41.709 25.36 42.1431 26.3818 42.6173C26.9816 42.9172 27.6167 43.1416 28.2719 43.2852C28.7541 43.4181 29.2216 43.5991 29.6678 43.8262C30.0638 44.0793 30.538 44.1815 31.0035 44.1133C31.0035 44.4606 30.7497 44.454 30.5627 44.4072C30.1874 44.3037 29.8207 44.1695 29.4674 44.0065C28.9685 43.7534 28.4175 43.6185 27.8578 43.6124C27.6267 43.5937 27.401 43.535 27.1899 43.4388C26.2082 43.0247 25.2664 42.5973 24.3047 42.2099V42.2032ZM35.0442 27.0023C34.6034 27.1693 34.3763 26.9021 34.0691 26.7619C33.488 26.4814 32.9203 26.1675 32.3593 25.8402C31.7983 25.5129 31.2373 25.1322 30.6495 24.825C29.6477 24.2974 28.7661 23.5494 27.6441 23.2622C27.6441 23.2622 27.5639 23.2622 27.5439 23.2221C26.836 22.5142 25.8275 22.4875 24.9793 22.0934C24.9285 22.0747 24.8831 22.0453 24.8457 22.0066C24.8457 22.0066 24.8457 21.9398 24.7989 21.8263C25.2638 21.8156 25.7233 21.9238 26.1347 22.1402C27.023 22.5142 27.9112 22.8815 28.7661 23.3223C29.621 23.7631 30.2956 24.2373 31.0636 24.6581C31.6847 25.012 32.3259 25.3259 32.947 25.6933C33.5682 26.0606 34.1626 26.4079 34.7704 26.7686C34.8906 26.8554 34.9974 26.9021 35.0442 27.0023ZM20.4978 28.0041C20.6247 28.0288 20.7483 28.0696 20.8651 28.1243C21.72 28.6787 22.5549 29.2664 23.4231 29.8007C24.2913 30.335 25.0928 30.7625 25.921 31.25C26.5889 31.6307 27.2567 32.0381 27.8712 32.4255C28.0114 32.5123 28.165 32.5858 28.312 32.6593L29.04 33.0266L28.9798 33.2069C28.7134 33.1621 28.4516 33.0933 28.1984 32.9998C27.8445 32.8396 27.5306 32.6125 27.1766 32.4322C26.8226 32.2518 26.5488 32.1249 26.2415 31.958C25.9343 31.791 25.4668 31.5172 25.0928 31.2901C24.7188 31.063 24.2045 30.7491 23.7904 30.4352C23.7537 30.3978 23.7103 30.3684 23.6622 30.3484C23.6135 30.3284 23.562 30.3177 23.5099 30.3177C23.4578 30.3177 23.4057 30.3284 23.3576 30.3484C23.3096 30.3684 23.2661 30.3978 23.2294 30.4352C23.0892 29.8809 22.6083 29.7206 22.2142 29.4735C21.8202 29.2264 21.5063 29.0661 21.159 28.8523C20.996 28.7642 20.8531 28.644 20.7396 28.4977C20.6254 28.3514 20.5432 28.1838 20.4978 28.0041ZM22.0339 27.0224C23.9841 28.1845 26.1013 29.026 27.9914 30.2949C27.9914 30.3551 27.9914 30.3751 27.9513 30.3885C27.9359 30.3918 27.9199 30.3918 27.9046 30.3885C27.8692 30.3945 27.8331 30.3945 27.7977 30.3885C27.3429 30.2248 26.8967 30.0378 26.462 29.8274C24.859 29.054 23.3243 28.147 21.8736 27.1158C21.8336 27.0824 21.8202 27.0224 21.7801 26.9355C21.8696 26.9482 21.9558 26.9776 22.0339 27.0224ZM27.1165 34.5426C26.7091 34.2888 26.315 34.0217 25.8943 33.7813C25.6739 33.6544 25.4134 33.6143 25.193 33.4807C24.5017 33.1294 23.8459 32.7113 23.2361 32.2318C22.6818 31.7309 22.0339 31.3702 21.4729 30.8961C21.3547 30.7892 21.2432 30.6756 21.139 30.5554L21.2458 30.4352C22.0072 30.9562 22.7485 31.4905 23.5233 31.9847C24.298 32.4789 25.1596 32.9865 25.9878 33.4674C26.4352 33.7212 26.9028 33.9416 27.3235 34.182C27.407 34.2227 27.4818 34.2795 27.5439 34.349C27.584 34.3957 27.6174 34.5093 27.5907 34.5493C27.564 34.5894 27.4437 34.6896 27.3769 34.6829C27.2828 34.6509 27.1953 34.6034 27.1165 34.5426ZM19.1554 33.7612C18.1001 32.893 17.105 31.958 16.0831 31.043C16.007 30.9515 15.9402 30.8533 15.8828 30.7491C16.0698 30.522 16.2234 30.4285 16.4171 30.6489C16.6107 30.8693 17.0048 31.2634 17.2586 31.5973C18.1035 32.6626 19.1327 33.5676 20.2974 34.2688C21.0588 34.7497 21.8736 35.1371 22.7953 35.6046C22.5148 35.5378 22.3478 35.5044 22.1942 35.4577C21.0802 35.0957 20.0483 34.5193 19.1554 33.7612ZM25.3266 41.1079C26.0105 41.3944 26.7104 41.6396 27.4237 41.8426C27.5366 41.8586 27.6408 41.912 27.7196 41.9942C27.7984 42.077 27.8471 42.1832 27.8578 42.2967C27.5439 42.2707 27.2333 42.2173 26.9295 42.1365C26.4152 41.9361 25.9277 41.6623 25.4201 41.4686C25.0461 41.3083 24.6453 41.2215 24.2847 41.0411C23.6502 40.7339 23.0424 40.3733 22.428 40.046C22.279 39.9692 22.1381 39.877 22.0072 39.7721C21.8469 39.6452 21.7 39.4916 21.5464 39.3447L21.6132 39.2512C21.7067 39.2686 21.7988 39.2953 21.887 39.3314C23.0291 39.9124 24.1578 40.5469 25.3266 41.1079ZM19.9368 31.6441C20.4978 32.0715 21.0321 32.4188 21.513 32.8329C22.4306 33.5782 23.4171 34.2361 24.4583 34.7964L24.8991 35.0837C24.8844 35.1251 24.8664 35.1651 24.8457 35.2039C24.5498 35.1257 24.2613 35.0202 23.9841 34.8899C22.9623 34.373 22.0065 33.7339 21.139 32.9865C21.0381 32.905 20.9486 32.8108 20.8718 32.706C20.8164 32.5898 20.7376 32.4863 20.6394 32.4021C20.5419 32.318 20.4277 32.2552 20.3041 32.2184C20.242 32.2051 20.1832 32.1797 20.1318 32.143C20.0797 32.1069 20.035 32.0608 20.0009 32.0074C19.9668 31.954 19.9435 31.8945 19.9328 31.8324C19.9214 31.7696 19.9228 31.7062 19.9368 31.6441ZM17.2653 38.9039C17.1885 38.8385 17.1056 38.7803 17.0182 38.7303C16.6482 38.0724 16.1232 37.5154 15.4887 37.1073C15.5622 36.8134 15.7625 36.7868 15.9429 36.9203C16.2167 37.0993 16.4565 37.3251 16.6508 37.5882C17.3775 38.755 18.3098 39.7802 19.4025 40.6137C19.0351 40.7072 19.0017 40.7072 18.7346 40.4133C18.2604 39.9258 17.7795 39.4048 17.292 38.9039H17.2653ZM26.9161 24.5779L31.5913 27.1827C31.4383 27.2034 31.2834 27.2034 31.1304 27.1827C30.4625 26.8888 29.7947 26.5816 29.1268 26.2677C28.8596 26.1408 28.6192 25.9537 28.3587 25.8202C27.751 25.5396 27.4103 24.9786 26.9161 24.5913V24.5779ZM16.5306 36.0988L19.2021 38.5767C19.0552 38.6902 18.9016 38.6434 18.7279 38.5366L17.873 38.0223C17.7896 37.9836 17.7168 37.9268 17.6593 37.8553C17.3715 37.3344 16.9774 36.8796 16.5039 36.5196C16.3436 36.406 16.2501 36.2457 16.5306 36.0988ZM33.488 43.2451V43.1182C33.681 43.0755 33.8781 43.0481 34.0758 43.0381C35.1136 43.0655 36.1515 42.9913 37.1747 42.8177C37.1747 42.8177 37.2348 42.8577 37.3016 42.9045C37.2281 43.2718 36.8541 43.3253 36.6337 43.3319C35.5852 43.4268 34.5292 43.3981 33.488 43.2451ZM27.6708 41.0144L28.6793 41.2882L31.3508 42.0296C31.264 42.1391 31.1451 42.2186 31.0109 42.2567C30.8773 42.2947 30.7344 42.29 30.6028 42.2433C29.6678 42.0162 28.7541 41.7097 27.8712 41.3283C27.8164 41.2942 27.7703 41.2482 27.7356 41.1941C27.7009 41.14 27.6788 41.0785 27.6708 41.0144ZM20.4377 31.0296C20.8518 31.3435 21.2458 31.6975 21.6465 32.0114C21.726 32.0608 21.7962 32.1243 21.8536 32.1984C21.9137 32.2919 22.0005 32.4589 21.9605 32.5123C21.9204 32.5657 21.7 32.5724 21.5864 32.4589C21.4729 32.3453 21.3126 32.2118 21.1724 32.0915L19.0752 30.1948C18.955 30.0879 18.8214 30.0011 18.6945 29.9076L18.7814 29.774C19.3624 30.1881 19.89 30.6022 20.4377 31.0296ZM20.3375 35.9586C20.0303 35.6647 19.5561 35.5378 19.3624 34.9968L23.6502 38.0691C23.2441 37.9929 22.8614 37.8213 22.5348 37.5681C22.1742 37.3077 21.7935 37.0739 21.4395 36.8134C21.0555 36.551 20.6875 36.2658 20.3375 35.9586ZM16.2501 29.3866C16.3369 29.3866 16.4304 29.3866 16.4571 29.42C17.1724 30.2976 17.9639 31.1111 18.8214 31.8511C18.8214 31.8511 18.8214 31.9179 18.8749 32.0047C18.1469 31.8244 16.9647 30.6423 16.2501 29.3866ZM22.7486 38.9106C21.7848 38.6909 20.9266 38.1459 20.3175 37.3678C21.2017 37.7498 22.0212 38.2661 22.7486 38.8972V38.9106ZM28.4789 42.4036C29.3599 42.5191 30.2308 42.7021 31.0837 42.9512C31.0369 43.2518 30.91 43.3119 30.7431 43.2718C30.4559 43.1983 30.1753 43.1182 29.8948 43.0314C29.6143 42.9446 29.1869 42.8177 28.8396 42.6974C28.6907 42.634 28.5651 42.5271 28.4789 42.3902V42.4036ZM24.0376 39.6786C24.8771 39.8696 25.6879 40.1709 26.4486 40.5736C26.0612 40.8875 25.7807 40.6738 25.4935 40.5736C24.9372 40.4106 24.4343 40.1014 24.0376 39.6786ZM25.3065 44.2736L26.689 44.9415V45.0684C26.5474 45.0884 26.4032 45.0884 26.2616 45.0684C25.8542 44.9415 25.4401 44.8213 25.3132 44.2736H25.3065ZM16.5172 28.7188C17.0656 29.0206 17.505 29.4882 17.7729 30.0545C17.2052 29.7473 16.938 29.193 16.5172 28.7188ZM18.7413 28.6252C19.1868 28.7895 19.5554 29.1135 19.7765 29.5336C19.3531 29.3245 18.9951 29.004 18.7413 28.6052V28.6252ZM20.5713 38.5366L20.5045 38.6301L19.5561 37.9622C19.9835 37.9956 19.9835 37.9956 20.5713 38.5366ZM48.9628 32.2853C48.9628 32.2853 48.9628 32.2251 48.9628 32.1984L49.1765 32.1183C49.1765 32.1183 49.1765 32.1784 49.1765 32.2051C49.107 32.2358 49.0356 32.2625 48.9628 32.2853ZM10.68 14.0254C10.686 14.0542 10.686 14.0836 10.68 14.1123C10.68 14.1123 10.6065 14.1123 10.5865 14.1123C10.5664 14.1123 10.4128 13.9253 10.3193 13.8318C10.3794 13.7984 10.4396 13.7249 10.4863 13.7316C10.5184 13.7383 10.5491 13.7509 10.5758 13.769C10.6032 13.787 10.6266 13.8104 10.6446 13.8378C10.6626 13.8651 10.6753 13.8959 10.6813 13.9279C10.6873 13.9607 10.6867 13.9934 10.68 14.0254Z" fill="#101A24"/>
</g>
<defs>
<filter id="filter0_d_6_23" x="0" y="0" width="59.2637" height="60" filterUnits="userSpaceOnUse" color-interpolation-filters="sRGB">
<feFlood flood-opacity="0" result="BackgroundImageFix"/>
<feColorMatrix in="SourceAlpha" type="matrix" values="0 0 0 0 0 0 0 0 0 0 0 0 0 0 0 0 0 0 127 0" result="hardAlpha"/>
<feOffset dy="4"/>
<feGaussianBlur stdDeviation="2"/>
<feComposite in2="hardAlpha" operator="out"/>
<feColorMatrix type="matrix" values="0 0 0 0 0 0 0 0 0 0 0 0 0 0 0 0 0 0 0.25 0"/>
<feBlend mode="normal" in2="BackgroundImageFix" result="effect1_dropShadow_6_23"/>
<feBlend mode="normal" in="SourceGraphic" in2="effect1_dropShadow_6_23" result="shape"/>
</filter>
</defs>
</svg>
