<svg width="26" height="26" viewBox="0 0 26 26" fill="none" xmlns="http://www.w3.org/2000/svg">
<path d="M24.4547 12.4004V21.2268C24.4547 21.9817 24.4541 22.4977 24.4267 22.8994C24.3999 23.2921 24.3507 23.5021 24.2885 23.6524C24.0667 24.1877 23.6421 24.6128 23.1082 24.8339C22.9581 24.8961 22.748 24.9452 22.3549 24.972C21.9529 24.9995 21.4365 25 20.6815 25C19.9266 25 19.4105 24.9995 19.0087 24.972C18.6158 24.9452 18.4059 24.8961 18.2557 24.8339C17.7216 24.6127 17.297 24.1877 17.0753 23.6525C17.0131 23.5023 16.964 23.2923 16.9372 22.8995C16.9097 22.4977 16.9092 21.9816 16.9092 21.2266V19.6357C16.9092 17.3261 15.0369 15.4539 12.7274 15.4539C10.4178 15.4539 8.54552 17.3261 8.54552 19.6357V21.2266C8.54552 21.9815 8.54494 22.4977 8.51749 22.8994C8.49065 23.2922 8.44152 23.5022 8.37927 23.6525C8.15755 24.1878 7.73298 24.6128 7.19904 24.8339C7.04891 24.8961 6.8388 24.9452 6.44568 24.972C6.04366 24.9995 5.52729 25 4.77235 25C4.01739 25 3.50126 24.9995 3.09946 24.972C2.70665 24.9452 2.49668 24.8961 2.34647 24.8339C1.81253 24.6127 1.3878 24.1876 1.16608 23.6524C1.10385 23.5021 1.05475 23.2922 1.02796 22.8995C1.00054 22.4978 1 21.9817 1 21.2268V12.4004C1 11.498 1.00759 11.2245 1.07088 10.9823C1.13326 10.7436 1.23686 10.5161 1.37736 10.3091C1.51823 10.1016 1.71934 9.91442 2.39702 9.32145L10.036 2.63737C10.6405 2.1084 11.052 1.74927 11.3941 1.49349C11.7261 1.24522 11.9328 1.14138 12.108 1.08957C12.5118 0.970143 12.9426 0.970143 13.3464 1.08957C13.5219 1.14146 13.729 1.24548 14.0615 1.4941C14.404 1.75021 14.8162 2.10987 15.4216 2.63958L23.058 9.32145C23.7358 9.91452 23.9369 10.1016 24.0778 10.3091C24.2172 10.5144 24.3202 10.7417 24.3831 10.9823C24.4465 11.2249 24.4547 11.4995 24.4547 12.4004Z" stroke="white" stroke-width="2" stroke-linecap="round" stroke-linejoin="round"/>
</svg>
