<svg width="125" height="170" viewBox="0 0 125 170" fill="none" xmlns="http://www.w3.org/2000/svg">
<g opacity="0.2">
<path d="M121.958 105.772C120.911 106.291 119.833 106.746 118.732 107.134C114.343 108.59 109.963 109.983 105.523 111.392C104.32 111.747 103.078 111.951 101.824 112C99.7523 112.152 97.708 112.566 95.7406 113.232C92.8538 114.131 89.9853 115.079 87.0916 115.965C85.3284 116.436 83.4887 116.547 81.6816 116.291C79.0059 116.122 76.3209 116.153 73.6497 116.384C72.1005 116.473 70.5419 116.484 68.9888 116.551C66.2821 116.622 63.6158 117.221 61.1399 118.317C58.3093 119.653 56.1121 121.671 53.7141 123.49C53.6283 123.563 53.647 123.719 53.4374 124.069C54.0998 123.797 54.5624 123.618 55.0122 123.447C57.4886 122.213 60.1056 121.284 62.8064 120.682C64.723 120.332 66.6545 120.117 68.5721 119.8C70.102 119.554 71.6226 119.229 73.1357 118.967C75.4908 118.404 77.9312 118.294 80.3277 118.641C81.9617 118.813 83.6061 118.858 85.247 118.776C88.6926 118.926 92.1441 119.056 95.5906 119.314C96.6259 119.446 97.6335 119.74 98.578 120.184C99.0165 120.311 99.2872 120.865 99.7139 121.292C99.3617 121.61 99.161 121.93 98.8695 122.04C96.2052 123.251 93.4067 124.145 90.5332 124.701C88.5298 125.015 86.5846 125.648 84.5965 126.095C83.3368 126.377 82.051 126.564 80.7943 126.836C79.1499 127.178 77.511 127.576 75.8706 127.941C74.9823 128.003 74.1108 128.214 73.2916 128.562C72.5503 128.989 71.735 129.272 70.8882 129.397C69.9782 129.605 69.1195 129.996 68.3639 130.544C67.6083 131.092 66.9716 131.788 66.4917 132.589C66.1874 133.057 65.8333 133.49 65.4352 133.881C63.8654 135.431 62.1322 136.806 60.2659 137.983C58.9421 138.818 57.7777 139.851 56.5052 140.734C55.6243 141.359 54.7015 141.924 53.7442 142.425C51.4291 143.588 49.074 144.663 46.7776 145.798C45.1682 146.627 43.584 147.505 42.0245 148.434C40.2011 149.594 38.2643 150.565 36.2441 151.331C33.7637 152.208 31.314 153.202 28.7937 153.992C27.3964 154.434 25.9483 154.695 24.4845 154.768C22.9175 154.861 21.4458 155.55 20.3701 156.693C18.5493 158.42 16.6704 160.088 14.9176 161.879C13.342 163.581 11.8759 165.314 10.2903 167.013C9.64471 167.646 8.95165 168.227 8.21726 168.754C8.01647 168.925 7.76419 169.025 7.50052 169.036C7.23685 169.047 6.97698 168.97 6.76229 168.817C6.39578 168.591 6.01645 168.373 5.65291 168.137C4.08075 167.118 4.24089 165.566 5.4027 164.284C7.77613 161.734 10.3024 159.401 12.7181 156.928C13.504 156.07 14.245 155.171 14.9384 154.236C15.0516 154.107 15.1067 153.918 15.2311 153.824C16.826 152.539 17.6826 150.746 18.7737 149.076C19.4204 147.914 19.797 146.62 19.8754 145.292C20.1245 143.323 20.3736 141.354 20.7351 139.406C21.1218 136.9 21.6564 134.419 22.336 131.976C23.8038 127.079 26.042 122.446 28.9663 118.253C30.3349 116.372 31.9704 114.687 33.4466 112.881C34.5691 111.511 35.6404 110.095 36.7117 108.678C37.7829 107.262 38.8374 105.83 39.9328 104.442C40.1676 104.154 40.5858 104.016 41.119 103.706C41.1816 104.122 41.1969 104.543 41.1639 104.962C40.8526 106.254 40.5084 107.548 40.1375 108.823C39.3434 111.551 38.6061 114.307 37.6552 116.98C36.3881 120.554 34.9144 124.057 33.5674 127.608C33.2128 128.531 33.0141 129.51 32.7359 130.466C32.4952 131.203 32.1697 131.909 31.7662 132.571C30.7078 134.206 29.8033 135.935 29.0639 137.736C28.331 139.341 27.5148 140.907 26.6186 142.426C26.5604 142.625 26.443 142.807 26.2857 143.161C26.9367 142.992 27.4975 142.579 27.8531 142.008C29.0343 140.031 30.657 138.355 32.5943 137.112C33.418 136.49 34.0774 135.677 34.5154 134.743C35.232 133.504 36.0325 132.315 36.9124 131.185C38.3565 129.304 39.8815 127.48 41.3863 125.649C41.9885 124.917 42.6583 124.248 43.2704 123.518C44.4092 122.265 45.2506 120.771 45.7315 119.146C46.1887 117.649 46.9359 116.255 47.9302 115.044C50.6034 111.501 53.2194 108.007 56.0588 104.599C57.4373 102.904 59.1404 101.434 60.6042 99.818C62.0686 98.2027 63.6099 96.4691 65.2064 94.8814C67.0436 93.061 68.9656 91.3199 70.8946 89.5912C72.3747 88.2177 73.9569 86.9392 75.5145 85.6317C75.7152 85.5025 75.9303 85.3985 76.1562 85.3215C76.2617 85.4226 76.346 85.544 76.4047 85.6781C76.4634 85.8123 76.495 85.9568 76.4975 86.1028C76.4999 86.2492 76.4738 86.3947 76.42 86.5309C76.3658 86.667 76.2859 86.7913 76.1838 86.8959C75.4918 87.937 74.8171 88.9935 74.1296 90.0573C72.1829 93.0339 70.3225 96.0464 68.3891 99.016C65.6641 103.181 62.8952 107.312 60.1535 111.462C59.3027 112.729 58.5204 114.041 57.8102 115.393C58.4632 114.967 59.131 114.567 59.7658 114.093C61.9497 112.417 64.0784 110.671 66.286 109.023C68.1395 107.629 70.0892 106.349 71.9767 104.986C72.5582 104.506 73.0805 103.958 73.5323 103.354C75.1909 101.244 76.6425 98.9785 77.8666 96.5899C78.7149 94.8824 79.2515 93.0378 79.4523 91.1424C79.7438 89.3259 79.8326 87.4611 80.2459 85.6697C80.6577 83.5006 81.364 81.3985 82.3459 79.4212C82.4155 79.182 82.5773 78.9591 82.6799 78.7189C83.3112 77.2176 83.8488 75.6669 84.5871 74.2075C85.469 72.4606 85.9341 70.5326 85.9454 68.5751C86.0579 66.4981 86.668 64.4789 87.7244 62.6871C87.7772 62.5673 87.8497 62.4568 87.9385 62.3606C89.4793 60.7779 90.6467 58.882 92.365 57.4699C92.731 57.177 93.0323 56.8105 93.3741 56.4889C93.7164 56.1674 94.1613 56.1239 94.4079 56.6492C94.5756 57.0275 94.655 57.4384 94.6412 57.8517C94.5692 59.138 94.4844 60.4312 94.3073 61.7081C94.1297 62.985 93.7943 64.3241 93.5458 65.6237C93.3776 66.2012 93.4013 66.8242 93.2533 67.4076C93.0812 68.434 92.7892 69.4367 92.3838 70.395C91.677 71.8342 91.1897 73.371 90.9377 74.9542C90.6649 76.4847 90.3966 78.0378 90.2151 79.551C90.1086 80.3628 90.2028 81.1894 90.1362 82.0126C90.0494 83.1647 89.897 84.3198 89.7742 85.4828C89.7308 85.6322 89.7471 85.7994 89.7081 86.155C90.6112 85.5001 91.422 84.7257 92.1174 83.8532C93.5926 82.2735 95.0412 80.675 96.5603 79.1298C97.925 77.7443 99.3578 76.422 100.754 75.0785C100.95 74.8477 101.174 74.6405 101.419 74.462C102.813 73.4455 104.103 72.2943 105.271 71.0248C107.152 69.3144 109.057 67.6325 110.954 65.9379C112.852 64.2432 114.624 62.6851 116.458 61.0585C117.992 61.5049 118.206 62.0316 117.403 63.3426C116.884 64.1963 116.275 64.9914 115.776 65.8506C114.918 67.3509 114.033 68.8325 113.286 70.3975C112.255 72.6426 110.851 74.6953 109.131 76.4694C107.301 78.3021 105.663 80.3317 103.908 82.2404C102.584 83.6703 101.193 85.0364 99.8495 86.4603C99.1748 87.1824 98.5311 87.9454 97.8905 88.699C96.7817 89.9409 95.7652 91.2627 94.8493 92.6531C95.2311 92.5451 95.6054 92.4124 95.9694 92.2556C98.3235 91.0719 100.653 89.8596 102.997 88.6729C103.847 88.2398 104.736 87.8936 105.522 87.4201C107.612 86.2897 109.678 85.1302 111.737 83.9578C115.431 81.8789 119.102 79.7714 122.811 77.7182C123.334 77.5308 123.882 77.4242 124.437 77.4025C124.585 77.9421 124.61 78.5083 124.51 79.0587C124.409 79.6092 124.186 80.13 123.857 80.5828C122.338 83.2599 120.195 85.5306 117.61 87.2011C115.436 88.7291 113.352 90.4341 111.242 92.0775C108.313 94.3468 105.639 96.9282 102.34 98.7225C101.947 98.9647 101.527 99.1615 101.089 99.309C98.3521 100.244 95.7149 101.449 93.2158 102.904C92.6343 103.184 92.0119 103.368 91.3722 103.448C89.4166 103.721 87.5059 104.255 85.6924 105.036C84.1698 105.636 82.6167 106.154 81.0384 106.587C78.676 107.138 76.4644 108.206 74.5646 109.715C74.3747 109.887 74.0891 109.977 73.9318 110.33C74.7836 110.114 75.6496 109.923 76.4955 109.651C79.5692 108.666 82.6404 107.665 85.7087 106.65C87.2085 106.248 88.6659 105.703 90.0607 105.022C90.9845 104.53 92.0198 104.284 93.0664 104.309C94.7847 104.269 96.4597 103.784 98.1898 103.704C100.816 103.513 103.451 103.483 106.08 103.614C108.403 103.819 110.743 103.701 113.032 103.261C114.651 102.992 116.299 102.934 117.933 103.088C118.995 103.149 120.069 103.17 121.106 103.321C121.605 103.417 122.065 103.66 122.426 104.018C122.559 104.146 122.656 104.309 122.706 104.487C122.756 104.666 122.757 104.854 122.709 105.033C122.662 105.212 122.567 105.375 122.435 105.506C122.303 105.635 122.138 105.728 121.958 105.772ZM46.895 98.8197C48.7953 97.8885 50.5936 96.761 52.2601 95.4555C52.9881 94.8464 53.7052 94.2018 54.4588 93.6543C56.4909 92.2033 58.4045 90.5929 60.1816 88.8386C63.2405 86.0169 65.9043 82.7953 68.1006 79.261C68.3462 78.861 68.5089 78.4161 68.5785 77.9525C68.5706 77.589 68.4956 77.2299 68.3575 76.894C68.0063 76.9863 67.5891 76.9729 67.3242 77.1766C65.4895 78.5438 63.6212 79.8794 61.9068 81.3901C61.0876 82.1591 60.1761 82.8224 59.1927 83.3654C57.4561 84.2103 56.0322 85.5025 54.0988 86.0199C53.9819 86.051 53.8847 86.1629 53.7787 86.2295C52.3134 87.2179 50.8767 88.2581 49.359 89.1666C47.2826 90.3986 45.1327 91.5123 43.0198 92.7226C42.0013 93.2903 40.9656 93.8422 40.0093 94.4933C38.7969 95.3953 37.4875 96.1588 36.1055 96.7704C35.1072 97.1842 34.1361 97.6592 33.196 98.1923C31.6074 99.0476 30.0301 99.9388 28.4499 100.84C27.4679 101.377 26.514 101.964 25.5932 102.601C24.0919 103.676 22.6556 104.825 21.1785 105.929C21.1785 105.929 21.029 105.885 20.8599 105.836C20.9412 105.597 21.0443 105.367 21.1681 105.148C22.5762 103.019 24.0046 100.897 25.4083 98.8202C27.0294 96.2466 29.3737 94.2082 32.148 92.9609C34.0424 92.1298 35.8683 91.1271 37.7888 90.2817C39.7094 89.4369 41.8968 88.7878 43.8874 87.8872C45.8775 86.9866 48.0407 85.7906 50.1033 84.7168C51.1331 84.1847 52.1334 83.5686 53.1957 83.1105C55.7057 82.0219 58.117 80.7179 60.4015 79.2126C61.0777 78.7312 61.7115 78.1931 62.296 77.6033C63.0501 76.9049 63.7223 76.1172 64.4794 75.409C66.399 73.6019 68.3353 71.8105 70.2692 70.029C70.8433 69.5048 71.4509 69.012 71.991 68.4562C73.2467 67.1472 74.4788 65.8101 75.7078 64.4824C76.9369 63.1552 78.1285 61.8817 79.3048 60.5495C79.7102 60.0844 80.1832 59.5735 79.9258 58.8613C78.7554 58.3912 78.7485 58.3784 77.8952 58.9727C77.3961 59.3135 76.9354 59.7086 76.496 60.0667C75.1406 61.0122 73.8494 61.9971 72.4926 62.9095C71.3996 63.6804 70.2554 64.3764 69.0672 64.9909C66.3866 66.2954 63.634 67.4387 60.9564 68.7334C57.8117 70.2594 54.7059 71.8727 51.5967 73.4628C50.0998 74.2263 48.5956 74.9769 47.1524 75.8529C44.8965 77.22 42.682 78.6425 40.5089 80.1201C38.865 81.2402 37.3193 82.4323 35.7257 83.6752C34.9795 84.2355 34.251 84.8446 33.5186 85.431L33.2917 85.2461C33.5778 84.7459 33.8905 84.2646 34.1494 83.7457C35.7011 80.6429 37.701 77.7853 40.0857 75.265C40.4364 74.8822 40.7658 74.4803 41.0736 74.062C42.605 72.0665 44.0965 70.0591 45.6353 68.0764C47.0775 66.2387 48.5541 64.4321 50.0402 62.6284C50.5733 61.9843 50.9482 61.1429 51.9647 61.0284C52.1343 61.0018 52.2823 60.7532 52.4337 60.6033C53.0892 59.7998 53.8182 59.0398 54.6098 58.2872C55.172 57.6835 55.7969 57.1409 56.4741 56.6694C59.1078 55.0044 62.0834 53.9543 65.1788 53.5967C66.7072 53.3935 68.2219 53.0133 69.742 52.7642C70.5291 52.5349 71.3543 52.4628 72.1695 52.5526C73.5673 52.7977 74.9902 52.9201 76.4126 53.0424C78.1029 53.035 79.7813 53.3225 81.3724 53.8922C81.5228 53.974 81.6895 54.0224 81.8601 54.0342C83.8932 54.0643 85.9345 54.1398 87.9508 54.0786C90.9165 53.9479 93.891 53.7117 96.8597 53.4956C99.2226 53.3196 101.591 53.0902 103.95 52.891C104.424 52.8564 104.9 52.8545 105.373 52.7869C107.431 52.5107 109.467 52.1206 111.529 51.9756C112.698 51.8942 113.928 51.4532 115.084 52.1571C115.254 52.2064 115.515 52.1635 115.727 52.1388C116.792 52.0056 117.867 51.8759 118.934 51.7003C119.315 51.6885 119.685 51.5721 120.004 51.3635C120.391 51.0212 120.887 50.8288 121.404 50.8205C121.688 50.7736 121.937 50.5112 122.21 50.3529C122.06 50.0604 121.869 49.7901 121.644 49.5509C121.414 49.434 121.164 49.3615 120.907 49.3364C119.244 48.8521 117.591 48.3712 115.928 47.8868C115.109 47.5026 114.27 47.1648 113.414 46.8743C111.729 46.5132 110.005 46.3742 108.284 46.4615C104.481 46.6218 100.675 46.241 96.9785 45.331C96.7694 45.2704 96.5603 45.2092 96.3684 45.0889C94.5761 44.4916 92.799 43.769 90.9663 43.3108C86.3661 42.2741 81.6116 42.1143 76.9517 42.8398L76.5626 42.8778C73.6817 43.1949 70.8428 43.8169 68.0936 44.7337C67.8209 44.8161 67.5541 44.8792 67.0761 44.9991C67.197 44.7525 67.3346 44.5148 67.489 44.2874C68.8384 42.7683 70.1809 41.2364 71.5545 39.7454C72.9286 38.2549 74.6104 36.6702 75.9564 34.9776C77.5006 32.9564 78.711 30.7009 79.543 28.2975C79.7068 27.8073 79.9302 27.339 80.2079 26.9031C81.4754 25.0359 82.7257 23.1529 84.0811 21.3544C85.5602 19.3348 86.7237 17.1018 87.5316 14.7322C87.6726 14.233 87.864 13.7494 88.1032 13.289C89.5897 10.7524 91.3096 8.35982 93.2405 6.14225C94.507 4.68536 95.5793 3.04222 96.76 1.47372C96.8399 1.37764 96.8991 1.26617 96.9341 1.14618C96.9691 1.02623 96.9795 0.900311 96.9637 0.776268C96.9484 0.652226 96.9075 0.53272 96.8439 0.425102C96.7802 0.317483 96.6949 0.224119 96.5938 0.150779C96.1766 -0.197526 95.7992 0.135439 95.4501 0.368777C94.7196 0.836735 93.9995 1.3076 93.2439 1.71421C91.4595 2.68558 89.5804 3.49978 87.8896 4.59559C85.904 5.88652 84.0687 7.40477 82.1783 8.85289C80.5295 10.0378 78.9872 11.3635 77.5677 12.815C76.2183 14.3337 75.0331 15.9913 74.0329 17.7599C71.9353 21.2544 69.7474 24.69 67.5689 28.1283C66.8266 29.3061 65.9862 30.4114 65.1438 31.6356C65.1857 30.9347 65.2301 30.2995 65.2715 29.6746C65.2823 27.2529 65.6202 24.844 66.2757 22.5129C66.6421 21.3087 66.8932 20.0724 67.0263 18.8208C67.0461 18.6177 67.0214 18.4127 66.9543 18.2198C66.8877 18.027 66.7797 17.8508 66.6387 17.7034C66.2426 17.3937 65.8338 17.7606 65.5344 18.084C65.2863 18.3306 65.0658 18.6033 64.8759 18.8971C63.6957 21.0597 62.4784 23.2008 61.3633 25.4363C60.7443 26.6714 60.3902 28.0376 59.825 29.3096C58.9767 31.2232 58.0558 33.0511 57.1163 34.9055C57.0729 35.055 56.9624 35.1739 56.7843 35.4895L56.5486 34.7403C56.2655 33.2987 55.8315 31.8905 55.2544 30.5396C55.1237 30.2235 55.0571 29.8847 55.0581 29.5424C55.0058 28.9441 55.067 28.3246 54.9659 27.7441C54.668 25.4237 54.6083 23.0789 54.7883 20.7463C54.847 19.035 54.8717 17.3174 54.8623 15.5934C54.8953 12.4751 55.3856 9.37855 56.3168 6.40247C56.6068 5.40663 56.8031 4.2863 57.8077 3.69292C57.4827 2.58285 57.2134 2.32076 56.7 2.71148C55.2929 3.72547 54.088 4.99435 53.1479 6.45233C52.0668 8.37773 51.322 10.4733 50.9447 12.649C50.6542 14.0075 50.0717 15.2865 49.2377 16.3976C47.8799 18.1458 47.0291 20.234 46.7786 22.4334C46.5808 24.9685 46.383 27.5035 46.386 30.0538C46.3515 32.1396 46.5334 34.2234 46.6124 36.4394C45.402 34.9203 44.2745 33.598 43.2097 32.2082C41.156 29.5034 38.2658 27.9276 35.3514 26.3988C32.8814 25.2411 30.5367 23.8346 28.3522 22.2011C26.9673 21.0958 25.4817 20.1125 24.0223 19.1151C23.7353 18.9128 23.1336 18.716 23.026 18.8252C22.7489 19.1754 22.5772 19.5977 22.5314 20.0423C22.5116 20.3878 22.5698 20.7333 22.702 21.0533C23.0226 21.9972 23.5681 22.8492 24.2911 23.5359C25.6105 24.9031 26.9831 26.2748 28.2565 27.7258C30.4449 30.2871 32.8908 32.617 35.5551 34.6792C38.0527 36.5672 40.1947 38.8843 41.8815 41.522C43.4242 44.0724 44.6854 46.783 45.6427 49.6062C46.2425 50.9492 46.6508 52.3696 46.8555 53.8266C46.8964 54.4648 47.1371 55.0857 47.2308 55.7289C47.292 56.1047 47.2718 56.4894 47.1726 56.8569C45.951 60.6822 43.4242 63.6844 40.791 66.9795C40.7836 66.3724 40.7713 66.0449 40.7885 65.7258C40.8975 63.7914 41.0297 61.8531 41.1195 59.9133C41.2211 57.7821 41.2827 55.6396 41.3542 53.5755C41.3755 53.0956 41.4588 52.6231 41.4341 52.1511C41.3972 51.2762 41.0218 51.0804 40.2761 51.4902C40.0319 51.6244 39.7484 51.6712 39.5008 51.8153C39.2537 51.9593 38.8566 52.1354 38.7387 52.3928C38.2894 53.3422 37.9028 54.375 37.5314 55.3901C37.16 56.4056 37.0036 57.2026 36.6135 58.0613C34.9682 61.7845 33.2883 65.4762 31.6158 69.1807C31.5147 69.5294 31.2296 69.8031 30.8932 70.3639L30.8474 69.5945C30.7285 66.8483 31.4239 64.1993 31.6612 61.4921C31.8841 59.7293 31.9828 57.9528 31.9551 56.1762C31.8659 54.7139 31.8885 53.2471 32.0227 51.7881C32.2442 50.2853 32.1647 48.7529 31.7899 47.2807C31.3534 45.9224 30.9401 44.5596 30.4878 43.2181C29.7525 40.9947 29.0141 38.7812 28.2398 36.579C27.5942 34.5514 26.4075 32.7384 24.808 31.3347C24.4677 31.0748 24.1954 30.7359 24.0149 30.3478C23.8186 29.9108 23.5099 29.534 23.1203 29.2553C22.7306 28.9772 22.2744 28.807 21.7975 28.7621C20.9506 28.516 20.3622 29.1656 20.6128 30.0489C20.8184 30.7039 21.0946 31.3352 21.4369 31.9305C22.0569 32.8637 22.4865 33.9102 22.701 35.0101C22.8258 35.9536 22.9511 36.8976 22.9575 37.8392C23.0359 38.7989 23.0477 39.7622 22.9935 40.7235C22.7484 43.3094 22.4105 45.8795 22.1787 48.4585C21.9464 51.0375 21.8325 53.359 21.6135 55.8556C21.2387 59.7811 21.5479 63.7416 22.5269 67.5615C22.8495 68.8656 23.104 70.1814 23.4394 71.4786C23.6322 72.2258 23.9651 72.9385 24.2063 73.6679C24.8051 75.0578 25.1044 76.5582 25.0852 78.0718C24.9846 79.0637 24.9757 80.0629 25.0591 81.0562C25.2194 82.3001 25.1804 83.5612 24.9437 84.7928C24.8115 85.939 24.5723 87.07 24.23 88.1718C23.3461 90.4282 22.5989 92.7359 21.9918 95.0822C21.7516 95.7199 21.4404 96.3285 21.0641 96.8967C20.8584 97.2691 20.5491 97.5896 20.3134 97.9531C19.1461 99.7741 17.9987 101.6 16.8413 103.424C16.7334 103.546 16.6172 103.66 16.4934 103.766C16.4028 103.461 16.3381 103.15 16.3 102.834C16.1994 100.99 16.059 99.1344 16.0468 97.2838C16.0252 94.1663 16.0991 91.0551 16.1173 87.9493C16.123 87.3013 16.0729 86.6542 15.9673 86.015C15.5568 83.4542 14.9767 80.9196 14.733 78.3426C14.6213 76.5182 14.2379 74.7209 13.5954 73.0095C12.1946 69.6207 10.671 66.2816 9.19588 62.9248C8.90425 62.2565 8.67984 61.5433 8.32394 60.9106C7.28159 59.0729 6.15085 57.2421 5.10687 55.4478C4.43704 54.3346 3.73866 53.2456 3.03731 52.1664C2.71633 51.6732 2.21385 51.581 2.00374 52.0056C1.48858 53.0335 0.545614 53.8606 0.611853 55.1548C0.568943 55.7585 0.487908 56.3592 0.369291 56.953C0.116718 58.8618 -0.00658479 60.7858 0.000270839 62.7113C0.212401 64.8962 0.570077 67.0648 1.07083 69.2019C1.47561 71.1886 2.09153 73.118 2.48053 75.1219C3.06488 78.5325 3.5795 81.9233 3.98837 85.3802C4.14733 87.5903 4.43039 89.7895 4.83625 91.968C5.17681 93.3959 5.33193 94.8671 5.65256 96.289C5.9042 97.8254 6.32091 99.3302 6.8955 100.777C8.06347 103.385 8.98124 106.097 9.63647 108.878C10.4913 112.036 10.1766 115.397 8.75042 118.342C8.52117 118.808 8.32039 119.287 8.14919 119.777C7.12036 122.978 6.1185 126.197 5.0797 129.394C4.37934 131.578 3.61215 133.731 2.89182 135.909C2.72585 136.425 2.74795 136.982 2.95411 137.483C3.16027 137.984 3.53718 138.396 4.01806 138.645C6.18908 139.278 8.79821 138.33 9.13211 135.921C9.27263 134.882 9.48318 133.787 9.69506 132.725C9.8487 131.697 10.0897 130.683 10.4153 129.694C11.0923 127.925 11.9356 126.216 12.6893 124.479C13.018 123.722 13.3138 122.965 13.6324 122.205C14.7396 119.589 15.5483 116.81 17.92 114.897C18.9553 113.803 20.088 112.806 21.3043 111.917C23.8576 110.483 26.5002 109.214 29.2163 108.117C31.9689 106.974 34.6791 105.728 37.3469 104.381C39.9101 103.229 42.3688 101.86 44.6962 100.287C45.3892 99.74 46.1241 99.2498 46.895 98.8197Z" fill="white"/>
<path d="M122.426 104.018C122.065 103.66 121.605 103.417 121.106 103.321C120.069 103.17 118.995 103.149 117.933 103.088C116.299 102.934 114.651 102.992 113.032 103.261C110.743 103.701 108.403 103.819 106.08 103.614C103.451 103.483 100.816 103.513 98.1898 103.704C96.4794 103.79 94.7847 104.269 93.0664 104.309C92.0227 104.287 90.9914 104.534 90.0706 105.025C88.6758 105.706 87.2184 106.251 85.7185 106.653C82.6438 107.666 79.5726 108.667 76.5058 109.654C75.6595 109.926 74.7934 110.117 73.9421 110.333C74.0492 109.965 74.3845 109.889 74.5749 109.718C76.4748 108.209 78.6858 107.141 81.0488 106.59C82.6266 106.157 84.1802 105.639 85.7022 105.039C87.5158 104.258 89.4265 103.724 91.3821 103.451C92.0218 103.371 92.6442 103.187 93.2257 102.907C95.6972 101.434 98.3087 100.207 101.021 99.2463C101.459 99.0984 101.879 98.9016 102.272 98.6599C105.565 96.8848 108.245 94.2841 111.174 92.0144C113.284 90.371 115.382 88.6916 117.541 87.138C120.127 85.4675 122.27 83.1968 123.789 80.5196C124.118 80.0674 124.341 79.5465 124.442 78.9956C124.542 78.4452 124.517 77.879 124.369 77.3394C123.814 77.3616 123.266 77.4676 122.743 77.6551C119.034 79.7083 115.363 81.8158 111.669 83.8947C109.61 85.067 107.544 86.2266 105.454 87.3575C104.628 87.8191 103.739 88.1654 102.929 88.6098C100.585 89.7964 98.2554 91.0087 95.9013 92.1924C95.5374 92.3493 95.163 92.4824 94.7813 92.5905C95.6972 91.1996 96.7137 89.8778 97.8224 88.6359C98.4631 87.8828 99.1067 87.1193 99.7814 86.3972C101.119 84.9935 102.51 83.6268 103.84 82.1773C105.595 80.2686 107.233 78.239 109.063 76.4062C110.782 74.6327 112.187 72.5794 113.218 70.3343C113.965 68.7694 114.85 67.2878 115.708 65.7879C116.207 64.9283 116.816 64.1332 117.335 63.2795C118.138 61.9685 117.862 61.4669 116.39 60.9954C114.556 62.622 112.721 64.2486 110.886 65.8747C109.052 67.5013 107.084 69.2512 105.203 70.9617C104.035 72.2312 102.745 73.3829 101.351 74.3989C101.106 74.5774 100.882 74.7846 100.685 75.0154C99.2897 76.3589 97.8569 77.6812 96.4922 79.0666C94.9633 80.6089 93.5246 82.2104 92.0494 83.7901C91.3786 84.6843 90.5904 85.4828 89.7051 86.1654C89.7441 85.8093 89.7579 85.651 89.7712 85.4932C89.894 84.3297 90.0464 83.1751 90.1332 82.0229C90.1998 81.1998 90.1056 80.3726 90.2127 79.5613C90.4025 78.0176 90.6738 76.4546 90.9347 74.9641C91.1867 73.3809 91.674 71.8445 92.3808 70.4054C92.7862 69.4466 93.0782 68.4439 93.2503 67.4175C93.4185 66.8399 93.4244 66.2259 93.5428 65.6335C93.7914 64.3344 94.1154 63.0348 94.3043 61.7179C94.4932 60.4011 94.5662 59.1478 94.6382 57.8615C94.6372 57.4571 94.547 57.0586 94.3734 56.6931C94.1366 56.1708 93.7677 56.1387 93.3396 56.5328C92.912 56.9269 92.697 57.2209 92.3305 57.5138C90.6457 58.8489 89.4492 60.7695 87.9227 62.3774C87.8339 62.474 87.7614 62.584 87.7086 62.7039C86.6522 64.4957 86.0421 66.5154 85.9301 68.5923C85.9064 70.5415 85.4334 72.4596 84.5471 74.1962C83.8093 75.6556 83.2712 77.2057 82.6399 78.7071C82.5674 78.9561 82.4254 79.185 82.306 79.4094C81.324 81.3867 80.6177 83.4892 80.2064 85.6579C79.7926 87.4497 79.7038 89.3141 79.4128 91.1306C79.2116 93.0265 78.675 94.8711 77.8272 96.5781C76.6025 98.9667 75.151 101.232 73.4923 103.343C73.0405 103.947 72.5182 104.495 71.9367 104.975C70.0492 106.338 68.0996 107.617 66.2466 109.011C64.0385 110.659 61.9098 112.405 59.7258 114.081C59.1108 114.561 58.3937 114.947 57.7703 115.381C58.4805 114.029 59.2627 112.717 60.1135 111.45C62.8553 107.3 65.6241 103.17 68.3491 99.0047C70.2929 96.038 72.1725 93.0309 74.0896 90.0455C74.7771 88.9821 75.4519 87.9252 76.1438 86.8845C76.2459 86.7794 76.3263 86.6552 76.3801 86.519C76.4338 86.3834 76.4605 86.2379 76.4575 86.0914C76.455 85.9449 76.4235 85.8009 76.3648 85.6668C76.3061 85.5326 76.2218 85.4113 76.1162 85.3102C75.8903 85.3871 75.6753 85.4912 75.475 85.6204C73.917 86.9274 72.3545 88.2122 70.8546 89.5794C68.9257 91.3081 67.0036 93.0496 65.1664 94.8701C63.6202 96.472 62.11 98.1716 60.5643 99.8066C59.0191 101.442 57.3979 102.893 56.0189 104.587C53.2293 108.01 50.5546 111.52 47.8903 115.033C46.896 116.243 46.1492 117.637 45.6915 119.135C45.2107 120.759 44.3692 122.253 43.2304 123.507C42.6188 124.236 41.9486 124.905 41.3463 125.638C39.8416 127.468 38.3166 129.293 36.8724 131.173C36.0059 132.308 35.2187 133.501 34.5154 134.743C34.0468 135.666 33.3598 136.46 32.5134 137.056C30.5761 138.3 28.953 139.976 27.7722 141.952C27.4166 142.523 26.8558 142.936 26.2048 143.105C26.3118 142.737 26.4396 142.558 26.5377 142.37C27.4339 140.851 28.2501 139.286 28.983 137.681C29.7224 135.879 30.6269 134.15 31.6853 132.515C32.0888 131.853 32.4138 131.147 32.655 130.41C33.0042 129.431 33.1517 128.48 33.4865 127.552C34.8335 124.001 36.3072 120.498 37.5743 116.923C38.5247 114.251 39.2522 111.492 40.0566 108.766C40.4275 107.492 40.8018 106.207 41.083 104.906C41.116 104.487 41.1007 104.066 41.0381 103.651C40.4965 103.99 40.0783 104.128 39.8519 104.386C38.7565 105.773 37.7119 107.209 36.6308 108.623C35.5497 110.036 34.4883 111.456 33.3657 112.825C31.8895 114.632 30.254 116.316 28.8854 118.197C25.9962 122.407 23.7955 127.05 22.3647 131.952C21.685 134.395 21.1504 136.876 20.7637 139.382C20.4022 141.33 20.1531 143.299 19.904 145.268C19.8256 146.596 19.449 147.89 18.8023 149.052C17.7411 150.731 16.8845 152.523 15.2597 153.801C15.1353 153.894 15.0802 154.083 14.967 154.212C14.2736 155.147 13.5326 156.045 12.7468 156.904C10.331 159.377 7.79606 161.74 5.43131 164.259C4.22679 165.54 4.10358 167.114 5.68151 168.113C6.04511 168.349 6.42439 168.567 6.79089 168.792C7.00559 168.946 7.26546 169.023 7.52913 169.012C7.7928 169.001 8.04508 168.901 8.24586 168.73C8.98025 168.204 9.67331 167.622 10.3189 166.989C11.8945 165.287 13.3308 163.545 14.9462 161.854C16.699 160.064 18.5779 158.396 20.3987 156.668C21.4744 155.526 22.9461 154.837 24.5131 154.744C25.9769 154.671 27.425 154.41 28.8223 153.968C31.3426 153.178 33.7948 152.174 36.2727 151.308C38.2963 150.542 40.2366 149.572 42.063 148.413C43.6156 147.482 45.2003 146.603 46.8161 145.777C49.1243 144.602 51.4789 143.527 53.7826 142.404C54.7365 141.912 55.6559 141.358 56.5348 140.742C57.8072 139.859 58.9821 138.829 60.2955 137.991C62.1623 136.815 63.8954 135.44 65.4648 133.889C65.8629 133.498 66.217 133.065 66.5213 132.598C67.0012 131.797 67.6384 131.101 68.394 130.553C69.1496 130.004 70.0083 129.614 70.9183 129.406C71.7646 129.281 72.5799 128.998 73.3217 128.571C74.1409 128.222 75.0124 128.012 75.9007 127.95C77.5411 127.585 79.18 127.187 80.8244 126.844C82.0811 126.573 83.3669 126.385 84.6265 126.104C86.6147 125.656 88.5599 125.023 90.5628 124.71C93.4368 124.153 96.2347 123.26 98.8996 122.048C99.1906 121.939 99.3918 121.619 99.7439 121.301C99.3173 120.874 99.0347 120.36 98.6081 120.192C97.6636 119.749 96.6555 119.455 95.6202 119.322C92.1737 119.065 88.7222 118.935 85.2766 118.785C83.6362 118.867 81.9913 118.822 80.3578 118.65C77.9613 118.302 75.5204 118.413 73.1653 118.976C71.6423 119.235 70.1222 119.56 68.6021 119.808C66.6845 120.125 64.7526 120.341 62.836 120.69C60.1357 121.293 57.5182 122.222 55.0418 123.456C54.5836 123.657 54.121 123.836 53.4675 124.078C53.6372 123.716 53.6179 123.56 53.7437 123.499C56.1007 121.711 58.3488 119.665 61.1399 118.317C63.6133 117.207 66.2806 116.592 68.9903 116.508C70.5434 116.442 72.1025 116.431 73.6516 116.342C76.3229 116.11 79.0074 116.08 81.6831 116.249C83.4902 116.505 85.3299 116.393 87.0931 115.922C89.9868 115.036 92.8553 114.089 95.742 113.189C97.7099 112.524 99.7543 112.109 101.826 111.957C103.08 111.909 104.322 111.704 105.525 111.349C109.949 109.99 114.354 108.517 118.734 107.092C119.834 106.717 120.911 106.277 121.958 105.772C122.138 105.728 122.303 105.635 122.435 105.506C122.567 105.375 122.662 105.212 122.709 105.033C122.757 104.854 122.756 104.666 122.706 104.487C122.656 104.309 122.559 104.146 122.426 104.018ZM93.1995 105.557C93.6128 105.213 94.4059 105.347 95.0264 105.258C93.7554 106.644 92.2437 107.789 90.5643 108.636L90.3759 108.43C91.2612 107.419 92.2042 106.461 93.1995 105.557ZM89.0694 107.24C89.753 106.488 90.442 105.716 91.7308 105.854C90.5865 107.001 89.5039 108.122 88.3602 109.194C88.1826 109.311 87.9828 109.392 87.7732 109.429C87.5636 109.467 87.3486 109.46 87.1409 109.411C87.7801 108.701 88.4149 107.967 89.0694 107.24ZM87.9607 107.004C87.1947 108.006 86.3592 108.954 85.4606 109.84C84.9782 110.273 84.1363 110.308 83.4581 110.522C83.8769 109.621 84.5033 108.832 85.286 108.22C86.0687 107.609 86.9856 107.191 87.9607 107.004ZM103.301 89.7446L103.515 89.9365C103.009 90.5239 102.547 91.1453 102.009 91.6588C101.471 92.1717 101.297 93.1039 99.962 93.1261C101.25 91.967 102.065 90.6487 103.301 89.7446ZM100.027 94.3118C102.221 93.3811 104.343 92.2911 106.378 91.0507C107.439 90.4844 108.482 89.8699 109.532 89.2682C109.885 89.0576 110.224 88.8213 110.847 88.4628C110.369 88.3232 110.08 88.2393 109.933 88.2615C109.057 88.629 108.209 89.061 107.397 89.5538C106.253 90.3266 105.004 90.9308 103.688 91.3476C104.352 90.5145 105.005 89.679 105.686 88.8618C105.873 88.6847 106.096 88.5506 106.341 88.4687C108.309 87.5765 110.192 86.5087 111.968 85.2781C113.989 84.0515 116.065 82.8949 118.138 81.6728C119.256 81.0257 120.377 80.4017 121.509 79.7803C121.766 79.6392 122.041 79.5465 122.551 79.3167C121.932 80.5611 121.039 81.6491 119.939 82.4994C118.185 84.1492 116.33 85.7698 114.487 87.2751C113.54 88.08 112.506 88.6645 111.505 89.3565C111.314 89.4546 111.127 89.5626 110.946 89.6795C108.923 91.2514 106.899 92.8228 104.915 94.4055C103.51 95.5492 101.964 96.508 100.315 97.2582C97.6473 98.4799 95.0826 99.9048 92.4434 101.178C91.856 101.417 91.242 101.583 90.6146 101.672C89.8058 101.779 89.0043 101.931 88.2127 102.129C86.6117 102.657 85.0443 103.292 83.4611 103.868C82.8688 104.084 82.2656 104.265 81.6777 104.429L81.507 104.088C82.2606 103.464 82.9664 102.784 83.7718 102.208C85.9114 100.529 88.3429 99.2587 90.9436 98.4626C93.5418 97.6291 96.0404 96.5125 98.3945 95.133C98.9158 94.8158 99.4618 94.5411 100.027 94.3118ZM99.7597 91.8896C98.5573 93.0521 98.0221 95.0028 95.9112 95.0905C97.0431 93.8753 97.8421 92.2062 99.7597 91.8896ZM95.0486 94.1589C94.5445 94.8873 94.1312 95.4905 93.711 96.0814C93.5961 96.253 93.491 96.5031 93.3223 96.5623C91.9813 97.1808 90.5742 97.6444 89.1286 97.9447C90.9268 96.146 92.6235 94.6955 95.0486 94.1589ZM88.847 79.3907L89.1158 79.4686C88.9717 81.2634 88.84 83.0508 88.6364 84.8278C88.5747 85.6683 88.4578 86.5042 88.2862 87.3294C88.1875 88.0228 87.9459 88.6882 87.5769 89.2835C86.5619 90.629 85.4364 91.8876 84.2132 93.0467C84.303 92.5697 84.4391 92.1027 84.6187 91.6524C85.0981 90.7232 85.4122 89.7185 85.5484 88.6823C85.8063 87.2016 86.1999 85.7388 86.5205 84.2661C86.6053 83.9815 86.6546 83.687 86.6675 83.3906C86.7015 81.6397 87.9133 80.6311 88.8326 79.4405L88.847 79.3907ZM89.0654 77.2289C89.0146 78.2943 88.2112 78.568 87.68 79.0942C87.939 78.3446 88.4228 77.693 89.0654 77.2289ZM89.5522 74.5187C89.6085 75.4751 89.1232 75.9924 88.0859 76.2524L89.5522 74.5187ZM81.9706 90.4706C82.3844 88.0095 82.8214 85.544 83.4073 83.1223C84.2295 80.0382 85.3013 77.0262 86.6122 74.1163C87.0852 72.7348 87.4704 71.3242 87.7658 69.8934C88.2615 68.1908 88.7572 66.4878 89.3195 64.8148C89.3989 64.6151 89.459 64.4084 89.4995 64.1973C89.6282 62.6038 90.6506 61.5404 91.6691 60.4538C92.2047 59.8753 92.6994 59.2524 93.2109 58.6452L93.4698 58.7207C93.2454 60.3078 93.0313 61.8985 92.7739 63.4871C92.5766 65.1142 92.2866 66.7285 91.9063 68.3225C91.5596 70.0542 90.8331 71.6872 89.7801 73.1052C89.7101 73.2152 89.6228 73.3138 89.5222 73.3972C87.5626 74.5986 86.9846 76.5473 86.6122 78.643C86.3957 79.8331 85.9967 80.9808 85.7304 82.1561C85.4635 83.3319 85.283 84.4352 85.0606 85.5696C84.8386 86.704 84.6695 87.7673 84.3962 88.8544C84.1324 89.7609 83.7891 90.6438 83.542 91.5656C83.1829 92.8006 82.9526 94.0731 82.63 95.3298C82.5501 95.6987 82.3938 96.0469 82.1709 96.3517C80.9225 97.7815 79.6308 99.1773 78.3485 100.576C78.2775 100.65 78.1907 100.707 78.094 100.743C77.9973 100.778 77.8942 100.792 77.7921 100.781C77.948 100.461 78.1246 100.152 78.3209 99.8545C80.2651 97.0609 81.5159 93.8442 81.9706 90.4706ZM61.5152 101.142C62.7995 99.6251 64.0567 98.0898 65.3677 96.5919C66.1154 95.7292 66.9198 94.9697 67.7006 94.1816C69.1979 92.7483 70.6924 91.3254 72.1868 89.9025C72.606 89.4492 73.0844 89.0541 73.6087 88.7281C73.4657 89.0507 73.3024 89.3644 73.1195 89.6662C70.0088 94.4538 66.8636 99.2093 63.744 103.951C62.4849 105.864 61.348 107.878 60.0523 109.768C58.4174 112.156 56.6748 114.468 54.9565 116.809C54.0302 118.062 53.0695 119.284 52.126 120.522C51.9864 120.745 51.8083 120.942 51.6002 121.103C50.0466 122.099 49.1948 123.763 47.9105 125.02C46.6262 126.278 45.4573 127.547 44.2099 128.826C43.8395 129.196 43.3887 129.475 42.8926 129.641C43.439 128.75 44.0477 127.898 44.7145 127.093C45.5845 126.195 46.3712 125.22 47.0641 124.18C47.8207 123.028 48.779 122 49.6165 120.904C50.6084 119.648 51.6076 118.405 52.5999 117.149C53.6362 115.686 54.7646 114.289 55.9774 112.968C56.4346 112.352 56.8179 111.684 57.1182 110.978C57.9384 109.607 58.735 108.208 59.5961 106.881C60.7734 105.063 62.0079 103.197 63.2681 101.393C63.8461 100.557 64.5425 99.7977 65.1847 99.0017L64.8158 98.7107L61.092 103.19C60.9801 102.841 60.9603 102.469 61.0343 102.11C61.1088 101.751 61.2745 101.418 61.5152 101.142ZM47.8345 126.543L49.577 124.825C49.0893 126.055 48.8619 126.28 47.8286 126.563L47.8345 126.543ZM59.753 103.114C59.4817 104.417 59.7929 105.686 58.552 106.61C58.81 105.389 58.3661 104.093 59.7475 103.134L59.753 103.114ZM57.7155 105.437C57.9 106.474 57.2026 107.2 57.0743 108.049C57.0078 109.002 56.6665 109.915 56.0924 110.679C56.0795 109.536 56.1663 108.394 56.3518 107.265C56.6951 106.58 57.1567 105.961 57.7155 105.437ZM39.7735 129.706C41.7251 127.455 43.7986 125.303 45.6526 122.98C46.5384 121.756 47.2846 120.437 47.8774 119.048C49.1948 116.614 50.7154 114.296 52.4224 112.117C53.1198 111.132 53.8981 110.203 54.6591 109.258C54.8648 109.044 55.0877 108.849 55.3259 108.674C55.2465 110.022 55.1937 111.206 55.1109 112.382C55.0403 112.584 54.9239 112.769 54.7706 112.92C52.8332 115.456 50.9299 118.024 48.9556 120.539C47.7137 122.133 46.3741 123.655 45.0957 125.227C44.3056 126.196 43.5401 127.194 42.7772 128.182C41.223 130.257 39.3429 132.067 37.2098 133.54C37.2907 133.201 37.415 132.874 37.5792 132.567C38.2924 131.565 38.9701 130.574 39.7848 129.666L39.7735 129.706ZM31.3376 126.548C31.1295 125.407 31.9172 124.556 33.6177 123.874C33.5684 125.415 32.1938 125.685 31.349 126.508L31.3376 126.548ZM34.7092 121.199C34.576 121.657 34.4424 122.116 34.3003 122.603L32.5958 123.004L32.47 122.805L34.435 121.065L34.7092 121.199ZM6.93905 167.356L6.33161 165.732C7.08716 165.065 7.77761 165.18 8.69848 165.653L6.93905 167.356ZM68.3141 122.134C69.7434 120.818 71.6014 120.065 73.5436 120.015C74.1 119.951 74.6519 119.852 75.1964 119.719C76.5606 119.464 77.9583 119.443 79.33 119.658C80.9946 119.84 82.6695 119.949 84.3301 120.033C87.8719 120.113 91.4166 120.108 94.9623 120.211C95.526 120.327 96.068 120.532 96.5677 120.819L96.5228 121.195C96.2584 121.304 95.9867 121.394 95.7095 121.466C91.712 122.247 87.7007 123.002 83.7274 123.811C83.0142 123.96 82.3346 124.292 81.6397 124.489C80.347 124.847 79.0631 125.176 77.7635 125.522C76.7234 125.791 75.6412 125.984 74.6267 126.315C70.7239 127.593 66.6949 128.445 62.6091 128.856C61.3268 129.003 60.0543 129.224 58.7976 129.518C56.3227 130.115 53.8912 130.899 51.3965 131.414C48.9018 131.931 46.5542 132.166 43.8681 132.561C44.1636 132.215 44.3115 131.891 44.5572 131.79C47.0158 130.766 49.5696 129.748 52.1186 128.859C53.4073 128.402 54.7962 128.234 56.1343 127.868L64.294 125.814C64.9213 125.662 65.5605 125.545 66.1953 125.406C68.5627 124.892 70.9237 124.377 73.2778 123.86C73.5959 123.77 73.9086 123.663 74.2144 123.538L74.1616 123.274L66.2347 124.304C67.0382 123.437 67.6798 122.792 68.3141 122.134ZM41.8835 140.604C39.9718 141.679 37.9023 142.481 35.9171 143.437C34.4917 144.102 33.0565 144.84 31.6577 145.6C30.6062 146.169 29.5872 146.812 28.554 147.43C28.407 147.527 28.2708 147.66 28.1308 147.771C28.0686 147.613 28.0198 147.447 27.968 147.291C30.2743 144.782 32.76 142.444 35.4056 140.296C35.5857 140.179 35.7593 140.053 35.926 139.918C37.446 138.384 39.267 137.182 41.2748 136.387C44.497 134.932 47.8291 133.735 51.2402 132.806C53.1844 132.438 55.1484 132.183 57.1222 132.044C58.7518 131.827 60.37 131.574 61.9941 131.302C62.7744 131.183 63.563 131.035 64.3457 130.906L64.4113 131.163L60.0262 132.868L49.3926 137C46.8062 138.018 44.2962 139.223 41.8835 140.604ZM40.7333 143.888C40.7668 143.401 40.7875 142.997 40.8285 142.447L44.2316 140.629C43.7473 142.627 42.0783 143.016 40.7333 143.888ZM39.7079 143.255C38.7925 144.209 38.1326 145.475 36.6505 145.778C37.6532 144.968 38.1153 143.418 39.7079 143.255ZM61.6341 123.225C61.8412 123.069 62.1495 122.975 62.26 122.78C62.8558 121.625 63.9714 121.615 65.0407 121.429C66.1104 121.244 66.9982 121.2 67.9817 121.086L68.1089 121.317C66.2989 122.562 64.7595 124.178 62.6935 125.078C63.4629 123.843 64.8414 123.154 65.6222 121.955C65.5733 121.878 65.5191 121.804 65.4594 121.735C65.2789 121.771 65.1048 121.833 64.9415 121.919C63.6617 122.864 62.3788 123.82 61.1162 124.781C60.838 124.986 60.5919 125.231 60.3857 125.508C60.0173 125.995 59.5527 126.033 58.8721 125.996C59.6346 124.927 60.5677 123.991 61.6341 123.225ZM56.9954 125.428C57.5562 124.945 58.0731 124.412 58.5392 123.836C59.2514 122.726 60.3576 122.561 61.5793 122.485L56.2063 126.841L55.9809 126.613C56.2936 126.207 56.6359 125.81 56.9954 125.428ZM57.7969 123.825L55.2406 125.966C54.9096 126.248 54.5965 126.545 54.2734 126.765C54.0643 126.976 53.8137 127.142 53.537 127.252C49.9159 128.248 46.4511 129.744 43.2442 131.699C42.8398 131.938 42.5187 132.298 42.1483 132.569C41.3819 133.123 40.6055 133.675 39.8253 134.204C39.0445 134.733 38.4246 134.823 38.2875 135.776C38.1942 136.095 37.6788 136.345 37.3701 136.59L36.0754 137.661C34.9948 138.588 33.9798 139.589 32.8301 140.421C31.6168 141.396 30.5051 142.491 29.5128 143.69C27.6795 145.744 25.681 147.644 23.538 149.372C23.2914 149.554 23.0719 149.77 22.8865 150.014C22.7804 150.156 22.7474 150.492 22.7997 150.572C22.9693 150.751 23.1972 150.863 23.4423 150.889C23.6214 150.941 23.8334 150.733 24.0361 150.63C25.1409 150.069 26.2068 149.433 27.2257 148.728C28.7912 147.726 30.4331 146.85 32.1366 146.107C33.5965 145.397 35.1166 144.814 36.8956 144.046C36.7876 144.319 36.65 144.58 36.4858 144.823C35.8411 145.383 35.2468 145.998 34.7087 146.661C34.1667 147.448 33.3923 148.046 32.4932 148.371C30.4987 149.173 28.4933 149.939 26.4918 150.729C26.3478 150.81 26.2122 150.904 26.0859 151.011C26.7937 151.324 27.3224 150.992 27.8506 150.811C30.0153 150.091 32.1721 149.325 34.323 148.579C34.3926 148.599 34.5124 148.559 34.5696 148.511C36.0641 147.088 38.0142 146.586 39.739 145.597C41.0248 144.891 42.3421 144.076 43.6822 143.407C45.0218 142.738 46.1463 142.363 47.3916 141.797C49.0251 141.008 50.6236 140.156 52.2054 139.288C52.6976 138.977 53.1617 138.624 53.5923 138.233C52.9008 137.826 52.5269 138.182 52.1314 138.391L45.2432 142.014C45.0888 142.099 44.9276 142.171 44.6533 142.296C44.8797 141.519 45.042 140.962 45.1796 140.192C51.6781 137.152 58.3281 134.447 65.1033 132.088C64.3882 133.084 63.4136 133.865 62.2856 134.347C60.6546 135.155 59.1675 136.225 57.8847 137.516C56.6882 138.507 55.4078 139.393 54.0574 140.162C52.8312 140.885 51.5351 141.404 50.2636 142.06C48.2612 143.076 46.2972 144.146 44.2745 145.156C41.2842 146.598 38.3161 148.111 35.2424 149.355C32.7305 150.511 30.0642 151.296 27.3264 151.685C26.7222 151.762 26.1283 151.908 25.5577 152.12C23.6075 152.696 21.6007 153.057 19.5725 153.198C19.2021 153.468 18.8318 153.739 18.3856 154.084L18.5931 155.041C15.6201 158.129 12.6727 161.203 9.61802 164.387L7.88518 163.883C8.06204 163.624 8.25651 163.377 8.46726 163.145C10.442 161.408 12.4819 159.744 14.3815 157.931C15.3399 156.874 16.2396 155.766 17.0765 154.61C17.347 154.188 17.7159 153.836 18.1515 153.587C18.5872 153.338 19.0767 153.197 19.5783 153.178C19.4595 153.154 19.3429 153.12 19.2298 153.077C19.1167 152.983 19.0088 152.882 18.9064 152.777C19.2239 152.243 19.5929 151.681 19.9119 151.104C20.2039 150.591 20.4633 150.06 20.6877 149.515C21.1538 148.322 21.6031 147.113 22.0224 145.896C22.2369 145.159 22.4539 144.412 22.6685 143.675C22.773 143.451 22.9003 143.238 23.0477 143.039L23.0709 142.96C22.5644 141.732 23.1484 140.541 23.3895 139.38C23.7368 137.742 24.2591 136.133 24.7982 134.54C25.642 131.642 26.4854 128.744 27.5552 125.923C28.1668 124.164 28.9821 122.483 29.9848 120.915C32.8543 116.587 35.8786 112.357 38.9237 107.983C39.0559 108.833 38.9341 109.703 38.5735 110.485C37.6142 113.446 36.6244 116.291 35.6498 119.194C35.487 119.751 35.2799 120.166 34.5529 120.29C34.2293 120.325 33.9369 120.661 33.6296 120.863L33.4165 120.704C33.7272 120.082 34.068 119.468 34.3551 118.817C34.6416 118.165 34.8542 117.547 35.1141 116.877C34.5129 116.529 34.2466 116.851 34.0562 117.282C33.379 118.792 32.6678 120.27 32.0508 121.797C30.7872 124.876 29.6208 127.993 28.3305 131.052C27.4911 133.045 26.5017 134.96 25.6154 136.928C24.6142 138.85 23.7812 140.856 23.1252 142.922L23.1109 142.971L24.3705 142.355C24.8144 140.416 25.5829 138.565 26.6447 136.881C28.0415 134.298 29.2203 131.602 30.1677 128.822C30.513 127.637 31.4003 127.409 32.5702 127.026C32.3162 127.844 32.0202 128.648 31.6849 129.436C31.1408 130.563 30.4563 131.617 29.9221 132.747C29.0871 134.502 28.3586 136.3 27.5335 138.058C27.0842 139.008 26.5056 139.919 25.9967 140.852C25.6258 141.532 25.2746 142.219 24.9136 142.902C24.1984 144.282 23.4369 145.638 22.7686 147.042C22.4046 147.811 22.5861 148.004 23.3032 148.137C24.7385 146.621 26.0736 145.152 27.4837 143.759C29.169 142.089 30.9337 140.442 32.6688 138.786C33.2296 138.118 33.9763 137.632 34.8143 137.39C34.9573 137.351 35.09 137.281 35.2034 137.185C35.3169 137.089 35.4086 136.971 35.4722 136.837C36.2313 134.897 37.7681 133.551 39.4381 132.082C39.5318 133.06 38.5858 133.303 38.5572 134.18C44.3096 129.621 50.8234 126.115 57.7969 123.825ZM60.9781 115.569C60.9288 115.738 60.9845 115.992 60.8361 116.057C60.1692 116.618 59.4664 117.135 58.7325 117.605C56.2995 119.152 54.0372 120.952 51.9839 122.976C51.4784 123.422 50.9294 123.816 50.3455 124.152C52.9092 121.132 55.8216 118.426 59.022 116.091C59.6445 116.402 59.9675 115.923 60.3453 115.59L59.3495 115.3L61.1621 114.121C61.4254 113.98 61.6785 113.818 61.9177 113.639C64.7793 111.231 67.7351 109.056 70.6924 106.838C71.2186 106.44 71.9348 106.281 72.4921 105.925C73.0529 105.537 73.59 105.117 74.101 104.665C73.5703 105.6 72.8275 106.398 71.9323 106.994C71.0307 107.599 70.1799 108.276 69.3878 109.018C69.8613 109.545 70.32 109.527 70.6534 109.236C71.4549 108.453 72.4556 107.903 73.5466 107.647C73.6684 107.602 73.772 107.518 73.8425 107.409C74.4023 106.818 74.899 106.17 75.3236 105.475C76.1354 103.875 77.6077 102.899 78.7638 101.636C79.9198 100.374 81.3107 99.418 82.1857 97.9334C82.3953 97.5837 82.9008 97.4067 83.2322 97.1576C83.4231 96.5184 83.686 95.9029 84.015 95.3223C84.9358 94.0888 85.9676 92.9199 86.9693 91.7421C87.0374 91.6696 87.1212 91.6129 87.2139 91.5764C87.3067 91.5399 87.4063 91.5246 87.5059 91.531C88.1535 91.7194 88.4475 91.3407 88.5634 90.8667C89.1572 88.3824 90.9396 86.6759 92.5722 84.9255C95.3297 81.9475 98.216 79.0824 101.059 76.1828C101.291 75.9264 101.545 75.6891 101.816 75.4741C104.543 73.2896 107.141 70.9469 109.594 68.4587C110.948 67.129 112.496 66.0133 114.187 65.1502C113.783 65.8323 113.409 66.5228 112.988 67.1891C112.567 67.855 112.191 68.2209 111.898 68.7837C110.711 70.8473 109.315 72.7826 107.731 74.5602C106.385 75.9693 105.206 77.5293 104.218 79.2087C103.819 79.876 103.333 80.4861 102.771 81.0237C100.793 83.2564 98.7999 85.4636 96.8113 87.6934C94.6358 90.2724 92.2871 92.6999 89.7816 94.9588C87.5291 96.907 85.2219 98.7847 82.8905 100.634C82.2281 101.165 81.213 101.312 80.6912 101.917C80.2202 102.598 79.694 103.24 79.1174 103.835C77.4222 105.243 75.8035 106.759 74.0003 108.017C71.5841 109.712 69.2581 111.617 66.3393 112.441C66.1672 112.471 66.0064 112.548 65.8752 112.663C64.5588 114.086 62.8577 115.096 60.9781 115.569ZM119.22 104.975C116.626 105.906 114.019 106.81 111.408 107.725C108.479 108.641 105.478 109.307 102.435 109.715C101.379 109.894 100.333 110.183 99.2808 110.385C96.0419 111.161 92.8523 112.13 89.7293 113.287C87.3432 114.059 84.8603 114.493 82.3538 114.575C80.8491 114.623 79.3359 114.366 77.8321 114.264C75.4588 114.124 73.077 114.241 70.7294 114.616C68.8034 114.887 66.8951 115.282 65.0338 115.626C64.796 115.665 64.5534 115.681 64.0306 115.734C64.2589 115.495 64.5011 115.27 64.7561 115.059C64.9736 114.906 65.2671 114.862 65.4377 114.685C67.1561 112.938 69.5146 112.739 71.6852 112.075C74.245 111.296 76.7963 110.473 79.3482 109.649C80.9719 109.117 82.5817 108.56 84.4598 107.896C84.2852 108.182 84.0811 108.448 83.8507 108.691C83.2535 109.111 82.6887 109.575 82.161 110.079C81.2199 111.049 79.9563 111.642 78.6079 111.746C76.3263 112.162 74.0797 112.458 71.8154 112.815C71.6783 112.84 71.5496 112.986 71.2423 113.188C71.5017 113.305 71.7769 113.385 72.0591 113.426C73.772 113.254 75.4913 113.064 77.2106 112.873C77.9687 112.791 78.7371 112.712 79.51 112.656C81.5849 112.504 83.3955 111.367 85.3965 110.988C87.0374 110.623 88.6581 110.171 90.2516 109.636C90.5436 109.577 90.8395 109.54 91.1369 109.527C91.385 109.491 91.7021 109.551 91.861 109.413C92.9228 108.512 94.2876 108.499 95.4984 108.312C96.943 108.062 98.3748 107.744 99.8194 107.495C100.57 107.368 101.323 107.339 102.104 107.253C102.104 106.399 102.064 106.28 101.208 106.398C99.8495 106.575 98.4932 106.893 97.1413 107.158L94.2639 107.617C94.3749 107.282 94.5327 106.965 94.7329 106.674C95.493 105.705 96.5913 105.06 97.8076 104.868C99.92 104.662 102.027 104.476 104.146 104.433C105.504 104.407 106.888 104.627 108.264 104.649C109.249 104.671 110.234 104.622 111.212 104.502C112.454 104.356 113.673 104.138 114.922 103.93C115.397 103.895 115.874 103.893 116.35 103.924C117.337 103.945 118.323 103.973 119.307 104.007C119.58 104.036 119.851 104.086 120.117 104.156L120.152 104.372C119.858 104.598 119.546 104.8 119.22 104.975ZM91.3179 68.6377C91.3155 68.9065 91.4008 69.1694 91.3036 69.2813C90.7527 69.9851 90.1781 70.6608 89.6233 71.342C89.3555 71.631 89.098 72.1824 88.6043 71.7257C88.1106 71.269 88.4475 70.8917 88.774 70.5869C89.5182 69.885 90.0746 68.9021 91.3179 68.6377ZM46.8846 98.8172C48.7854 97.8856 50.5837 96.7581 52.2498 95.4526C52.9782 94.8439 53.6954 94.1988 54.4485 93.6514C56.481 92.2003 58.3947 90.59 60.1717 88.8356C63.2306 86.0145 65.8944 82.7923 68.0907 79.258C68.3363 78.858 68.4986 78.4131 68.5686 77.9495C68.5607 77.586 68.4857 77.2274 68.3472 76.8911C67.9965 76.9833 67.5792 76.97 67.3144 77.1737C65.4796 78.5409 63.6109 79.877 61.8965 81.3872C61.0812 82.1566 60.1727 82.8209 59.1927 83.3654C57.4561 84.2103 56.0322 85.5025 54.0988 86.0199C53.9819 86.051 53.8847 86.1629 53.7787 86.2295C52.3134 87.2179 50.8767 88.2581 49.359 89.1666C47.2826 90.3986 45.1327 91.5123 43.0198 92.7226C42.0013 93.2903 40.9656 93.8422 40.0093 94.4933C38.7969 95.3953 37.4875 96.1593 36.1055 96.7704C35.1072 97.1842 34.1361 97.6592 33.196 98.1923C31.6074 99.0476 30.0301 99.9388 28.4499 100.84C27.4679 101.377 26.514 101.964 25.5932 102.601C24.0919 103.676 22.6556 104.825 21.1785 105.929C21.1785 105.929 21.029 105.885 20.8599 105.836C20.9412 105.597 21.0443 105.367 21.1681 105.148C22.5762 103.019 24.0046 100.897 25.4083 98.8202C27.0294 96.2466 29.3737 94.2082 32.148 92.9609C34.0424 92.1298 35.8683 91.1271 37.7888 90.2817C39.7094 89.4369 41.8968 88.7878 43.8874 87.8872C45.8775 86.9866 48.0407 85.7906 50.1033 84.7168C51.1331 84.1847 52.1334 83.5686 53.1957 83.1105C55.7057 82.0219 58.117 80.7179 60.4015 79.2126C61.0777 78.7312 61.7115 78.1931 62.296 77.6033C63.0501 76.9049 63.7223 76.1172 64.4794 75.409C66.399 73.6019 68.3353 71.8105 70.2692 70.029C70.8433 69.5048 71.4509 69.012 71.991 68.4562C73.2467 67.1472 74.4788 65.8101 75.7078 64.4824C76.9369 63.1552 78.1285 61.8817 79.3048 60.5495C79.7102 60.0844 80.1832 59.5735 79.9258 58.8613C78.7554 58.3912 78.7485 58.3784 77.8952 58.9727C77.3961 59.3135 76.9354 59.7086 76.496 60.0667C75.1406 61.0122 73.8494 61.9971 72.4926 62.9095C71.3996 63.6804 70.2554 64.3764 69.0672 64.9909C66.3866 66.2954 63.634 67.4387 60.9564 68.7334C57.8117 70.2594 54.7059 71.8727 51.5967 73.4628C50.0998 74.2263 48.5956 74.9769 47.1524 75.8529C44.8965 77.22 42.682 78.6425 40.5089 80.1201C38.865 81.2402 37.3193 82.4323 35.7257 83.6752C34.9795 84.2355 34.251 84.8446 33.5186 85.431L33.2917 85.2461C33.5778 84.7459 33.8905 84.2646 34.1494 83.7457C35.7011 80.6429 37.701 77.7853 40.0857 75.2655C40.4364 74.8822 40.7658 74.4803 41.0736 74.062C42.605 72.0665 44.0965 70.0591 45.6353 68.0764C47.0775 66.2387 48.5541 64.4321 50.0402 62.6284C50.5733 61.9843 50.9482 61.1429 51.9647 61.0284C52.1343 61.0018 52.2823 60.7532 52.4337 60.6033C53.0892 59.7998 53.8182 59.0398 54.6098 58.2872C55.172 57.6835 55.7969 57.1409 56.4741 56.6694C59.1078 55.0044 62.0834 53.9543 65.1788 53.5967C66.7072 53.3935 68.2219 53.0133 69.742 52.7642C70.5291 52.5349 71.3543 52.4628 72.1695 52.5526C73.5673 52.7977 74.9902 52.9201 76.4126 53.0424C78.1029 53.035 79.7813 53.3225 81.3724 53.8922C81.5228 53.974 81.6895 54.0224 81.8601 54.0342C83.8932 54.0643 85.9345 54.1398 87.9508 54.0786C90.9165 53.9479 93.891 53.7117 96.8597 53.4956C99.2226 53.3196 101.591 53.0902 103.95 52.891C104.424 52.8564 104.9 52.8545 105.373 52.7869C107.431 52.5107 109.467 52.1206 111.529 51.9756C112.698 51.8942 113.928 51.4532 115.084 52.1571C115.254 52.2064 115.515 52.1635 115.727 52.1388C116.792 52.0056 117.867 51.8759 118.934 51.7003C119.315 51.6885 119.685 51.5721 120.004 51.3635C120.391 51.0212 120.887 50.8288 121.404 50.8205C121.688 50.7736 121.937 50.5112 122.21 50.3529C122.06 50.0604 121.869 49.7901 121.644 49.5509C121.414 49.434 121.164 49.3615 120.907 49.3364C119.244 48.8521 117.591 48.3712 115.928 47.8868C115.109 47.5026 114.27 47.1648 113.414 46.8743C111.729 46.5132 110.005 46.3742 108.284 46.4615C104.481 46.6218 100.675 46.241 96.9785 45.331C96.7694 45.2704 96.5603 45.2092 96.3684 45.0889C94.5761 44.4916 92.799 43.769 90.9663 43.3108C86.3661 42.2741 81.6116 42.1143 76.9517 42.8398L76.5626 42.8778C73.6817 43.1949 70.8428 43.8169 68.0936 44.7337C67.8209 44.8161 67.5541 44.8792 67.0761 44.9991C67.197 44.7525 67.3346 44.5148 67.489 44.2874C68.8384 42.7683 70.1809 41.2364 71.5545 39.7454C72.9286 38.2549 74.6104 36.6702 75.9564 34.9776C77.5006 32.9564 78.711 30.7009 79.543 28.2975C79.7068 27.8073 79.9302 27.339 80.2079 26.9031C81.4754 25.0359 82.7257 23.1529 84.0811 21.3544C85.5602 19.3348 86.7237 17.1018 87.5316 14.7322C87.6726 14.233 87.864 13.7494 88.1032 13.289C89.5897 10.7524 91.3096 8.35982 93.2405 6.14225C94.507 4.68536 95.5793 3.04222 96.76 1.47372C96.8399 1.37764 96.8991 1.26617 96.9341 1.14618C96.9691 1.02623 96.9795 0.900311 96.9637 0.776268C96.9484 0.652226 96.9075 0.53272 96.8439 0.425102C96.7802 0.317483 96.6949 0.224119 96.5938 0.150779C96.1766 -0.197526 95.7992 0.135439 95.4501 0.368777C94.7196 0.836735 93.9995 1.3076 93.2439 1.71421C91.4595 2.68558 89.5804 3.49978 87.8896 4.59559C85.904 5.88652 84.0687 7.40477 82.1783 8.85289C80.5295 10.0378 78.9872 11.3635 77.5677 12.815C76.2183 14.3337 75.0331 15.9913 74.0329 17.7599C71.9353 21.2544 69.7474 24.69 67.5689 28.1283C66.8266 29.3061 65.9862 30.4114 65.1438 31.6356C65.1857 30.9347 65.2301 30.2995 65.2715 29.6746C65.2823 27.2529 65.6202 24.844 66.2757 22.5129C66.6421 21.3087 66.8932 20.0724 67.0263 18.8208C67.0461 18.6177 67.0214 18.4127 66.9543 18.2198C66.8877 18.027 66.7797 17.8508 66.6387 17.7034C66.2426 17.3937 65.8338 17.7606 65.5344 18.084C65.2863 18.3306 65.0658 18.6033 64.8759 18.8971C63.6957 21.0597 62.4784 23.2008 61.3633 25.4363C60.7443 26.6714 60.3902 28.0376 59.825 29.3096C58.9767 31.2232 58.0558 33.0511 57.1163 34.9055C57.0729 35.055 56.9624 35.1739 56.7843 35.4895L56.5486 34.7403C56.2655 33.2987 55.8315 31.8905 55.2544 30.5396C55.1237 30.2235 55.0571 29.8847 55.0581 29.5424C55.0058 28.9441 55.067 28.3246 54.9659 27.7441C54.668 25.4237 54.6083 23.0789 54.7883 20.7463C54.847 19.035 54.8717 17.3174 54.8623 15.5934C54.8953 12.4751 55.3856 9.3786 56.3168 6.40247C56.6068 5.40663 56.8031 4.2863 57.8077 3.69292C57.4827 2.58285 57.2134 2.32076 56.7 2.71148C55.2929 3.72547 54.088 4.99435 53.1479 6.45233C52.0668 8.37773 51.322 10.4733 50.9447 12.649C50.6542 14.0075 50.0717 15.2865 49.2377 16.3976C47.8799 18.1458 47.0291 20.234 46.7786 22.4334C46.5808 24.9685 46.383 27.5035 46.386 30.0538C46.3515 32.1396 46.5334 34.2234 46.6124 36.4394C45.402 34.9203 44.2745 33.598 43.2097 32.2082C41.156 29.5034 38.2658 27.9276 35.3514 26.3988C32.8814 25.2412 30.5367 23.8346 28.3522 22.2011C26.9673 21.0958 25.4817 20.1125 24.0223 19.1151C23.7353 18.9128 23.1336 18.716 23.026 18.8252C22.7489 19.1754 22.5772 19.5977 22.5314 20.0423C22.5116 20.3878 22.5698 20.7334 22.702 21.0533C23.0226 21.9972 23.5681 22.8492 24.2906 23.5359C25.6105 24.9031 26.9831 26.2748 28.2565 27.7258C30.4449 30.2871 32.8908 32.617 35.5551 34.6792C38.0527 36.5672 40.1947 38.8843 41.8815 41.522C43.4242 44.0724 44.6854 46.783 45.6427 49.6062C46.2425 50.9492 46.6508 52.3696 46.8555 53.8266C46.8964 54.4648 47.1371 55.0857 47.2308 55.7289C47.292 56.1047 47.2718 56.4894 47.1726 56.8569C45.951 60.6822 43.4242 63.6844 40.7905 66.9795C40.7836 66.3724 40.7713 66.0449 40.7885 65.7258C40.8975 63.7914 41.0297 61.8531 41.1195 59.9133C41.2211 57.7821 41.2827 55.6396 41.3542 53.5755C41.3755 53.0956 41.4588 52.6231 41.4341 52.1511C41.3972 51.2762 41.0218 51.0809 40.2761 51.4902C40.0319 51.6244 39.7484 51.6712 39.5008 51.8153C39.2537 51.9593 38.8566 52.1359 38.7387 52.3928C38.2894 53.3422 37.9028 54.375 37.5314 55.3901C37.16 56.4056 37.0036 57.2026 36.6135 58.0613C34.9682 61.7845 33.2883 65.4762 31.6158 69.1807C31.5147 69.5294 31.2296 69.8031 30.8932 70.3639L30.8474 69.5945C30.7285 66.8483 31.4239 64.1993 31.6612 61.4921C31.8841 59.7293 31.9828 57.9528 31.9551 56.1762C31.8659 54.7139 31.8885 53.2471 32.0227 51.7881C32.2442 50.2853 32.1647 48.7529 31.7899 47.2807C31.3534 45.9224 30.9401 44.5596 30.4878 43.2181C29.7525 40.9947 29.0141 38.7812 28.2398 36.579C27.5942 34.5514 26.4075 32.7384 24.808 31.3347C24.4677 31.0748 24.1954 30.7359 24.0149 30.3478C23.8186 29.9108 23.5099 29.534 23.1203 29.2553C22.7306 28.9772 22.2744 28.807 21.7975 28.7621C20.9506 28.516 20.3622 29.1656 20.6128 30.0489C20.8184 30.7039 21.0946 31.3352 21.4369 31.9305C22.0569 32.8637 22.4865 33.9102 22.701 35.0101C22.8258 35.9536 22.9511 36.8976 22.9575 37.8392C23.0359 38.7989 23.0477 39.7622 22.9935 40.7235C22.7484 43.3094 22.4105 45.8795 22.1787 48.4585C21.9464 51.0375 21.8325 53.359 21.6135 55.8556C21.2387 59.7811 21.5479 63.7416 22.5269 67.5615C22.8495 68.8656 23.104 70.1819 23.4394 71.4786C23.6322 72.2258 23.9651 72.9385 24.2063 73.6679C24.8051 75.0578 25.1044 76.5582 25.0852 78.0718C24.9846 79.0637 24.9757 80.0629 25.0591 81.0562C25.2194 82.3001 25.1804 83.5617 24.9437 84.7928C24.8115 85.939 24.5723 87.07 24.23 88.1718C23.3461 90.4282 22.5989 92.7359 21.9918 95.0822C21.7516 95.7199 21.4404 96.3285 21.0641 96.8967C20.8584 97.2691 20.5491 97.5896 20.3134 97.9531C19.1461 99.7741 17.9987 101.6 16.8413 103.424C16.7334 103.546 16.6172 103.66 16.4934 103.766C16.4028 103.461 16.3381 103.15 16.3 102.834C16.1994 100.99 16.059 99.1344 16.0468 97.2838C16.0252 94.1663 16.0991 91.0551 16.1173 87.9493C16.123 87.3013 16.0729 86.6542 15.9673 86.015C15.5568 83.4542 14.9767 80.9196 14.733 78.3426C14.6213 76.5182 14.2379 74.7209 13.5954 73.0095C12.1946 69.6207 10.671 66.2816 9.19588 62.9248C8.90425 62.2565 8.67984 61.5433 8.32394 60.9106C7.28159 59.0729 6.15085 57.2421 5.10687 55.4478C4.43704 54.3346 3.73866 53.2456 3.03731 52.1664C2.71633 51.6732 2.21385 51.581 2.00374 52.0056C1.48858 53.0335 0.545614 53.8606 0.611853 55.1548C0.568943 55.7585 0.487908 56.3592 0.369291 56.953C0.116718 58.8618 -0.00658479 60.7858 0.000270839 62.7113C0.212401 64.8962 0.570077 67.0648 1.07083 69.2019C1.47561 71.1886 2.09153 73.118 2.48053 75.1219C3.06488 78.5325 3.5795 81.9233 3.98837 85.3802C4.14733 87.5903 4.43039 89.7895 4.83625 91.968C5.17681 93.3959 5.33193 94.8671 5.65256 96.289C5.9042 97.8254 6.32091 99.3302 6.8955 100.777C8.06347 103.385 8.98124 106.097 9.63647 108.878C10.4913 112.036 10.1766 115.397 8.75042 118.342C8.52117 118.808 8.32039 119.287 8.14919 119.777C7.12036 122.978 6.1185 126.197 5.0797 129.394C4.37934 131.578 3.6121 133.731 2.89182 135.909C2.72585 136.425 2.7479 136.982 2.95411 137.483C3.16027 137.984 3.53718 138.396 4.01806 138.645C6.18908 139.278 8.79821 138.33 9.13211 135.921C9.27263 134.882 9.48318 133.787 9.69501 132.725C9.8487 131.697 10.0897 130.683 10.4153 129.694C11.0923 127.925 11.9356 126.216 12.6893 124.479C13.018 123.722 13.3138 122.965 13.6324 122.205C14.7396 119.589 15.5483 116.81 17.92 114.897C18.9553 113.803 20.088 112.806 21.3043 111.917C23.8576 110.483 26.5002 109.214 29.2163 108.117C31.9689 106.974 34.6791 105.728 37.3469 104.381C39.9101 103.229 42.3688 101.86 44.6962 100.287C45.3892 99.74 46.1241 99.2498 46.895 98.8197L46.8846 98.8172ZM41.4573 94.6767L41.5604 94.5451C43.0608 93.6962 44.5719 92.8829 46.0383 92.0025C48.8318 90.3094 51.798 88.9151 54.483 87.0394C55.9883 85.9869 57.6889 85.2288 59.2889 84.3331L59.4871 84.6177C58.2955 85.5563 57.1212 86.5111 55.9326 87.4399C54.7439 88.3686 53.8468 89.1873 52.7602 89.9513C51.4162 90.8568 50.0929 91.6923 48.7549 92.5776C47.4173 93.4625 46.2903 94.2906 45.0494 95.1394C44.5221 95.5043 43.9727 95.9063 43.3754 95.1379C42.935 95.7228 41.9604 95.8062 42.2193 96.7354C41.6847 97.0116 41.2615 97.6123 40.3954 97.3603C40.8048 96.9179 41.1431 96.4977 41.4983 96.1687C41.6077 96.0765 41.6975 95.962 41.7606 95.8333C41.8238 95.7046 41.8598 95.564 41.8662 95.4205C41.8721 95.277 41.8484 95.1339 41.7967 95.0003C41.7449 94.8666 41.6655 94.7448 41.5644 94.6432L41.4583 94.7098C40.826 95.5088 40.1967 96.2979 39.5575 97.0841C39.5373 97.1536 39.3281 97.0925 39.2068 97.1009L39.1279 97.1857C38.8694 97.6291 38.5992 98.112 38.359 98.5282L38.0951 98.3221C38.4418 97.9472 38.7817 97.5601 39.1279 97.1857C39.1279 97.1857 39.157 97.0861 39.1688 97.0461C39.3962 95.708 40.4882 95.2592 41.4672 94.6797L41.4573 94.6767ZM36.8271 97.5206C37.0904 97.2084 37.5812 97.0811 37.9639 96.8794L38.1711 97.1339L35.5462 100.065L35.2024 99.8347C35.7464 99.0426 36.2406 98.2357 36.8369 97.5236L36.8271 97.5206ZM35.1427 98.1105C34.5494 99.5324 33.5817 100.766 32.3428 101.681C32.585 101.331 32.8207 100.967 33.0831 100.622C33.3455 100.277 33.6809 99.8673 33.239 99.3065L35.1427 98.1105ZM56.4361 72.0522C60.0228 70.5681 63.4525 68.6934 67.0081 67.1679C69.1373 66.2313 71.191 65.132 73.1505 63.8787C73.9323 63.3825 74.6578 62.7833 75.4735 62.3187C74.6149 63.641 73.441 64.7285 72.0571 65.4831C70.7713 66.1894 69.376 66.8631 68.0502 67.5576C67.2848 67.9615 66.5361 68.3807 65.7943 68.8133C62.6422 70.6608 59.4945 72.5316 56.3523 74.3826C56.152 74.4743 55.9454 74.5513 55.7343 74.6134C55.8704 74.1454 55.9572 73.8465 56.1111 73.3187C54.3434 74.0462 53.7841 75.9683 51.9267 76.7456C53.1903 74.7047 54.2394 72.9572 56.4361 72.0522ZM47.7492 76.5128C48.2469 76.2637 48.7633 76.0526 49.2935 75.882C49.2935 75.882 49.3142 75.8124 49.3255 75.7725C50.1778 75.1071 51.1509 74.6124 52.1906 74.3165C51.2959 76.2824 49.7625 77.8883 47.84 78.8728C48.3277 78.1611 48.7854 77.5165 49.2362 76.859C49.4685 76.5054 49.7566 76.1468 49.3166 75.8026L49.2427 75.8346C48.1127 77.2669 46.9961 78.6918 45.836 80.1152C45.44 80.637 44.8861 81.0173 44.2563 81.1998C44.4708 80.5019 44.8629 79.8715 45.3941 79.3704C45.6807 79.0543 46.1596 78.7076 46.1497 78.3697C46.238 77.2506 47.0232 76.9281 47.7492 76.5128ZM44.9557 82.3973C46.6972 81.4242 48.2972 80.2696 49.9529 79.185C50.7504 78.6721 51.3886 77.7774 52.5728 78.2735C52.7223 78.3169 53.1084 78.0294 53.2603 77.804C53.7245 77.115 54.3558 76.5557 55.0951 76.1774C57.2341 74.9528 59.3732 73.7281 61.4738 72.4492C63.5744 71.1698 65.6315 69.781 67.8347 68.5213C68.8936 67.8895 70.0542 67.4278 71.3395 66.7975C71.1871 67.0989 71.2033 67.2656 71.0736 67.3036C68.4774 69.0214 66.5563 71.4653 64.326 73.5599C62.113 75.8114 59.6341 77.7853 56.9441 79.4375C55.8384 80.0447 54.6221 80.5117 53.5178 81.0765C50.817 82.4505 48.1556 83.8365 45.4247 85.2022C43.7641 85.9716 42.0368 86.6359 40.3106 87.4078C38.106 88.376 35.9156 89.3693 33.6247 90.2255C35.2966 88.8978 37.051 87.6584 38.6194 86.2784C40.4946 84.5122 42.786 83.5805 44.9162 82.3859L44.9557 82.3973ZM30.2121 89.6647C31.3761 88.5234 32.7147 87.5627 33.9808 86.5161C36.177 84.6404 38.4704 82.8811 40.8512 81.2456C42.1863 80.3707 43.5155 79.515 44.8476 78.6499L44.9522 78.8097C44.0817 79.9825 43.191 81.149 42.3288 82.3672C42.1873 82.5245 42.0112 82.6473 41.8139 82.7253C39.8184 83.4947 38.3634 85.0049 36.7358 86.2917C34.9045 87.9898 32.9633 89.5646 30.9238 91.0058C29.7771 91.7525 28.7606 92.5367 27.6834 93.3791C26.0854 94.5811 24.8795 96.2304 24.2191 98.1179C24.0756 98.4429 23.902 98.7541 23.7003 99.0471C22.2492 101.509 20.7879 103.968 19.3895 106.434C18.4995 108 17.4047 109.439 16.1342 110.715C16.1308 110.468 16.1554 110.222 16.2076 109.981C16.9676 108.149 17.7274 106.318 18.5272 104.498C18.8197 103.827 19.2359 103.214 19.5882 102.56C20.4091 101.038 21.2007 99.5077 22.0016 97.9798C22.3637 97.3292 22.559 96.511 23.5454 96.3877C23.7905 96.362 24.0243 96.041 24.229 95.8195C26.224 93.7539 28.1451 91.6445 30.1727 89.6529L30.2121 89.6647ZM77.8272 46.4758C78.6548 45.6363 79.5125 44.8058 80.3598 43.9722C80.818 43.5116 81.3378 43.6196 81.9795 43.7523C80.5314 45.0159 79.1184 46.1601 77.6876 47.364L77.4632 47.1692C77.5549 46.9236 77.6772 46.6908 77.8272 46.4758ZM68.2243 46.5108C69.2206 46.131 70.2662 45.917 71.2532 45.6427L71.6354 45.3325L73.8351 45.0114L73.9209 44.9389L73.9806 44.9567C75.7803 44.3264 77.6644 43.9717 79.5697 43.9042C79.1401 44.3411 78.889 44.646 78.5901 44.894C77.2905 45.7498 76.0713 46.7219 74.9468 47.7981C74.8595 47.913 74.572 47.8617 74.2356 47.9041C74.8146 46.5818 76.3283 46.2444 76.7278 44.9458C74.8521 45.6748 73.5974 47.2753 71.957 48.3105L71.7454 48.1083C72.1651 47.6688 72.5533 47.2634 72.9843 46.784C73.4159 46.3041 73.7818 46.0112 74.1527 45.59C74.5241 45.1688 74.245 45.0874 74.0082 44.8995L73.9283 44.8763C73.2659 45.4829 72.5932 46.0866 71.9234 46.6805C71.2536 47.2738 70.5893 47.9233 69.9156 48.494C69.7725 48.6143 69.56 48.639 69.2172 48.5177C69.8214 47.9263 70.3886 47.3137 71.0139 46.7613C71.2497 46.6109 71.4356 46.3954 71.5501 46.1409C71.6645 45.8864 71.702 45.6038 71.6581 45.3281C71.626 45.4376 71.5131 45.5668 71.4189 45.5934L71.2532 45.6427C70.4665 46.2671 69.6828 46.8812 68.9104 47.5317C68.4137 47.9381 67.9728 48.4146 67.4564 48.8151C67.2276 48.9241 66.9834 48.999 66.7329 49.0365L66.6056 48.8052C66.977 48.384 67.3637 47.9455 67.7262 47.5539C67.6951 47.4824 67.6572 47.4134 67.6133 47.3483C67.3568 47.3857 67.1062 47.4582 66.87 47.5643C66.3067 47.9406 65.7834 48.3283 65.2168 48.7899C64.8444 49.0385 64.4232 49.2037 63.9813 49.2747C63.5393 49.3453 63.0871 49.3201 62.656 49.2003C62.841 48.9734 62.9061 48.787 63.0387 48.7391C64.7191 47.9751 66.4754 47.2116 68.2184 46.531L68.2243 46.5108ZM76.9044 15.0956C79.1361 12.4544 81.7576 10.1685 84.6783 8.31676C86.0396 7.35185 87.4236 6.30723 88.7705 5.39208C90.4395 4.33325 92.184 3.42575 93.9453 2.45856L94.1919 2.72475C93.6923 3.53938 93.1404 4.32053 92.5391 5.06311C89.7268 8.18296 87.2785 11.6128 85.2421 15.2865C84.9042 15.8904 84.7242 16.5833 84.3538 17.1884C83.4946 18.5804 82.6276 19.9268 81.6392 21.2811C79.9189 23.618 78.4373 26.1218 77.217 28.7547C76.6094 29.8926 75.9293 30.9899 75.1801 32.04C74.9897 32.3275 74.7796 32.6022 74.5522 32.8617C73.5959 34.0311 72.6031 35.1788 71.6798 36.3467C70.7565 37.5146 69.7459 38.722 68.905 39.9792C67.886 41.5422 66.6402 42.9454 65.2084 44.1424C64.2757 44.897 63.4836 45.8006 62.6062 46.6257C62.3625 46.8299 62.1026 47.0148 61.8299 47.1771C61.7988 46.857 61.8358 46.534 61.9374 46.2287C62.0395 45.9234 62.2042 45.6427 62.4212 45.405C64.2333 42.5187 66.1395 39.6818 67.8608 36.7368C69.0954 34.6116 70.0142 32.3078 71.2048 30.148C71.8889 28.9106 72.8147 27.8082 73.6201 26.6383C74.3135 25.7084 74.9557 24.7413 75.5436 23.7413C76.9019 21.3158 78.5191 19.0447 80.3667 16.9678C81.4084 15.8018 82.4372 14.6429 83.5183 13.564C84.5994 12.4851 85.4842 11.5977 86.4209 10.6064C86.8189 10.2037 87.1986 9.75255 87.571 9.364C88.369 8.51597 89.17 7.58247 90.0021 6.69045C90.227 6.40375 90.4336 6.10309 90.6205 5.7902C90.3187 5.72055 90.0035 5.74068 89.713 5.8481C89.4225 5.95552 89.17 6.14555 88.986 6.39477C87.4107 8.09664 85.8349 9.79852 84.2591 11.5004C82.4786 13.499 80.7899 15.5893 78.999 17.585C75.8247 21.0685 73.5446 25.1904 70.7974 28.9495C70.0576 30.1189 69.4209 31.3505 68.8941 32.6299C68.1129 34.1638 67.3686 35.7184 66.5376 37.2374C65.5659 39.0179 64.507 40.7619 63.4782 42.5153C63.3652 42.6785 63.2409 42.8339 63.1058 42.9794L62.9396 42.8443C63.3391 41.9476 63.6765 41.0243 63.9492 40.0813C64.1825 39.0312 64.3235 37.9625 64.3709 36.8878C64.4473 35.8096 64.7526 34.7605 65.2666 33.8101C68.0108 28.7961 71.0075 23.9251 74.2464 19.2156C75.0297 17.8232 75.8405 16.374 76.9044 15.0956ZM56.6867 50.2607C56.7912 49.9021 57.6529 49.6885 58.1993 49.4804C58.842 49.2481 59.4975 49.0533 60.1628 48.8959C60.6822 48.7874 61.2074 48.7056 61.7352 48.6513C61.4131 49.2555 60.9677 49.7852 60.4282 50.2069C59.8891 50.6286 59.2672 50.9324 58.6033 51.0991L58.1417 50.5329C57.3219 50.5645 56.9426 51.1992 56.4179 51.6298C55.8926 52.0604 55.6376 52.6774 54.6764 52.6029C54.9111 52.3149 55.0729 52.1674 55.1908 51.9859C55.6169 51.3753 56.4189 51.144 56.6309 50.2661L56.6867 50.2607ZM60.5603 29.9019C61.4136 27.9355 62.1431 25.9118 62.9292 23.9153C63.5172 22.2001 64.474 20.6349 65.7331 19.3302C65.7548 19.5705 65.7534 19.8125 65.7282 20.0525C65.3815 21.6152 65.0076 23.1591 64.6609 24.7218C64.4967 25.345 64.3837 25.9806 64.3235 26.6221C64.0567 30.4085 63.421 34.1598 62.4247 37.8224C62.3512 37.9802 62.3024 38.1479 62.2797 38.3205C62.3971 40.7747 61.3835 42.9207 60.553 45.1421C60.3266 45.9076 59.9498 46.6208 59.4457 47.2397C59.1601 47.477 58.8445 47.6758 58.5066 47.8306L58.3483 47.6333C58.4672 47.225 58.6427 46.8437 58.8183 46.4629C59.5212 44.606 59.8886 42.6391 59.9044 40.6539C59.9853 39.597 60.365 38.5518 60.514 37.4826C60.8573 35.2227 61.3593 32.9899 62.0163 30.801C62.0365 30.731 61.9744 30.6482 61.897 30.4311C61.7436 30.6112 61.6015 30.801 61.4723 30.9988C60.1362 33.2893 60.0228 35.9783 59.3125 38.4182C58.9476 39.8811 58.7261 41.376 58.6511 42.8817C58.6625 43.7863 58.404 44.6741 57.9089 45.4311C57.9429 44.2746 58.0198 43.1195 57.9789 41.9624C57.9675 41.0672 57.865 40.176 57.6726 39.302C57.3195 38.0429 57.4201 36.6993 57.9567 35.5068C58.7606 33.634 59.7372 31.8013 60.5603 29.9019ZM54.1965 32.1327C54.7824 34.9065 55.3427 37.6951 55.9587 40.4778C56.6891 43.0499 56.5806 45.7882 55.6495 48.2952L53.864 49.1583C53.9622 47.9288 53.9967 46.6948 53.9681 45.4612C53.866 43.9195 53.5997 42.3836 53.3896 40.8423C53.178 39.0959 52.9343 37.3469 52.6591 35.5955C52.5965 35.2133 52.6128 34.8222 52.707 34.4469C52.8017 34.071 52.9723 33.7189 53.2086 33.4116C53.4941 32.9495 53.7432 32.4656 53.9533 31.965C54.0732 31.9995 54.1925 32.0346 54.1965 32.1327ZM53.9252 29.353C53.9908 29.8694 54.0416 30.2511 54.051 30.405L52.1856 33.1029C51.7176 32.038 52.5191 31.6227 52.7854 31.0417C52.9812 30.365 53.4004 29.7752 53.975 29.3678L53.9252 29.353ZM53.6702 26.4811C53.7782 27.0743 53.9079 27.6305 54.0016 28.2733C52.4732 28.477 52.6941 30.2048 51.4887 30.7828C51.9622 29.2958 52.5797 27.8582 53.3324 26.4908L53.6702 26.4811ZM48.4999 31.9221C48.3011 29.8575 48.4155 27.775 48.8397 25.7448C49.0903 24.6618 49.0986 23.5192 49.2594 22.4101C49.3778 21.3367 49.5578 20.2711 49.7995 19.2185C49.9978 18.4308 50.3154 17.6781 50.741 16.9863C52.2394 14.4544 53.2746 11.6758 53.7989 8.78073C53.9582 7.81556 54.3962 6.91797 55.0586 6.19823L55.2929 6.32049C55.2376 6.74382 55.1414 7.16083 55.0063 7.5657C53.9883 10.024 53.9947 12.6727 53.8542 15.2351C53.7131 17.7975 53.6495 20.5768 53.575 23.245C53.5543 23.9843 53.612 24.7141 53.6327 25.4223C52.3469 26.1283 52.1294 27.4693 51.2747 28.5495C51.0246 28.1091 50.9053 27.8152 51.1795 27.3549C51.7383 26.4373 52.1975 25.4907 52.6966 24.5557C52.7696 24.3467 52.8317 24.1339 52.8821 23.9183C52.6828 23.8603 52.5038 23.8082 52.4421 23.909C51.1425 25.3672 49.8888 26.8171 50.2394 29.0255C50.4545 30.5633 50.8051 32.079 51.287 33.5546C51.6786 34.8656 51.9489 36.2101 52.0949 37.5704C52.4268 40.141 52.7563 42.7214 52.9698 45.2896C53.0187 46.1399 53.0226 46.9922 52.9832 47.8429L52.7346 47.9544C52.5472 47.7808 52.2433 47.6383 52.1856 47.4272C51.9622 46.5897 51.7842 45.7409 51.6515 44.8842C51.3205 43.2369 50.7973 41.6344 50.092 40.1094C49.6791 39.0169 49.3753 37.8865 49.184 36.7339C48.8565 35.1586 48.6242 33.565 48.488 31.9621L48.4999 31.9221ZM39.8721 32.6516C39.2759 31.9162 39.848 31.2509 39.8297 30.3493C40.6736 31.1241 40.6554 31.3347 39.8667 32.6718L39.8721 32.6516ZM48.9497 54.1659C48.9595 53.1376 49.0242 52.1107 49.143 51.0897C49.0158 51.1174 48.748 51.1475 48.3203 51.2066C47.7438 49.9583 47.1495 48.5862 46.5916 47.2358C45.9638 45.6812 45.4262 44.0773 44.7174 42.5419C43.6457 40.4611 42.1947 38.5992 40.4388 37.051C37.6813 34.3147 34.8478 31.6538 31.9902 28.9638C31.5167 28.5126 30.9712 28.1594 30.4632 27.7524C28.0943 25.7364 25.972 23.4471 24.1412 20.9322C24.0574 20.8244 23.9987 20.699 23.9705 20.5653C23.9419 20.4316 23.9444 20.2932 23.977 20.1606C24.7321 20.7584 25.5158 21.3322 26.2763 21.9101C29.1576 24.1397 32.2683 26.0555 35.5561 27.6252L36.2525 27.9789C37.4559 28.6319 37.4031 28.6275 37.1457 29.9567C37.0391 30.5091 36.6594 31.2198 37.5984 31.8171C37.8416 30.9806 38.0561 30.2432 38.2623 29.5365C38.8167 29.4492 39.1318 29.7032 38.9331 30.0884C38.1434 31.6513 39.0243 32.7073 40.0236 33.7652C41.5727 35.4407 42.9606 37.2591 44.168 39.1955C44.28 39.3272 44.384 39.4658 44.4797 39.6103C46.1778 43.0534 48.1892 46.3505 49.3517 50.0377C49.5558 50.7046 49.7191 51.3837 49.8404 52.0703C49.9267 52.5166 50.1166 52.6799 50.6182 52.4046C50.4022 49.8908 49.6362 47.4548 48.3741 45.2699C47.5746 43.7843 46.8501 42.2662 45.984 40.8255C44.9719 39.1807 43.8341 37.5965 42.7451 35.9941C42.4299 35.5265 42.0783 35.0846 41.6931 34.6723C41.3256 34.3319 41.0933 33.8703 41.0401 33.3722C40.9863 32.874 41.1145 32.3734 41.4016 31.9626C42.1971 32.6895 42.9542 33.4585 43.6699 34.2649C44.6356 35.4747 45.5155 36.7571 46.382 38.0468C46.7164 38.5435 46.9887 39.0801 47.1924 39.6433C47.437 40.2875 47.9968 40.5908 48.3859 41.0712C49.037 41.9313 49.5613 42.8808 49.942 43.8899C50.6483 45.6945 51.2633 47.5155 51.8414 49.3901C51.9163 49.8577 51.9267 50.3337 51.8729 50.8037C51.3625 51.109 50.7415 51.3497 51.0054 52.1502C51.2692 52.9506 51.5755 52.9753 52.2054 52.7045C52.5033 52.5358 52.7849 52.3395 53.0458 52.1176C53.723 51.5958 54.4687 51.1696 55.2618 50.8505C54.7987 51.1963 54.4002 51.6219 54.086 52.1072C53.6381 53.1085 52.8663 53.9306 51.8946 54.4396C51.4971 54.6917 51.218 55.0206 51.8039 55.4936C52.7454 54.9684 53.6954 54.413 54.6739 53.9094C55.7594 53.3205 56.8736 52.7869 58.0129 52.3104C59.7239 51.6002 61.4718 50.9842 63.2493 50.4639C64.7512 50.0895 66.2757 49.8113 67.813 49.6318C70.3634 49.294 72.9439 48.965 75.4987 48.5744C77.2314 48.3006 78.9413 47.8804 80.6883 47.5569C81.5001 47.4045 82.3178 47.3399 83.1193 47.1845C85.0645 46.8107 86.6453 47.8005 88.2886 48.5379C88.9969 48.8521 89.6455 49.3324 90.4745 48.7855L91.2094 49.9716C91.4309 49.9169 91.6346 49.9223 91.749 49.8261C92.006 49.5573 92.3399 49.3744 92.7053 49.3029C93.0703 49.2313 93.4486 49.2742 93.7884 49.4257C93.8629 49.4641 93.9438 49.4878 94.0271 49.4952C97.3045 49.3689 100.583 49.945 103.871 49.4868C105.572 49.2476 107.309 49.1805 109.015 48.9966C109.583 48.9063 110.144 48.7776 110.694 48.6104C110.717 48.531 110.743 48.4412 110.69 48.3283C110.481 48.2676 110.281 48.0254 110.084 48.0333C107.376 48.2064 104.673 48.0678 101.968 48.674C101.326 48.7717 100.673 48.7781 100.03 48.6927C98.3442 48.5694 96.6638 48.4407 94.9889 48.3061C94.7458 48.2893 94.5209 48.1699 94.1095 48.1364L95.7652 46.6415C95.7159 46.5517 95.6794 46.4546 95.6325 46.3544C95.3761 46.3515 95.1201 46.3899 94.8755 46.4689C94.1869 46.8304 93.5581 47.2846 92.8597 47.6432C92.4415 47.8183 92.0099 47.9598 91.5695 48.0669C91.9058 46.9118 93.3228 47.0538 93.4299 45.8321C93.1586 45.8109 92.8859 45.8415 92.6259 45.9224C91.8703 46.3288 91.1399 46.7968 90.3882 47.2259C89.8684 47.5283 89.3338 47.8804 88.6472 47.1949L90.3932 45.9096C90.1298 45.3685 89.7959 45.4765 89.4773 45.6432C88.8973 45.9248 88.3444 46.2593 87.825 46.642C87.4591 46.9354 87.1523 47.0622 86.7784 46.8235C85.2875 45.8602 83.7269 46.1729 82.1265 46.5498C81.4138 46.6987 80.7144 46.8733 80.0145 47.0153L79.906 46.7569L83.1903 43.4889C84.2803 43.4529 85.3713 43.4854 86.4569 43.5865C89.2238 43.8736 91.9364 44.5473 94.5169 45.587C96.1435 46.278 97.8298 46.8195 99.555 47.2047C99.632 47.2373 99.7119 47.2605 99.7943 47.2743C102.608 47.3695 105.41 47.5372 108.202 47.5608C110.361 47.5628 112.402 47.4548 114.438 48.4037C115.635 48.9684 116.919 49.3423 118.18 50.0224C117.841 50.1127 117.495 50.1709 117.146 50.1965C114.6 50.2755 112.063 50.5334 109.554 50.9684C107.307 51.2648 104.995 51.4133 102.712 51.6126C102.454 51.6456 102.19 51.6229 101.937 51.6786C99.7632 52.1432 97.5304 52.2626 95.3198 52.0318C93.7243 52.0801 92.1327 52.2192 90.5535 52.4485C87.7121 52.5615 84.8603 52.671 82.0244 52.5802C80.742 52.4007 79.4735 52.1329 78.2286 51.7778C77.2008 51.5973 76.1295 51.5667 75.148 51.4863L71.6862 51.1696C68.7471 51 65.7987 51.2629 62.9357 51.9499C60.9929 52.3548 59.1049 52.9876 57.3101 53.834C56.2398 54.2685 55.2544 54.8885 54.4002 55.6663C53.9957 56.0381 53.6954 56.5091 53.5272 57.0324C53.4187 57.4892 53.178 57.9039 52.8347 58.2245C50.2513 60.6008 47.9144 63.2326 45.8602 66.0784C44.892 67.2868 43.839 68.4246 42.7091 69.4826C42.3042 69.9314 41.9313 70.4073 41.592 70.9074C40.282 72.8995 38.7634 74.7461 37.0608 76.4156C37.1876 74.7244 37.9185 73.1348 39.1205 71.9378C39.4603 71.6995 39.7775 71.4302 40.068 71.1333C40.3402 70.7915 40.5089 70.3975 41.0864 70.5657C41.5047 70.6875 41.7779 70.4537 41.954 69.9975C42.2124 69.4056 42.5222 68.8379 42.8802 68.3008C43.808 66.7452 44.7461 65.1926 45.6644 63.6341C45.731 63.4052 45.7492 63.1187 45.879 62.8972C46.06 62.1845 46.457 61.5453 47.0163 61.0679C47.3507 60.7369 47.585 60.3182 47.692 59.86C47.8276 59.2489 47.9963 58.6452 48.1966 58.0519C48.7692 56.8475 49.0261 55.5168 48.9438 54.1861L48.9497 54.1659ZM30.7769 57.6263C30.548 60.3794 30.257 63.1246 29.9783 65.8634C29.9058 66.112 29.8333 66.361 29.8634 66.6293L29.3835 74.6238C29.3825 74.752 29.3525 74.8783 29.2948 74.9927C29.237 75.1071 29.1537 75.2063 29.0511 75.2832C28.9184 73.5486 28.8089 71.81 28.6694 70.0626C28.587 69.1205 28.4819 68.1825 28.3443 67.2458C28.1456 65.924 27.9143 64.6032 27.6928 63.2859C27.6469 63.0328 27.6603 62.7719 27.7323 62.5248C27.8043 62.2777 27.9325 62.0509 28.1076 61.862C28.5421 61.2967 28.8953 60.6758 29.3579 59.9789C28.3616 59.6889 28.1835 60.8578 27.276 60.8203C27.2785 60.3675 27.1074 59.8423 27.2913 59.5069C28.2561 57.789 29.3012 56.1274 30.4489 54.2256C30.7887 55.3249 30.9002 56.482 30.7769 57.6263ZM30.6116 50.7726L30.9327 50.9309C30.5574 53.3708 28.6728 54.9832 27.424 57.1582C27.2045 56.9303 27.0758 56.6295 27.0625 56.3133C27.0487 55.9972 27.1518 55.687 27.3515 55.4409C28.4494 53.8956 29.5369 52.3361 30.6146 50.7628L30.6116 50.7726ZM25.4517 88.8731C25.5592 88.4115 25.6919 87.9558 25.8492 87.5089C26.302 85.9765 26.5629 84.3943 26.626 82.7983C26.7878 81.1771 26.7853 79.5445 26.6186 77.9239C26.3819 76.2889 26.0879 74.6258 25.7653 73.0628C25.0679 70.0404 24.2206 67.05 23.5489 64.0133C22.7918 60.6353 22.6576 57.1479 23.1528 53.722C23.4132 51.9721 23.4009 50.197 23.6061 48.4526C23.8137 46.2553 24.0909 44.0783 24.3084 41.884C24.7197 38.4754 24.4278 35.0195 23.4512 31.7283C23.4152 31.4999 23.4034 31.2681 23.4147 31.0373C24.7434 32.0873 25.8092 33.4333 26.5269 34.9677C27.3554 37.0564 28.0356 39.2093 28.7093 41.3498C29.3825 43.4904 29.9645 45.5722 30.5712 47.6822C30.7127 48.1364 30.8119 48.603 30.8676 49.0755C30.8878 49.3285 30.8148 49.58 30.6619 49.7827C29.4526 51.1914 28.1919 52.5531 26.9638 53.9888C26.8415 53.799 26.7843 53.5745 26.8011 53.3491C26.8179 53.1242 26.9076 52.9107 27.0571 52.741C27.605 51.9716 28.1219 51.1608 28.6161 50.3539C28.767 49.9884 28.878 49.6077 28.9465 49.2185C27.7505 49.616 27.6494 50.818 26.5905 51.1144L26.265 47.7793C25.5217 48.0703 25.6366 48.6765 25.6608 49.04C25.683 50.2996 25.7836 51.5494 25.8743 52.7963C25.9863 54.3415 26.2166 55.8887 26.2102 57.4314C26.2359 59.8087 26.4943 62.1776 26.9816 64.5046C27.5759 67.9186 27.7416 71.2833 28.0238 74.6923C28.1244 76.0181 27.9493 77.3606 27.9355 78.7071C27.9128 79.5648 27.933 80.4239 27.897 81.2885C27.8857 81.7161 27.8275 82.1408 27.7229 82.5556C27.39 83.4769 27.1157 84.418 26.9027 85.3738C26.6605 87.0847 26.079 88.7301 25.1917 90.2127C25.2894 89.7654 25.357 89.3101 25.4546 88.8633L25.4517 88.8731ZM31.2661 81.6644C31.7174 80.5966 32.2555 79.5648 32.7097 78.4871C33.4101 76.822 34.071 75.1456 34.762 73.4781C34.909 73.1234 35.0811 72.7802 35.2769 72.4502C36.3408 70.4606 36.9612 68.2643 37.0969 66.0123C36.9321 66.1485 36.7925 66.3127 36.6855 66.4977C36.212 67.7534 35.7815 69.0106 35.3376 70.2751C35.2044 70.7333 35.0707 71.191 34.871 71.6191C33.523 74.4674 32.1125 77.3843 30.7833 80.2814C30.4316 81.0429 30.147 81.8355 29.8324 82.6187C29.6647 83.1963 29.4965 83.7738 29.2612 84.3213L28.9229 84.2226C28.9599 83.9134 29.0585 83.6145 29.2134 83.3442C29.3682 83.074 29.5759 82.8372 29.824 82.6488L29.8442 82.5788C29.7934 82.456 29.673 82.3129 29.7091 82.2261C30.8829 79.1219 32.1135 76.0447 33.2375 72.9262C33.9087 71.1013 34.3812 69.2187 35.0027 67.3795C35.5753 65.71 36.2377 64.0661 36.8626 62.401C37.2221 61.4255 37.5698 60.5653 37.8949 59.6336C38.4428 58.0859 38.9434 56.5141 39.4879 54.9767C39.6152 54.668 39.8426 54.411 40.1331 54.2463C40.103 55.4256 40.0956 56.6014 40.0428 57.7851C39.9091 60.6196 39.7755 63.454 39.5861 66.294C39.5392 68.254 38.9212 70.1578 37.8081 71.772C36.6934 73.2625 36.3156 75.043 35.6049 76.7046C35.486 77.113 35.2779 77.4953 35.0791 77.8804C34.25 79.5406 33.4313 81.2032 32.5554 82.8387C32.0074 83.8675 31.3657 84.8475 30.728 85.9257C31.4407 86.706 30.9248 87.3659 30.3275 87.9696C29.132 89.1449 27.8995 90.2985 26.5352 91.6085C26.7503 90.2827 27.3101 89.0374 28.1589 87.9977C28.8824 87.0818 29.4866 86.0776 29.9576 85.0103C30.4745 83.94 30.8064 82.7618 31.2691 81.654L31.2661 81.6644ZM12.1635 72.7333C12.2302 73.0381 12.2412 73.3523 12.1959 73.661C11.6555 75.0257 10.8288 76.2583 9.77161 77.2763C10.0155 75.5111 11.3449 74.321 11.8502 72.6963L12.1635 72.7333ZM11.3931 72.0768C10.6967 73.1708 9.98325 74.2485 9.26982 75.3261C9.23214 75.4558 8.99692 75.4844 8.77542 75.6146C8.72965 75.3636 8.62376 75.1708 8.67555 75.0667C9.44683 73.5303 10.2223 72.0172 11.071 70.3629C11.5825 70.9439 11.7894 71.4579 11.4018 72.0472L11.3931 72.0768ZM8.85004 98.5159C8.06352 95.6513 7.66654 92.6733 7.08411 89.7382C7.02107 89.0956 6.91424 88.4583 6.76445 87.83C5.81369 85.0473 5.95066 82.127 5.64003 79.2605C5.32566 76.7855 4.78111 74.3446 4.01348 71.9708C3.434 69.8791 2.77448 67.8397 2.19787 65.7386C2.02456 64.9988 1.91861 64.2447 1.88133 63.4856C1.76261 61.8526 1.75511 60.2082 1.58081 58.5801C1.56661 56.8268 1.87561 55.0857 2.49242 53.4443C6.46015 58.3695 8.3883 64.0296 10.8166 69.3814L8.06826 73.702C8.14273 72.7797 8.44956 71.8919 8.96008 71.1205C9.29448 70.3427 9.63884 69.5679 10.0106 68.7363C9.52042 68.4532 9.29438 68.6357 9.07722 69.048C8.67244 69.8801 8.19205 70.6732 7.64217 71.4174C7.6112 70.5168 7.89129 69.6335 8.43531 68.9149C8.71644 68.543 8.91327 68.2007 8.35999 67.7267C7.89943 68.3812 7.48612 68.9844 6.88914 69.8475C6.34143 68.2407 5.93458 66.9667 5.45547 65.6064C4.91206 65.7292 4.84261 66.2274 4.97691 66.7309C5.19102 67.5171 5.5121 68.2693 5.77182 69.0471C6.13256 70.1459 6.47751 71.2621 6.83824 72.3609C7.19893 73.4598 7.50442 74.4882 7.9311 75.5091C8.35772 76.53 9.07949 77.7986 9.56801 78.9778C9.81334 79.5746 9.95755 80.2079 9.99469 80.8521C10.191 83.2209 10.3317 85.5953 10.4753 87.9597C10.6468 89.6346 10.5625 91.3254 10.2253 92.9752C10.0278 94.2452 10.0643 95.5408 10.3332 96.798C10.6597 99.0535 11.0783 101.401 11.5015 103.696C11.7615 104.573 11.8603 105.492 11.793 106.405C10.7182 103.64 9.5651 101.144 8.85877 98.4863L8.85004 98.5159ZM7.01792 136.764C6.8014 137.079 6.4817 137.308 6.11411 137.412C5.74652 137.516 5.35412 137.488 5.00478 137.334C4.87699 137.253 4.76848 137.145 4.68686 137.017C4.60523 136.89 4.55251 136.746 4.53233 136.596C4.51216 136.446 4.52508 136.294 4.57011 136.149C4.61519 136.005 4.6913 135.872 4.79314 135.76C5.01011 135.487 5.32078 135.306 5.6646 135.25C6.00837 135.194 6.36062 135.268 6.6525 135.459C7.19498 135.822 7.33214 136.316 7.0266 136.734L7.01792 136.764ZM11.3419 123.839C10.4559 125.806 9.52723 127.772 8.76783 129.787C8.21765 131.269 7.8837 132.825 7.47966 134.435L5.42702 134.065C5.46702 133.759 5.53335 133.456 5.62524 133.161C6.1071 131.951 6.64584 130.768 7.12766 129.559C8.23556 126.791 9.3435 124.024 10.4016 121.243C10.6498 120.613 10.6377 119.875 10.8718 119.219C11.3068 117.984 11.8413 116.779 12.309 115.543C12.4733 115.154 12.5684 114.74 12.5901 114.318C12.6 113.468 12.5074 112.598 12.4846 111.749C12.368 110.718 12.4515 109.675 12.7306 108.677C12.9063 108.009 12.9618 107.316 12.8946 106.629C12.8777 105.632 12.8065 104.638 12.6814 103.65C12.511 102.38 12.2494 101.126 12.0134 99.8584L11.2924 96.1376L13.379 93.1261C12.4004 92.7764 12.2799 93.8215 11.6904 94.0282C11.3596 92.9377 11.323 92.841 12.3843 91.4215C12.9378 90.7074 13.2235 89.6889 14.3465 89.3565L14.1489 88.4026C12.7848 88.5239 12.8483 90.0874 11.7574 90.5693C11.6654 90.3611 11.6279 90.1333 11.6484 89.9064C11.669 89.68 11.747 89.4625 11.875 89.2746C12.4761 88.4342 13.1183 87.6381 13.6796 86.7859C13.8533 86.5619 13.9612 86.2941 13.9912 86.0125C13.9933 85.5839 13.9625 85.1563 13.8992 84.7326C13.1862 85.7348 12.4731 86.737 11.77 87.7427L11.4475 87.5513C11.0047 85.7698 12.6061 84.9072 13.3775 83.6303C13.3068 83.2421 13.0279 83.1613 12.7347 83.3891C12.1711 83.8404 11.6528 84.3598 10.9499 85.03C10.8341 83.3867 10.7831 81.8917 10.6342 80.3253C11.6799 79.5544 12.4156 78.4353 12.7085 77.1697C11.8112 76.5414 11.8451 77.7611 11.2535 77.8267C11.4519 76.7939 11.9042 75.8267 12.5696 75.0119C13.2761 75.6285 13.1708 76.4723 13.2271 77.1697C13.3599 79.3616 13.6688 81.5396 14.1509 83.6826C14.1754 83.9751 14.1659 84.2695 14.1223 84.56C14.7052 85.5129 14.989 86.6192 14.9372 87.7353C14.965 88.7217 14.9372 89.7091 14.8542 90.6926L14.7254 94.2526C14.9068 97.3406 15.091 100.419 15.1013 103.501C15.0062 104.664 14.7841 105.812 14.439 106.927C13.8738 109.095 13.5489 111.319 13.47 113.559C13.4665 113.979 13.6867 114.41 13.6334 114.816C13.4581 115.975 13.7849 117.301 13.3398 118.274C12.5289 120.058 12.1545 122.012 11.3506 123.809L11.3419 123.839ZM22.6586 108.304C20.8845 109.538 19.1724 110.854 17.4348 112.185C17.0329 112.489 16.6664 112.858 16.0854 113.369C16.1285 113.084 16.2095 112.806 16.326 112.543C17.3136 110.866 18.6379 109.412 20.2152 108.274C21.1395 107.607 22.0164 106.876 22.8391 106.088C25.8087 103.785 28.9258 101.679 32.1712 99.7844C32.3181 99.6961 32.471 99.6182 32.6279 99.5501L32.8538 99.7021C32.7428 99.9516 32.6116 100.192 32.4612 100.42C31.6158 101.394 30.8104 102.381 29.891 103.312C29.5991 103.616 29.2711 103.883 28.914 104.108C26.8213 105.508 24.7232 106.853 22.6675 108.274L22.6586 108.304ZM29.1522 106.111C28.2442 106.446 27.3135 106.717 26.3671 106.921L26.2541 106.639C26.6186 106.464 26.9584 106.261 27.3268 106.109C27.6953 105.957 27.9729 106.005 28.1762 105.827C31.1246 103.12 34.8192 101.56 38.2441 99.6291C39.8958 98.7053 41.6674 98.0005 43.3 97.1038C44.933 96.2072 46.5147 95.2632 48.1137 94.3354C48.817 93.9241 49.5396 93.5187 50.2118 93.0664C50.5117 92.8134 50.7854 92.5313 51.0291 92.224C51.2633 91.9009 51.5499 91.6193 51.8769 91.3905C53.0226 90.734 54.0549 89.896 54.9323 88.9091C55.7821 88.2537 56.6773 87.6588 57.611 87.1291C58.332 86.6527 59.0117 86.1171 59.6435 85.5277C59.9409 85.143 60.111 84.6749 60.1303 84.1891C62.2792 82.4239 64.4251 80.6681 66.5677 78.9226L66.7393 79.113C65.7711 80.1384 64.8029 81.1637 63.8274 82.1758L57.356 88.9343C55.8319 90.4632 54.1437 91.8196 52.3223 92.9781C49.0444 95.1463 45.7867 97.3198 42.4635 99.4204C38.1908 101.95 33.7455 104.175 29.1606 106.081L29.1522 106.111ZM80.2385 101.32C80.3593 101.14 80.4959 100.97 80.6454 100.812C81.6224 100.016 82.6468 99.1694 83.6145 98.2949C84.2453 97.7228 84.7972 97.0515 85.39 96.4247L86.5688 95.2336C86.8085 95.0323 87.0369 94.8173 87.2529 94.5904C90.4573 90.7809 94.0424 87.2978 96.8907 83.1904C97.5654 82.3484 98.2924 81.5499 99.0668 80.7988C100.643 79.0972 102.065 77.4371 103.591 75.7961C104.172 75.1757 104.84 74.6425 105.575 74.2134L105.899 74.5454C105.716 74.8053 105.562 75.0736 105.364 75.3079C104.093 76.7313 102.82 78.1611 101.545 79.5973C100.757 80.4481 99.886 81.3615 99.1077 82.2907C98.1346 83.4444 97.2567 84.6794 96.2851 85.7901C94.9914 87.3042 93.6562 88.7735 92.3137 90.2299C90.512 92.19 88.5949 94.0627 86.8707 96.0888C85.212 98.0177 83.2914 99.706 81.1657 101.104C81.032 101.197 80.8806 101.262 80.7208 101.294C80.561 101.325 80.3963 101.323 80.237 101.287L80.2385 101.32ZM14.4222 93.6242L14.754 94.2284C14.6508 94.3606 14.5376 94.4893 14.2366 94.8558C14.2437 94.2743 14.2353 93.9695 14.2397 93.6573L14.4222 93.6242Z" fill="#101A24"/>
</g>
</svg>
