<svg width="290" height="315" viewBox="0 0 290 315" fill="none" xmlns="http://www.w3.org/2000/svg">
<g opacity="0.1" filter="url(#filter0_d_12_2)">
<path d="M220.182 205.41C218.602 205.705 217.006 205.904 215.403 206.006C209.051 206.292 202.732 206.499 196.329 206.704C194.604 206.724 192.883 206.53 191.206 206.127C188.407 205.553 185.546 205.337 182.693 205.483C178.537 205.594 174.386 205.776 170.225 205.867C167.715 205.832 165.237 205.291 162.942 204.277C159.464 203.052 155.899 202.09 152.277 201.397C150.193 200.937 148.126 200.368 146.046 199.875C142.437 198.957 138.683 198.755 134.996 199.279C130.751 199.99 127.088 201.84 123.234 203.351C123.094 203.414 123.06 203.629 122.652 204.013C123.63 203.9 124.31 203.837 124.969 203.778C128.708 203.07 132.519 202.82 136.318 203.032C138.985 203.286 141.623 203.722 144.279 204.02C146.397 204.266 148.53 204.405 150.631 204.624C153.959 204.759 157.23 205.525 160.272 206.881C162.37 207.719 164.53 208.394 166.731 208.899C171.237 210.385 175.756 211.847 180.221 213.477C181.542 214.038 182.766 214.803 183.85 215.744C184.383 216.077 184.534 216.911 184.94 217.636C184.355 217.926 183.969 218.273 183.543 218.31C179.563 218.918 175.526 219.054 171.514 218.716C168.745 218.382 165.934 218.494 163.136 218.343C161.363 218.244 159.591 218.011 157.826 217.901C155.522 217.74 153.204 217.654 150.896 217.524C149.697 217.274 148.465 217.227 147.25 217.382C146.11 217.67 144.925 217.74 143.757 217.588C142.475 217.524 141.192 217.719 139.988 218.163C138.782 218.606 137.68 219.29 136.745 220.17C136.167 220.675 135.537 221.116 134.864 221.484C132.206 222.949 129.398 224.122 126.489 224.981C124.425 225.592 122.497 226.523 120.483 227.216C119.083 227.716 117.651 228.119 116.197 228.424C112.697 229.096 109.179 229.64 105.714 230.284C103.275 230.779 100.85 231.349 98.4384 231.995C95.5916 232.849 92.6654 233.41 89.7044 233.67C86.0935 233.903 82.4796 234.302 78.8493 234.405C76.8345 234.469 74.8194 234.274 72.8556 233.823C70.7471 233.36 68.5416 233.722 66.6908 234.832C63.6347 236.438 60.5244 237.943 57.5352 239.658C54.8136 241.321 52.2248 243.068 49.4911 244.724C48.4007 245.32 47.2658 245.831 46.0971 246.253C45.7668 246.405 45.3959 246.442 45.0424 246.358C44.6898 246.275 44.374 246.076 44.1477 245.792C43.747 245.357 43.327 244.926 42.9331 244.478C41.2331 242.541 42.0255 240.547 44.0423 239.284C48.1373 236.797 52.3533 234.653 56.4748 232.283C57.8354 231.44 59.1518 230.529 60.4188 229.551C60.6173 229.422 60.7611 229.192 60.9603 229.115C63.552 228.009 65.356 225.957 67.4242 224.154C68.7147 222.857 69.6965 221.286 70.2966 219.558C71.3624 217.044 72.4291 214.531 73.6349 212.09C75.0837 208.916 76.7188 205.833 78.532 202.853C82.305 196.92 86.9985 191.625 92.4367 187.168C94.9513 185.19 97.7458 183.572 100.376 181.733C102.373 180.34 104.32 178.865 106.267 177.39C108.215 175.917 110.146 174.415 112.115 172.987C112.534 172.694 113.138 172.668 113.959 172.458C113.887 173.031 113.75 173.595 113.55 174.137C112.654 175.73 111.716 177.313 110.748 178.862C108.677 182.177 106.671 185.549 104.413 188.731C101.4 192.987 98.1399 197.074 95.0302 201.27C94.2158 202.358 93.5862 203.58 92.8606 204.742C92.2669 205.627 91.5719 206.44 90.7903 207.166C88.7786 208.934 86.9345 210.884 85.2827 212.992C83.713 214.843 82.0474 216.608 80.2933 218.285C80.1419 218.527 79.9189 218.724 79.5782 219.134C80.5026 219.153 81.4004 218.816 82.0838 218.193C84.3858 216.018 87.1604 214.407 90.1891 213.485C91.512 212.971 92.6885 212.141 93.6168 211.068C95.0291 209.695 96.5328 208.421 98.1203 207.254C100.734 205.305 103.434 203.46 106.111 201.599C107.182 200.856 108.319 200.221 109.401 199.484C111.377 198.251 113.049 196.587 114.292 194.618C115.458 192.806 116.968 191.24 118.736 190.01C123.598 186.319 128.367 182.672 133.399 179.222C135.858 177.496 138.661 176.186 141.202 174.595C143.744 173.004 146.433 171.286 149.14 169.781C152.251 168.059 155.445 166.472 158.646 164.905C161.118 163.641 163.689 162.539 166.24 161.392C166.554 161.296 166.877 161.238 167.205 161.221C167.307 161.394 167.373 161.586 167.401 161.786C167.428 161.985 167.416 162.188 167.365 162.383C167.314 162.578 167.225 162.76 167.102 162.92C166.98 163.08 166.828 163.215 166.653 163.315C165.348 164.434 164.06 165.581 162.752 166.731C159.063 169.944 155.475 173.236 151.806 176.444C146.642 180.938 141.434 185.371 136.253 189.837C134.654 191.196 133.128 192.641 131.683 194.164C132.707 193.845 133.739 193.565 134.757 193.175C138.274 191.773 141.744 190.257 145.282 188.902C148.257 187.749 151.316 186.784 154.323 185.686C155.272 185.268 156.168 184.738 156.992 184.107C159.976 181.934 162.744 179.478 165.258 176.774C167.018 174.832 168.418 172.591 169.393 170.157C170.456 167.862 171.271 165.427 172.489 163.21C173.844 160.493 175.565 157.975 177.603 155.725C177.785 155.434 178.083 155.2 178.308 154.92C179.705 153.169 180.996 151.319 182.518 149.662C184.339 147.68 185.676 145.301 186.422 142.716C187.347 140.008 188.91 137.564 190.978 135.587C191.093 135.448 191.229 135.329 191.382 135.235C194.013 133.716 196.268 131.643 199.07 130.417C199.664 130.165 200.2 129.793 200.772 129.495C201.345 129.197 201.95 129.307 202.08 130.094C202.161 130.657 202.112 131.231 201.939 131.773C201.364 133.448 200.768 135.128 200.056 136.752C199.344 138.376 198.4 140.023 197.585 141.65C197.146 142.352 196.945 143.184 196.531 143.901C195.919 145.196 195.158 146.414 194.263 147.531C192.79 149.171 191.57 151.023 190.645 153.025C189.712 154.948 188.777 156.904 187.97 158.839C187.526 159.873 187.342 161.003 186.946 162.068C186.4 163.56 185.767 165.031 185.169 166.526C185.056 166.706 185.015 166.933 184.831 167.39C186.272 166.861 187.633 166.139 188.88 165.244C191.423 163.704 193.938 162.131 196.527 160.652C198.851 159.33 201.241 158.115 203.59 156.858C203.937 156.626 204.31 156.435 204.701 156.291C206.927 155.467 209.065 154.425 211.086 153.181C214.214 151.621 217.364 150.107 220.508 148.573C223.653 147.039 226.581 145.639 229.617 144.172C231.48 145.336 231.566 146.114 230.014 147.549C229.008 148.484 227.904 149.309 226.922 150.26C225.227 151.925 223.501 153.555 221.928 155.347C219.724 157.934 217.098 160.125 214.159 161.83C211.052 163.573 208.125 165.646 205.088 167.516C202.802 168.914 200.45 170.203 198.139 171.585C196.977 172.288 195.839 173.058 194.71 173.816C192.778 175.045 190.938 176.414 189.206 177.912C189.751 177.912 190.296 177.876 190.838 177.805C194.396 177.118 197.932 176.385 201.478 175.69C202.765 175.434 204.071 175.308 205.288 174.976C208.478 174.261 211.646 173.498 214.808 172.716C220.476 171.345 226.122 169.928 231.799 168.597C232.56 168.545 233.326 168.609 234.068 168.787C234.063 169.557 233.884 170.315 233.545 171.007C233.207 171.698 232.717 172.304 232.112 172.779C229.101 175.756 225.415 177.959 221.368 179.204C217.921 180.414 214.525 181.892 211.118 183.278C206.393 185.187 201.889 187.603 196.852 188.746C196.241 188.919 195.612 189.023 194.977 189.054C191.005 189.269 187.064 189.878 183.212 190.87C182.339 191.023 181.445 191.033 180.569 190.9C177.878 190.53 175.151 190.523 172.458 190.878C170.219 191.104 167.969 191.209 165.718 191.192C162.385 191.038 159.059 191.625 155.98 192.912C155.664 193.068 155.254 193.08 154.913 193.49C156.121 193.522 157.338 193.593 158.56 193.549C162.997 193.394 167.435 193.219 171.876 193.021C174.011 193.05 176.143 192.874 178.245 192.493C179.652 192.187 181.114 192.249 182.489 192.673C184.779 193.262 187.177 193.247 189.497 193.788C193.043 194.516 196.543 195.461 199.974 196.618C202.971 197.758 206.112 198.475 209.307 198.749C211.551 198.999 213.753 199.538 215.857 200.353C217.241 200.83 218.655 201.259 219.97 201.846C220.596 202.16 221.113 202.653 221.457 203.262C221.586 203.483 221.654 203.734 221.653 203.988C221.652 204.243 221.584 204.493 221.453 204.712C221.323 204.932 221.137 205.112 220.913 205.235C220.69 205.357 220.438 205.418 220.182 205.41ZM123.431 168.148C126.294 167.626 129.096 166.807 131.79 165.701C132.98 165.168 134.171 164.582 135.373 164.139C138.605 162.978 141.74 161.563 144.747 159.904C149.851 157.314 154.58 154.045 158.809 150.188C159.283 149.751 159.665 149.222 159.931 148.635C160.056 148.151 160.091 147.648 160.033 147.151C159.535 147.143 158.987 146.969 158.561 147.14C155.621 148.264 152.648 149.333 149.815 150.691C148.443 151.402 146.989 151.94 145.485 152.291C142.87 152.76 140.502 153.938 137.75 153.901C137.584 153.897 137.413 154.01 137.248 154.058C134.939 154.819 132.649 155.658 130.3 156.294C127.091 157.148 123.83 157.818 120.581 158.631C119.02 159.001 117.444 159.344 115.935 159.848C113.992 160.589 111.974 161.11 109.917 161.403C108.441 161.578 106.977 161.843 105.534 162.198C103.112 162.736 100.691 163.326 98.2627 163.928C96.7617 164.272 95.2794 164.693 93.8233 165.191C91.4338 166.053 89.1044 167.036 86.7362 167.945C86.7362 167.945 86.5547 167.832 86.3489 167.703C86.5459 167.418 86.7687 167.152 87.0147 166.908C89.6746 164.617 92.3574 162.341 94.9915 160.118C98.099 157.317 101.964 155.496 106.102 154.882C108.92 154.49 111.712 153.845 114.569 153.445C117.427 153.044 120.565 153.002 123.536 152.555C126.508 152.107 129.817 151.332 132.949 150.682C134.511 150.362 136.065 149.921 137.643 149.712C141.371 149.21 145.05 148.384 148.637 147.247C149.712 146.863 150.752 146.387 151.745 145.825C153.005 145.182 154.189 144.391 155.456 143.736C158.672 142.061 161.904 140.415 165.13 138.78C166.085 138.3 167.074 137.876 167.997 137.342C170.148 136.079 172.279 134.769 174.401 133.472C176.525 132.174 178.578 130.934 180.632 129.61C181.344 129.147 182.16 128.647 182.086 127.609C180.712 126.549 180.708 126.529 179.356 126.996C178.568 127.261 177.811 127.612 177.095 127.922C174.948 128.666 172.871 129.488 170.734 130.188C169 130.8 167.225 131.292 165.422 131.662C161.387 132.387 157.316 132.871 153.288 133.584C148.555 134.428 143.842 135.403 139.132 136.344C136.866 136.796 134.594 137.227 132.357 137.848C128.86 138.813 125.397 139.868 121.969 141.011C119.374 141.879 116.882 142.879 114.309 143.929C113.112 144.392 111.919 144.925 110.731 145.428L110.5 145.099C111.066 144.543 111.66 144.023 112.196 143.433C115.41 139.906 119.125 136.872 123.223 134.427C123.83 134.052 124.417 133.643 124.98 133.204C127.753 131.136 130.478 129.036 133.255 126.987C135.851 125.094 138.481 123.255 141.122 121.424C142.069 120.77 142.879 119.796 144.267 120.024C144.501 120.053 144.79 119.779 145.047 119.637C146.214 118.819 147.463 118.085 148.792 117.385C149.763 116.796 150.792 116.312 151.865 115.94C155.974 114.721 160.304 114.444 164.535 115.128C166.633 115.43 168.781 115.493 170.886 115.732C172.014 115.722 173.133 115.935 174.178 116.359C175.936 117.206 177.774 117.9 179.611 118.593C181.851 119.215 183.964 120.223 185.858 121.572C186.027 121.737 186.228 121.863 186.45 121.942C189.13 122.742 191.804 123.605 194.495 124.278C198.469 125.214 202.494 126.013 206.504 126.837C209.698 127.486 212.917 128.068 216.114 128.686C216.755 128.818 217.386 128.993 218.037 129.081C220.864 129.484 223.704 129.729 226.489 130.308C228.066 130.638 229.859 130.513 231.127 131.877C231.332 132.005 231.693 132.047 231.984 132.093C233.443 132.315 234.914 132.545 236.392 132.711C236.9 132.838 237.433 132.822 237.934 132.665C238.574 132.358 239.304 132.289 239.99 132.47C240.384 132.514 240.811 132.26 241.232 132.153C241.143 131.71 240.992 131.281 240.783 130.88C240.522 130.639 240.218 130.449 239.887 130.32C237.867 129.058 235.859 127.803 233.838 126.54C232.9 125.726 231.915 124.965 230.889 124.26C228.795 123.153 226.564 122.324 224.254 121.796C219.161 120.587 214.265 118.661 209.714 116.075C209.459 115.916 209.206 115.757 208.997 115.525C206.848 114.065 204.766 112.445 202.51 111.153C196.81 108.061 190.577 106.073 184.139 105.291L183.609 105.195C179.678 104.538 175.688 104.301 171.706 104.486C171.314 104.494 170.938 104.477 170.26 104.458C170.512 104.176 170.783 103.913 171.072 103.67C173.426 102.164 175.776 100.638 178.152 99.1783C180.527 97.7188 183.345 96.2506 185.76 94.5124C188.559 92.4149 191.004 89.8826 193.004 87.012C193.404 86.4247 193.874 85.8882 194.405 85.4155C196.78 83.4173 199.139 81.393 201.605 79.5188C204.318 77.3982 206.693 74.878 208.648 72.0435C209.022 71.4357 209.456 70.8675 209.943 70.3472C212.86 67.5459 216.031 65.022 219.415 62.809C221.636 61.3532 223.669 59.5795 225.818 57.9448C225.96 57.8475 226.08 57.722 226.172 57.5762C226.262 57.4311 226.324 57.2679 226.349 57.0977C226.375 56.9281 226.365 56.7542 226.321 56.5882C226.277 56.4222 226.2 56.2668 226.093 56.1321C225.671 55.5151 225.046 55.8141 224.498 55.9928C223.356 56.3395 222.227 56.6931 221.075 56.9488C218.35 57.5681 215.558 57.9429 212.911 58.7607C209.801 59.7276 206.804 61.0511 203.76 62.2608C201.135 63.2134 198.598 64.3914 196.177 65.7823C193.823 67.2876 191.635 69.038 189.65 71.0051C185.567 74.8467 181.387 78.5756 177.218 82.3124C175.796 83.5935 174.27 84.7424 172.698 86.0483C173.015 85.136 173.311 84.3112 173.599 83.5C174.519 80.2992 175.867 77.2366 177.606 74.3966C178.541 72.9395 179.336 71.3969 179.979 69.7902C180.082 69.5287 180.125 69.2482 180.109 68.9677C180.092 68.688 180.016 68.4145 179.884 68.1668C179.476 67.6086 178.797 67.9414 178.28 68.2576C177.859 68.4914 177.466 68.7694 177.105 69.0879C174.735 71.5086 172.323 73.8875 170.011 76.4301C168.73 77.8324 167.751 79.5084 166.527 80.9814C164.689 83.1969 162.787 85.2715 160.85 87.3746C160.737 87.5561 160.547 87.6728 160.192 88.0236L160.161 86.9437C160.325 84.9304 160.277 82.9042 160.018 80.9004C159.963 80.4333 160.002 79.9592 160.132 79.5076C160.285 78.6956 160.599 77.8987 160.682 77.0932C161.154 73.9104 161.951 70.7842 163.062 67.7647C163.78 65.5216 164.454 63.2572 165.086 60.9716C166.296 56.8572 168.102 52.9415 170.447 49.3505C171.203 48.1408 171.882 46.7318 173.433 46.3223C173.418 44.731 173.159 44.2832 172.334 44.609C170.092 45.4254 168.023 46.654 166.235 48.2325C164.084 50.3765 162.314 52.8715 161.001 55.6104C160.109 57.2995 158.861 58.7749 157.341 59.9334C154.891 61.7404 152.984 64.1858 151.83 67.0038C150.621 70.2847 149.412 73.5662 148.462 76.9431C147.637 79.6902 147.099 82.5165 146.374 85.4788C145.34 83.0154 144.342 80.8447 143.452 78.6066C141.746 74.2593 138.509 71.0931 135.223 67.9798C132.387 65.5247 129.809 62.7861 127.528 59.8075C126.108 57.8271 124.51 55.9702 122.951 54.1045C122.647 53.7296 121.924 53.2446 121.741 53.3486C121.243 53.709 120.858 54.2037 120.632 54.7745C120.476 55.225 120.424 55.7038 120.479 56.1764C120.551 57.5465 120.954 58.8777 121.654 60.0564C122.89 62.3596 124.194 64.6877 125.337 67.0843C127.276 71.2927 129.642 75.2903 132.398 79.0155C134.998 82.4486 136.966 86.316 138.213 90.4376C139.302 94.3901 139.957 98.4489 140.169 102.544C140.461 104.545 140.47 106.578 140.197 108.583C140.013 109.444 140.099 110.355 139.983 111.241C139.923 111.762 139.753 112.263 139.483 112.712C136.438 117.318 131.971 120.347 127.254 123.725C127.471 122.919 127.577 122.48 127.719 122.064C128.587 119.545 129.486 117.029 130.33 114.494C131.261 111.712 132.144 108.899 133.01 106.194C133.217 105.567 133.504 104.972 133.648 104.339C133.926 103.167 133.503 102.767 132.362 103.031C131.989 103.117 131.596 103.073 131.214 103.172C130.834 103.27 130.243 103.354 129.989 103.651C129.04 104.74 128.142 105.962 127.271 107.167C126.4 108.373 125.895 109.368 125.058 110.359C121.488 114.672 117.885 118.931 114.288 123.208C114.023 123.632 113.543 123.888 112.889 124.504L113.115 123.469C113.984 119.79 115.895 116.543 117.221 113.048C118.175 110.798 118.969 108.484 119.598 106.123C120.026 104.154 120.604 102.221 121.327 100.341C122.182 98.4334 122.65 96.3769 122.704 94.2878C122.634 92.3264 122.596 90.3686 122.499 88.4232C122.357 85.2054 122.207 81.9999 122.005 78.7959C121.909 75.8706 121.016 73.0278 119.423 70.5722C119.07 70.1003 118.836 69.5511 118.743 68.9687C118.646 68.3178 118.379 67.7035 117.967 67.1891C117.555 66.6752 117.014 66.2787 116.4 66.0421C115.371 65.3995 114.35 66.0389 114.352 67.3019C114.379 68.2462 114.509 69.1848 114.739 70.1003C115.21 71.5676 115.388 73.113 115.261 74.6491C115.073 75.9447 114.886 77.2408 114.543 78.4898C114.288 79.7884 113.944 81.0682 113.512 82.3195C112.221 85.6511 110.813 88.9265 109.542 92.2535C108.271 95.5806 107.252 98.6101 106.029 101.833C104.066 106.888 102.995 112.246 102.863 117.668C102.802 119.514 102.647 121.351 102.606 123.193C102.582 124.255 102.756 125.322 102.803 126.377C103.076 128.441 102.911 130.539 102.319 132.535C101.815 133.81 101.43 135.13 101.17 136.475C100.917 138.182 100.394 139.837 99.6202 141.378C99.0166 142.845 98.2779 144.253 97.4126 145.584C95.3992 148.24 93.5471 151.014 91.8666 153.893C91.3107 154.647 90.6709 155.336 89.9607 155.948C89.549 156.363 89.02 156.672 88.5726 157.066C86.3469 159.039 84.1455 161.028 81.932 163.009C81.7436 163.13 81.5471 163.237 81.3433 163.33C81.3376 162.894 81.3685 162.457 81.4353 162.026C81.9921 159.548 82.4999 157.039 83.176 154.585C84.3127 150.45 85.5728 146.36 86.7582 142.256C87.0079 141.401 87.183 140.525 87.2822 139.64C87.6965 136.097 87.8759 132.525 88.5173 129.023C89.0514 126.567 89.2158 124.045 89.0043 121.54C88.4177 116.531 87.6489 111.543 86.9514 106.548C86.815 105.555 86.7849 104.527 86.5503 103.555C85.8573 100.734 85.045 97.8883 84.3343 95.1222C83.8643 93.3988 83.3464 91.6961 82.8217 90.0061C82.5815 89.233 81.9504 88.9232 81.5138 89.4074C80.4477 90.5743 78.8906 91.3173 78.4944 93.0549C78.2113 93.8379 77.8802 94.6021 77.501 95.3443C76.4532 97.7766 75.5706 100.276 74.8604 102.828C74.3245 105.799 73.9868 108.802 73.8505 111.819C73.6438 114.6 73.7379 117.383 73.5039 120.18C73.0025 124.913 72.416 129.593 71.6648 134.322C71.0495 137.307 70.6019 140.323 70.3243 143.359C70.2414 145.376 69.8965 147.381 69.7902 149.383C69.5491 151.51 69.5375 153.658 69.7573 155.788C70.3282 159.675 70.5296 163.608 70.357 167.534C70.3074 172.034 68.6348 176.364 65.6466 179.729C65.1694 180.26 64.7244 180.819 64.3143 181.403C61.7566 185.255 59.227 189.141 56.6567 192.985C54.9134 195.613 53.093 198.177 51.3258 200.79C50.9135 201.41 50.7343 202.157 50.8193 202.897C50.9055 203.637 51.2505 204.324 51.7939 204.833C54.4306 206.481 58.2381 206.202 59.5812 203.139C60.1556 201.816 60.8426 200.446 61.5204 199.12C62.1081 197.815 62.8058 196.563 63.6067 195.377C65.1638 193.289 66.9198 191.341 68.5658 189.325C69.2839 188.444 69.9584 187.554 70.6644 186.666C73.1079 183.617 75.2167 180.243 79.0706 178.597C80.8497 177.537 82.7223 176.64 84.6642 175.918C88.5796 174.975 92.5523 174.282 96.5564 173.846C100.626 173.362 104.68 172.726 108.715 171.939C112.538 171.375 116.304 170.481 119.973 169.269C121.093 168.804 122.25 168.43 123.431 168.148Z" fill="#132939"/>
<path d="M221.457 203.262C221.113 202.653 220.596 202.16 219.97 201.846C218.655 201.259 217.241 200.83 215.857 200.353C213.753 199.538 211.551 198.999 209.307 198.749C206.112 198.475 202.971 197.758 199.974 196.618C196.543 195.461 193.043 194.516 189.497 193.788C187.201 193.262 184.779 193.262 182.489 192.673C181.117 192.253 179.659 192.194 178.257 192.501C176.156 192.881 174.023 193.058 171.888 193.029C167.439 193.221 163.001 193.397 158.573 193.556C157.351 193.601 156.133 193.529 154.925 193.498C155.205 193.05 155.676 193.076 155.993 192.92C159.071 191.633 162.397 191.045 165.73 191.2C167.981 191.216 170.231 191.112 172.47 190.886C175.163 190.531 177.89 190.538 180.581 190.908C181.457 191.041 182.351 191.03 183.225 190.878C187.047 189.851 190.961 189.203 194.911 188.946C195.546 188.914 196.174 188.81 196.786 188.637C201.807 187.519 206.327 185.078 211.052 183.17C214.458 181.782 217.864 180.344 221.302 179.095C225.349 177.85 229.034 175.646 232.045 172.671C232.65 172.195 233.14 171.589 233.479 170.897C233.818 170.207 233.996 169.447 234.001 168.678C233.259 168.5 232.493 168.435 231.732 168.488C226.055 169.819 220.41 171.236 214.742 172.607C211.579 173.389 208.411 174.151 205.222 174.867C203.957 175.169 202.65 175.295 201.412 175.581C197.866 176.276 194.329 177.009 190.771 177.696C190.23 177.767 189.685 177.803 189.14 177.804C190.871 176.306 192.711 174.936 194.644 173.707C195.773 172.949 196.909 172.18 198.073 171.476C200.368 170.118 202.72 168.83 205.022 167.408C208.058 165.537 210.985 163.463 214.092 161.722C217.03 160.017 219.658 157.824 221.86 155.238C223.435 153.446 225.16 151.817 226.856 150.151C227.838 149.2 228.941 148.376 229.947 147.44C231.499 146.004 231.323 145.238 229.551 144.063C226.514 145.53 223.478 146.997 220.442 148.464C217.406 149.931 214.147 151.512 211.019 153.073C208.999 154.316 206.86 155.359 204.635 156.182C204.244 156.327 203.87 156.518 203.524 156.749C201.174 158.006 198.784 159.22 196.459 160.544C193.859 162.014 191.357 163.596 188.813 165.135C187.592 166.068 186.25 166.83 184.823 167.402C185.008 166.945 185.085 166.741 185.162 166.537C185.759 165.043 186.392 163.572 186.938 162.08C187.334 161.015 187.519 159.885 187.963 158.851C188.792 156.879 189.735 154.912 190.637 153.037C191.563 151.035 192.783 149.184 194.255 147.543C195.15 146.426 195.911 145.208 196.523 143.914C196.961 143.212 197.199 142.401 197.577 141.662C198.392 140.035 199.306 138.437 200.048 136.764C200.79 135.092 201.356 133.46 201.932 131.784C202.082 131.249 202.112 130.687 202.018 130.14C201.901 129.359 201.424 129.179 200.71 129.541C199.997 129.902 199.602 130.211 199.008 130.462C196.278 131.599 193.977 133.694 191.355 135.252C191.201 135.346 191.065 135.465 190.95 135.604C188.883 137.58 187.32 140.025 186.394 142.732C185.635 145.303 184.292 147.665 182.47 149.633C180.948 151.288 179.656 153.139 178.26 154.89C178.071 155.193 177.797 155.442 177.554 155.695C175.517 157.944 173.795 160.463 172.44 163.18C171.223 165.397 170.408 167.832 169.344 170.127C168.37 172.561 166.969 174.802 165.209 176.744C162.696 179.448 159.928 181.904 156.943 184.077C156.119 184.708 155.224 185.238 154.274 185.656C151.267 186.754 148.208 187.719 145.234 188.872C141.696 190.227 138.225 191.742 134.708 193.144C133.715 193.55 132.621 193.792 131.634 194.134C133.079 192.611 134.605 191.166 136.205 189.807C141.385 185.34 146.594 180.908 151.757 176.413C155.439 173.213 159.051 169.936 162.705 166.701C164.012 165.551 165.3 164.404 166.605 163.285C166.779 163.184 166.932 163.05 167.054 162.89C167.176 162.729 167.265 162.547 167.317 162.353C167.368 162.157 167.381 161.955 167.353 161.756C167.325 161.556 167.259 161.364 167.156 161.19C166.83 161.208 166.505 161.266 166.192 161.362C163.642 162.509 161.093 163.626 158.597 164.874C155.398 166.442 152.203 168.029 149.091 169.75C146.445 171.293 143.811 172.978 141.154 174.565C138.498 176.151 135.809 177.465 133.351 179.192C128.38 182.68 123.527 186.326 118.688 189.979C116.919 191.21 115.409 192.775 114.244 194.588C113 196.556 111.329 198.22 109.352 199.454C108.27 200.19 107.133 200.825 106.062 201.569C103.386 203.43 100.686 205.274 98.0717 207.224C96.5007 208.402 95.0119 209.687 93.6168 211.068C92.6524 212.114 91.4462 212.908 90.1033 213.381C87.0741 214.303 84.2995 215.914 81.998 218.088C81.3133 218.712 80.4168 219.048 79.4923 219.03C79.7723 218.581 80.0075 218.393 80.2075 218.181C81.9611 216.505 83.6263 214.738 85.1969 212.888C86.8486 210.78 88.6928 208.83 90.7045 207.062C91.4856 206.336 92.1803 205.522 92.7748 204.637C93.6029 203.473 94.153 202.269 94.9444 201.165C98.0542 196.969 101.314 192.883 104.327 188.626C106.584 185.444 108.579 182.065 110.662 178.758C111.63 177.209 112.605 175.649 113.463 174.032C113.663 173.49 113.801 172.927 113.873 172.353C113.029 172.6 112.424 172.625 112.028 172.883C110.06 174.311 108.141 175.82 106.181 177.287C104.222 178.753 102.287 180.236 100.289 181.628C97.6592 183.467 94.8655 185.086 92.351 187.064C86.9535 191.556 82.3038 196.879 78.5783 202.832C76.7659 205.811 75.1307 208.895 73.6819 212.068C72.4753 214.51 71.4095 217.023 70.3437 219.536C69.7436 221.265 68.7618 222.836 67.4714 224.133C65.4391 225.959 63.6356 228.011 61.0074 229.094C60.8082 229.171 60.6644 229.401 60.4659 229.529C59.1989 230.508 57.8819 231.42 56.5218 232.262C52.3998 234.633 48.1616 236.812 44.0895 239.263C42.0164 240.507 41.265 242.544 42.9802 244.457C43.3728 244.905 43.7941 245.336 44.1948 245.771C44.4211 246.054 44.736 246.253 45.0895 246.337C45.443 246.42 45.8139 246.384 46.1434 246.232C47.3128 245.81 48.447 245.298 49.5381 244.702C52.2597 243.039 54.812 241.269 57.5822 239.636C60.5714 237.921 63.6813 236.417 66.7379 234.811C68.5879 233.7 70.7942 233.339 72.9027 233.801C74.8665 234.252 76.8815 234.448 78.8958 234.385C82.5267 234.281 86.1476 233.87 89.7514 233.649C92.716 233.392 95.6463 232.834 98.4976 231.981C100.901 231.33 103.326 230.76 105.773 230.27C109.268 229.577 112.786 229.035 116.255 228.409C117.702 228.116 119.126 227.724 120.52 227.239C122.533 226.546 124.473 225.622 126.525 225.004C129.435 224.145 132.243 222.972 134.9 221.507C135.573 221.138 136.204 220.697 136.781 220.193C137.716 219.312 138.819 218.629 140.023 218.185C141.229 217.742 142.511 217.547 143.794 217.611C144.961 217.762 146.146 217.693 147.287 217.405C148.502 217.249 149.734 217.297 150.932 217.547C153.24 217.677 155.558 217.763 157.863 217.924C159.627 218.034 161.399 218.267 163.171 218.365C165.97 218.516 168.782 218.405 171.551 218.739C175.562 219.077 179.599 218.941 183.579 218.333C184.005 218.296 184.39 217.949 184.976 217.659C184.571 216.934 184.389 216.148 183.887 215.767C182.803 214.826 181.579 214.061 180.258 213.499C175.792 211.87 171.272 210.407 166.768 208.922C164.566 208.416 162.406 207.741 160.308 206.903C157.266 205.548 153.994 204.781 150.666 204.647C148.554 204.42 146.421 204.282 144.316 204.043C141.659 203.745 139.022 203.308 136.355 203.055C132.555 202.843 128.744 203.093 125.005 203.801C124.323 203.896 123.644 203.96 122.689 204.035C123.049 203.622 123.081 203.407 123.27 203.373C127.058 201.888 130.799 200.02 134.996 199.279C138.685 198.734 142.445 198.917 146.063 199.82C148.144 200.312 150.211 200.88 152.295 201.341C155.917 202.035 159.482 202.997 162.96 204.221C165.256 205.235 167.733 205.776 170.243 205.811C174.404 205.72 178.555 205.538 182.712 205.427C185.565 205.281 188.425 205.497 191.225 206.071C192.902 206.475 194.622 206.668 196.347 206.648C202.712 206.504 209.091 206.2 215.422 205.95C217.018 205.866 218.608 205.686 220.182 205.41C220.438 205.418 220.69 205.358 220.913 205.235C221.137 205.112 221.323 204.932 221.453 204.712C221.584 204.493 221.652 204.243 221.653 203.988C221.654 203.734 221.586 203.483 221.457 203.262ZM182.199 194.375C182.875 194.074 183.874 194.548 184.729 194.66C182.529 196.021 180.099 196.972 177.56 197.465L177.388 197.122C178.938 196.115 180.544 195.198 182.199 194.375ZM176.104 195.057C177.289 194.319 178.49 193.555 180.145 194.218C178.201 195.309 176.349 196.389 174.435 197.379C174.155 197.469 173.861 197.5 173.57 197.471C173.278 197.442 172.996 197.354 172.74 197.212C173.851 196.51 174.966 195.776 176.104 195.057ZM174.725 194.331C173.336 195.372 171.875 196.314 170.355 197.151C169.555 197.543 168.427 197.275 167.45 197.304C168.341 196.268 169.465 195.458 170.729 194.941C171.994 194.425 173.364 194.215 174.725 194.331ZM201.48 177.221L201.691 177.556C200.803 178.145 199.959 178.794 199.055 179.273C198.15 179.75 197.572 180.919 195.796 180.449C197.934 179.396 199.506 177.956 201.48 177.221ZM195.44 182.043C198.691 181.631 201.907 180.982 205.064 180.101C206.68 179.748 208.29 179.324 209.906 178.92C210.452 178.774 210.988 178.587 211.947 178.346C211.366 177.983 211.015 177.764 210.812 177.738C209.516 177.897 208.231 178.151 206.972 178.5C205.169 179.095 203.29 179.428 201.393 179.489C202.583 178.634 203.76 177.772 204.966 176.945C205.281 176.781 205.626 176.686 205.98 176.669C208.918 176.224 211.81 175.515 214.621 174.55C217.755 173.682 220.934 172.927 224.135 172.085C225.856 171.646 227.573 171.239 229.303 170.839C229.697 170.749 230.096 170.729 230.856 170.615C229.572 172.031 227.983 173.138 226.21 173.852C223.27 175.38 220.21 176.831 217.209 178.134C215.654 178.846 214.067 179.234 212.484 179.774C212.194 179.833 211.906 179.907 211.624 179.994C208.358 181.317 205.091 182.641 201.874 183.994C199.587 184.983 197.182 185.674 194.718 186.05C190.731 186.67 186.804 187.597 182.835 188.297C181.969 188.393 181.094 188.383 180.23 188.266C179.12 188.105 178.001 188.007 176.88 187.973C174.564 188.073 172.252 188.328 169.941 188.499C169.076 188.564 168.21 188.578 167.37 188.575L167.272 188.059C168.503 187.516 169.692 186.88 170.973 186.418C174.432 184.995 178.125 184.223 181.866 184.142C185.616 184.01 189.34 183.465 192.972 182.519C193.78 182.295 194.606 182.135 195.44 182.043ZM195.991 178.737C193.965 179.826 192.527 182.207 189.701 181.535C191.653 180.35 193.335 178.44 195.991 178.737ZM188.907 179.979C187.968 180.755 187.196 181.4 186.418 182.024C186.202 182.209 185.969 182.5 185.724 182.516C183.718 182.833 181.682 182.921 179.656 182.778C182.709 181.069 185.497 179.783 188.907 179.979ZM186.219 158.115L186.546 158.319C185.685 160.64 184.842 162.957 183.908 165.233C183.513 166.322 183.045 167.384 182.51 168.413C182.119 169.293 181.551 170.084 180.841 170.734C178.994 172.135 177.034 173.38 174.981 174.457C175.279 173.86 175.633 173.293 176.039 172.763C177.021 171.713 177.813 170.5 178.38 169.18C179.275 167.317 180.342 165.527 181.318 163.698C181.536 163.353 181.712 162.982 181.84 162.594C182.539 160.29 184.52 159.407 186.181 158.175L186.219 158.115ZM187.317 155.336C186.851 156.727 185.686 156.788 184.786 157.286C185.408 156.391 186.292 155.71 187.317 155.336ZM188.974 151.93C188.692 153.217 187.855 153.721 186.385 153.677L188.974 151.93ZM172.976 170.21C174.444 167.107 175.944 164.007 177.625 161.02C179.866 157.246 182.41 153.66 185.233 150.299C186.376 148.647 187.413 146.924 188.338 145.141C189.631 143.072 190.923 141.004 192.294 139C192.473 138.766 192.63 138.514 192.762 138.25C193.529 136.188 195.279 135.163 197.034 134.106C197.958 133.541 198.846 132.901 199.75 132.289L200.065 132.485C199.175 134.502 198.296 136.527 197.362 138.534C196.492 140.613 195.505 142.641 194.406 144.61C193.3 146.771 191.727 148.662 189.804 150.144C189.67 150.264 189.518 150.362 189.353 150.434C186.311 151.292 184.818 153.656 183.541 156.29C182.809 157.784 181.853 159.155 181.061 160.61C180.269 162.066 179.617 163.459 178.899 164.877C178.18 166.296 177.559 167.64 176.791 168.977C176.103 170.078 175.319 171.119 174.648 172.246C173.71 173.747 172.93 175.345 172.033 176.887C171.789 177.346 171.452 177.748 171.042 178.068C168.857 179.494 166.625 180.859 164.405 182.23C164.283 182.302 164.147 182.346 164.006 182.357C163.865 182.368 163.723 182.346 163.591 182.294C163.917 181.929 164.267 181.585 164.638 181.266C168.256 178.294 171.114 174.505 172.976 170.21ZM141.914 176.687C144.181 175.16 146.417 173.598 148.713 172.106C150.025 171.243 151.375 170.539 152.702 169.787C155.219 168.45 157.729 167.125 160.239 165.8C160.964 165.358 161.744 165.014 162.56 164.778C162.25 165.152 161.917 165.504 161.563 165.836C155.655 171.01 149.714 176.129 143.813 181.239C141.432 183.3 139.174 185.539 136.752 187.558C133.696 190.107 130.526 192.516 127.377 194.972C125.682 196.284 123.954 197.543 122.241 198.828C121.973 199.072 121.665 199.265 121.329 199.401C118.9 200.138 117.151 202.022 114.981 203.206C112.811 204.39 110.789 205.634 108.661 206.86C108.033 207.211 107.331 207.412 106.612 207.447C107.668 206.471 108.792 205.572 109.976 204.755C111.463 203.892 112.869 202.896 114.175 201.778C115.606 200.536 117.259 199.533 118.777 198.396C120.56 197.105 122.347 195.833 124.13 194.542C126.049 192.991 128.064 191.566 130.163 190.27C130.999 189.625 131.756 188.885 132.417 188.062C134.015 186.554 135.593 185 137.229 183.567C139.466 181.6 141.797 179.593 144.139 177.675C145.218 176.784 146.423 176.04 147.57 175.226L147.19 174.703L140.588 179.24C140.57 178.737 140.683 178.237 140.915 177.79C141.147 177.342 141.492 176.962 141.914 176.687ZM114.311 205.193L117.26 203.57C116.155 205.016 115.77 205.229 114.296 205.218L114.311 205.193ZM138.844 178.639C137.998 180.262 137.936 182.057 135.947 182.817C136.746 181.297 136.643 179.416 138.829 178.663L138.844 178.639ZM135.279 180.952C135.135 182.393 133.941 183.094 133.454 184.169C133.01 185.405 132.216 186.487 131.171 187.284C131.582 185.766 132.124 184.286 132.79 182.863C133.501 182.084 134.343 181.437 135.279 180.952ZM102.46 206.366C105.885 204.116 109.433 202.044 112.755 199.662C114.385 198.374 115.866 196.907 117.17 195.289C119.823 192.56 122.702 190.06 125.776 187.815C127.067 186.772 128.444 185.832 129.805 184.866C130.156 184.661 130.525 184.486 130.906 184.343C130.297 186.099 129.785 187.645 129.236 189.169C129.066 189.412 128.843 189.612 128.585 189.755C125.072 192.388 121.593 195.075 118.04 197.666C115.8 199.311 113.458 200.825 111.178 202.428C109.77 203.415 108.383 204.45 107.004 205.472C104.172 207.638 101.008 209.33 97.6329 210.483C97.8671 210.065 98.1537 209.678 98.4861 209.334C99.8047 208.273 101.072 207.215 102.49 206.317L102.46 206.366ZM92.474 199.033C92.6255 197.446 93.9859 196.614 96.4923 196.346C95.851 198.368 93.9309 198.211 92.5044 198.985L92.474 199.033ZM98.9367 193.215C98.5894 193.771 98.2416 194.327 97.8709 194.92L95.4651 194.813L95.3727 194.503L98.6239 192.935L98.9367 193.215ZM44.928 243.925L44.7313 241.548C45.9799 240.949 46.8509 241.358 47.8925 242.329L44.928 243.925ZM143.066 207.013C145.449 205.806 148.19 205.504 150.779 206.163C151.54 206.286 152.307 206.361 153.077 206.389C154.978 206.562 156.836 207.057 158.571 207.854C160.706 208.717 162.882 209.488 165.049 210.22C169.706 211.649 174.4 212.968 179.054 214.43C179.758 214.794 180.398 215.268 180.952 215.834L180.753 216.315C180.362 216.36 179.968 216.379 179.574 216.369C173.992 215.908 168.4 215.408 162.839 214.995C161.839 214.925 160.816 215.11 159.822 215.112C157.978 215.103 156.155 215.057 154.306 215.029C152.828 214.997 151.324 214.848 149.857 214.907C144.215 215.14 138.563 214.76 133.002 213.778C131.25 213.493 129.482 213.31 127.709 213.228C124.21 213.095 120.699 213.222 117.205 212.973C113.711 212.724 110.515 212.157 106.812 211.676C107.332 211.328 107.649 210.955 108.012 210.913C111.649 210.477 115.409 210.084 119.116 209.861C120.992 209.738 122.893 210.034 124.802 210.049L136.369 210.381C137.256 210.414 138.145 210.499 139.038 210.551C142.363 210.757 145.681 210.956 148.99 211.152C149.445 211.153 149.898 211.127 150.35 211.077L150.379 210.708L139.502 209.109C140.89 208.26 141.98 207.646 143.066 207.013ZM101.179 221.58C98.2469 222.287 95.2076 222.575 92.2228 223.099C90.0878 223.446 87.9117 223.887 85.7772 224.37C84.1724 224.729 82.5838 225.2 80.9851 225.631C80.754 225.705 80.5244 225.83 80.2971 225.924C80.2746 225.691 80.2718 225.454 80.2606 225.229C84.2515 222.771 88.4159 220.605 92.7198 218.749C93.0015 218.663 93.279 218.561 93.5502 218.445C96.1354 216.983 98.9953 216.072 101.95 215.77C106.757 215.049 111.616 214.709 116.478 214.756C119.188 214.995 121.883 215.392 124.547 215.946C126.786 216.268 129.022 216.539 131.273 216.785C132.35 216.919 133.45 217.018 134.534 217.14L134.525 217.504L128.083 218.122L112.465 219.616C108.661 219.998 104.889 220.653 101.179 221.58ZM98.4287 225.496C98.6558 224.864 98.8335 224.336 99.0935 223.624L104.278 222.49C102.889 224.953 100.535 224.844 98.4287 225.496ZM97.3084 224.274C95.7403 225.195 94.3931 226.625 92.3186 226.472C93.9486 225.775 95.1399 223.895 97.3084 224.274ZM133.816 205.959C134.149 205.831 134.592 205.822 134.811 205.605C136.031 204.299 137.512 204.703 138.997 204.856C140.481 205.011 141.673 205.285 143.017 205.502L143.098 205.856C140.238 206.827 137.597 208.389 134.525 208.808C136.006 207.463 138.088 207.065 139.569 205.77C139.533 205.649 139.489 205.532 139.437 205.418C139.184 205.398 138.93 205.415 138.682 205.468C136.635 206.24 134.58 207.026 132.549 207.825C132.104 207.992 131.687 208.225 131.31 208.515C130.641 209.022 130.012 208.898 129.124 208.595C130.534 207.466 132.119 206.576 133.816 205.959ZM126.853 207.143C127.776 206.712 128.659 206.2 129.492 205.612C130.849 204.408 132.375 204.605 134.02 204.96L125.28 208.717L125.067 208.332C125.633 207.911 126.234 207.513 126.853 207.143ZM128.513 205.32L124.329 207.198C123.787 207.447 123.26 207.724 122.751 207.894C122.395 208.095 122.001 208.222 121.594 208.264C116.429 208.228 111.284 208.914 106.308 210.302C105.684 210.467 105.124 210.824 104.533 211.043C103.311 211.491 102.078 211.931 100.847 212.339C99.6159 212.747 98.7613 212.635 98.2234 213.845C97.9813 214.233 97.206 214.37 96.7058 214.579L94.5915 215.512C92.8146 216.337 91.0975 217.281 89.2648 217.954C87.2945 218.79 85.4135 219.824 83.6522 221.04C80.4576 223.072 77.1023 224.841 73.6199 226.327C73.225 226.476 72.854 226.68 72.5174 226.934C72.3235 227.082 72.1544 227.515 72.1936 227.639C72.3517 227.94 72.6115 228.173 72.9262 228.299C73.1433 228.435 73.5024 228.239 73.8086 228.178C75.4813 227.848 77.1292 227.405 78.7412 226.852C81.1878 226.112 83.689 225.566 86.2209 225.219C88.4182 224.826 90.6489 224.622 93.2908 224.271C93.0452 224.591 92.7657 224.886 92.4576 225.146C91.395 225.646 90.3784 226.238 89.4183 226.914C88.407 227.754 87.1583 228.255 85.8467 228.35C82.9069 228.666 79.9664 228.93 77.022 229.227C76.8014 229.28 76.5862 229.354 76.379 229.448C77.1989 230.128 78.0229 229.886 78.7897 229.844C81.9247 229.7 85.0649 229.492 88.1907 229.31C88.275 229.362 88.4489 229.353 88.5425 229.311C91.0525 227.986 93.8217 228.051 96.4737 227.386C98.4393 226.932 100.488 226.346 102.511 225.962C104.534 225.577 106.163 225.501 108.023 225.217C110.48 224.784 112.914 224.253 115.332 223.695C116.1 223.469 116.847 223.175 117.562 222.818C116.799 222.021 116.171 222.352 115.57 222.481L105.098 224.702C104.862 224.756 104.622 224.791 104.213 224.855C104.802 223.911 105.226 223.233 105.695 222.266C115.433 220.672 125.245 219.577 135.096 218.987C133.776 220.039 132.194 220.709 130.521 220.924C128.061 221.383 125.692 222.245 123.511 223.474C121.557 224.338 119.532 225.032 117.457 225.544C115.564 226.043 113.654 226.247 111.726 226.64C108.696 227.236 105.696 227.918 102.642 228.499C98.1443 229.289 93.6513 230.181 89.1177 230.679C85.361 231.271 81.5385 231.313 77.7695 230.804C76.9408 230.68 76.1009 230.652 75.2657 230.719C72.4692 230.752 69.678 230.481 66.9408 229.908C66.3494 230.128 65.7586 230.347 65.0386 230.637L64.9558 231.981C59.8665 234.958 54.8165 237.925 49.5834 240.997L47.4783 239.682C47.8089 239.405 48.1588 239.151 48.5248 238.923C51.7874 237.362 55.1096 235.921 58.3011 234.233C59.965 233.192 61.5698 232.061 63.1097 230.845C63.6259 230.386 64.2451 230.059 64.9151 229.892C65.5851 229.725 66.285 229.723 66.956 229.884C66.8082 229.808 66.6664 229.72 66.533 229.62C66.4184 229.453 66.3125 229.28 66.2169 229.103C66.836 228.514 67.535 227.908 68.1732 227.263C68.7519 226.694 69.2928 226.088 69.7939 225.45C70.8564 224.046 71.9035 222.613 72.9128 221.159C73.4723 220.263 74.0393 219.356 74.5983 218.461C74.8211 218.204 75.0687 217.97 75.3383 217.762L75.3985 217.666C75.187 215.851 76.4051 214.493 77.1583 213.046C78.2305 211.008 79.5228 209.073 80.8322 207.167C83.0321 203.646 85.2321 200.126 87.7018 196.792C89.1686 194.693 90.8762 192.774 92.7897 191.073C98.2054 186.416 103.79 181.949 109.455 177.297C109.312 178.472 108.826 179.578 108.057 180.477C105.68 184.038 103.306 187.433 100.931 190.911C100.507 191.589 100.078 192.06 99.0694 191.951C98.6288 191.878 98.1156 192.214 97.6328 192.366L97.4111 192.075C98.0549 191.368 98.7351 190.683 99.3589 189.928C99.9814 189.174 100.494 188.435 101.088 187.645C100.422 186.961 99.9493 187.287 99.5361 187.786C98.0759 189.531 96.5824 191.222 95.1943 193.012C92.3711 196.614 89.6623 200.304 86.8102 203.871C84.9556 206.194 82.9297 208.359 81.0214 210.633C78.977 212.803 77.1251 215.146 75.4851 217.635L75.4471 217.696L77.345 217.351C78.6572 214.95 80.367 212.787 82.4002 210.956C85.2156 208.058 87.7829 204.931 90.0767 201.606C90.9764 200.166 92.2355 200.196 93.928 200.127C93.2851 201.114 92.5935 202.068 91.855 202.986C90.7135 204.274 89.4136 205.413 88.2837 206.709C86.5223 208.72 84.8861 210.827 83.1368 212.846C82.188 213.935 81.0812 214.925 80.0587 215.968C79.3132 216.731 78.5919 217.508 77.8585 218.278C76.3963 219.837 74.8822 221.346 73.4724 222.955C72.7031 223.836 72.8714 224.16 73.7708 224.605C76.2367 223.134 78.5539 221.689 80.9408 220.372C83.7953 218.791 86.747 217.271 89.6622 215.729C90.654 215.054 91.8243 214.69 93.0238 214.684C93.2271 214.685 93.4292 214.641 93.6152 214.558C93.801 214.473 93.9668 214.35 94.1012 214.197C95.831 211.913 98.3683 210.707 101.128 209.386C100.886 210.715 99.5431 210.684 99.177 211.834C108.495 207.949 118.426 205.745 128.513 205.32ZM135.809 195.582C135.681 195.787 135.66 196.145 135.439 196.174C134.346 196.668 133.223 197.089 132.076 197.437C128.278 198.574 124.61 200.112 121.137 202.024C120.301 202.424 119.427 202.74 118.528 202.967C123.051 199.927 127.917 197.435 133.025 195.542C133.733 196.185 134.34 195.672 134.964 195.373L133.754 194.617L136.594 193.734C136.996 193.645 137.391 193.526 137.775 193.379C142.462 191.261 147.188 189.487 151.931 187.657C152.776 187.327 153.783 187.384 154.654 187.122C155.541 186.818 156.41 186.461 157.255 186.055C156.202 187.094 154.922 187.872 153.514 188.327C152.094 188.791 150.715 189.368 149.389 190.055C149.819 190.929 150.433 191.077 150.983 190.816C152.336 190.079 153.866 189.725 155.406 189.795C155.584 189.78 155.753 189.709 155.886 189.591C156.848 189.017 157.749 188.344 158.571 187.584C160.242 185.769 162.556 185.028 164.559 183.789C166.559 182.551 168.758 181.805 170.471 180.167C170.88 179.783 171.615 179.737 172.147 179.532C172.639 178.757 173.216 178.041 173.869 177.395C175.549 176.107 177.351 174.945 179.117 173.761C179.234 173.691 179.366 173.647 179.503 173.633C179.639 173.619 179.777 173.637 179.906 173.682C180.692 174.173 181.223 173.782 181.554 173.198C183.269 170.132 186.266 168.539 189.082 166.833C193.844 163.922 198.735 161.209 203.581 158.434C203.985 158.181 204.409 157.962 204.849 157.779C209.275 155.906 213.589 153.777 217.765 151.401C220.055 150.148 222.521 149.25 225.081 148.739C224.292 149.491 223.538 150.265 222.733 150.99C221.927 151.714 221.292 152.057 220.694 152.692C218.351 154.98 215.78 157.02 213.02 158.781C210.711 160.142 208.568 161.766 206.632 163.62C205.854 164.354 204.982 164.98 204.039 165.482C200.586 167.698 197.122 169.873 193.658 172.081C189.814 174.682 185.798 177.017 181.637 179.07C177.928 180.806 174.172 182.429 170.395 184.005C169.32 184.46 167.921 184.276 167.005 184.881C166.126 185.607 165.19 186.259 164.204 186.832C161.434 188.061 158.725 189.464 155.868 190.454C152.037 191.794 148.246 193.446 144.075 193.446C143.835 193.422 143.595 193.463 143.377 193.566C141.104 194.957 138.474 195.657 135.809 195.582ZM216.855 203.331C213.075 203.593 209.287 203.816 205.49 204.05C201.27 204.168 197.048 203.927 192.869 203.331C191.405 203.172 189.912 203.165 188.443 203.037C183.866 202.854 179.283 202.945 174.717 203.309C171.27 203.439 167.822 203.084 164.474 202.256C162.464 201.758 160.557 200.852 158.605 200.154C155.516 199.081 152.32 198.347 149.072 197.965C146.422 197.604 143.748 197.414 141.156 197.174C140.827 197.135 140.5 197.067 139.788 196.94C140.18 196.71 140.585 196.502 141.001 196.319C141.346 196.198 141.751 196.249 142.042 196.079C144.97 194.409 148.166 195.027 151.288 194.959C154.967 194.886 158.652 194.749 162.336 194.614C164.684 194.516 167.024 194.38 169.758 194.204C169.42 194.516 169.049 194.793 168.654 195.028C167.706 195.361 166.786 195.764 165.899 196.234C164.29 197.166 162.396 197.479 160.573 197.111C157.397 196.809 154.313 196.361 151.183 195.987C150.993 195.969 150.768 196.114 150.285 196.266C150.584 196.519 150.919 196.728 151.277 196.887C153.609 197.301 155.955 197.691 158.302 198.081C159.337 198.257 160.383 198.439 161.427 198.653C164.23 199.228 167.051 198.4 169.841 198.646C172.15 198.776 174.463 198.784 176.773 198.672C177.18 198.702 177.587 198.764 177.985 198.858C178.327 198.903 178.725 199.101 178.986 198.979C180.729 198.183 182.54 198.676 184.212 198.88C186.217 199.09 188.231 199.205 190.236 199.414C191.277 199.526 192.285 199.77 193.351 199.948C193.67 198.818 193.661 198.644 192.484 198.481C190.621 198.208 188.706 198.121 186.817 197.967L182.837 197.499C183.11 197.097 183.438 196.735 183.811 196.426C185.18 195.428 186.874 194.985 188.556 195.185C191.429 195.703 194.287 196.244 197.107 196.979C198.914 197.452 200.664 198.26 202.477 198.804C203.772 199.201 205.095 199.504 206.434 199.712C208.132 199.983 209.827 200.151 211.558 200.341C212.201 200.472 212.832 200.648 213.451 200.867C214.75 201.264 216.044 201.669 217.334 202.082C217.684 202.223 218.024 202.391 218.35 202.583L218.314 202.881C217.842 203.07 217.353 203.221 216.855 203.331ZM193.509 144.805C193.405 145.162 193.421 145.541 193.249 145.652C192.258 146.379 191.245 147.058 190.255 147.752C189.793 148.034 189.246 148.668 188.763 147.879C188.281 147.089 188.868 146.716 189.413 146.435C190.661 145.785 191.765 144.691 193.509 144.805ZM123.418 168.141C126.282 167.618 129.084 166.799 131.777 165.694C132.968 165.16 134.159 164.575 135.361 164.132C138.593 162.971 141.727 161.555 144.735 159.897C149.839 157.306 154.568 154.038 158.797 150.18C159.271 149.743 159.653 149.215 159.919 148.627C160.044 148.143 160.079 147.641 160.022 147.144C159.522 147.135 158.975 146.961 158.549 147.132C155.609 148.256 152.637 149.326 149.803 150.684C148.436 151.397 146.985 151.937 145.485 152.291C142.87 152.76 140.502 153.938 137.75 153.901C137.584 153.897 137.413 154.01 137.248 154.058C134.939 154.819 132.649 155.658 130.3 156.294C127.091 157.148 123.83 157.818 120.581 158.631C119.02 159.001 117.443 159.345 115.935 159.848C113.992 160.589 111.974 161.11 109.917 161.403C108.441 161.578 106.977 161.843 105.534 162.198C103.112 162.736 100.691 163.326 98.2627 163.928C96.7617 164.272 95.2794 164.693 93.8233 165.191C91.4338 166.053 89.1044 167.036 86.7362 167.945C86.7362 167.945 86.5547 167.832 86.3489 167.703C86.5459 167.418 86.7687 167.152 87.0147 166.908C89.6745 164.617 92.3574 162.341 94.9915 160.118C98.099 157.317 101.964 155.496 106.102 154.882C108.92 154.49 111.712 153.845 114.569 153.445C117.427 153.044 120.565 153.002 123.536 152.555C126.508 152.107 129.817 151.332 132.949 150.682C134.511 150.362 136.065 149.921 137.643 149.712C141.371 149.21 145.05 148.384 148.637 147.247C149.712 146.863 150.752 146.387 151.745 145.825C153.005 145.182 154.189 144.391 155.456 143.736C158.672 142.061 161.904 140.415 165.13 138.78C166.085 138.3 167.074 137.876 167.997 137.342C170.148 136.079 172.279 134.769 174.401 133.472C176.525 132.174 178.578 130.934 180.632 129.61C181.344 129.147 182.16 128.647 182.086 127.609C180.712 126.549 180.708 126.529 179.356 126.996C178.568 127.261 177.811 127.612 177.095 127.922C174.948 128.666 172.871 129.488 170.734 130.188C169 130.8 167.225 131.293 165.422 131.662C161.387 132.387 157.316 132.871 153.288 133.584C148.555 134.428 143.842 135.403 139.132 136.344C136.866 136.796 134.594 137.227 132.357 137.848C128.86 138.813 125.397 139.868 121.969 141.011C119.374 141.879 116.882 142.879 114.309 143.929C113.112 144.392 111.919 144.925 110.731 145.428L110.5 145.099C111.066 144.543 111.66 144.023 112.196 143.433C115.41 139.906 119.125 136.872 123.223 134.427C123.83 134.052 124.417 133.643 124.98 133.204C127.753 131.136 130.478 129.036 133.255 126.987C135.851 125.094 138.481 123.255 141.122 121.424C142.069 120.77 142.879 119.796 144.267 120.024C144.501 120.053 144.79 119.779 145.047 119.637C146.214 118.819 147.463 118.085 148.792 117.385C149.763 116.796 150.792 116.312 151.865 115.94C155.974 114.721 160.304 114.444 164.535 115.128C166.633 115.43 168.781 115.493 170.886 115.732C172.014 115.722 173.133 115.935 174.178 116.359C175.936 117.206 177.774 117.9 179.611 118.593C181.851 119.215 183.964 120.223 185.858 121.572C186.027 121.737 186.228 121.863 186.45 121.942C189.13 122.742 191.804 123.605 194.495 124.278C198.469 125.214 202.494 126.013 206.504 126.837C209.698 127.486 212.917 128.068 216.114 128.686C216.755 128.818 217.386 128.993 218.037 129.081C220.864 129.485 223.704 129.729 226.489 130.308C228.066 130.638 229.859 130.513 231.127 131.877C231.332 132.005 231.693 132.047 231.984 132.093C233.443 132.315 234.914 132.545 236.392 132.711C236.9 132.838 237.433 132.822 237.934 132.665C238.574 132.358 239.304 132.289 239.99 132.47C240.384 132.514 240.811 132.26 241.232 132.153C241.143 131.71 240.992 131.281 240.783 130.88C240.522 130.639 240.218 130.449 239.887 130.32C237.867 129.058 235.859 127.803 233.838 126.54C232.899 125.726 231.915 124.965 230.889 124.26C228.795 123.153 226.564 122.324 224.254 121.796C219.161 120.587 214.265 118.661 209.714 116.075C209.459 115.916 209.206 115.757 208.997 115.525C206.848 114.065 204.766 112.445 202.51 111.153C196.81 108.061 190.577 106.073 184.139 105.291L183.609 105.195C179.678 104.538 175.688 104.301 171.706 104.486C171.314 104.494 170.938 104.477 170.26 104.458C170.512 104.176 170.783 103.913 171.072 103.67C173.426 102.164 175.776 100.638 178.152 99.1783C180.527 97.7188 183.345 96.2506 185.76 94.5124C188.559 92.4149 191.004 89.8826 193.004 87.012C193.404 86.4247 193.874 85.8882 194.405 85.4155C196.78 83.4173 199.139 81.393 201.605 79.5188C204.318 77.3982 206.693 74.878 208.648 72.0435C209.022 71.4357 209.456 70.8675 209.943 70.3472C212.86 67.5459 216.031 65.022 219.415 62.809C221.636 61.3532 223.669 59.5795 225.818 57.9448C225.96 57.8475 226.08 57.722 226.172 57.5762C226.262 57.4311 226.324 57.2679 226.349 57.0977C226.375 56.9281 226.365 56.7542 226.321 56.5882C226.277 56.4222 226.2 56.2668 226.093 56.1321C225.671 55.5151 225.046 55.8141 224.498 55.9928C223.356 56.3395 222.227 56.6931 221.075 56.9488C218.35 57.5681 215.558 57.9429 212.911 58.7607C209.801 59.7276 206.804 61.0511 203.76 62.2608C201.135 63.2134 198.598 64.3914 196.177 65.7823C193.823 67.2876 191.635 69.038 189.65 71.0051C185.567 74.8467 181.387 78.5756 177.218 82.3124C175.796 83.5935 174.27 84.7424 172.698 86.0484C173.015 85.136 173.311 84.3112 173.599 83.5C174.519 80.2992 175.867 77.2366 177.606 74.3966C178.541 72.9395 179.336 71.3969 179.979 69.7902C180.082 69.5287 180.125 69.2482 180.109 68.9677C180.092 68.688 180.015 68.4145 179.884 68.1668C179.476 67.6086 178.797 67.9414 178.28 68.2576C177.859 68.4914 177.466 68.7694 177.105 69.0879C174.735 71.5086 172.323 73.8875 170.011 76.4301C168.73 77.8324 167.751 79.5084 166.527 80.9814C164.689 83.1969 162.787 85.2715 160.85 87.3746C160.737 87.5561 160.547 87.6728 160.192 88.0236L160.161 86.9437C160.325 84.9304 160.277 82.9042 160.018 80.9004C159.963 80.4333 160.002 79.9592 160.132 79.5076C160.285 78.6956 160.599 77.8987 160.682 77.0932C161.154 73.9104 161.951 70.7842 163.062 67.7647C163.78 65.5216 164.454 63.2572 165.086 60.9716C166.296 56.8572 168.102 52.9415 170.447 49.3505C171.203 48.1408 171.882 46.7318 173.433 46.3223C173.418 44.731 173.159 44.2832 172.334 44.609C170.092 45.4254 168.023 46.654 166.235 48.2325C164.084 50.3765 162.314 52.8715 161.001 55.6104C160.109 57.2995 158.861 58.7749 157.341 59.9334C154.891 61.7404 152.984 64.1858 151.83 67.0038C150.621 70.2847 149.412 73.5662 148.462 76.9431C147.637 79.6902 147.099 82.5165 146.374 85.4788C145.34 83.0154 144.342 80.8447 143.452 78.6066C141.746 74.2593 138.509 71.0931 135.223 67.9798C132.387 65.5247 129.809 62.7861 127.528 59.8075C126.108 57.8271 124.51 55.9702 122.951 54.1045C122.647 53.7296 121.924 53.2446 121.741 53.3486C121.243 53.709 120.858 54.2037 120.632 54.7745C120.476 55.225 120.424 55.7038 120.479 56.1764C120.551 57.5465 120.954 58.8777 121.654 60.0564C122.89 62.3596 124.194 64.6877 125.337 67.0843C127.276 71.2928 129.642 75.2903 132.398 79.0155C134.998 82.4486 136.966 86.316 138.213 90.4376C139.302 94.3901 139.957 98.4489 140.169 102.544C140.461 104.545 140.47 106.578 140.197 108.583C140.013 109.444 140.099 110.355 139.983 111.241C139.923 111.762 139.753 112.263 139.483 112.712C136.438 117.318 131.971 120.347 127.254 123.725C127.471 122.919 127.577 122.48 127.719 122.064C128.587 119.545 129.486 117.029 130.33 114.494C131.261 111.712 132.144 108.899 133.01 106.194C133.217 105.567 133.504 104.972 133.648 104.339C133.926 103.167 133.503 102.767 132.362 103.031C131.989 103.117 131.596 103.073 131.214 103.172C130.834 103.27 130.243 103.354 129.989 103.651C129.04 104.74 128.142 105.962 127.271 107.167C126.4 108.373 125.895 109.368 125.058 110.359C121.488 114.672 117.885 118.931 114.287 123.208C114.023 123.632 113.543 123.888 112.889 124.504L113.115 123.469C113.984 119.79 115.895 116.543 117.221 113.048C118.175 110.798 118.969 108.485 119.598 106.123C120.026 104.154 120.604 102.221 121.327 100.341C122.182 98.4334 122.65 96.3769 122.704 94.2878C122.634 92.3265 122.596 90.3686 122.499 88.4232C122.357 85.2055 122.207 81.9999 122.005 78.7959C121.909 75.8706 121.016 73.0278 119.423 70.5722C119.07 70.1003 118.836 69.5511 118.743 68.9687C118.646 68.3178 118.379 67.7035 117.967 67.1891C117.555 66.6753 117.014 66.2787 116.4 66.0421C115.371 65.3996 114.35 66.0389 114.352 67.3019C114.379 68.2462 114.509 69.1848 114.739 70.1003C115.21 71.5676 115.388 73.113 115.261 74.6491C115.073 75.9447 114.886 77.2408 114.543 78.4898C114.288 79.7884 113.944 81.0682 113.512 82.3195C112.221 85.6511 110.813 88.9265 109.542 92.2535C108.271 95.5806 107.252 98.6101 106.029 101.833C104.066 106.888 102.995 112.246 102.863 117.668C102.802 119.514 102.647 121.351 102.606 123.193C102.582 124.255 102.756 125.322 102.803 126.377C103.076 128.441 102.911 130.539 102.319 132.535C101.815 133.81 101.43 135.13 101.17 136.475C100.917 138.182 100.394 139.837 99.6202 141.378C99.0166 142.845 98.2779 144.253 97.4126 145.584C95.3992 148.24 93.5471 151.014 91.8666 153.893C91.3107 154.647 90.6704 155.337 89.9607 155.948C89.549 156.363 89.02 156.672 88.5726 157.066C86.3469 159.039 84.1455 161.028 81.932 163.009C81.7436 163.13 81.5471 163.237 81.3433 163.33C81.3376 162.894 81.3685 162.457 81.4353 162.026C81.9921 159.548 82.4999 157.039 83.176 154.585C84.3127 150.45 85.5728 146.36 86.7582 142.256C87.0078 141.401 87.183 140.525 87.2822 139.64C87.6965 136.097 87.8759 132.525 88.5173 129.023C89.0514 126.567 89.2158 124.045 89.0043 121.54C88.4177 116.531 87.6489 111.543 86.9514 106.548C86.815 105.555 86.7849 104.527 86.5503 103.555C85.8573 100.734 85.045 97.8884 84.3343 95.1222C83.8643 93.3988 83.3464 91.6961 82.8217 90.0062C82.5815 89.233 81.9504 88.9232 81.5138 89.4074C80.4477 90.5743 78.8906 91.3173 78.4944 93.0549C78.2113 93.8379 77.8802 94.6022 77.501 95.3443C76.4532 97.7766 75.5706 100.276 74.8604 102.828C74.3245 105.799 73.9868 108.802 73.8505 111.819C73.6438 114.6 73.7379 117.383 73.5039 120.18C73.0025 124.914 72.416 129.593 71.6648 134.322C71.0495 137.307 70.6019 140.323 70.3242 143.359C70.2414 145.376 69.8965 147.381 69.7902 149.383C69.5491 151.51 69.5375 153.658 69.7573 155.788C70.3282 159.675 70.5291 163.609 70.357 167.534C70.3074 172.034 68.6348 176.364 65.6466 179.729C65.1694 180.26 64.7244 180.819 64.3142 181.403C61.7566 185.255 59.227 189.141 56.6567 192.985C54.9134 195.613 53.093 198.177 51.3257 200.79C50.9135 201.41 50.7343 202.157 50.8192 202.897C50.9055 203.637 51.2505 204.324 51.7939 204.833C54.4306 206.481 58.2381 206.202 59.5812 203.139C60.1556 201.816 60.8426 200.446 61.5204 199.12C62.1081 197.815 62.8058 196.563 63.6067 195.377C65.1638 193.289 66.9198 191.341 68.5658 189.325C69.2839 188.444 69.9584 187.554 70.6644 186.666C73.1079 183.618 75.2167 180.243 79.0706 178.597C80.8497 177.537 82.7223 176.64 84.6641 175.918C88.5796 174.975 92.5523 174.282 96.5564 173.846C100.626 173.362 104.68 172.726 108.715 171.939C112.538 171.375 116.304 170.481 119.973 169.269C121.093 168.804 122.25 168.43 123.431 168.148L123.418 168.141ZM117.782 160.633L117.968 160.497C120.271 159.934 122.575 159.423 124.844 158.805C129.176 157.609 133.622 156.872 137.877 155.393C140.263 154.563 142.798 154.195 145.25 153.608L145.406 154.058C143.478 154.856 141.567 155.68 139.647 156.465C137.726 157.25 136.232 157.998 134.509 158.604C132.392 159.3 130.328 159.911 128.226 160.582C126.125 161.253 124.323 161.928 122.364 162.588C121.53 162.873 120.652 163.2 120.149 161.961C119.348 162.57 118.026 162.316 118.021 163.642C117.211 163.808 116.426 164.445 115.373 163.788C116.081 163.354 116.686 162.926 117.279 162.622C117.458 162.541 117.619 162.424 117.752 162.277C117.883 162.13 117.983 161.957 118.045 161.769C118.107 161.583 118.129 161.384 118.11 161.187C118.092 160.991 118.032 160.8 117.936 160.628L117.771 160.677C116.636 161.498 115.508 162.307 114.368 163.109C114.315 163.193 114.061 163.034 113.898 162.999L113.761 163.082C113.253 163.573 112.715 164.111 112.242 164.572L111.97 164.2C112.568 163.834 113.163 163.449 113.761 163.082C113.761 163.082 113.837 162.962 113.867 162.913C114.669 161.227 116.282 161.041 117.794 160.64L117.782 160.633ZM110.591 162.666C111.057 162.351 111.754 162.366 112.336 162.242L112.514 162.657L107.945 165.554L107.576 165.122C108.592 164.276 109.547 163.393 110.603 162.674L110.591 162.666ZM108.141 162.817C106.824 164.476 105.082 165.748 103.1 166.497C103.552 166.123 104 165.73 104.476 165.372C104.952 165.013 105.55 164.596 105.175 163.689L108.141 162.817ZM146.065 136.287C151.366 135.663 156.607 134.464 161.883 133.774C165.052 133.33 168.181 132.642 171.243 131.716C172.463 131.352 173.647 130.83 174.9 130.52C173.27 131.949 171.309 132.95 169.195 133.432C167.23 133.885 165.131 134.256 163.117 134.68C161.952 134.928 160.805 135.202 159.662 135.497C154.799 136.765 149.933 138.064 145.083 139.34C144.784 139.386 144.481 139.411 144.178 139.414C144.533 138.845 144.76 138.482 145.161 137.841C142.55 138.144 141.091 140.479 138.342 140.813C140.778 138.584 142.818 136.664 146.065 136.287ZM132.9 138.943C133.652 138.8 134.415 138.713 135.18 138.686C135.18 138.686 135.233 138.602 135.263 138.553C136.64 137.99 138.113 137.699 139.6 137.697C137.68 139.964 135.051 141.516 132.138 142.101C133.05 141.342 133.896 140.66 134.738 139.958C135.178 139.577 135.693 139.209 135.24 138.589L135.129 138.605C133.099 140.077 131.088 141.546 129.021 142.996C128.302 143.538 127.426 143.835 126.524 143.842C127.07 142.998 127.824 142.31 128.714 141.846C129.212 141.534 129.976 141.254 130.089 140.803C130.624 139.355 131.783 139.221 132.9 138.943ZM127.003 145.688C129.671 145.051 132.221 144.121 134.817 143.304C136.065 142.923 137.244 141.978 138.626 143.077C138.808 143.19 139.426 142.955 139.712 142.712C140.584 141.974 141.628 141.47 142.749 141.245C146.037 140.424 149.326 139.602 152.583 138.695C155.842 137.787 159.084 136.718 162.472 135.874C164.109 135.434 165.817 135.256 167.754 134.903C167.441 135.244 167.399 135.471 167.213 135.473C163.136 136.777 159.678 139.293 155.944 141.232C152.173 143.385 148.155 145.071 143.977 146.252C142.286 146.642 140.502 146.805 138.829 147.14C134.741 147.95 130.7 148.789 126.575 149.575C124.09 149.974 121.555 150.206 118.981 150.583C115.703 151.04 112.431 151.537 109.079 151.813C111.789 150.681 114.574 149.696 117.165 148.456C120.307 146.819 123.688 146.442 126.955 145.658L127.003 145.688ZM104.772 149.795C106.74 148.72 108.87 147.949 110.937 147.037C114.545 145.375 118.238 143.904 122 142.629C124.095 141.97 126.174 141.334 128.26 140.687L128.339 140.938C126.749 142.165 125.133 143.376 123.538 144.666C123.291 144.821 123.012 144.918 122.722 144.947C119.794 145.22 117.303 146.675 114.667 147.769C111.609 149.333 108.45 150.692 105.212 151.837C103.416 152.396 101.777 153.054 100.037 153.766C97.4718 154.76 95.2596 156.492 93.6805 158.743C93.369 159.121 93.0232 159.467 92.6467 159.779C89.8047 162.495 86.952 165.204 84.1797 167.945C82.4158 169.684 80.4287 171.181 78.2704 172.395C78.3583 172.067 78.4833 171.75 78.6428 171.449C80.3323 169.31 82.0232 167.17 83.7618 165.06C84.3995 164.281 85.18 163.625 85.8906 162.892C87.546 161.184 89.1651 159.455 90.797 157.732C91.5197 157.006 92.0833 155.997 93.4356 156.202C93.7692 156.259 94.1988 155.921 94.5524 155.705C97.9651 153.716 101.296 151.644 104.724 149.765L104.772 149.795ZM183.938 110.43C185.347 109.629 186.793 108.85 188.226 108.064C189.005 107.625 189.651 107.963 190.452 108.379C188.063 109.51 185.765 110.496 183.421 111.554L183.197 111.213C183.41 110.922 183.659 110.66 183.938 110.43ZM171.215 106.888C172.676 106.757 174.139 106.865 175.549 106.87L176.17 106.603L179.202 107L179.342 106.937L179.415 106.982C182.031 106.82 184.658 107.056 187.205 107.678C186.473 108.096 186.027 108.406 185.539 108.622C183.499 109.27 181.522 110.1 179.632 111.104C179.472 111.224 179.111 111.048 178.65 110.978C179.911 109.445 182.04 109.565 183.054 107.994C180.299 108.258 178.04 109.908 175.482 110.665L175.278 110.318C175.998 109.893 176.663 109.501 177.413 109.028C178.163 108.554 178.757 108.304 179.406 107.885C180.054 107.466 179.715 107.254 179.472 106.917L179.376 106.856C178.272 107.412 177.156 107.959 176.047 108.494C174.939 109.03 173.818 109.641 172.712 110.145C172.478 110.25 172.187 110.204 171.779 109.915C172.8 109.359 173.779 108.759 174.813 108.262C175.181 108.151 175.508 107.936 175.755 107.641C176.001 107.347 176.157 106.987 176.202 106.606C176.118 106.74 175.92 106.867 175.786 106.868L175.549 106.87C174.273 107.403 173.006 107.923 171.741 108.495C170.932 108.847 170.17 109.313 169.337 109.651C168.993 109.71 168.643 109.717 168.296 109.673L168.215 109.319C168.863 108.901 169.539 108.465 170.166 108.082C170.151 107.976 170.127 107.871 170.093 107.768C169.739 107.721 169.381 107.724 169.028 107.775C168.142 108.062 167.304 108.381 166.382 108.78C165.796 108.969 165.177 109.031 164.565 108.96C163.954 108.889 163.366 108.685 162.84 108.366C163.169 108.134 163.325 107.912 163.518 107.899C166.028 107.515 168.639 107.162 171.2 106.912L171.215 106.888ZM194.446 68.5526C198.388 65.8904 202.711 63.8453 207.27 62.4857C209.432 61.7175 211.654 60.8529 213.779 60.1447C216.384 59.3671 219.032 58.8181 221.725 58.1965L221.952 58.6405C220.986 59.532 219.964 60.3601 218.89 61.1177C214.001 64.1954 209.479 67.8209 205.41 71.9213C204.737 72.5947 204.24 73.4445 203.523 74.1064C201.866 75.6283 200.215 77.0855 198.401 78.5091C195.25 80.9595 192.353 83.7189 189.754 86.7479C188.525 88.0267 187.214 89.2245 185.831 90.335C185.471 90.6442 185.09 90.929 184.692 91.1873C182.989 92.3778 181.246 93.5263 179.587 94.7261C177.929 95.9272 176.14 97.1472 174.557 98.4967C172.624 100.185 170.451 101.577 168.109 102.626C166.592 103.276 165.206 104.176 163.736 104.94C163.336 105.119 162.924 105.266 162.502 105.38C162.581 104.943 162.75 104.53 162.999 104.164C163.248 103.798 163.571 103.488 163.947 103.254C167.425 100.112 171.008 97.0694 174.387 93.8154C176.815 91.4637 178.893 88.7582 181.275 86.3451C182.644 84.9627 184.281 83.8497 185.784 82.602C187.049 81.6304 188.261 80.5907 189.413 79.4864C192.118 76.7847 195.107 74.3826 198.33 72.3246C200.144 71.1708 201.939 70.0214 203.773 68.9975C205.607 67.9736 207.11 67.1302 208.719 66.1678C209.398 65.7838 210.069 65.3287 210.706 64.9533C212.08 64.1294 213.488 63.1933 214.924 62.3238C215.329 62.0279 215.715 61.7071 216.079 61.3631C215.705 61.1581 215.28 61.067 214.856 61.1004C214.432 61.1339 214.026 61.2914 213.69 61.5526C210.968 63.2162 208.247 64.8798 205.525 66.5433C202.42 68.5228 199.404 70.6579 196.288 72.6303C190.784 76.0539 186.226 80.6571 181.185 84.6062C179.769 85.8768 178.465 87.2692 177.29 88.7657C175.683 90.504 174.116 92.283 172.449 93.9834C170.497 95.9768 168.443 97.8889 166.427 99.8252C166.216 99.9987 165.993 100.158 165.76 100.3L165.591 100.06C166.454 99.0221 167.245 97.9256 167.959 96.7797C168.661 95.4763 169.248 94.1157 169.712 92.7104C170.215 91.3122 171.012 90.0377 172.048 88.9726C177.554 83.3616 183.341 78.0344 189.388 73.0118C190.946 71.4624 192.56 69.8471 194.446 68.5526ZM154.542 107.538C154.814 107.103 156.035 107.142 156.836 107.071C157.774 107.004 158.714 106.99 159.653 107.031C160.382 107.081 161.107 107.169 161.826 107.296C161.173 107.975 160.386 108.509 159.515 108.866C158.643 109.222 157.706 109.392 156.765 109.364L156.366 108.442C155.269 108.177 154.53 108.877 153.674 109.25C152.819 109.623 152.25 110.345 151.006 109.887C151.424 109.594 151.693 109.459 151.918 109.262C152.71 108.613 153.857 108.607 154.466 107.524L154.542 107.538ZM167.279 82.0393C169.144 79.7568 170.866 77.3505 172.653 75.0014C174.072 72.9513 175.924 71.2375 178.078 69.981C178.017 70.3078 177.924 70.6274 177.801 70.9359C176.758 72.8741 175.686 74.7774 174.643 76.7162C174.193 77.4803 173.805 78.2792 173.486 79.1059C171.718 84.0176 169.474 88.7445 166.786 93.2196C166.629 93.4013 166.502 93.6055 166.408 93.8249C165.646 97.1167 163.502 99.5795 161.573 102.209C160.986 103.137 160.222 103.94 159.323 104.571C158.857 104.778 158.364 104.923 157.86 105.002L157.723 104.681C158.033 104.185 158.408 103.747 158.784 103.309C160.407 101.113 161.629 98.6475 162.392 96.0251C162.894 94.6568 163.787 93.4155 164.384 92.0559C165.684 89.1938 167.182 86.4258 168.87 83.7737C168.923 83.6894 168.872 83.5562 168.851 83.24C168.58 83.4211 168.321 83.6189 168.076 83.8329C165.452 86.3642 164.296 89.8816 162.444 92.8456C161.414 94.6448 160.562 96.5403 159.9 98.5058C159.577 99.707 158.903 100.785 157.965 101.603C158.443 100.084 158.976 98.5845 159.354 97.037C159.674 95.8489 159.872 94.6307 159.943 93.4022C159.947 91.6033 160.582 89.8626 161.738 88.4849C163.502 86.3075 165.48 84.2456 167.279 82.0393ZM158.022 82.6136C157.761 86.5042 157.461 90.4044 157.235 94.3172C157.24 97.9952 156.073 101.579 153.904 104.549L151.218 105.023C151.808 103.433 152.315 101.813 152.738 100.17C153.179 98.0904 153.401 95.9582 153.698 93.8399C154.071 91.449 154.403 89.0433 154.693 86.6222C154.753 86.0926 154.921 85.5816 155.186 85.1196C155.452 84.6582 155.81 84.2553 156.236 83.937C156.788 83.4324 157.298 82.8847 157.764 82.3002C157.909 82.3908 158.054 82.482 158.022 82.6136ZM158.702 78.8329C158.597 79.541 158.521 80.066 158.476 80.2734L154.998 83.1466C154.777 81.5619 155.993 81.3119 156.563 80.6421C157.075 79.8202 157.85 79.1953 158.763 78.8709L158.702 78.8329ZM159.438 74.9361C159.36 75.7626 159.324 76.5468 159.208 77.4328C157.108 77.1305 156.755 79.5001 154.943 79.8145C156.127 78.0235 157.481 76.3517 158.988 74.8237L159.438 74.9361ZM150.562 80.2054C151.07 77.3991 152 74.6855 153.32 72.1563C154.057 70.8173 154.495 69.3077 155.123 67.8995C155.68 66.5228 156.317 65.1803 157.03 63.8772C157.586 62.909 158.288 62.0315 159.11 61.2744C162.041 58.4838 164.45 55.1929 166.226 51.5573C166.797 50.3394 167.712 49.3148 168.858 48.61L169.122 48.8596C168.891 49.3991 168.608 49.9151 168.277 50.4C166.011 53.273 165.03 56.7813 163.885 60.12C162.741 63.46 161.618 67.1148 160.522 70.6178C160.219 71.5885 160.022 72.5763 159.785 73.5213C157.819 73.9751 157.03 75.6688 155.495 76.7783C155.329 76.1032 155.28 75.6693 155.815 75.1622C156.898 74.1565 157.86 73.0754 158.869 72.0242C159.044 71.7751 159.206 71.5166 159.353 71.2495C159.112 71.0986 158.894 70.9625 158.774 71.0734C156.509 72.5177 154.307 73.9676 153.947 77.022C153.657 79.1379 153.554 81.2743 153.641 83.4081C153.668 85.2898 153.524 87.1703 153.208 89.0258C152.687 92.5521 152.158 96.0905 151.481 99.5694C151.228 100.713 150.915 101.843 150.544 102.954L150.173 103.008C149.991 102.709 149.641 102.407 149.644 102.106C149.662 100.913 149.743 99.7233 149.888 98.5396C150.065 96.2361 149.972 93.9188 149.609 91.6368C149.471 90.0364 149.491 88.4266 149.668 86.8304C149.824 84.6228 150.111 82.4263 150.531 80.254L150.562 80.2054ZM138.87 77.9457C138.355 76.7498 139.361 76.0828 139.674 74.8824C140.501 76.2239 140.399 76.4957 138.854 77.97L138.87 77.9457ZM142.842 109.815C143.239 108.457 143.709 107.123 144.247 105.815C144.069 105.804 143.704 105.744 143.116 105.663C142.819 103.795 142.545 101.757 142.311 99.761C142.062 97.4688 141.95 95.1447 141.585 92.8479C140.945 89.6931 139.72 86.6857 137.975 83.9809C135.348 79.3288 132.593 74.747 129.816 70.1184C129.358 69.3443 128.768 68.6734 128.248 67.9441C125.866 64.3905 123.912 60.5674 122.429 56.5547C122.359 56.381 122.328 56.1927 122.34 56.0046C122.353 55.8173 122.408 55.6354 122.501 55.4717C123.277 56.5456 124.098 57.5977 124.89 58.6465C127.869 62.675 131.271 66.3732 135.036 69.6802L135.825 70.4085C137.174 71.7223 137.106 71.697 136.268 73.3604C135.921 74.0515 135.153 74.8501 136.171 75.9913C136.807 74.9744 137.366 74.0799 137.902 73.221C138.67 73.3129 138.991 73.7663 138.585 74.2019C136.955 75.9762 137.727 77.7026 138.653 79.4767C140.077 82.273 141.235 85.1988 142.11 88.2128C142.209 88.4291 142.294 88.6514 142.366 88.8781C143.327 94.0709 144.757 99.1859 144.917 104.501C144.938 105.46 144.9 106.42 144.804 107.374C144.752 107.997 144.942 108.284 145.708 108.107C146.363 104.699 146.259 101.189 145.405 97.8251C144.903 95.5599 144.511 93.2796 143.903 91.0494C143.179 88.4944 142.265 85.972 141.422 83.4435C141.18 82.7071 140.88 81.99 140.524 81.3017C140.165 80.7134 140.03 80.0151 140.146 79.3359C140.261 78.657 140.618 78.042 141.152 77.6061C141.933 78.8659 142.647 80.1653 143.293 81.5007C144.119 83.4631 144.804 85.4899 145.469 87.5203C145.726 88.3028 145.886 89.1147 145.945 89.9366C146.028 90.8798 146.656 91.4907 146.991 92.2724C147.531 93.6544 147.87 95.1065 147.997 96.5853C148.257 99.2369 148.39 101.877 148.454 104.575C148.379 105.222 148.215 105.855 147.967 106.458C147.178 106.671 146.267 106.757 146.316 107.915C146.366 109.074 146.763 109.22 147.697 109.098C148.155 108.986 148.601 108.831 149.029 108.634C150.12 108.197 151.267 107.911 152.435 107.786C151.693 108.071 151.008 108.485 150.41 109.01C149.443 110.168 148.114 110.967 146.637 111.278C146.017 111.463 145.525 111.794 146.123 112.639C147.566 112.296 149.031 111.916 150.514 111.615C152.171 111.241 153.846 110.951 155.532 110.746C158.061 110.447 160.606 110.284 163.152 110.26C165.28 110.326 167.401 110.528 169.503 110.864C173.005 111.371 176.543 111.899 180.072 112.339C182.467 112.624 184.888 112.706 187.321 112.932C188.452 113.032 189.559 113.253 190.677 113.347C193.392 113.58 195.114 115.481 197.014 117.071C197.833 117.751 198.513 118.63 199.814 118.215L200.343 120.06C200.656 120.071 200.924 120.154 201.112 120.069C201.552 119.809 202.063 119.692 202.573 119.734C203.083 119.775 203.567 119.974 203.961 120.301C204.045 120.38 204.144 120.441 204.251 120.483C208.636 121.541 212.76 123.529 217.282 124.151C219.623 124.471 221.947 125.032 224.274 125.426C225.059 125.518 225.85 125.558 226.641 125.542C226.702 125.445 226.769 125.336 226.741 125.166C226.487 125.008 226.313 124.614 226.05 124.55C222.401 123.767 218.875 122.573 215.068 122.365C214.182 122.254 213.315 122.018 212.495 121.665C210.31 120.872 208.135 120.073 205.968 119.269C205.652 119.156 205.4 118.913 204.868 118.715L207.618 117.355C207.586 117.218 207.574 117.076 207.549 116.926C207.211 116.826 206.858 116.781 206.505 116.795C205.459 117.016 204.456 117.382 203.398 117.595C202.779 117.671 202.154 117.697 201.532 117.674C202.409 116.27 204.231 116.988 204.83 115.411C204.478 115.282 204.105 115.22 203.732 115.23C202.579 115.486 201.438 115.832 200.283 116.119C199.482 116.325 198.642 116.591 197.99 115.427L200.781 114.379C200.635 113.564 200.153 113.582 199.669 113.684C198.795 113.84 197.939 114.075 197.108 114.388C196.514 114.64 196.061 114.692 195.656 114.237C194.041 112.405 191.86 112.236 189.601 112.136C188.601 112.067 187.611 112.036 186.631 111.962L186.583 111.58L192.152 108.482C193.608 108.842 195.04 109.293 196.44 109.832C199.995 111.247 203.333 113.153 206.359 115.493C208.255 117.016 210.284 118.362 212.423 119.517C212.512 119.589 212.61 119.65 212.714 119.699C216.402 120.876 220.049 122.147 223.734 123.221C226.592 124.031 229.334 124.651 231.673 126.668C233.046 127.863 234.607 128.838 236.021 130.209C235.539 130.201 235.059 130.149 234.588 130.053C231.188 129.205 227.735 128.599 224.251 128.237C221.166 127.789 218.05 127.121 214.954 126.532C214.6 126.478 214.26 126.35 213.903 126.329C210.853 126.132 207.853 125.455 205.014 124.323C202.883 123.791 200.725 123.381 198.549 123.094C194.746 122.181 190.93 121.26 187.211 120.079C185.58 119.362 184.003 118.533 182.487 117.598C181.194 116.975 179.788 116.534 178.519 116.061L174.054 114.348C170.228 113.025 166.228 112.271 162.182 112.11C159.46 111.92 156.723 112.051 154.031 112.5C152.453 112.675 150.917 113.129 149.496 113.838C148.821 114.18 148.247 114.69 147.83 115.32C147.515 115.884 147.041 116.342 146.467 116.638C142.16 118.818 138.083 121.428 134.3 124.426C132.567 125.665 130.748 126.777 128.856 127.754C128.153 128.197 127.482 128.688 126.846 129.223C124.367 131.37 121.667 133.246 118.79 134.82C119.589 132.628 121.151 130.797 123.189 129.663C123.728 129.475 124.249 129.237 124.743 128.952C125.232 128.601 125.603 128.143 126.305 128.581C126.813 128.899 127.262 128.692 127.665 128.154C128.228 127.467 128.85 126.831 129.525 126.254C131.334 124.542 133.156 122.838 134.954 121.118C135.128 120.84 135.26 120.468 135.513 120.223C136.02 119.348 136.785 118.65 137.703 118.227C138.269 117.914 138.736 117.447 139.048 116.881C139.457 116.122 139.906 115.386 140.392 114.676C141.6 113.296 142.438 111.632 142.827 109.839L142.842 109.815ZM117.496 107.602C116.164 111.16 114.752 114.685 113.36 118.205C113.171 118.508 112.982 118.81 112.921 119.176L109.298 129.578C109.249 129.747 109.161 129.903 109.043 130.033C108.923 130.163 108.776 130.264 108.611 130.327C109.084 127.981 109.589 125.639 110.058 123.274C110.301 121.996 110.513 120.716 110.681 119.425C110.911 117.6 111.099 115.766 111.298 113.939C111.332 113.588 111.447 113.247 111.634 112.947C111.822 112.647 112.077 112.395 112.379 112.209C113.166 111.625 113.865 110.934 114.738 110.185C113.528 109.429 112.856 110.91 111.669 110.521C111.841 109.922 111.811 109.163 112.179 108.788C114.098 106.875 116.102 105.066 118.333 102.978C118.371 104.56 118.086 106.134 117.496 107.602ZM119.839 98.4689L120.205 98.7982C118.795 101.888 115.699 103.317 113.234 105.729C113.027 105.345 112.969 104.899 113.07 104.475C113.17 104.052 113.423 103.679 113.779 103.428C115.81 101.793 117.832 100.137 119.846 98.4567L119.839 98.4689ZM98.7682 146.968C99.0822 146.397 99.428 145.844 99.8036 145.311C100.975 143.452 101.912 141.456 102.592 139.366C103.412 137.282 104.019 135.119 104.405 132.912C104.702 130.66 104.935 128.349 105.092 126.159C105.299 121.899 105.296 117.624 105.542 113.354C105.802 108.6 106.928 103.934 108.864 99.5846C109.863 97.3653 110.51 95.0116 111.434 92.7799C112.53 89.9483 113.711 87.1711 114.818 84.347C116.637 79.99 117.543 75.3066 117.48 70.5852C117.518 70.2699 117.589 69.959 117.691 69.6575C119.057 71.5443 119.964 73.7235 120.34 76.0226C120.657 79.0968 120.752 82.2014 120.843 85.2859C120.934 88.3713 120.927 91.3434 120.94 94.3634C120.958 95.018 120.915 95.6715 120.812 96.3179C120.744 96.6609 120.553 96.9663 120.275 97.1768C118.148 98.5901 115.97 99.9208 113.808 101.362C113.718 101.065 113.726 100.747 113.832 100.455C113.939 100.163 114.137 99.9141 114.398 99.745C115.411 98.9314 116.398 98.0518 117.354 97.1689C117.69 96.7411 117.979 96.2785 118.216 95.7898C116.485 95.8684 115.901 97.4212 114.389 97.4181L115.205 92.8821C114.112 92.9896 114.038 93.8346 113.933 94.3247C113.492 96.0005 113.158 97.6925 112.812 99.3769C112.383 101.463 112.11 103.597 111.525 105.637C110.67 108.793 110.126 112.025 109.902 115.287C109.412 120.027 108.373 124.543 107.473 129.161C107.109 130.953 106.376 132.665 105.855 134.442C105.504 135.568 105.209 136.712 104.839 137.844C104.664 138.405 104.428 138.945 104.135 139.456C103.349 140.551 102.635 141.694 101.996 142.879C101.036 145.054 99.6515 147.013 97.9228 148.644C98.219 148.088 98.4788 147.511 98.7753 146.957L98.7682 146.968ZM109.158 139.6C110.155 138.356 111.252 137.191 112.256 135.934C113.806 133.993 115.307 132.022 116.844 130.072C117.172 129.658 117.528 129.268 117.911 128.904C120.062 126.668 121.705 123.993 122.726 121.063C122.457 121.182 122.211 121.348 122 121.552C120.904 123.037 119.864 124.54 118.804 126.048C118.457 126.604 118.109 127.161 117.683 127.652C114.835 130.919 111.878 134.251 109.035 137.589C108.286 138.466 107.612 139.408 106.904 140.328C106.465 141.029 106.027 141.731 105.511 142.367L105.1 142.111C105.264 141.715 105.507 141.357 105.813 141.057C106.119 140.756 106.482 140.521 106.881 140.364L106.934 140.279C106.913 140.098 106.807 139.864 106.887 139.762C109.601 136.092 112.38 132.48 115.033 128.771C116.604 126.607 117.933 124.292 119.443 122.091C120.826 120.094 122.316 118.166 123.766 116.196C124.606 115.039 125.388 114.03 126.167 112.919C127.47 111.075 128.72 109.182 130.016 107.351C130.3 106.99 130.696 106.735 131.143 106.625C130.662 108.175 130.213 109.729 129.701 111.275C128.463 114.977 127.227 118.679 125.915 122.367C125.12 124.943 123.591 127.232 121.514 128.952C119.481 130.509 118.316 132.723 116.755 134.658C116.445 135.154 116.025 135.582 115.619 136.018C113.901 137.904 112.196 139.799 110.425 141.637C109.316 142.794 108.1 143.851 106.853 145.039C107.504 146.339 106.574 147.019 105.559 147.595C103.537 148.704 101.474 149.77 99.1788 150.993C99.9587 149.32 101.166 147.88 102.678 146.821C103.978 145.879 105.152 144.777 106.175 143.54C107.259 142.316 108.139 140.881 109.166 139.588L109.158 139.6ZM87.2126 120.639C87.1873 121.067 87.0838 121.487 86.9088 121.879C85.6835 123.483 84.1279 124.806 82.3488 125.758C83.3316 123.513 85.5357 122.434 86.8116 120.473L87.2126 120.639ZM86.438 119.483C85.1082 120.669 83.7604 121.829 82.4134 122.99C82.3152 123.147 81.9929 123.097 81.6509 123.186C81.6846 122.836 81.6165 122.541 81.7239 122.424C83.3187 120.679 84.9111 118.966 86.6525 117.093C87.1127 118.053 87.1947 118.811 86.4608 119.446L86.438 119.483ZM73.1895 153.526C73.219 149.44 73.8069 145.349 74.1337 141.247C74.2898 140.373 74.3867 139.49 74.4231 138.602C74.2056 134.564 75.478 130.75 76.1389 126.84C76.648 123.446 76.839 120.012 76.7108 116.583C76.7256 113.598 76.6148 110.653 76.6378 107.656C76.6838 106.612 76.8264 105.574 77.0606 104.556C77.5138 102.35 78.1187 100.17 78.496 97.9512C79.1328 95.6248 80.193 93.4358 81.623 91.4935C85.0333 99.4956 85.4697 107.708 86.683 115.699L81.4306 120.39C81.8737 119.198 82.6112 118.137 83.5761 117.307C84.309 116.403 85.0539 115.506 85.8567 114.544C85.314 113.986 84.9467 114.143 84.5055 114.608C83.6584 115.558 82.7262 116.427 81.7205 117.207C82.0162 116.004 82.7167 114.939 83.705 114.192C84.2166 113.804 84.6055 113.425 84.0501 112.59C83.196 113.285 82.4231 113.928 81.3105 114.849C81.1861 112.517 81.1241 110.678 80.9987 108.698C80.2329 108.658 79.9554 109.292 79.9447 110.008C79.9343 111.128 80.0775 112.244 80.1304 113.371C80.1977 114.96 80.2372 116.567 80.3037 118.155C80.3704 119.745 80.3901 121.221 80.573 122.731C80.756 124.241 81.2372 126.19 81.4429 127.934C81.5445 128.816 81.4987 129.708 81.3077 130.574C80.6818 133.783 79.9807 136.978 79.2864 140.161C78.8874 142.442 78.1439 144.649 77.0808 146.705C76.3445 148.313 75.9088 150.041 75.7941 151.806C75.3834 154.914 75.0605 158.176 74.763 161.372C74.7792 162.631 74.5656 163.884 74.1358 165.067C73.7466 161.006 73.1534 157.271 73.2123 153.489L73.1895 153.526ZM56.4675 203.465C56.063 203.8 55.5541 203.983 55.0287 203.984C54.5032 203.985 53.9949 203.801 53.5903 203.466C53.4505 203.311 53.3477 203.127 53.2873 202.929C53.2273 202.729 53.2108 202.519 53.2402 202.313C53.2697 202.107 53.3434 201.91 53.457 201.736C53.5706 201.561 53.7211 201.414 53.8982 201.304C54.2871 201.024 54.7659 200.899 55.2418 200.955C55.7182 201.009 56.1569 201.239 56.4711 201.6C57.0538 202.283 57.0507 202.987 56.4903 203.428L56.4675 203.465ZM67.0216 187.974C65.1139 190.246 63.1493 192.501 61.3912 194.884C60.1089 196.64 59.0854 198.574 57.9487 200.555L55.3708 199.297C55.5379 198.907 55.739 198.531 55.9708 198.174C57.0614 196.754 58.2157 195.389 59.3064 193.969C61.8071 190.72 64.3077 187.472 66.7476 184.186C67.3121 183.445 67.5716 182.463 68.1266 181.683C69.1637 180.211 70.3219 178.816 71.4026 177.355C71.766 176.901 72.0462 176.388 72.2328 175.839C72.5636 174.716 72.7665 173.531 73.0533 172.398C73.2846 170.991 73.7851 169.642 74.5281 168.424C75.0098 167.606 75.3428 166.709 75.5098 165.775C75.8599 164.45 76.1379 163.107 76.341 161.753C76.5907 160.008 76.7133 158.25 76.8749 156.484L77.3115 151.291L81.1989 148.084C80.0342 147.256 79.4833 148.594 78.6267 148.647C78.5958 147.081 78.5845 146.938 80.5193 145.456C81.5188 144.718 82.2777 143.477 83.8887 143.457L83.9837 142.12C82.1322 141.771 81.6322 143.864 80.008 144.094C79.9642 143.784 80.0001 143.469 80.1116 143.177C80.2231 142.885 80.4074 142.626 80.648 142.424C81.7571 141.537 82.9054 140.723 83.9666 139.806C84.2805 139.574 84.5229 139.26 84.6681 138.898C84.8309 138.332 84.9498 137.754 85.0248 137.169C83.7062 138.23 82.388 139.29 81.0812 140.357L80.7261 139.984C80.8062 137.46 83.2478 136.917 84.7465 135.516C84.7979 134.976 84.4591 134.764 83.9855 134.956C83.0709 135.343 82.1904 135.836 81.0102 136.461C81.4707 134.242 81.9625 132.245 82.3509 130.116C84.0229 129.487 85.4147 128.28 86.2757 126.715C85.3227 125.548 84.912 127.175 84.1042 127.04C84.753 125.747 85.7133 124.636 86.8983 123.807C87.603 124.886 87.1476 125.965 86.9625 126.908C86.3182 129.86 85.9132 132.857 85.7499 135.874C85.6735 136.27 85.5505 136.656 85.3845 137.024C85.7996 138.504 85.7613 140.074 85.2763 141.532C84.9442 142.848 84.5384 144.145 84.0608 145.416L82.56 150.078C81.6452 154.234 80.7386 158.377 79.6003 162.46C79.0391 163.964 78.3156 165.401 77.4428 166.747C75.8842 169.406 74.6233 172.228 73.6818 175.162C73.52 175.717 73.6501 176.371 73.4276 176.887C72.7625 178.355 72.6997 180.234 71.747 181.354C70.006 183.412 68.78 185.859 67.0444 187.937L67.0216 187.974ZM87.8074 171.642C84.9977 172.612 82.2401 173.714 79.4431 174.826C78.7971 175.079 78.1736 175.43 77.2139 175.889C77.3774 175.528 77.5886 175.19 77.8412 174.885C79.7753 173.036 82.0711 171.606 84.5848 170.688C86.0571 170.152 87.4905 169.513 88.8744 168.777C93.6654 166.838 98.5788 165.217 103.583 163.921C103.81 163.86 104.041 163.813 104.275 163.782L104.517 164.068C104.276 164.357 104.013 164.625 103.729 164.871C102.246 165.845 100.81 166.849 99.2463 167.738C98.7454 168.031 98.2114 168.262 97.655 168.426C94.3618 169.497 91.0818 170.493 87.8296 171.606L87.8074 171.642ZM97.2213 171.167C95.894 171.271 94.5616 171.281 93.233 171.197L93.1887 170.783C93.736 170.688 94.262 170.545 94.8068 170.481C95.3511 170.418 95.7004 170.586 96.0358 170.426C100.95 167.945 106.424 167.261 111.679 165.986C114.21 165.381 116.817 165.11 119.314 164.534C121.811 163.958 124.257 163.3 126.72 162.669C127.804 162.388 128.913 162.121 129.971 161.773C130.462 161.551 130.93 161.28 131.368 160.964C131.799 160.624 132.283 160.359 132.802 160.178C134.564 159.738 136.243 159.015 137.773 158.036C139.144 157.486 140.55 157.033 141.985 156.681C143.116 156.32 144.216 155.865 145.273 155.322C145.81 154.923 146.21 154.367 146.418 153.732C149.921 152.198 153.418 150.677 156.906 149.167L157.063 149.483C155.397 150.479 153.733 151.473 152.064 152.449L140.972 158.975C138.383 160.429 135.641 161.593 132.798 162.446C127.649 164.09 122.524 165.749 117.342 167.288C110.74 169.038 104.025 170.322 97.244 171.13L97.2213 171.167ZM166.628 183.922C166.856 183.728 167.1 183.554 167.357 183.402C168.948 182.714 170.62 181.976 172.227 181.18C173.276 180.658 174.258 179.976 175.277 179.368L177.282 178.232C177.674 178.055 178.058 177.856 178.428 177.637C184.093 173.793 190.14 170.523 195.445 166.151C196.653 165.289 197.914 164.504 199.219 163.799C201.941 162.135 204.445 160.47 207.078 158.869C208.079 158.264 209.162 157.809 210.295 157.515L210.6 158.076C210.26 158.352 209.956 158.65 209.607 158.885C207.392 160.293 205.173 161.71 202.949 163.135C201.587 163.967 200.094 164.85 198.716 165.789C196.997 166.951 195.373 168.259 193.672 169.366C191.393 170.886 189.077 172.331 186.756 173.758C183.638 175.678 180.401 177.44 177.362 179.476C174.445 181.41 171.272 182.927 167.936 183.982C167.724 184.056 167.5 184.085 167.276 184.067C167.053 184.049 166.836 183.985 166.639 183.878L166.628 183.922ZM82.3932 149.134L82.6066 150.058C82.4202 150.194 82.2226 150.323 81.6871 150.695C81.9142 149.927 82.0173 149.521 82.1393 149.109L82.3932 149.134Z" fill="white"/>
</g>
<defs>
<filter id="filter0_d_12_2" x="38.0052" y="44.5093" width="207.227" height="209.893" filterUnits="userSpaceOnUse" color-interpolation-filters="sRGB">
<feFlood flood-opacity="0" result="BackgroundImageFix"/>
<feColorMatrix in="SourceAlpha" type="matrix" values="0 0 0 0 0 0 0 0 0 0 0 0 0 0 0 0 0 0 127 0" result="hardAlpha"/>
<feOffset dy="4"/>
<feGaussianBlur stdDeviation="2"/>
<feComposite in2="hardAlpha" operator="out"/>
<feColorMatrix type="matrix" values="0 0 0 0 0 0 0 0 0 0 0 0 0 0 0 0 0 0 0.25 0"/>
<feBlend mode="normal" in2="BackgroundImageFix" result="effect1_dropShadow_12_2"/>
<feBlend mode="normal" in="SourceGraphic" in2="effect1_dropShadow_12_2" result="shape"/>
</filter>
</defs>
</svg>
