<svg width="27" height="26" viewBox="0 0 27 26" fill="none" xmlns="http://www.w3.org/2000/svg">
<path d="M9.33333 7.44447C9.33333 9.74566 11.1988 11.6111 13.5 11.6111C15.8012 11.6111 17.6667 9.74566 17.6667 7.44447M1 19.667V6.33363C1 4.77793 1 3.9995 1.30276 3.4053C1.56907 2.88263 1.99371 2.45799 2.51638 2.19168C3.11058 1.88892 3.88901 1.88892 5.44472 1.88892H21.5558C23.1115 1.88892 23.8883 1.88892 24.4825 2.19168C25.0052 2.45799 25.4312 2.88263 25.6975 3.4053C26 3.99892 26 4.77641 26 6.32907V19.6717C26 21.2243 26 22.0007 25.6975 22.5943C25.4312 23.117 25.0052 23.5424 24.4825 23.8087C23.8889 24.1111 23.1125 24.1111 21.5598 24.1111H5.44015C3.88749 24.1111 3.11 24.1111 2.51638 23.8087C1.99371 23.5424 1.56907 23.117 1.30276 22.5943C1 22.0001 1 21.2227 1 19.667Z" stroke="white" stroke-width="2" stroke-linecap="round" stroke-linejoin="round"/>
</svg>
