<svg width="476" height="424" viewBox="0 0 476 424" fill="none" xmlns="http://www.w3.org/2000/svg">
<g opacity="0.2" filter="url(#filter0_d_12_6)">
<path d="M176.037 47.104C174.696 47.1228 174.442 48.3387 174.404 49.3311C174.149 51.6931 174.198 54.1348 174.551 56.6083C175.848 63.5921 176.641 70.5474 176.923 77.4264C177.028 79.4695 177.462 81.568 177.597 83.6164C178.011 89.6114 178.334 95.6182 178.687 101.603C179.191 103.915 178.875 106.152 177.787 107.964C177.386 105.953 177.098 104.221 176.707 102.485C176.119 99.8813 175.562 97.2556 174.766 94.6713C173.747 91.2963 172.462 87.9585 171.369 84.5575C169.402 78.4907 167.54 72.4277 165.574 66.3883C164.565 63.2616 163.288 60.1441 162.234 57.0235C161.181 53.9028 160.139 50.2915 158.987 46.9353C158.895 46.4582 158.672 45.9853 158.341 45.5634C158.01 45.1415 157.582 44.7856 157.101 44.5309C156.619 44.2763 156.101 44.1319 155.597 44.112C155.093 44.0921 154.621 44.1975 154.228 44.4177C152.723 44.7733 151.439 45.5293 150.511 46.6065C149.583 47.6839 149.043 49.043 148.95 50.5421C148.966 52.7188 149.191 54.932 149.625 57.1562C150.801 64.0332 153.956 70.7943 156.143 77.5965C158.089 83.7185 160.715 89.7663 163.976 95.6325C164.51 96.7516 164.975 97.8862 165.367 99.0293L164.762 99.1866C162.153 95.5423 159.342 92.0551 156.979 88.2199C153.887 83.1661 151.25 77.9297 148.363 72.8013C146.395 69.284 144.349 65.7896 142.224 62.3185C141.588 61.2618 140.739 60.2994 139.733 59.498C138.728 58.6966 137.592 58.0755 136.402 57.6776C134.422 56.945 133.457 57.4655 133.27 59.281C133.184 59.7912 133.204 60.3324 133.329 60.8783C133.901 62.9274 134.512 64.9742 135.164 67.0186C136.827 71.6983 139.201 76.2666 142.206 80.5692C145.318 85.3527 148.711 90.0606 152.249 94.6288C156.635 100.408 161.226 106.058 165.729 111.775C170.546 117.874 175.483 124.048 178.283 130.859C179.51 133.645 181.103 136.345 183.019 138.887C184.014 140.49 184.882 142.138 185.615 143.815C184.695 143.139 183.905 142.309 183.305 141.384C179.121 135.447 173.717 130.372 168.674 125.014C164.779 120.873 161.151 116.535 157.821 112.035C154.746 107.874 151.452 103.826 148.169 99.6838L139.089 88.3054C138.25 87.1841 137.191 86.1981 135.988 85.4172C134.784 84.6362 133.465 84.0791 132.124 83.7854C129.644 83.2415 128.355 83.8712 128.527 86.1172C128.553 87.5554 129.043 89.0477 129.936 90.4065C132.344 93.8663 134.605 97.3833 137.202 100.697C139.414 103.48 141.763 106.181 144.238 108.787C146.223 110.875 148.208 112.964 150.308 114.934C152.657 117.193 155.106 119.347 157.396 121.623C161.886 126.116 166.32 130.622 170.7 135.141C172.717 136.999 174.499 139.061 175.994 141.266C174.651 140.6 173.395 139.744 172.278 138.734C166.89 133.701 161.227 128.91 156.054 123.654C150.882 118.397 144.89 113.181 139.2 108.042C136.918 105.986 134.434 104.114 132.025 102.269C131.114 101.577 130.078 101.076 129.01 100.814C127.942 100.552 126.878 100.536 125.916 100.767C125.44 100.805 125.007 100.956 124.655 101.207C124.304 101.458 124.044 101.801 123.9 102.207C123.756 102.612 123.731 103.068 123.828 103.532C123.925 103.997 124.141 104.456 124.456 104.871C125.363 106.305 126.402 107.682 127.559 108.982C130.816 112.408 134.16 115.767 137.662 118.974C142.275 123.191 147.016 127.28 151.86 131.262C154.889 133.787 158.12 136.1 161.25 138.492C163.809 140.39 166.453 142.138 169.027 144.026C173.95 147.748 178.974 151.391 183.667 155.348C186.485 157.546 188.906 160.173 190.779 163.068C191.096 163.474 191.297 163.935 191.357 164.392C191.415 164.849 191.33 165.284 191.112 165.642C190.81 166.284 190.688 167.017 190.758 167.783C190.827 168.549 191.085 169.328 191.511 170.061C191.9 170.894 192.258 171.72 192.706 172.535C193.982 175.15 195.406 177.726 196.969 180.251C201.398 186.762 205.941 193.129 210.533 199.655C210.533 199.655 210.436 199.872 210.339 200.06C208.013 197.373 205.816 194.603 203.758 191.76C200.102 186.173 195.725 180.926 190.751 176.172C188.379 174.082 185.902 172.103 183.332 170.247C182.856 169.863 182.286 169.615 181.716 169.543C181.144 169.471 180.605 169.579 180.186 169.851C179.771 169.986 179.334 170.086 178.885 170.15L172.284 156.824C170.9 153.766 169.074 150.819 166.864 148.078C165.182 146.097 163.466 145.272 161.823 146.006C159.726 146.95 157.943 147.537 158.825 150.478C160.096 154.834 161.895 159.145 164.186 163.32C166.643 167.704 169.012 172.129 171.425 176.547C172.273 178.101 173.075 179.66 174.01 181.173C176.041 184.509 178.121 187.827 180.249 191.125C181.467 193.015 182.843 194.781 184.075 196.66C185.477 198.331 186.644 200.139 187.538 202.022C183.761 198.323 180.287 194.377 177.16 190.232C175.569 187.896 173.889 185.6 172.298 183.264C171.715 182.439 171.265 181.542 170.726 180.684C169.395 178.515 167.96 176.398 166.731 174.178C164.849 170.821 163.23 167.344 161.259 163.999C159.542 161.081 157.564 158.365 155.637 155.438L144.952 139.326C143.696 137.685 142.623 135.95 141.751 134.159C141.252 132.782 140.484 131.453 139.491 130.245C138.027 128.546 136.483 127.08 135.094 125.408C132.445 122.304 128.721 121.166 125.387 119.301C125.152 119.194 124.905 119.134 124.665 119.124C124.041 119.042 123.44 119.115 122.924 119.335C122.408 119.555 121.996 119.915 121.728 120.377C121.449 120.789 121.356 121.312 121.466 121.857C121.575 122.402 121.881 122.935 122.33 123.367C123.354 124.443 124.377 125.52 125.345 126.696C128.059 129.551 130.904 132.333 133.502 135.277C138.455 141.64 143.034 148.208 147.209 154.939C150.516 159.742 153.603 164.63 156.764 169.518C157.49 170.626 158.159 171.78 158.842 172.922C157.877 172.305 157.002 171.555 156.256 170.704C155.701 170.039 155.043 169.445 154.313 168.951C151.682 167.351 149.326 165.316 147.398 162.976C144.515 159.898 141.872 156.648 139.498 153.261C136.875 149.629 134.649 145.858 132.188 142.156C130.247 139.241 128.35 136.292 126.234 133.484C123.69 130.002 120.88 126.665 117.832 123.506C113.356 118.957 109.387 113.987 104.635 109.623C99.8819 105.26 96.2537 100.649 91.1975 96.9451C89.7735 95.9236 88.5919 94.6009 87.2382 93.4683C85.5252 91.9368 83.7341 90.4864 81.8755 89.124C80.8663 88.4724 79.703 88.1719 78.6394 88.2894C77.5763 88.4063 76.6998 88.9315 76.2022 89.7492C75.4854 90.8024 75.1557 92.0935 75.2507 93.4737C75.3461 94.8532 75.8628 96.2648 76.741 97.5443C80.5312 102.876 85.0097 107.837 90.0441 112.28C94.5989 116.542 99.2986 120.692 103.94 124.886L116.491 136.183C117.143 136.868 117.81 137.569 118.548 138.187C118.429 138.291 118.304 138.389 118.171 138.479C116.499 137.456 114.875 136.348 113.308 135.164C108.328 131.089 102.767 127.862 97.9547 123.487C93.6821 119.602 88.8809 116.352 84.3289 112.57C79.7768 108.787 75.7665 105.548 71.6197 101.848C66.8671 97.7752 61.9369 93.8971 56.8503 90.2297C56.0565 89.6801 55.2127 89.2111 54.3385 88.8327C53.1294 88.4074 51.8891 88.2585 50.7337 88.4C49.5784 88.5414 48.5459 88.9685 47.7328 89.6415C46.4001 91.346 45.9635 93.6248 46.5153 95.9945C47.0672 98.3642 48.5636 100.639 50.6874 102.335C54.8855 105.4 59.2117 108.31 63.6067 111.053C71.3133 115.876 79.1309 120.473 86.879 125.208C90.646 127.502 94.3706 129.858 98.0952 132.214C98.6784 132.601 99.2454 133.013 99.7951 133.447L99.5435 133.896L92.2028 130.517C87.2251 128.14 82.3021 125.636 77.2858 123.43C73.0286 121.6 68.7498 119.984 64.4446 118.475C59.1081 116.389 53.5955 115.309 48.2696 115.307C47.3926 115.282 46.5712 115.468 45.882 115.846C45.1927 116.224 44.6573 116.784 44.3258 117.473C43.9942 118.161 43.8773 118.956 43.9852 119.785C44.0928 120.614 44.4228 121.449 44.9434 122.214C46.8621 125.084 49.5322 127.542 52.6283 129.292C55.4802 130.882 58.5049 132.047 61.567 132.737C66.2615 133.889 70.9284 135.516 75.5555 136.861C84.0977 139.254 92.6845 141.641 101.205 143.853C107.801 145.678 114.298 148.265 120.528 151.549C121.279 151.957 122.013 152.401 122.724 152.88L109.498 150.856C107.699 150.578 105.898 150.245 104.081 149.923L85.5631 146.7L69.2478 143.783C68.4663 143.609 67.6956 143.64 67.0253 143.873C66.355 144.106 65.8137 144.53 65.4636 145.098C64.6607 146.37 65.4563 147.737 66.4714 148.99C68.9666 152.025 72.2019 154.51 75.7995 156.155C79.8997 158.144 84.1956 159.498 88.4862 160.154C92.1966 160.781 95.8967 161.208 99.5671 161.431C103.061 161.559 106.613 161.245 110.169 161.437C115.069 161.694 120.056 162.28 124.917 162.68C125.463 162.8 126.005 162.979 126.532 163.214C126.173 163.555 125.659 163.731 125.088 163.707C118.488 163.396 112.099 164.053 106.148 165.654C100.049 167.237 93.7239 168.346 87.2282 168.972C85.4019 169.273 83.491 169.344 81.5397 169.184C80.7108 169.233 79.959 169.492 79.3606 169.936C79.2062 170.002 79.075 170.099 78.9739 170.223C78.8731 170.347 78.8049 170.493 78.7731 170.656C78.7417 170.817 78.7473 170.99 78.7902 171.164C78.8326 171.339 78.9115 171.511 79.0213 171.672C79.6391 173.074 80.5856 174.389 81.7817 175.504C82.9772 176.619 84.3871 177.502 85.8911 178.078C88.2599 178.925 90.6843 179.373 93.0375 179.399C96.8459 179.566 100.86 180.055 103.744 177.795C103.86 177.705 104.056 177.751 104.203 177.694C107.02 176.844 109.771 175.82 112.67 175.162C119.736 173.457 127.242 172.745 134.973 173.047C138.381 173.242 141.878 174.3 145.326 174.775C149.168 175.372 152.955 177.191 156.026 179.915C160.009 183.232 163.735 186.833 167.531 190.351C170.386 192.983 173.111 195.716 175.994 198.3C179.293 201.267 182.723 204.107 186.094 206.991C185.354 206.755 184.636 206.411 183.969 205.974C178.201 202.396 172.462 198.768 166.683 195.256C164.57 193.985 162.401 192.826 160.188 191.787C157.942 190.694 155.691 189.916 153.462 188.895C150.593 187.626 147.596 186.883 144.663 186.716C141.73 186.548 138.925 186.959 136.428 187.921C135.593 188.245 134.845 188.7 134.21 189.269C133.464 189.839 133.005 190.676 132.911 191.644C132.816 192.611 133.091 193.653 133.69 194.6C134.887 196.363 136.579 196.554 138.415 196.605C139.779 196.609 141.182 196.823 142.57 197.241C146.719 198.589 150.858 200.057 154.998 201.525C159.545 203.131 164.109 204.809 168.656 206.414C171.421 207.39 174.224 208.194 176.962 209.274C178.799 209.823 180.559 210.766 182.087 212.018L178.621 211.019C175.954 210.251 173.301 209.474 170.605 208.728C166.583 207.622 162.501 206.903 158.571 205.47C154.642 204.037 151.019 202.821 147.028 201.747C142.375 200.57 137.754 200.74 133.82 202.23C132.755 202.612 131.967 203.384 131.603 204.399C131.307 205.242 131.227 206.175 131.368 207.136C131.508 208.097 131.866 209.063 132.418 209.969C133.55 212.378 134.026 212.747 136.63 213.024C138.756 213.248 140.846 213.301 142.999 213.475C147.395 213.81 151.876 214.419 156.264 214.534C160.839 214.51 165.476 214.762 170.144 215.287C175.041 215.83 179.978 216.925 184.846 218.547C189.891 220.306 194.862 222.49 199.817 224.657C202.239 225.8 204.625 227.044 206.962 228.387C207.653 228.772 208.321 229.202 208.962 229.67C211.805 231.916 214.424 234.413 216.765 237.111C220.208 240.732 223.854 244.197 227.355 247.773C230.855 251.349 233.852 254.609 237.094 258.018C238.349 259.339 239.505 260.767 240.674 262.156C242.09 264.102 243.671 265.96 245.395 267.705C249.604 271.47 252.121 276.262 255.949 280.237C255.949 280.237 255.949 280.237 255.884 280.485C255.666 280.401 255.453 280.301 255.247 280.186C252.416 278.214 249.614 276.22 246.769 274.287C245.516 273.445 244.137 272.842 242.942 271.955C240.382 270.056 238.008 267.93 235.407 266.121C229.976 262.165 224.287 258.582 218.404 255.41C214.894 253.624 211.382 251.783 207.982 249.742C205.854 248.494 203.575 247.588 201.264 247.07C199.128 246.544 196.992 246.044 194.843 245.612C193.771 245.357 192.699 245.235 191.654 245.249C190.919 245.253 190.241 245.446 189.691 245.805C189.14 246.164 188.737 246.679 188.523 247.295C188.308 247.91 188.291 248.606 188.471 249.309C188.652 250.012 189.024 250.698 189.549 251.295C191.033 252.993 192.703 254.555 194.521 255.943C197.497 258.004 200.738 259.62 204.089 260.713C208.675 262.572 213.301 264.287 217.961 265.748C222 266.986 225.961 268.679 229.747 270.784C234.894 273.599 239.868 276.768 244.617 280.258C245.966 281.253 247.343 282.197 248.705 283.181C246.873 282.704 245.058 282.047 243.296 281.224C239.101 279.459 235.005 277.56 230.814 275.878C227.031 274.388 223.22 272.947 219.36 271.773C215.5 270.598 211.793 269.928 208.01 268.836C204.628 267.915 201.226 267.388 197.888 267.269C197.317 267.218 196.756 267.233 196.22 267.314C195.45 267.452 194.799 267.824 194.356 268.379C193.915 268.934 193.704 269.645 193.753 270.413C193.693 272.045 194.898 272.756 196.142 273.349C198.994 274.709 201.834 276.08 204.795 277.157C208.985 278.757 213.252 280.069 217.421 281.542C220.338 282.598 223.232 283.842 226.136 284.963C229.04 286.085 232.15 287.133 235.146 288.325C240.381 290.39 245.565 292.693 250.839 294.613C258.496 297.255 265.922 300.914 272.857 305.462C275.609 307.384 278.016 309.746 279.925 312.395C283.172 316.763 286.55 321.058 289.884 325.387C290.241 325.762 290.437 326.233 290.705 326.648C289.321 325.796 287.986 324.86 286.711 323.849C279.942 319.377 273.724 314.08 266.378 310.563C263.388 309.139 260.617 307.15 257.557 305.837C249.171 302.213 240.646 299.093 232.045 296.502C230.893 296.24 229.756 296.285 228.769 296.631C228.369 296.727 228.017 296.911 227.739 297.171C227.461 297.431 227.265 297.761 227.164 298.135C227.063 298.509 227.06 298.919 227.157 299.333C227.253 299.748 227.445 300.157 227.719 300.53C228.693 302.229 230.197 303.69 231.987 304.675C236.589 307.002 241.126 309.55 245.729 311.85C252.655 315.296 259.647 318.548 266.528 321.973C267.001 322.251 267.456 322.561 267.888 322.901C263.516 322.379 259.251 321.573 254.985 320.713C252.627 320.244 250.244 319.484 247.89 319.154C246.192 318.997 244.523 319.017 242.912 319.213C239.792 319.331 236.916 320.176 234.532 321.677C232.802 322.876 232.748 324.249 234.714 325.813C236.679 327.378 239.092 328.937 241.311 330.477C241.481 330.656 241.823 330.618 242.05 330.725C245.365 332.086 248.799 332.873 252.156 333.04C258.97 333.855 265.739 334.25 272.532 334.882C274.904 335.046 277.298 335.369 279.695 335.851C283.967 336.849 288.216 338.089 292.614 339.273C292.716 339.194 292.838 338.874 293.078 338.517C298.088 340.53 302.927 342.815 306.462 347.301C305.442 346.939 304.431 346.53 303.435 346.076C298.71 344.494 293.988 342.996 289.267 341.524C288.031 341.128 286.777 340.879 285.542 340.783C285.022 340.697 284.516 340.733 284.069 340.887C283.623 341.041 283.25 341.308 282.987 341.665C282.724 342.02 282.578 342.454 282.562 342.925C282.547 343.395 282.663 343.888 282.899 344.358C283.179 345.118 283.583 345.857 284.098 346.545C284.85 347.591 285.684 348.593 286.593 349.541C287.39 350.446 288.322 351.247 289.349 351.91C292.646 353.814 296.144 355.258 299.705 356.184C305.56 357.639 311.367 359.646 317.027 362.174C317.633 362.523 318.303 362.698 318.939 362.676C320.359 362.37 321.062 363.241 321.874 364.228C324.122 366.99 326.414 369.719 328.691 372.458C330.215 374.247 331.381 376.24 332.11 378.306C327.351 374.968 322.758 372.095 318.109 369.323C313.459 366.55 308.499 363.423 303.686 360.664C300.496 358.958 297.099 357.819 293.707 357.316C292.868 357.066 292.022 357.076 291.309 357.346C290.596 357.615 290.057 358.127 289.779 358.798C289.462 359.517 289.369 360.342 289.51 361.194C289.65 362.046 290.02 362.898 290.584 363.668C292.262 366.056 294.581 368.061 297.237 369.422C302.005 371.791 306.886 373.96 311.711 376.256C315.187 377.899 318.626 379.399 322.095 381.273C328.646 385.078 335.021 389.212 341.187 393.652C342.525 394.44 343.784 395.371 344.927 396.421C347.702 399.341 350.478 402.261 352.965 405.406C355.098 408.125 357.092 410.92 358.937 413.781C360.212 415.625 361.403 416.375 363.933 415.012C367.064 413.38 367.126 410.189 367.542 407.29L365.045 405.457C364.103 404.55 363.009 403.797 361.832 403.243C360.61 402.905 359.472 402.17 358.64 401.183C355.932 398.096 353.282 394.965 350.546 391.901C346.583 387.493 342.414 383.188 338.581 378.678C335.886 375.526 333.554 372.12 331.078 368.826C330.706 368.435 330.552 367.93 330.045 367.104L335.516 369.497C337.987 370.586 340.513 371.576 342.914 372.805C346.88 374.832 351.072 376.542 354.096 380.119C354.416 380.526 354.842 380.857 355.319 381.07C355.795 381.283 356.299 381.366 356.765 381.311C358.909 381.183 360.755 380.298 361.952 378.825C363.461 377.261 363.315 376.155 361.25 374.326C359.54 372.819 357.768 371.643 356.119 370.2C352.148 367.102 348.434 363.708 345.027 360.067C344.762 359.727 344.424 359.434 344.041 359.216C342.633 358.445 341.393 357.375 340.448 356.116C339.502 354.857 338.887 353.453 338.665 352.051C337.208 345.396 336.86 338.794 337.636 332.487C337.847 328.869 337.936 325.204 337.875 321.512C337.815 317.821 337.429 314.212 337.342 310.598C337.313 306.881 336.447 303.04 334.797 299.315C334.382 298.335 333.746 297.41 332.939 296.611C332.131 295.812 331.173 295.161 330.14 294.708C328.531 293.942 327.867 294.117 327.289 295.443C326.396 297.636 326.169 300.128 326.629 302.693C327.174 306.15 327.314 309.581 327.888 313.045C328.647 317.895 330.228 322.788 330.075 327.578C330.021 328.952 330.176 330.332 330.092 331.7L329.51 331.697C329.132 331.082 328.814 330.446 328.561 329.798C328.031 328.191 327.589 326.577 327.235 324.962C326.561 321.605 326.065 318.223 325.449 314.848C324.834 311.473 324.193 308.231 323.596 304.956C322.476 299.196 321.414 293.419 320.265 287.71C320.027 286.559 319.51 285.418 318.757 284.376C318.493 283.959 318.123 283.596 317.687 283.328C317.252 283.06 316.769 282.897 316.295 282.86C315.82 282.822 315.374 282.911 315.005 283.115C314.636 283.319 314.361 283.631 314.21 284.015C313.635 285.061 313.236 286.209 313.023 287.427C312.247 292.796 312.376 298.421 313.41 304.117C314.279 310.798 316.142 317.534 318.945 324.131C320.666 327.981 322.255 331.876 323.873 335.749C324.166 336.428 324.341 337.142 324.612 338.009C322.105 335.929 319.908 334.147 317.797 332.297C317.11 331.774 316.565 331.1 316.235 330.362C314.604 325.31 313.106 320.239 311.489 315.176C310.41 311.736 309.331 308.352 308.025 304.859C307.551 303.717 306.874 302.619 306.028 301.62C305.738 301.244 305.374 300.915 304.963 300.656C304.551 300.399 304.103 300.217 303.648 300.125C303.194 300.034 302.745 300.035 302.333 300.127C301.921 300.22 301.557 300.403 301.266 300.662C300.57 301.144 300.061 301.815 299.787 302.612C299.513 303.409 299.485 304.304 299.703 305.213C300.554 308.122 301.302 311.026 302.065 313.948C302.282 314.999 302.439 316.049 302.538 317.093C300.891 315.769 299.541 314.149 298.608 312.376C296.538 308.092 293.1 304.28 288.848 301.552C288.461 299.53 288.098 297.375 287.677 295.237C286.73 291.389 286.234 287.546 286.199 283.78C286.311 281.541 286.137 279.24 286.084 276.96C286.037 273.654 285.735 270.264 286.003 267.025C286.233 264.222 285.678 261.254 284.39 258.391C284.201 257.81 283.838 257.258 283.349 256.806C282.86 256.353 282.266 256.018 281.643 255.845C280.204 255.57 278.807 255.717 277.651 256.266C276.496 256.814 275.641 257.737 275.208 258.9C274.899 260.918 274.785 262.996 274.869 265.11C274.97 267.864 275.26 270.472 275.6 273.266C275.088 272.508 274.747 271.688 274.603 270.867C273.781 264.706 272.902 258.618 272.037 252.492C271.388 247.812 270.711 243.154 269.941 238.426C269.717 237.282 269.221 236.146 268.492 235.101C268.269 234.733 267.957 234.407 267.586 234.153C267.217 233.901 266.801 233.731 266.382 233.659C265.963 233.588 265.555 233.619 265.199 233.749C264.843 233.879 264.55 234.102 264.351 234.399C263.961 234.812 263.685 235.314 263.54 235.876C263.004 237.663 262.594 239.504 262.311 241.387C261.636 248.017 262.096 254.928 263.672 261.883C265.271 269.311 267.928 276.74 270.184 284.169C270.865 286.475 271.758 288.87 272.544 291.206C271.097 289.462 269.78 287.642 268.602 285.762C267.735 284.48 266.647 283.283 265.884 281.977C262.989 277.024 260.211 272.01 257.316 267.059C255.402 264.354 254.206 261.368 253.853 258.411C253.743 257.582 253.548 256.747 253.27 255.918C252.785 254.316 252.418 252.708 252.169 251.107C252.137 249.839 252.215 248.594 252.405 247.383C252.384 245.883 252.455 244.401 252.616 242.945C253.506 237.923 254.533 232.966 255.466 227.939C255.506 227.582 255.522 227.219 255.516 226.852C255.88 223.74 255.984 220.486 256.664 217.468C257.708 213.646 257.962 209.529 257.412 205.307C257.027 203.34 257.103 201.355 256.823 199.392C256.653 198.022 256.289 196.634 256.015 195.26C255.736 194.129 255.114 193.029 254.229 192.097C253.343 191.166 252.233 190.444 251.037 190.023C250.05 189.541 249.289 189.535 249.013 190.542C248.842 191.004 248.507 191.372 248.053 191.596C246.879 192.243 246.133 193.36 245.974 194.706C245.8 195.634 245.625 196.562 245.541 197.533C244.871 202.016 244.786 206.672 245.289 211.407C246.597 218.639 246.934 225.799 246.292 232.718C246.112 232.687 245.917 232.641 245.722 232.621C245.334 229.353 244.856 226.071 244.543 222.802C244.159 218.851 243.985 214.907 243.616 210.945C243.335 207.736 242.965 204.541 242.563 201.311C242.092 195.076 241.079 188.777 239.533 182.475C238.97 180.56 238.44 178.677 237.757 176.741C237.426 175.899 236.839 175.118 236.077 174.506C235.315 173.894 234.415 173.481 233.502 173.324C232.602 173.306 231.769 173.525 231.096 173.957C230.422 174.388 229.934 175.016 229.684 175.769C229.158 177.634 228.889 179.6 228.885 181.627C229.292 186.887 230.373 192.219 232.106 197.512C233.895 203.631 235.805 209.771 237.551 215.951C238.869 220.594 240.022 225.196 241.012 229.811C242.541 236.026 244.487 242.23 246.836 248.382C247.073 249.187 247.252 249.994 247.371 250.799C247.068 250.463 246.79 250.11 246.542 249.741C243.847 243.332 239.656 237.599 235.993 231.6C233.787 227.983 231.596 224.328 229.657 220.646C227.254 215.545 225.706 210.284 225.076 205.077C224.438 201.097 223.694 197.085 223.146 193.092C222.451 189.163 222.218 185.269 222.453 181.48C222.841 177.81 222.926 174.035 223.285 170.387C223.369 169.619 223.245 168.803 222.926 168.006C222.606 167.209 222.099 166.455 221.446 165.806C221.121 165.401 220.677 165.087 220.189 164.917C219.7 164.746 219.2 164.731 218.773 164.874C217.378 165.102 216.16 165.702 215.247 166.607C214.335 167.512 213.764 168.69 213.593 170.016C213.142 173.217 212.878 176.475 212.803 179.775C212.925 181.792 213.18 183.828 213.563 185.87C213.727 187.526 213.847 189.188 213.984 190.867C213.989 191.235 213.973 191.597 213.934 191.954C213.326 191.388 212.846 190.72 212.536 190.006C210.507 185.488 208.669 180.907 206.434 176.465C204.551 172.683 203.048 168.72 199.752 165.439C199.227 164.86 198.822 164.208 198.564 163.526C197.761 161.794 197.408 159.992 197.537 158.29C197.677 154.722 198.391 151.308 199.657 148.154C200.331 146.612 201.339 145.237 202.18 143.764C203.195 141.663 204.724 139.881 206.671 138.533C207.132 138.193 207.547 137.806 207.911 137.375C209.969 135.357 211.995 133.278 214.13 131.314C217.607 128.114 221.699 125.455 224.635 121.739C225.103 121.131 225.474 120.454 225.74 119.723C226.175 118.593 226.52 117.42 226.835 116.242C227.174 115.154 227.411 114.022 227.546 112.859C227.585 112.528 227.538 112.175 227.407 111.829C227.276 111.484 227.066 111.154 226.792 110.866C226.519 110.578 226.189 110.34 225.831 110.171C225.471 110.002 225.093 109.906 224.723 109.89C222.605 109.386 220.499 109.393 218.618 109.909C216.738 110.426 215.147 111.435 214.006 112.835C212.819 114.234 211.741 115.748 210.477 117.066C205.505 122.273 201.279 128.098 197.872 134.441C197.105 135.884 196.445 137.414 195.755 138.912C195.425 138.147 195.258 137.358 195.267 136.599C195.348 130.545 196.153 124.662 197.667 119.053C198.582 115.819 199.233 112.477 199.612 109.052C199.797 104.746 199.861 100.364 200.29 96.1816C200.292 94.0764 199.741 91.8905 198.684 89.8061C198.598 89.551 198.451 89.3054 198.256 89.0899C198.06 88.8738 197.821 88.6946 197.559 88.566C197.297 88.4373 197.019 88.3634 196.747 88.35C196.475 88.3361 196.219 88.384 195.997 88.4885C192.645 89.8081 189.342 91.2322 188.725 95.137C188.544 96.2165 188.474 97.3313 188.519 98.4679C188.761 102.641 189.198 106.834 189.29 110.982C189.238 113.712 189.003 116.401 188.586 119.032C188.067 126.289 188.567 133.78 190.073 141.328C190.327 142.999 190.552 144.639 190.854 146.386C189.323 144.485 188.075 142.431 187.157 140.3C185.279 135.744 184.259 131.082 184.149 126.544C184.041 123.895 184.176 121.29 184.549 118.758C184.879 116.775 184.484 114.532 184.587 112.47C184.739 109.266 185.116 106.142 185.283 102.955C185.508 98.5043 185.793 94.0647 185.761 89.53C185.792 84.2672 185.538 78.9696 185.315 73.6773C185.221 70.7194 184.75 67.6291 184.67 64.605C184.6 60.9763 183.833 57.2475 182.403 53.5887C181.739 51.9944 180.886 50.4395 179.862 48.957C179.423 48.3533 178.821 47.8519 178.137 47.5206C177.453 47.1893 176.72 47.0439 176.037 47.104ZM322.304 352.369C321.203 348.774 320.043 345.171 318.956 341.565C318.903 341.069 318.936 340.584 319.053 340.132C320.006 340.923 320.743 341.485 321.437 342.109C322.196 342.842 322.921 343.604 323.608 344.393L339.487 362.289C339.083 362.179 338.683 362.034 338.294 361.854C333.612 359.418 328.973 356.948 324.293 354.567C323.818 354.357 323.383 354.044 323.033 353.658C322.685 353.271 322.433 352.827 322.304 352.369Z" fill="white"/>
<path d="M154.576 126.865C155.281 127.368 156.042 127.798 156.124 128.81C154.831 128.933 153.991 127.97 153.162 127.337C149.618 124.857 146.309 122.059 143.299 119C142.416 118.14 141.404 117.408 140.312 116.838C138.445 115.674 136.761 114.228 135.355 112.576C134.595 111.777 133.665 110.798 134.459 109.701C135.793 111.104 137.003 112.376 138.228 113.665C138.977 114.398 139.814 115.047 140.714 115.592C144.056 117.678 146.536 120.658 149.503 123.09C151.162 124.411 152.891 125.621 154.576 126.865ZM78.4733 113.505C73.9567 110.29 69.5251 106.953 65.0222 103.698C62.5111 101.904 59.9438 100.21 57.4621 98.393C56.1918 97.5073 54.9497 96.5716 53.708 95.6352C52.7075 96.4098 53.255 97.1188 54.0382 97.7301C55.1437 98.6018 56.2345 99.4849 57.397 100.284C60.3655 102.347 63.3607 104.333 66.3287 106.397C70.5204 109.297 74.6845 112.247 78.8771 115.175C80.2391 116.132 81.6741 117.031 83.0214 117.999C85.9936 120.173 88.9526 122.385 91.9537 124.536C92.5833 124.893 93.2466 125.171 93.9226 125.362L94.16 124.924C92.7045 123.589 91.1893 122.314 89.6214 121.102C85.9344 118.548 82.1469 116.099 78.4733 113.505ZM179.862 48.9568C180.898 50.4265 181.765 51.97 182.446 53.5549C183.867 57.2276 184.62 60.9683 184.67 64.6049C184.75 67.629 185.221 70.7192 185.347 73.7374C185.571 79.0298 185.81 84.3386 185.779 89.6014C185.795 94.1196 185.525 98.5757 185.301 103.026C185.134 106.213 184.756 109.337 184.605 112.541C184.502 114.604 184.897 116.846 184.567 118.829C184.193 121.362 184.059 123.966 184.166 126.615C184.277 131.153 185.296 135.815 187.174 140.371C188.088 142.44 189.313 144.434 190.805 146.282C190.581 144.616 190.356 142.977 190.024 141.224C188.543 133.709 188.059 126.254 188.586 119.032C188.936 116.349 189.099 113.612 189.076 110.837C188.984 106.688 188.547 102.495 188.304 98.3217C188.261 97.1859 188.329 96.0704 188.511 94.9909C189.128 91.0861 192.431 89.6626 195.783 88.3425C196.004 88.2379 196.261 88.1906 196.533 88.204C196.804 88.2173 197.082 88.2912 197.345 88.4199C197.607 88.5486 197.846 88.7283 198.042 88.9438C198.237 89.1593 198.384 89.4049 198.47 89.66C199.537 91.7249 200.108 93.8944 200.133 95.9905C199.767 100.239 199.642 104.555 199.456 108.861C199.076 112.286 198.426 115.628 197.511 118.862C195.995 124.502 195.197 130.419 195.13 136.507C195.12 137.267 195.286 138.054 195.617 138.82C196.308 137.323 196.968 135.792 197.735 134.349C201.152 127.992 205.393 122.155 210.383 116.94C211.647 115.622 212.726 114.109 213.911 112.708C215.053 111.309 216.644 110.3 218.524 109.784C220.405 109.267 222.51 109.26 224.629 109.765C224.998 109.78 225.377 109.876 225.736 110.045C226.095 110.215 226.424 110.452 226.698 110.741C226.972 111.028 227.182 111.358 227.313 111.704C227.444 112.05 227.491 112.403 227.452 112.734C227.317 113.897 227.079 115.028 226.741 116.116C226.426 117.294 226.081 118.467 225.645 119.597C225.38 120.329 225.008 121.005 224.541 121.613C221.606 125.33 217.513 127.988 214.036 131.189C211.901 133.153 209.875 135.231 207.816 137.249C207.453 137.68 207.038 138.068 206.577 138.408C204.592 139.784 203.043 141.61 202.031 143.767C201.19 145.238 200.182 146.614 199.507 148.155C198.241 151.309 197.527 154.723 197.388 158.291C197.259 159.994 197.612 161.796 198.415 163.528C198.672 164.21 199.078 164.863 199.603 165.44C202.899 168.722 204.401 172.685 206.285 176.466C208.52 180.91 210.357 185.49 212.387 190.008C212.697 190.721 213.177 191.39 213.785 191.956C213.823 191.599 213.84 191.236 213.835 190.87C213.699 189.191 213.578 187.528 213.413 185.872C213.03 183.83 212.776 181.795 212.653 179.777C212.729 176.476 212.994 173.219 213.444 170.018C213.614 168.692 214.187 167.514 215.099 166.609C216.01 165.703 217.229 165.105 218.624 164.876C219.051 164.734 219.551 164.749 220.039 164.919C220.527 165.089 220.972 165.404 221.298 165.808C221.95 166.457 222.457 167.211 222.777 168.008C223.097 168.805 223.219 169.621 223.135 170.389C222.748 174.059 222.662 177.835 222.304 181.483C222.069 185.271 222.301 189.165 222.997 193.094C223.633 197.02 224.438 201.097 225.076 205.077C225.71 210.29 227.263 215.556 229.672 220.662C231.582 224.366 233.803 228 236.008 231.616C239.672 237.616 243.909 243.397 246.558 249.758C246.805 250.126 247.082 250.479 247.387 250.815C247.268 250.011 247.089 249.203 246.851 248.398C244.502 242.246 242.557 236.043 241.027 229.827C240.037 225.212 238.854 220.578 237.567 215.967C235.867 209.836 233.957 203.696 232.121 197.528C230.382 192.231 229.295 186.892 228.885 181.627C228.889 179.6 229.158 177.634 229.684 175.769C229.934 175.016 230.422 174.388 231.096 173.956C231.769 173.525 232.602 173.306 233.502 173.324C234.415 173.481 235.315 173.894 236.077 174.506C236.839 175.118 237.426 175.899 237.757 176.741C238.497 178.632 238.912 180.604 239.533 182.475C241.079 188.777 242.092 195.076 242.563 201.311C242.964 204.541 243.335 207.736 243.616 210.944C243.985 214.907 244.159 218.85 244.543 222.802C244.856 226.071 245.334 229.353 245.722 232.621C245.917 232.64 246.112 232.687 246.292 232.718C246.934 225.799 246.597 218.639 245.289 211.406C244.701 206.661 244.7 201.987 245.286 197.476C245.369 196.506 245.544 195.577 245.719 194.649C245.877 193.302 246.623 192.186 247.797 191.54C248.25 191.315 248.586 190.947 248.758 190.484C249.062 189.455 249.823 189.461 250.781 189.965C251.977 190.387 253.087 191.108 253.973 192.04C254.859 192.972 255.48 194.072 255.759 195.202C256.033 196.576 256.397 197.965 256.567 199.335C256.818 201.32 256.742 203.305 257.156 205.25C257.707 209.472 257.453 213.589 256.408 217.411C255.849 220.477 255.667 223.649 255.26 226.795C255.267 227.162 255.25 227.525 255.211 227.881C254.261 232.892 253.265 237.882 252.36 242.888C252.2 244.344 252.13 245.826 252.15 247.326C251.96 248.538 251.88 249.782 251.913 251.049C252.162 252.651 252.529 254.258 253.014 255.861C253.318 256.697 253.539 257.54 253.673 258.381C254.026 261.336 255.222 264.323 257.135 267.028C260.031 271.98 262.809 276.993 265.704 281.946C266.467 283.251 267.555 284.449 268.422 285.732C269.6 287.611 270.917 289.431 272.364 291.176C271.639 288.904 270.731 286.492 270.003 284.139C267.749 276.71 265.091 269.28 263.492 261.853C261.915 254.898 261.456 247.986 262.131 241.357C262.413 239.473 262.824 237.632 263.361 235.845C263.506 235.283 263.781 234.78 264.171 234.368C264.37 234.072 264.663 233.848 265.019 233.718C265.376 233.588 265.783 233.557 266.202 233.629C266.621 233.699 267.036 233.87 267.407 234.123C267.776 234.376 268.089 234.702 268.313 235.071C269.04 236.115 269.536 237.252 269.761 238.395C270.56 243.101 271.165 247.814 271.857 252.461C272.678 258.621 273.484 264.765 274.423 270.835C274.567 271.657 274.908 272.478 275.42 273.235C275.204 270.571 274.788 267.778 274.689 265.078C274.605 262.964 274.719 260.888 275.029 258.869C275.461 257.706 276.316 256.784 277.472 256.236C278.628 255.687 280.024 255.539 281.463 255.815C282.085 255.987 282.68 256.321 283.169 256.774C283.657 257.228 284.02 257.779 284.21 258.36C285.499 261.224 286.053 264.191 285.824 266.995C285.554 270.233 285.857 273.624 285.904 276.929C285.957 279.21 286.131 281.51 286.019 283.749C286.054 287.516 286.55 291.358 287.497 295.206C287.918 297.344 288.28 299.499 288.667 301.522C292.921 304.249 296.357 308.061 298.428 312.345C299.361 314.118 300.711 315.739 302.358 317.062C302.259 316.018 302.101 314.968 301.885 313.916C301.123 310.996 300.375 308.091 299.522 305.183C299.285 304.252 299.307 303.332 299.586 302.514C299.865 301.696 300.391 301.011 301.112 300.526C301.404 300.267 301.768 300.084 302.18 299.992C302.591 299.899 303.04 299.899 303.494 299.99C303.948 300.081 304.397 300.262 304.808 300.521C305.219 300.779 305.583 301.108 305.874 301.485C306.72 302.484 307.397 303.581 307.871 304.724C309.115 308.15 310.255 311.601 311.336 315.04C312.952 320.104 314.45 325.174 316.081 330.226C316.41 330.964 316.955 331.638 317.643 332.161C319.753 334.01 321.951 335.792 324.458 337.873C324.156 336.974 323.982 336.26 323.719 335.613C322.101 331.74 320.512 327.844 318.791 323.995C315.987 317.398 314.125 310.661 313.257 303.981C312.223 298.285 312.092 292.659 312.869 287.29C313.081 286.073 313.48 284.926 314.057 283.879C314.206 283.496 314.482 283.183 314.851 282.979C315.219 282.774 315.666 282.686 316.141 282.724C316.615 282.761 317.098 282.924 317.533 283.192C317.969 283.46 318.34 283.823 318.603 284.24C319.356 285.283 319.872 286.424 320.112 287.575C321.322 293.349 322.383 299.126 323.442 304.819C324.07 308.128 324.713 311.453 325.295 314.713C325.876 317.972 326.422 321.458 327.082 324.826C327.435 326.441 327.877 328.056 328.406 329.663C328.659 330.31 328.978 330.947 329.356 331.561L329.937 331.564C329.917 330.192 329.837 328.811 329.921 327.443C330.074 322.652 328.493 317.759 327.734 312.91C327.176 309.463 327.035 306.031 326.475 302.556C326.015 299.992 326.241 297.499 327.134 295.306C327.712 293.981 328.377 293.807 329.985 294.572C331.02 295.025 331.977 295.677 332.785 296.476C333.592 297.275 334.228 298.2 334.643 299.18C336.253 302.886 337.088 306.702 337.095 310.392C337.198 314.022 337.588 317.714 337.629 321.306C337.671 324.899 337.712 328.86 337.636 332.487C336.916 338.792 337.313 345.383 338.813 352.021C339.035 353.424 339.65 354.827 340.596 356.086C341.541 357.346 342.781 358.415 344.189 359.187C344.572 359.405 344.91 359.697 345.175 360.038C348.582 363.679 352.296 367.073 356.267 370.17C357.977 371.678 359.75 372.855 361.398 374.297C363.463 376.126 363.609 377.231 362.1 378.795C360.903 380.269 359.057 381.153 356.913 381.281C356.447 381.337 355.943 381.253 355.466 381.04C354.99 380.827 354.564 380.496 354.244 380.09C351.221 376.511 347.028 374.802 343.062 372.775C340.661 371.546 338.135 370.557 335.664 369.467L330.193 367.075C330.701 367.9 330.912 368.36 331.226 368.797C333.702 372.091 336.034 375.496 338.729 378.649C342.561 383.157 346.731 387.463 350.694 391.871C353.43 394.935 356.08 398.067 358.787 401.153C359.195 401.693 359.698 402.175 360.268 402.569C360.838 402.965 361.463 403.265 362.107 403.454C363.285 404.008 364.378 404.762 365.32 405.668L367.818 407.501C367.402 410.4 367.309 413.559 364.209 415.222C361.751 416.529 360.473 415.82 359.213 413.992C357.369 411.132 355.375 408.335 353.241 405.617C350.711 402.506 347.978 399.552 345.203 396.632C344.06 395.582 342.802 394.651 341.463 393.863C335.221 389.355 328.763 385.161 322.126 381.306C318.72 379.497 315.217 377.931 311.743 376.289C306.989 373.936 302.065 371.801 297.267 369.454C294.582 368.083 292.238 366.053 290.553 363.636C289.989 362.866 289.619 362.014 289.479 361.161C289.338 360.309 289.431 359.484 289.749 358.765C290.026 358.094 290.565 357.582 291.277 357.313C291.991 357.044 292.836 357.032 293.676 357.283C297.068 357.786 300.465 358.926 303.654 360.631C308.529 363.456 313.307 366.469 318.077 369.289C322.848 372.11 327.335 374.951 332.08 378.273C331.35 376.207 330.184 374.214 328.66 372.426C326.382 369.685 324.091 366.957 321.842 364.194C320.959 363.265 320.328 362.337 318.908 362.644C318.273 362.666 317.602 362.489 316.996 362.141C311.345 359.626 305.549 357.629 299.705 356.184C296.158 355.251 292.676 353.805 289.393 351.904C288.367 351.241 287.435 350.44 286.637 349.535C285.729 348.587 284.895 347.585 284.142 346.539C283.628 345.851 283.223 345.112 282.943 344.352C282.707 343.882 282.592 343.389 282.607 342.918C282.622 342.448 282.769 342.014 283.031 341.658C283.295 341.302 283.667 341.035 284.113 340.88C284.56 340.727 285.066 340.691 285.586 340.777C286.838 340.876 288.106 341.132 289.357 341.539C294.078 343.011 298.8 344.51 303.524 346.091C304.521 346.545 305.532 346.954 306.552 347.316C302.989 342.853 298.149 340.568 293.169 338.532C292.928 338.888 292.774 339.178 292.704 339.288C288.307 338.105 284.057 336.864 279.785 335.866C277.388 335.384 274.995 335.061 272.622 334.897C265.829 334.265 259.06 333.869 252.246 333.055C248.889 332.888 245.456 332.101 242.141 330.74C241.913 330.633 241.615 330.637 241.401 330.491C239.182 328.952 236.893 327.497 234.804 325.828C232.715 324.16 232.88 322.957 234.532 321.677C236.921 320.163 239.807 319.309 242.94 319.19C244.552 318.994 246.222 318.974 247.919 319.132C250.272 319.462 252.656 320.222 255.014 320.69C259.28 321.55 263.544 322.356 267.917 322.879C267.485 322.539 267.03 322.228 266.557 321.95C259.618 318.57 252.669 315.285 245.757 311.827C241.097 309.572 236.618 306.979 232.015 304.653C230.226 303.668 228.722 302.207 227.748 300.508C227.479 300.137 227.29 299.733 227.195 299.323C227.1 298.912 227.102 298.508 227.199 298.137C227.297 297.766 227.488 297.439 227.76 297.178C228.032 296.918 228.376 296.731 228.769 296.631C229.756 296.285 230.893 296.24 232.045 296.502C240.646 299.093 249.171 302.213 257.556 305.837C260.559 307.195 263.388 309.139 266.378 310.563C273.724 314.08 280 319.332 286.711 323.849C287.986 324.86 289.321 325.796 290.705 326.648C290.437 326.233 290.197 325.796 289.884 325.387C286.55 321.058 283.172 316.763 279.925 312.395C278.016 309.746 275.609 307.384 272.857 305.462C265.922 300.914 258.496 297.255 250.839 294.613C245.565 292.693 240.381 290.39 235.146 288.325C232.15 287.133 229.13 286.101 226.136 284.963C223.142 283.826 220.338 282.598 217.421 281.542C213.19 280.004 208.922 278.691 204.795 277.157C201.877 276.046 199.038 274.675 196.142 273.349C194.898 272.756 193.693 272.045 193.753 270.413C193.704 269.644 193.915 268.934 194.356 268.378C194.799 267.824 195.45 267.452 196.22 267.314C196.756 267.233 197.316 267.218 197.888 267.269C201.226 267.388 204.628 267.915 208.01 268.836C211.793 269.928 215.604 270.602 219.36 271.773C223.116 272.944 227 274.354 230.813 275.877C234.961 277.593 239.188 279.391 243.296 281.224C245.058 282.047 246.873 282.704 248.705 283.181C247.342 282.197 245.966 281.252 244.617 280.257C239.868 276.768 234.894 273.599 229.747 270.784C225.961 268.678 221.999 266.985 217.961 265.748C213.301 264.287 208.675 262.572 204.089 260.713C200.738 259.619 197.497 258.004 194.521 255.943C192.703 254.555 191.033 252.993 189.549 251.295C189.023 250.698 188.652 250.012 188.471 249.309C188.291 248.605 188.308 247.91 188.523 247.295C188.737 246.679 189.14 246.164 189.691 245.805C190.241 245.445 190.919 245.253 191.654 245.249C192.699 245.235 193.771 245.357 194.843 245.612C196.992 246.044 199.127 246.543 201.264 247.07C203.575 247.587 205.854 248.494 207.982 249.742C211.353 251.806 214.865 253.646 218.404 255.41C224.248 258.589 229.896 262.174 235.288 266.128C237.889 267.937 240.263 270.063 242.823 271.962C244.018 272.849 245.397 273.452 246.651 274.294C249.494 276.227 252.296 278.221 255.128 280.193C255.334 280.308 255.547 280.408 255.765 280.492C255.866 280.414 255.861 280.276 255.83 280.244C252.03 276.247 249.485 271.477 245.276 267.712C243.552 265.967 241.971 264.109 240.555 262.163C239.386 260.774 238.216 259.358 236.974 258.025C233.733 254.616 230.477 251.19 227.236 247.78C223.994 244.371 220.118 240.717 216.646 237.118C214.304 234.42 211.686 231.923 208.843 229.677C208.202 229.209 207.534 228.779 206.843 228.394C204.496 227.03 202.101 225.765 199.666 224.604C194.816 222.44 189.891 220.305 184.846 218.547C179.96 216.838 174.995 215.66 170.061 215.041C165.392 214.515 160.756 214.263 156.18 214.287C151.839 214.222 147.358 213.611 142.916 213.228C140.762 213.054 138.673 213.001 136.547 212.777C133.942 212.499 133.437 212.154 132.335 209.723C131.783 208.816 131.424 207.849 131.284 206.889C131.144 205.928 131.224 204.995 131.519 204.152C131.883 203.136 132.672 202.366 133.737 201.983C137.67 200.492 142.291 200.323 146.945 201.5C150.816 202.58 154.635 203.817 158.488 205.223C162.342 206.629 166.577 207.458 170.521 208.482C173.217 209.227 175.871 210.005 178.538 210.772L182.003 211.77C180.476 210.518 178.716 209.576 176.878 209.026C174.14 207.946 171.337 207.142 168.573 206.168C164.025 204.561 159.461 202.884 154.914 201.278C150.774 199.81 146.635 198.341 142.486 196.994C141.099 196.577 139.696 196.362 138.332 196.359C136.527 196.34 134.882 196.198 133.606 194.352C133.007 193.407 132.733 192.365 132.827 191.397C132.922 190.43 133.38 189.593 134.127 189.023C134.761 188.453 135.509 187.998 136.344 187.674C138.841 186.712 141.646 186.302 144.579 186.469C147.513 186.637 150.509 187.379 153.378 188.648C155.654 189.718 157.904 190.496 160.105 191.54C162.318 192.58 164.486 193.738 166.598 195.009C172.422 198.487 178.118 202.149 183.885 205.726C184.552 206.164 185.271 206.508 186.01 206.744C182.639 203.86 179.21 201.02 175.91 198.052C173.028 195.47 170.303 192.736 167.448 190.104C163.651 186.586 159.926 182.985 155.942 179.669C152.871 176.944 149.084 175.125 145.242 174.529C141.795 174.054 138.281 172.978 134.89 172.8C127.143 172.479 119.622 173.174 112.539 174.866C109.641 175.524 106.812 176.467 104.073 177.398C103.957 177.488 103.73 177.408 103.614 177.498C100.714 179.743 96.7158 179.27 92.9073 179.103C90.5537 179.078 88.1293 178.629 85.761 177.782C84.257 177.206 82.8471 176.323 81.6511 175.209C80.4555 174.093 79.5086 172.779 78.8912 171.376C78.7809 171.216 78.7025 171.043 78.6596 170.869C78.6172 170.694 78.6115 170.521 78.643 170.36C78.6749 170.197 78.7431 170.051 78.8438 169.927C78.9449 169.803 79.0761 169.706 79.2305 169.64C79.8153 169.236 80.5348 169 81.3229 168.955C83.2737 169.116 85.1851 169.044 87.0109 168.743C93.507 168.117 99.8317 167.008 105.931 165.426C111.881 163.824 118.27 163.167 124.872 163.479C125.442 163.503 125.956 163.327 126.315 162.985C125.787 162.751 125.245 162.571 124.699 162.451C119.792 162.002 114.914 161.53 109.952 161.209C106.458 161.082 102.906 161.396 99.3499 161.203C95.6794 160.979 91.9793 160.553 88.2689 159.926C83.9783 159.269 79.6829 157.915 75.5823 155.927C71.9846 154.281 68.7493 151.797 66.2541 148.762C65.2679 147.486 64.4435 146.142 65.2469 144.869C65.5965 144.302 66.1378 143.878 66.808 143.645C67.4782 143.411 68.249 143.38 69.0305 143.554L85.3148 146.439L103.833 149.662C105.649 149.984 107.451 150.317 109.25 150.595L122.503 152.541C121.791 152.062 121.058 151.618 120.307 151.211C114.076 147.927 107.58 145.339 100.984 143.514C92.4195 141.336 83.8762 138.916 75.3344 136.522C70.649 135.222 65.9822 133.596 61.346 132.398C58.2897 131.713 55.2707 130.552 52.4227 128.969C49.3262 127.22 46.6566 124.761 44.7379 121.892C44.2172 121.127 43.8873 120.292 43.7792 119.463C43.6712 118.634 43.7887 117.839 44.1202 117.15C44.4518 116.461 44.9867 115.902 45.6764 115.523C46.3656 115.145 47.1866 114.96 48.0641 114.984C53.3895 114.988 58.902 116.067 64.239 118.152C68.7371 120.051 73.0885 121.61 77.2702 123.414C82.2865 125.619 87.2094 128.123 92.1872 130.5L99.5597 133.94L99.8119 133.49C99.2622 133.056 98.6946 132.645 98.1115 132.258C94.3869 129.902 90.6622 127.546 86.8953 125.252C79.1472 120.517 71.3296 115.92 63.623 111.096C59.228 108.354 54.9017 105.444 50.7041 102.378C48.5653 100.681 47.0569 98.3979 46.5014 96.0176C45.946 93.6372 46.3881 91.3482 47.7327 89.6414C48.5369 88.9659 49.5595 88.5337 50.706 88.3838C51.8532 88.2334 53.0865 88.3712 54.2918 88.7837C55.1661 89.1621 56.0098 89.6311 56.8037 90.1807C61.8926 93.8659 66.8233 97.7625 71.5752 101.854C75.6636 105.599 79.9667 109.093 84.2843 112.575C88.6015 116.058 93.5756 119.542 97.9102 123.493C102.722 127.868 108.283 131.096 113.263 135.17C114.869 136.365 116.533 137.48 118.247 138.505C118.379 138.415 118.504 138.318 118.624 138.213C117.972 137.528 117.305 136.827 116.567 136.209L104.016 124.912C99.374 120.718 94.6742 116.568 90.1195 112.306C85.085 107.863 80.6066 102.903 76.8163 97.5708C75.9381 96.2913 75.4215 94.8797 75.3265 93.4995C75.2311 92.12 75.5608 90.8289 76.2775 89.7757C76.7727 88.9733 77.6351 88.4559 78.6811 88.3337C79.7266 88.2122 80.8725 88.4959 81.8753 89.1238C83.734 90.4863 85.5252 91.9367 87.2381 93.4682C88.5919 94.6008 89.7733 95.9234 91.1974 96.945C96.2537 100.649 100.026 105.516 104.635 109.623C109.243 113.73 113.443 118.89 117.832 123.506C120.879 126.665 123.69 130.002 126.234 133.484C128.35 136.292 130.247 139.241 132.188 142.156C134.68 145.89 136.833 149.69 139.498 153.261C141.872 156.648 144.515 159.898 147.398 162.976C149.326 165.315 151.682 167.351 154.313 168.951C155.043 169.445 155.701 170.039 156.255 170.704C157.002 171.554 157.877 172.305 158.842 172.922C158.159 171.78 157.49 170.626 156.764 169.518C153.603 164.63 150.516 159.742 147.209 154.939C142.982 148.232 138.355 141.694 133.355 135.362C130.816 132.373 127.912 129.636 125.198 126.781C124.175 125.704 123.224 124.571 122.184 123.451C121.735 123.02 121.429 122.487 121.319 121.942C121.21 121.397 121.303 120.873 121.582 120.462C121.849 119.999 122.262 119.64 122.778 119.419C123.293 119.2 123.894 119.127 124.519 119.208C124.759 119.218 125.006 119.279 125.241 119.385C128.575 121.25 132.315 122.405 134.948 125.492C136.412 127.191 137.956 128.658 139.345 130.33C140.338 131.538 141.105 132.867 141.605 134.243C142.476 136.035 143.55 137.769 144.807 139.411L155.585 155.648C157.464 158.498 159.504 161.28 161.207 164.21C163.179 167.554 164.796 171.031 166.679 174.387C167.909 176.608 169.343 178.726 170.675 180.895C171.213 181.752 171.663 182.65 172.245 183.474C173.837 185.809 175.516 188.106 177.107 190.442C180.235 194.587 183.709 198.533 187.485 202.232C186.592 200.349 185.425 198.542 184.023 196.869C182.792 194.991 181.414 193.225 180.197 191.336C178.069 188.037 175.989 184.719 173.958 181.383C173.023 179.869 172.22 178.311 171.373 176.758C168.96 172.339 166.591 167.914 164.134 163.529C161.844 159.355 160.043 155.044 158.773 150.688C157.891 147.747 159.673 147.16 161.771 146.216C163.414 145.482 165.129 146.306 166.813 148.289C169 150.993 170.813 153.9 172.198 156.919L178.8 170.245C179.249 170.181 179.684 170.081 180.1 169.945C180.52 169.674 181.058 169.566 181.629 169.638C182.2 169.71 182.769 169.958 183.246 170.342C185.815 172.198 188.293 174.177 190.665 176.266C195.64 181.021 200.017 186.268 203.671 191.855C205.731 194.698 207.927 197.468 210.253 200.156C210.413 200.032 210.479 199.81 210.447 199.751C205.915 193.289 201.39 186.939 196.883 180.345C195.32 177.821 193.896 175.245 192.62 172.629C192.173 171.815 191.814 170.988 191.426 170.156C190.977 169.389 190.716 168.571 190.66 167.772C190.604 166.971 190.759 166.213 191.109 165.559C191.327 165.201 191.412 164.766 191.353 164.309C191.294 163.852 191.093 163.392 190.776 162.985C188.902 160.09 186.482 157.463 183.664 155.266C178.956 151.292 173.917 147.659 169.024 143.943C166.479 142.033 163.835 140.285 161.247 138.409C158.074 136.051 154.843 133.738 151.857 131.179C147.058 127.163 142.315 123.075 137.659 118.892C134.157 115.684 130.856 112.292 127.556 108.899C126.399 107.6 125.36 106.222 124.453 104.788C124.157 104.378 123.958 103.928 123.872 103.476C123.786 103.023 123.816 102.582 123.96 102.188C124.103 101.793 124.355 101.459 124.696 101.212C125.036 100.965 125.455 100.812 125.916 100.767C126.857 100.569 127.888 100.603 128.918 100.866C129.949 101.129 130.948 101.613 131.832 102.277C134.287 104.171 136.771 106.043 139.006 108.05C144.697 113.189 150.503 118.238 155.861 123.662C161.218 129.086 166.696 133.71 172.085 138.743C173.201 139.752 174.458 140.608 175.8 141.274C174.305 139.069 172.524 137.007 170.506 135.15C166.164 130.581 161.73 126.076 157.203 121.632C154.913 119.355 152.463 117.202 150.114 114.942C148.057 112.938 145.985 110.917 144.044 108.795C141.569 106.189 139.221 103.488 137.008 100.705C134.455 97.3577 132.194 93.8408 129.742 90.4145C128.849 89.0557 128.359 87.5635 128.333 86.1252C128.161 83.8793 129.45 83.2496 131.931 83.7934C133.295 84.089 134.636 84.6568 135.857 85.4557C137.078 86.2545 138.148 87.2643 138.989 88.4114L148.068 99.7898C151.289 103.866 154.584 107.914 157.72 112.141C161.088 116.618 164.748 120.928 168.675 125.041C173.746 130.376 179.122 135.475 183.306 141.412C183.907 142.336 184.695 143.166 185.617 143.842C184.882 142.165 184.014 140.517 183.021 138.914C181.103 136.372 179.51 133.672 178.283 130.886C175.406 123.994 170.546 117.901 165.73 111.803C161.227 106.086 156.636 100.436 152.249 94.656C148.756 90.0543 145.319 85.38 142.207 80.5966C139.202 76.294 136.828 71.7257 135.165 67.0461C134.504 65.0091 133.892 62.9623 133.33 60.9056C133.205 60.3597 133.185 59.8186 133.271 59.3085C133.458 57.4929 134.423 56.9724 136.403 57.7051C137.59 58.0993 138.725 58.7159 139.729 59.5125C140.734 60.3089 141.585 61.2663 142.224 62.3183C144.309 65.8011 146.347 69.312 148.335 72.8512C151.222 77.9795 153.859 83.2159 156.951 88.2697C159.236 92.0234 162.125 95.5924 164.734 99.2367L165.34 99.0795C164.947 97.9362 164.482 96.8017 163.948 95.6826C160.687 89.8161 158.061 83.7683 156.115 77.6463C153.928 70.8441 150.804 64.1157 149.596 57.206C149.163 54.9818 148.937 52.7686 148.922 50.5919C149.015 49.0929 149.555 47.7338 150.483 46.6564C151.411 45.5791 152.695 44.8231 154.2 44.4675C154.593 44.2473 155.065 44.1419 155.569 44.1618C156.073 44.1817 156.591 44.3261 157.073 44.5808C157.554 44.8355 157.982 45.1914 158.313 45.6132C158.644 46.0351 158.867 46.5081 158.959 46.9851C160.111 50.3414 161.069 53.7058 162.206 57.0733C163.344 60.4407 164.537 63.3114 165.546 66.4382C167.527 72.4939 169.39 78.5568 171.341 84.6076C172.419 87.9921 173.673 91.2973 174.738 94.7208C175.533 97.3051 176.092 99.9315 176.679 102.535C177.071 104.271 177.415 105.958 177.759 108.014C178.846 106.202 179.163 103.965 178.66 101.653C178.306 95.6683 177.982 89.6609 177.569 83.6659C177.435 81.6182 176.999 79.519 176.895 77.476C176.625 70.5816 175.842 63.6095 174.551 56.6082C174.213 54.1542 174.174 51.733 174.436 49.3911C174.458 48.3823 174.728 47.1828 176.069 47.164C176.742 47.1024 177.464 47.2406 178.141 47.5606C178.818 47.8806 179.418 48.3672 179.862 48.9568ZM283.098 324.126C283.025 324.182 282.938 324.25 282.943 324.387L284.272 325.229C284.272 325.229 284.402 325.127 284.475 325.071L283.098 324.126ZM268.927 320.314C273.176 322.32 277.467 324.265 281.728 326.234C282.412 326.555 283.108 326.837 283.789 327.131C283.756 326.92 283.673 326.709 283.548 326.513C283.422 326.316 283.256 326.139 283.062 325.994C280.57 324.299 278.077 322.604 275.543 320.998C273.258 319.502 270.918 318.1 268.53 316.798C264.501 314.678 260.404 312.724 256.348 310.708C251.14 308.142 246.098 305.221 240.502 303.889C239.758 303.582 239.044 303.18 238.385 302.695C239.486 302.349 240.752 302.359 242.01 302.721C246.641 304.318 251.188 306.308 255.587 308.664C259.064 310.335 262.445 312.277 265.793 314.103C268.194 315.358 270.639 316.553 273.039 317.781C273.163 317.912 273.443 317.809 273.651 317.789L275.873 319.836L279.431 321.725L279.618 321.921L279.757 322.068L281.453 323.587C281.529 323.449 281.613 323.318 281.707 323.192L279.819 322.134L279.649 321.954L279.494 321.791C278.587 321.049 277.711 320.339 276.76 319.63C276.652 319.516 276.215 319.798 275.935 319.901C275.813 318.608 274.827 318.154 273.714 317.855C273.363 317.393 272.956 316.965 272.503 316.582C270.261 315.203 268.005 313.835 265.72 312.545C262.265 310.631 258.796 308.729 255.314 306.893C248.4 303.508 241.272 300.758 234.049 298.689C233.047 298.415 232.041 298.243 231.047 298.18C230.239 298.07 229.175 297.93 229.195 298.879C229.227 299.204 229.336 299.535 229.515 299.847C229.695 300.159 229.938 300.444 230.23 300.683C234.013 303.71 238.187 306.222 242.58 308.114C244.336 308.822 246.106 309.519 247.85 310.321C252.764 312.596 257.665 314.901 262.551 317.234C264.746 318.113 266.833 319.329 268.927 320.314ZM292.546 333.747C288.405 331.883 284.123 330.535 279.829 329.743C277.934 329.468 276.033 329.095 274.137 328.627C268.464 327.293 262.783 326.49 257.185 326.231C255.509 326.083 253.847 326.294 252.145 326.224C249.594 326.189 247.168 325.914 244.671 325.723L244.46 324.866C247.943 324.267 251.794 325.193 255.319 324.956C259.023 324.92 262.796 325.202 266.593 325.801C270.279 326.29 274.023 327.157 277.732 327.855C277.686 327.725 277.608 327.6 277.505 327.493C277.402 327.385 277.278 327.296 277.143 327.235C271.605 325.858 266.155 324.413 260.588 323.058C255.568 321.988 250.557 321.139 245.583 320.514C242.373 320.278 239.33 320.812 236.739 322.065C236.223 322.408 235.767 322.818 235.381 323.285C235.876 323.989 236.485 324.63 237.18 325.178C240.262 327.069 243.454 329.129 246.875 329.34C250.298 329.551 254.421 329.334 258.204 329.236C260.901 329.16 263.577 328.957 266.29 328.924C270.84 329.047 275.496 329.836 280.094 331.265C280.711 331.438 281.583 331.614 281.887 331.351C282.814 330.633 283.826 330.982 284.868 331.336C286.484 331.899 288.089 332.554 289.796 333.185C290.69 333.621 291.649 333.817 292.546 333.747ZM294.173 332.148L287.676 327.38L287.378 327.808C289.539 329.392 291.215 331.606 294.173 332.148ZM306.175 350.071C305.435 349.728 304.708 349.345 304.001 348.922C298.665 346.123 293.034 344.145 287.371 343.077C286.321 342.951 285.281 342.911 284.264 342.961C286.484 346.567 288.588 349.469 292.317 350.717C297.42 352.431 302.653 354.044 307.718 355.56L315.157 357.93C314.186 356.224 312.895 354.647 311.357 353.288C309.82 351.93 308.068 350.819 306.204 350.021L306.175 350.071ZM337.317 386.906L333.645 384.368C330.357 382.127 327.126 379.814 323.798 377.69C321.111 375.975 318.284 374.538 315.598 372.851C314.883 372.542 314.22 372.093 313.664 371.54C313.108 370.987 312.673 370.345 312.395 369.667L321.863 374.94C321.708 374.451 321.373 373.994 320.921 373.658C316.729 370.885 312.423 368.299 308.023 365.915C304.331 363.663 300.341 362.051 296.293 361.175C294.746 360.754 293.214 360.205 291.715 359.537C291.039 359.805 291.01 360.648 291.45 361.64C291.773 362.438 292.295 363.189 292.968 363.822C293.64 364.455 294.441 364.951 295.295 365.261C298.049 366.357 300.761 367.543 303.529 368.628C310.357 371.436 317.009 374.824 323.389 378.743C327.506 381.219 331.651 384.099 335.805 386.746C335.989 386.914 336.418 386.808 337.344 386.856L337.317 386.906ZM333.861 382.53L332.604 381.606C332.503 381.684 332.401 381.762 332.314 381.83L333.571 382.755C333.667 382.654 333.773 382.562 333.888 382.48L333.861 382.53ZM251.189 233.288L250.842 233.188L250.634 234.426L251.176 234.572L251.189 233.288ZM242.896 231.212C242.873 229.776 242.736 228.321 242.484 226.859C242.071 222.505 241.794 218.189 241.411 213.842C241.241 212.047 240.891 210.223 240.601 208.409C240.57 207.158 240.584 205.902 240.493 204.641C240.131 199.257 238.689 193.662 238.806 188.277C238.782 188.054 238.728 187.829 238.647 187.606C238.068 185.223 237.363 182.681 236.677 180.239C236.209 178.61 235.106 177.078 233.598 175.968C233.335 176.131 233.092 176.319 232.874 176.529C231.32 178.28 230.693 180.681 231.121 183.238C231.64 186.432 231.812 189.498 232.493 192.625C233.029 195.042 233.992 197.326 234.661 199.697C235.889 203.901 237.056 208.113 238.165 212.333C239.294 216.698 240.334 221.075 241.448 225.451C241.86 227.341 242.392 229.224 242.893 231.129L242.896 231.212ZM249.563 241.428C249.92 239.749 249.92 237.954 249.563 236.132C249.188 234.87 249.172 233.61 249.519 232.485C249.704 231.873 249.821 231.233 249.867 230.574C250.01 227.149 250.257 223.73 250.162 220.293C250.044 213.814 249.746 207.304 249.63 200.881C249.665 200.17 249.75 199.472 249.882 198.79C250.306 198.971 250.591 199.033 250.593 199.088C251.488 209.278 251.693 219.372 251.207 229.309L251.884 229.466L252.782 217.754C252.814 217.39 252.722 216.895 252.922 216.684C254.663 214.939 254.378 212.47 254.365 210.072C254.383 208.502 254.354 206.91 254.4 205.344C254.599 202.764 254.361 200.085 253.692 197.397C253.397 196.333 252.899 195.289 252.223 194.315C251.135 192.721 250.308 192.513 249.015 193.457C248.497 193.834 248.125 194.356 247.937 194.97C247.616 196.122 247.395 197.315 247.278 198.54C246.706 202.673 246.607 206.943 246.984 211.284C247.761 216.657 248.092 221.988 247.97 227.228C247.867 230.138 247.645 233.002 247.542 235.913C247.516 237.777 248.233 239.736 249.563 241.428ZM250.25 253.695C250.367 253.606 250.608 253.674 250.772 253.661L249.578 250.79L249.162 250.856L250.25 253.695ZM182.646 150.276L182.98 150.018L179.814 147.059C178.432 145.597 176.939 144.222 175.355 142.95C169.191 138.717 164.09 133.405 158.559 128.511C153.026 123.619 148.189 118.584 142.883 113.743C139.381 110.536 135.706 107.49 132.004 104.55C131.065 103.666 129.893 103.05 128.682 102.802C127.471 102.555 126.296 102.691 125.349 103.189C126.693 105.064 128.133 106.889 129.665 108.655C132.844 112 136.054 115.376 139.508 118.508C143.414 122.14 147.48 125.675 151.602 129.111C154.908 131.874 158.388 134.449 161.736 137.124C162.615 137.668 163.514 138.172 164.431 138.635C162.805 135.759 159.525 134.136 158.427 131.049C162.495 134.215 166.144 137.789 170.181 140.923C174.218 144.058 178.448 147.211 182.604 150.338L182.646 150.276ZM126.342 143.34C127.498 144.398 128.481 145.591 129.551 146.717C130.978 148.218 132.389 149.702 134.291 151.544C133.892 149.615 133.678 148.252 132.15 147.226C131.309 146.636 130.528 145.966 129.825 145.231C128.615 143.958 127.609 142.529 126.4 141.284C121.329 135.949 117.027 130.048 111.116 125.391L110.883 125.147L103.84 118.082C102.646 116.826 101.421 115.537 100.227 114.281C96.8156 111.116 93.3321 108.007 89.9212 104.842C88.7143 103.693 87.5698 102.488 86.4937 101.237C85.8731 100.585 85.3649 99.7324 85.9484 98.9691C90.0411 102.824 94.0847 106.575 98.0866 110.387C100.296 112.5 102.42 114.707 104.6 116.843C106.502 118.683 108.36 120.559 110.333 122.317C114.355 126.124 118.157 130.124 121.716 134.291C124.337 137.048 126.681 139.991 129.171 142.848C128.467 140.487 127.249 138.185 125.599 136.099C122.776 133.13 119.995 130.072 117.435 126.928C114.123 122.707 110.5 118.674 106.601 114.869C104.702 113.158 102.902 111.353 101.214 109.467C95.9935 103.314 89.648 98.2009 83.75 92.6852C82.6585 91.7985 81.4149 91.1155 80.1131 90.6863C79.8284 90.561 79.5312 90.4881 79.2404 90.4722C78.9495 90.4562 78.6717 90.4971 78.4241 90.5931C78.1768 90.6883 77.9651 90.8366 77.8029 91.0279C77.6405 91.2191 77.5309 91.4496 77.4815 91.7038C77.2562 92.2652 77.1683 92.889 77.2228 93.5379C77.2773 94.1868 77.473 94.8476 77.7984 95.4797C78.8031 97.7524 80.2734 99.9043 82.1154 101.794C86.7527 106.72 91.6507 111.44 96.783 115.927C100.738 119.266 104.378 122.989 108.175 126.507C114.151 132.132 120.29 137.716 126.342 143.34ZM135.653 154.539L136.663 156.051C137.015 156.527 137.332 157.02 137.611 157.526C138.05 158.379 138.718 159.149 139.536 159.747C140.355 160.346 141.291 160.75 142.239 160.91L135.653 154.539ZM131.452 154.251C132.506 154.908 133.459 155.727 134.471 156.473L134.906 156.137C133.602 153.986 132.098 151.915 130.416 149.956C127.79 147.367 124.967 144.955 121.981 142.751C117.549 139.413 112.977 136.298 108.459 133.055C105.534 130.958 102.622 128.795 99.7252 126.648C96.8283 124.501 94.3453 122.657 91.705 120.594C87.5451 117.329 83.3419 114.126 79.3403 110.71C74.3073 106.422 69.6204 101.81 64.2578 97.8904C61.332 95.7657 58.421 93.6296 55.4525 91.5665C53.1578 89.9728 49.4525 90.1789 48.7398 91.8917C47.6845 94.4361 48.7875 98.9061 51.4768 100.676C56.5487 103.999 61.4808 107.572 66.583 110.901C70.5546 113.49 74.617 115.697 78.5554 118.199C85.6228 122.669 92.6014 127.15 99.6738 131.756C101.888 133.186 103.949 134.904 106.19 136.255C108.035 137.348 109.649 139.072 112.097 139.556C108.535 136.366 104.11 134.411 101.559 130.722C102.436 130.879 103.302 131.243 104.073 131.778C105.727 132.961 107.267 134.289 108.919 135.446C111.306 137.109 113.778 138.651 116.108 140.359C116.779 140.919 117.38 141.551 117.891 142.236C118.545 143.217 119.332 144.135 120.227 144.957C123.298 146.97 126.438 148.844 129.834 150.774C129.522 152.432 129.331 152.495 128.003 151.654C125.408 150.01 122.797 148.349 120.147 146.832C118.312 145.817 116.442 144.883 114.542 144.034C110.735 142.28 106.968 140.383 103.047 138.774C98.0398 136.816 93.0736 135.166 87.9418 133.475C82.81 131.784 78.5384 130.361 73.8618 128.884C69.7118 127.537 65.5695 125.986 61.3948 124.771C57.8823 123.724 54.3208 121.752 50.7432 122.595C49.9091 121.4 50.4882 120.924 51.3843 120.966C52.9877 120.97 54.6312 121.185 56.2688 121.603C60.522 122.927 64.7408 124.532 68.9962 125.91C76.9196 128.499 84.8395 131.006 92.775 133.528C93.3183 133.703 93.8585 133.794 94.8661 134.034C94.5361 133.687 94.169 133.372 93.7732 133.096C84.4042 128.213 74.8139 123.893 65.0733 120.168C60.4996 118.581 55.8522 117.499 51.2369 116.946C49.864 116.836 48.5254 116.918 47.2647 117.189C46.9467 117.228 46.6567 117.334 46.4148 117.501C46.1734 117.667 45.9853 117.89 45.8647 118.153C45.7441 118.415 45.6927 118.713 45.7151 119.025C45.7376 119.336 45.8327 119.654 45.9941 119.957C47.5704 122.276 49.0809 124.845 51.8563 126.123C55.1516 127.727 58.529 129.091 61.9512 130.203C67.4275 131.939 72.954 133.409 78.4654 134.892C83.1494 136.165 87.843 137.289 92.5412 138.552C96.1556 139.52 99.7863 140.533 103.377 141.69C106.969 142.846 110.185 144.349 113.622 145.37C119.842 147.495 125.863 150.494 131.452 154.251ZM124.361 169.085C126.477 168.664 128.66 167.994 130.902 167.732C133.144 167.469 135.444 167.557 137.767 167.486C137.659 167.372 137.535 167.242 137.472 167.176C132.936 166.042 128.388 165.491 123.963 165.542C119.034 165.496 114.235 165.971 109.656 166.961C105.096 168.136 100.404 169.036 95.6035 169.653C91.131 170.413 86.5529 170.902 81.8941 171.118C81.5127 171.193 81.1515 171.311 80.8183 171.47C81.1096 171.753 81.4293 172.009 81.7708 172.233C87.0453 174.615 92.6502 175.465 97.7397 174.654C101.603 174.204 105.364 173.479 108.993 172.486C110.736 172.042 112.433 171.55 114.145 171.074C112.402 170.555 110.649 170.576 109.167 171.133C104.26 172.276 99.1116 172.872 93.8138 172.908C93.4856 172.907 93.1197 172.68 92.7872 172.57L92.6957 172.102L97.3481 171.701C98.2994 171.616 99.2693 171.63 100.188 171.485C103.331 170.977 106.425 170.367 109.569 169.887C111.091 169.618 112.655 169.449 114.247 169.381C117.345 169.278 120.478 169.343 123.608 169.3C123.872 169.254 124.124 169.182 124.361 169.085ZM143.599 170.788C138.588 168.75 133.347 168.115 128.606 168.97L128.654 169.444L143.599 170.788ZM199.225 222.313L194.919 219.982C191.531 217.963 188.052 216.126 184.504 214.479C180.216 212.832 175.882 211.403 171.524 210.198C168.871 209.42 166.087 208.742 163.362 208.02C161.721 207.591 160.051 207.185 158.438 206.679C154.939 205.648 151.588 204.504 148.159 203.307C143.471 201.844 138.732 201.908 134.79 203.489C134.195 203.733 133.699 204.117 133.34 204.611C132.457 205.748 133.032 207.172 133.513 208.526C134.215 210.589 134.756 211.105 136.972 211.344C139.187 211.583 140.854 211.482 142.81 211.581C148.279 211.88 153.718 212.2 159.186 212.471C161.322 212.573 163.452 212.538 165.571 212.568L165.659 212.104C165.084 211.681 164.475 211.307 163.843 210.989C163.404 210.791 162.871 210.893 162.373 210.739C156.062 208.708 149.64 208.093 143.684 208.952C142.734 209.064 141.645 209.454 140.194 208.141C141.097 208.07 141.983 207.951 142.85 207.785C147.279 206.792 152.121 206.831 157.006 207.9C160.957 208.803 164.896 209.956 168.792 211.349C170.738 211.967 172.646 212.756 174.62 213.323C176.972 214.023 179.372 214.43 181.714 215.252C184.055 216.073 186.002 217.114 188.109 218.06C189.777 218.809 191.459 219.545 193.14 220.255C194.821 220.964 197.133 221.807 199.072 222.629L199.225 222.313ZM214.514 230.612L216.794 233.01C213.78 228.886 210.561 224.893 207.388 220.893C203.939 216.855 200.884 212.575 198.273 208.126C197.426 206.573 196.564 205.031 195.629 203.517C192.186 197.857 188.729 192.208 185.213 186.604C184.34 184.979 183.188 183.453 181.812 182.099C180.785 181.173 180.012 180.037 179.591 178.836C178.19 175.588 176.94 172.392 175.388 169.119C173.577 165.282 171.62 161.501 169.619 157.754C168.191 155.008 166.749 152.246 165.159 149.568C164.269 148.048 163.516 147.839 162.007 148.185C161.728 148.229 161.473 148.327 161.258 148.473C161.042 148.619 160.87 148.811 160.751 149.037C160.631 149.264 160.568 149.521 160.563 149.792C160.559 150.065 160.614 150.346 160.724 150.622C161.051 151.786 161.391 152.938 161.805 154.09C164.139 160.78 168.165 166.922 171.323 173.341C173.675 178.12 176.72 182.7 179.557 187.3C180.969 189.606 182.425 191.905 184.028 194.147C186.542 197.639 189.173 201.068 191.773 204.519C192.511 205.506 193.321 206.465 194.476 207.892C192.645 203.901 189.706 200.994 187.955 197.537C185.332 192.685 182.238 188.001 179.36 183.148C177.691 180.306 175.918 177.488 174.411 174.604C171.879 169.796 169.465 164.953 167.14 160.098C165.903 157.981 165.148 155.728 164.931 153.511C166.564 154.144 166.756 155.298 167.176 156.191C168.42 158.796 169.442 161.488 170.731 164.088C172.585 167.891 174.558 171.688 176.531 175.484C178.195 178.585 179.904 181.68 181.685 184.719C182.928 186.9 184.2 189.058 185.517 191.239C186.835 193.419 188.035 195.265 189.331 197.264C192.129 201.61 195.046 205.923 197.83 210.309C198.606 211.521 199.41 212.739 200.084 214.002C200.316 214.247 200.024 214.84 199.78 215.087C199.536 215.332 199.06 214.964 198.695 214.793C198.332 214.622 198.34 214.418 198.169 214.238C196.618 212.607 194.81 210.891 193.11 209.262C190.067 206.351 186.994 203.463 183.95 200.579C182.485 199.319 181.122 197.956 179.88 196.508C176.671 192.338 173.503 188.107 170.633 183.843C168.347 180.432 166.47 176.815 164.404 173.345C162.826 170.573 161.397 167.772 159.863 164.967C158.969 163.365 158.045 161.73 157.032 160.162C155.515 157.798 153.866 155.507 152.303 153.148C149.397 148.742 146.654 144.268 143.588 139.93C140.521 135.592 138.398 131.346 134.218 127.955C132.437 124.916 129.157 123.717 126.42 121.87C125.411 121.179 124.231 120.733 123.339 122.018C124.075 122.935 124.859 123.822 125.688 124.674C131.526 130.303 136.67 136.497 140.975 143.085C144.849 149.12 149.016 155.013 152.994 161.024C155.973 165.429 158.863 169.847 161.886 174.218C163.132 176.085 164.452 177.896 165.818 179.811C165.542 179.017 165.178 178.235 164.734 177.479C163.45 175.386 162.092 173.322 160.823 171.219C157.863 165.836 154.505 160.586 150.779 155.517C148.643 152.928 146.73 150.208 145.069 147.392C143.264 144.508 141.294 141.693 139.169 138.961L131.818 128.396C131.378 127.774 131.162 127.177 132.377 126.945L135.068 130.809C136.423 132.79 137.674 134.795 139.088 136.758C141.321 139.901 143.92 142.901 145.843 146.142C147.766 149.383 150.621 152.836 152.907 156.22C154.183 158.065 155.792 159.652 156.95 161.586C159.079 165.121 160.912 168.771 162.922 172.369C163.784 173.91 164.867 175.394 165.61 176.944C167.184 180.493 169.263 183.919 171.782 187.117C172.635 188.014 172.375 188.668 171.41 188.764C170.572 187.883 170.033 186.998 169.38 186.258C167.401 183.938 165.379 181.652 163.386 179.344C162.905 178.838 162.609 178.076 162.061 177.764C158.694 175.811 156.181 172.32 152.113 171.616C152.113 171.616 151.835 171.323 151.701 170.944L152.842 171.138L154.121 171.45L146.728 165.024C145.553 165.934 144.472 165.298 143.045 164.221C140.549 161.977 137.487 160.423 134.34 159.803C127.517 158.468 120.704 157.536 113.944 157.015C107.535 156.68 101.006 155.532 94.5345 154.708C92.9615 154.509 91.4467 154.266 89.8376 153.897C85.8725 153.115 81.907 152.334 77.9546 151.485C77.4431 151.371 76.9317 150.833 76.4114 150.471L76.5596 150.045C77.344 150.055 78.1385 150.121 78.9377 150.243C80.8315 150.646 82.731 151.214 84.5915 151.53C86.9777 151.948 89.3646 151.97 91.7433 152.592C96.9663 153.93 102.082 153.963 107.255 154.744C109.787 155.153 112.312 155.43 114.815 155.575C116.964 155.576 119.154 155.778 121.354 156.177C123.87 156.625 126.381 156.94 128.874 157.125C125.165 155.141 121.184 153.931 117.262 153.596C112.011 152.705 106.775 152.227 101.526 151.419C98.1873 151.03 94.8295 150.147 91.4086 149.566C84.1437 148.252 76.8817 147.02 69.631 145.695C69.1272 145.53 68.6141 145.507 68.162 145.628C67.71 145.75 67.3412 146.011 67.1062 146.375C68.7962 148.691 71.0713 150.644 73.6643 152.002C81.2255 155.738 89.2719 157.836 97.0893 158.111C102.231 158.435 107.333 158.507 112.455 158.732C118.435 158.81 124.546 159.598 130.644 161.078C135.386 162.375 140.085 164.056 144.68 166.1C145.408 166.415 146.225 166.745 146.231 167.731C146.237 168.717 145.427 168.58 144.625 168.69C144.213 168.782 143.827 168.929 143.479 169.125L143.618 169.669C147.052 171.032 150.488 172.422 153.921 173.729C154.889 174.085 155.746 174.326 155.636 175.799L152.582 175.049C153.248 175.768 154.005 176.413 154.829 176.962C161.695 182.04 167.482 188.18 173.846 193.788C176.942 196.516 179.838 199.43 182.892 202.22C185.946 205.009 189.174 207.636 192.126 210.477C195.573 214.209 199.554 217.503 203.904 220.219C204.647 220.713 205.335 221.286 205.95 221.921C206.331 222.203 206.618 222.584 206.759 222.995C206.9 223.406 206.885 223.818 206.718 224.158C203.889 222.242 201.171 220.495 198.566 218.575C194.659 215.709 190.837 212.721 186.986 209.783C180.606 204.952 173.47 201.442 166.736 197.139C163.534 195.117 160.137 193.467 156.641 192.239C153.832 191.27 151.108 189.782 148.173 189.024C143.868 188.146 139.641 188.361 135.954 189.647C135.388 189.969 134.974 190.461 134.76 191.063C134.546 191.666 134.544 192.353 134.751 193.042C135.272 194.225 136.302 194.674 138.11 194.802C139.169 194.836 140.249 195.01 141.321 195.319C146.423 197.033 151.576 198.879 156.711 200.68C160.201 201.914 163.683 203.354 167.223 204.324C171.163 205.462 175.076 206.811 178.942 208.364C179.858 208.764 180.761 209.21 181.645 209.698C181.527 209.38 181.344 209.074 181.105 208.8C180.867 208.526 180.578 208.291 180.26 208.109C175.838 205.867 171.538 202.852 166.736 201.19C164.495 200.254 162.29 199.199 160.134 198.031C159.592 197.765 159.034 197.542 158.469 197.365C156.418 196.717 154.382 196.111 152.333 195.517L143.485 192.936C142.852 192.747 142.246 192.479 141.551 192.224C141.62 191.292 141.86 190.908 142.87 191.203C145.407 192.071 147.963 192.641 150.473 193.615C154.786 195.345 159.153 196.099 163.338 198.383C164.446 198.902 165.573 199.364 166.713 199.763C168.788 200.648 170.861 201.479 172.926 202.485C175.633 203.931 178.316 205.507 180.867 207.185C182.591 208.258 184.217 209.491 185.87 210.675C186.222 210.912 186.847 211.278 186.838 211.454C186.635 213.226 188.4 213.389 189.397 214.146C190.904 215.04 192.333 216.072 193.656 217.222C194.729 218.239 195.973 219.079 197.309 219.689C200.172 221.173 202.984 222.778 205.731 224.497C207.045 225.35 208.115 226.078 209.614 225.06L209.59 226.863C211.008 228.116 213.468 228.532 213.228 230.928C213.699 230.761 214.07 230.7 214.47 230.646L214.514 230.612ZM190.878 191.45L192.191 193.493C192.857 194.591 193.611 195.649 194.188 196.76C196.799 201.808 199.801 206.737 203.168 211.501C205.906 215.451 208.839 219.305 211.956 223.049C216.15 228.043 220.547 232.908 224.959 237.734C227.61 240.523 230.378 243.223 233.045 246.001C235.711 248.78 238.582 251.825 241.271 254.813C241.921 255.498 242.557 256.167 243.271 256.918C243.32 256.625 243.404 256.475 243.355 256.371L234.388 241.933C234.088 241.35 233.827 240.757 233.606 240.158C232.867 238.021 231.915 235.912 230.767 233.861C227.171 228.809 223.141 223.984 218.728 219.45C215.325 215.711 211.734 212.092 208.229 208.405C205.329 205.354 202.516 202.237 199.545 199.269C196.82 196.563 193.895 194.042 191.041 191.437L190.878 191.45ZM235.55 254.541C237.782 256.89 240.016 259.239 242.233 261.572C243.613 263.024 244.791 264.633 246.114 266.157C248.015 268.395 249.961 270.628 251.999 272.93C253.426 274.431 254.837 275.915 256.349 277.718C255.533 275.084 253.998 272.554 251.906 270.396C248.959 267.296 246.114 264.119 243.299 260.945C239.207 256.297 235.217 251.57 231.096 246.944C229.137 244.75 226.946 242.737 224.887 240.65L223.359 241.267C225.545 243.566 227.638 245.769 229.732 247.971C231.826 250.174 233.488 252.398 235.506 254.575L235.55 254.541ZM245.359 276.483C244.594 275.971 243.773 275.53 242.981 275.068L266.071 293.214C265.166 291.707 264.53 290.613 263.85 289.554C263.67 289.191 263.367 288.872 262.997 288.657C260.85 287.695 258.867 286.324 257.199 284.649C255.634 283.131 253.893 281.781 252.027 280.638C249.718 279.415 247.487 278.025 245.359 276.483ZM240.706 271.589C239.313 270.573 237.931 269.518 236.495 268.563C233.194 266.361 229.85 264.22 226.566 262.089C223.282 259.959 220.283 257.862 217.01 256.035C213.038 253.815 208.94 251.862 204.857 249.924C203.494 249.358 202.097 248.937 200.696 248.67C198.649 248.159 196.59 247.714 194.545 247.23C193.975 247.064 193.402 246.93 192.83 246.83C192.203 246.705 191.594 246.777 191.102 247.033C190.611 247.29 190.266 247.717 190.124 248.245C189.964 248.73 190.007 249.292 190.244 249.83C190.481 250.369 190.899 250.855 191.425 251.203C193.379 252.714 195.457 254.057 197.625 255.21C201.106 256.834 204.656 258.241 208.247 259.42C215.028 261.667 221.728 264.345 228.297 267.432C229.845 268.16 231.435 268.826 232.98 269.472L233.173 269.039C227.503 265.234 221.631 261.764 215.6 258.655C209.465 255.618 203.119 254.158 196.733 251.228C197.711 250.217 198.789 250.741 199.803 251.147C202.794 252.201 205.811 253.178 208.816 254.194C209.868 254.568 210.908 254.991 211.934 255.461C212.965 255.938 213.943 256.568 214.986 256.978C221.782 259.847 228.288 263.584 234.284 268.064C236.215 269.66 238.448 270.853 240.779 271.533L240.706 271.589ZM269.276 298.465C265.479 295.369 261.506 292.481 257.389 289.826C252.853 287.112 248.156 284.722 243.349 282.683C238.522 280.756 233.62 278.434 228.702 276.464C225.562 275.237 222.387 274.168 219.191 273.263C215.107 272.092 211.044 271.074 206.878 270.08C204.083 269.462 201.286 269.015 198.508 268.743C197.401 268.637 195.889 268.476 195.704 269.95C195.617 270.838 196.697 271.815 198.632 272.526C203.802 274.443 208.985 276.321 214.14 278.249C218.843 280.082 223.622 281.566 228.423 282.684C229.413 282.937 230.394 283.278 231.353 283.7L249.695 291.08C250.336 291.347 250.969 291.642 251.592 291.963C258.241 294.952 264.795 298.225 271.231 301.766C271.61 301.932 272 302.058 272.393 302.141C271.541 300.798 270.511 299.536 269.333 298.393L269.276 298.465ZM363.316 407.559C363.503 407.755 363.919 407.743 364.311 407.836C364.33 407.539 364.378 407.218 364.316 407.181C363.981 407.022 363.637 406.89 363.289 406.788C363.356 406.99 363.235 407.367 363.374 407.487L363.316 407.559ZM363.302 410.402C363.158 411.363 362.924 412.309 362.72 413.259C363.622 412.222 365.026 411.475 364.859 409.763C363.734 409.19 363.416 409.464 363.297 410.264L363.302 410.402ZM356.51 401.245C354.447 399.076 352.487 396.855 350.466 394.596C348.445 392.338 346.466 390.018 344.43 387.744C342.393 385.469 340.509 383.302 338.449 381.188C336.388 379.072 334.98 376.453 332.401 374.031C332.387 374.666 332.531 375.326 332.823 375.963C333.115 376.6 333.547 377.198 334.086 377.711C335.535 378.987 336.755 380.467 337.676 382.069C338.487 383.819 339.739 385.436 341.307 386.763C341.958 387.447 342.61 388.133 343.416 388.981C343.025 389.284 342.611 389.378 342.29 389.57L342.212 389.489L337.977 385.403L337.6 385.696C337.989 386.591 338.624 387.418 339.432 388.081C340.24 388.744 341.188 389.215 342.166 389.44L342.29 389.57C342.894 390.206 343.515 390.859 344.251 391.421C344.987 391.984 345.758 392.238 345.847 392.65C346.282 394.749 348.364 395.827 349.585 397.403C350.806 398.978 351.952 400.158 353.078 401.58C355.064 404.092 356.947 406.656 358.946 409.157C359.603 409.862 360.31 410.527 361.062 411.144L362.493 407.884C360.517 405.647 358.526 403.367 356.505 401.108L356.51 401.245ZM325.421 366.238L324.674 364.976L324.233 365.147L325.171 366.347L325.421 366.238ZM312.763 343.471C311.655 342.125 310.638 340.727 309.717 339.287C307.647 336.076 305.664 332.825 303.622 329.591C302.341 327.581 301 325.589 299.763 323.573C299.32 322.868 299.314 321.882 298.742 321.333C297.274 319.949 296.406 318.214 295.086 316.773C293.075 314.367 291.438 311.751 290.24 309.027C290.095 308.742 290.261 308.387 290.363 307.515C291.792 309.304 293.027 311.199 294.044 313.161C295.005 314.939 296.147 316.655 297.452 318.282C298.91 319.816 298.67 322.211 301.307 323.397C300.857 322.5 300.579 321.837 300.212 321.186C298.33 317.801 296.359 314.485 294.548 311.044C293.536 308.803 291.978 306.718 290.017 304.98L287.287 305.365C287.452 306.97 287.811 308.591 288.359 310.199C290.681 315.156 293.564 319.965 296.951 324.532C299.966 328.711 303.203 332.804 306.248 336.961C308.666 340.299 310.879 343.739 313.225 347.106C313.87 348.051 314.601 348.873 315.382 349.826C315.204 347.651 314.265 345.436 312.706 343.516L312.763 343.471ZM334.777 365.198C334.272 364.722 333.679 364.339 333.043 364.08C332.408 363.82 331.748 363.691 331.114 363.701L326.784 361.106L326.591 361.539C327.205 362.156 327.932 362.667 328.718 363.037C329.504 363.407 330.332 363.626 331.143 363.678C332.206 364.513 333.459 365.061 334.719 365.243L334.777 365.198ZM340.436 364.981C335.186 362.106 330.365 358.306 324.552 356.745C324.522 357.222 324.692 357.733 325.028 358.175C325.365 358.617 325.843 358.959 326.369 359.133L339.107 365.33C339.492 365.48 339.887 365.584 340.281 365.639L340.436 364.981ZM339.455 362.228L323.575 344.333C322.888 343.544 322.164 342.781 321.404 342.049C320.768 341.38 319.974 340.862 319.021 340.071C318.903 340.524 318.871 341.008 318.925 341.505C320.011 345.11 321.172 348.715 322.272 352.308C322.415 352.765 322.68 353.206 323.039 353.583C323.399 353.961 323.84 354.264 324.319 354.462C329.057 356.798 333.637 359.313 338.319 361.748C338.687 361.94 339.068 362.101 339.455 362.228ZM356.762 374.318C356.284 375.085 355.83 375.748 355.378 376.438L355.806 377.125C356.386 377.073 357.151 377.189 357.527 376.897C357.946 376.405 358.247 375.826 358.419 375.187L356.762 374.318ZM334.725 341.762L335.219 341.833C335.264 338.967 335.293 336.112 335.208 332.978C333.845 332.788 333.737 331.88 333.687 330.927C333.441 328.286 333.29 325.797 333.197 323.237C332.995 317.729 331.969 312.095 331.333 306.528C331.243 305.692 330.907 304.676 331.643 304.021C333.143 305.89 333.359 306.488 334.436 316.756C334.875 321.031 334.971 325.262 335.187 329.54C335.341 329.436 335.463 329.299 335.547 329.137C335.63 328.975 335.674 328.791 335.674 328.597C336.053 321.771 336.019 314.849 335.572 307.862C335.608 305.006 334.799 302.023 333.227 299.227C332.832 298.442 332.259 297.716 331.556 297.11C330.852 296.503 330.038 296.032 329.178 295.736C328.337 297.236 327.936 298.982 328.008 300.832C328.503 304.584 329.013 308.323 329.612 312.079C330.608 318.633 331.671 325.154 332.804 331.64C333.462 334.981 334.168 338.371 334.771 341.811L334.725 341.762ZM326.343 336.414C326.418 335.949 326.349 335.445 326.142 334.957C325.935 334.469 325.598 334.014 325.168 333.643C324.761 334.75 325.761 335.59 326.39 336.463L326.343 336.414ZM333.424 348.179C332.399 344.639 331.258 341.162 329.954 337.697C328.796 334.6 327.222 331.514 326.185 328.438C323.719 320.548 323.026 312.617 321.484 304.693C321.042 302.401 320.794 300.129 320.428 297.836C320.002 295.164 319.621 292.486 319.06 289.805C318.718 288.345 318.251 286.888 317.663 285.449C317.576 285.233 317.442 285.027 317.271 284.847C317.099 284.666 316.894 284.515 316.671 284.405C316.445 284.386 316.229 284.415 316.039 284.489C315.848 284.563 315.688 284.682 315.568 284.833C315.261 285.218 315.065 285.679 314.991 286.186C314.641 287.511 314.438 288.892 314.382 290.311C314.499 294.751 314.513 299.186 315.094 303.664C315.702 307.657 316.637 311.667 317.889 315.659C319.013 319.49 320.539 323.292 322.05 327.08C322.905 329.249 324.07 331.376 325.134 333.527C325.139 332.925 325.051 332.307 324.873 331.69C322.666 325.206 320.863 318.685 319.476 312.165C318.897 309.782 318.178 307.252 317.475 304.765C316.514 301.715 316.375 298.652 317.076 295.872C317.432 296.4 317.708 296.959 317.896 297.53C318.415 300.299 318.695 303.057 319.363 305.825C320.592 310.877 321.999 315.932 323.393 320.999C324.285 324.215 325.209 327.437 326.251 330.651C327.294 333.866 328.584 337.342 329.781 340.719C329.878 341.129 329.938 341.536 329.96 341.94L329.5 342.013L326.568 336.862C327.036 338.395 327.595 339.92 328.241 341.43C329.509 343.897 331.275 346.197 333.424 348.179ZM319.189 335.297C318.552 334.68 317.883 334.091 317.186 333.534C317.015 334.373 317.136 335.297 317.533 336.186C317.929 337.075 318.584 337.889 319.411 338.523C321.434 340.231 323.337 342.064 325.099 344.003C330.087 349.374 335.018 354.789 339.889 360.25C343.559 364.348 347.096 368.519 350.722 372.651C351.59 373.564 352.289 374.75 353.802 374.911C354.041 374.767 354.26 374.598 354.454 374.405C354.796 373.971 355.091 373.488 355.46 372.975C354.995 372.486 354.577 372.046 354.087 371.688C350.121 368.72 346.463 365.379 343.195 361.741C342.891 361.444 342.549 361.182 342.182 360.967C340.897 360.118 339.69 359.15 338.587 358.085C336.348 355.544 334.342 352.878 332.23 350.207C330.854 348.441 329.789 346.659 328.344 345.059C325.388 341.685 322.289 338.505 319.282 335.367L319.189 335.297ZM310.587 334.536C312.796 339.905 315.209 345.117 317.674 350.516C318.031 351.315 318.446 352.07 318.819 352.858C318.891 352.802 318.963 352.746 319.13 352.815L318.678 350.645L319.663 350.675L314.673 331.288C314.431 330.371 314.159 329.449 313.872 328.539C311.904 322.417 309.963 316.272 307.921 310.151C307.132 307.863 306.223 305.59 305.196 303.339C305.033 303.006 304.8 302.694 304.512 302.428C304.224 302.161 303.888 301.946 303.529 301.798C303.068 301.72 302.629 301.798 302.29 302.018C301.954 302.237 301.741 302.584 301.694 302.992C301.488 303.521 301.414 304.11 301.474 304.72C302.109 309.009 303.008 313.315 304.168 317.615C306.002 323.304 308.295 328.919 310.602 334.524L310.587 334.536ZM277.803 282.519C277.857 284.597 278.43 286.74 279.479 288.784C279.301 285.579 278.856 282.356 278.696 279.196C278.535 276.034 278.583 272.882 278.617 269.741C278.652 266.599 277.997 263.395 279.015 260.626L279.884 260.774C280.084 261.328 280.221 261.888 280.289 262.443C280.251 265.21 280.193 267.974 280.115 270.734C279.816 275.478 280.105 280.354 280.975 285.274C281.619 288.599 282.559 291.865 283.365 295.176L283.819 296.553C284.134 296.055 284.277 295.456 284.232 294.817C284.076 289.755 283.891 284.689 283.751 279.642C283.612 274.597 283.634 270.304 283.508 265.671C283.358 263.85 283.066 262.012 282.636 260.174C282.556 259.745 282.331 259.323 281.996 258.971C281.66 258.617 281.232 258.352 280.775 258.216C280.276 258.01 279.758 257.899 279.255 257.891C278.753 257.883 278.279 257.977 277.863 258.167C277.447 258.356 277.101 258.639 276.847 258.993C276.592 259.348 276.437 259.767 276.39 260.223C276.284 260.643 276.23 261.083 276.229 261.536C276.399 264.945 276.584 268.37 276.843 271.793C277.103 275.217 277.325 278.84 277.803 282.519ZM278.694 300.747C278.792 301.051 278.873 301.358 278.936 301.664L281.398 307.404L281.841 307.315L280.985 304.693C280.079 301.939 279.144 299.209 278.225 296.493C277.306 293.779 276.617 291.281 275.805 288.653C275.136 286.679 274.2 284.714 273.562 282.744C272.031 278.01 270.441 273.266 269.208 268.501C268.196 264.436 267.416 260.371 266.869 256.322C266.733 254.307 266.75 252.316 266.919 250.365C267.396 250.63 267.796 251.024 268.051 251.481C268.307 251.937 268.403 252.429 268.323 252.874C268.406 255.203 268.642 257.555 269.028 259.918C270.206 265.208 271.595 270.561 272.994 275.793C273.175 276.153 273.409 276.498 273.687 276.813C272.935 273.375 272.338 270.099 271.834 266.92C271.105 262.473 270.494 258.018 269.855 253.585C269.102 248.505 268.393 243.39 267.611 238.331C267.412 237.6 267.12 236.875 266.742 236.172L266.054 236.11C265.322 238.481 264.749 240.919 264.338 243.413C264.211 246.073 264.255 248.772 264.47 251.496C264.646 256.116 265.383 260.818 266.668 265.511C268.194 271.353 270.18 277.149 271.99 282.998C273.451 288.966 275.676 294.9 278.616 300.665L278.694 300.747ZM237.336 237.753C237.211 237.623 237.057 237.459 236.616 237.234L236.346 239.227L234.92 239.396C235.097 239.914 235.316 240.427 235.573 240.93C237.286 243.738 239.015 246.563 240.773 249.365C242.309 251.829 243.83 254.276 245.41 256.706C247.292 259.638 249.337 262.531 251.203 265.447C252.47 267.817 254.108 270.06 256.053 272.085C256.618 272.722 257.039 273.446 257.278 274.195C257.467 275.01 257.712 275.824 258.009 276.631C259.067 278.644 260.454 280.686 261.513 282.754C263.296 286.244 266.724 289.056 267.816 292.799C267.919 293.025 268.064 293.24 268.242 293.433C270.994 297.334 273.703 301.269 276.484 305.148C280.064 310.097 283.679 315.029 287.329 319.946C290.028 323.711 293.045 327.31 296.341 330.696C296.684 330.979 296.951 331.333 297.109 331.716C297.438 333.784 299.317 335.019 300.671 336.548C302.562 338.539 305.331 340.021 305.942 342.861C306.019 342.943 306.174 343.106 306.283 343.22C307.509 344.569 308.643 345.983 309.673 347.448C312.46 351.638 315.708 355.606 319.351 359.27C319.808 359.672 320.308 360.028 320.836 360.33C320.952 360.24 321.083 360.138 321.199 360.048C321.003 359.641 320.769 359.244 320.499 358.862C318.087 355.69 315.587 352.584 313.233 349.393C311.256 346.677 309.495 343.792 307.534 341.147C302.846 334.865 298.129 328.605 293.293 322.379C292.597 321.517 291.952 320.627 291.361 319.712C289.911 317.411 288.586 315.061 287.391 312.676C286.016 310.017 285.166 307.242 284.885 304.506C284.8 303.325 284.616 302.132 284.337 300.937C284.192 300.256 283.784 299.694 282.944 299.948C282.828 300.038 282.775 300.221 282.794 300.347C283.504 305.564 285.033 310.822 287.332 315.95C287.577 316.67 287.743 317.394 287.829 318.114C286.053 317.676 285.478 317.441 285.113 316.449C284.337 314.731 283.365 313.061 282.217 311.47C280.359 308.35 278.736 305.16 276.611 302.104C272.409 296.068 268.484 289.875 264.442 283.743C264.293 283.532 264.16 283.312 264.046 283.087C261.969 278.788 259.499 274.594 256.668 270.561C255.926 269.409 255.286 268.233 254.588 267.075L248.466 257.087C247.958 256.235 247.39 255.372 246.88 254.492L237.336 237.753ZM227.674 227.59L232.815 234.003L233.148 233.745C231.459 231.597 231.774 228.38 227.669 227.452L227.674 227.59ZM187.993 176.183C185.945 174.399 183.825 172.725 181.689 170.981C179.63 172.575 181.586 175.11 180.861 176.861C181.741 178.727 182.887 180.521 184.261 182.187C185.623 183.5 186.922 184.866 188.154 186.281C189.524 187.753 190.96 189.175 192.455 190.541C194.293 192.289 196.161 194.015 198.043 195.731C198.834 196.563 199.913 197.115 200.689 197.958C204.821 202.463 208.865 207.035 213.025 211.517C214.963 213.556 217.047 215.483 219.057 217.439C219.191 217.024 219.093 216.788 218.937 216.598C216.382 213.619 213.754 210.67 211.273 207.662C207.437 203.071 203.747 198.395 199.795 193.893C196.208 189.737 192.402 185.733 188.396 181.902C187.465 180.877 186.598 179.806 185.804 178.699C187.005 178.109 187.484 178.983 188.087 179.565C190.258 181.849 192.603 183.998 194.774 186.282C198.078 189.757 201.397 193.248 204.555 196.835C209.019 201.875 212.457 207.398 217.587 211.894C216.534 210.416 215.407 208.993 214.281 207.571C209.858 201.99 205.405 196.432 201.04 190.834C197.278 185.565 192.914 180.62 188.051 176.11L187.993 176.183ZM222.999 215.152C223.818 218.613 225.8 221.973 228.643 224.717C227.148 221.39 225.273 218.157 223.056 215.08L222.999 215.152ZM219.409 192.841C219.162 195.134 219.315 197.528 219.862 199.938C220.122 201.747 220.099 203.549 220.492 205.34C220.595 206.182 220.884 207.034 221.343 207.84C221.801 208.645 222.418 209.388 223.154 210.019L219.409 192.841ZM217.779 200.05C218.005 200.923 218.38 201.793 218.68 202.665L219.022 202.627C218.63 200.098 218.182 197.613 217.864 195.029C217.833 191.179 217.551 187.283 217.019 183.364C216.852 182.514 216.826 181.674 216.943 180.874C216.961 180.549 217.371 180.345 217.616 180.099L218.069 180.285L218.894 190.974C219.043 190.923 219.167 190.833 219.257 190.715C219.346 190.596 219.397 190.452 219.405 190.295C219.357 185.552 219.695 180.889 220.415 176.345C220.633 173.994 220.685 171.598 220.571 169.174C220.561 168.895 220.485 168.607 220.349 168.331C220.212 168.056 220.019 167.798 219.782 167.576C218.971 167.015 218.499 167.55 218.055 168.063C215.881 170.393 214.846 173.561 215.132 177.009C215.276 178.908 215.195 180.783 215.203 182.617C215.184 185.237 215.316 187.885 215.598 190.553C216.131 193.736 217.023 196.897 217.779 200.05ZM196.298 167.206C196.56 168.452 196.904 169.699 197.329 170.938C197.849 172.072 198.452 173.185 199.136 174.269C196.315 172.148 195.586 169.37 194.625 166.717C192.475 166.626 192.032 167.166 192.773 169.057C194.779 173.833 197.374 178.483 200.496 182.901C204.105 188.207 207.771 193.468 211.381 198.772C212.641 200.628 213.801 202.563 215.111 204.55C214.965 203.565 214.636 202.574 214.139 201.621C212.904 199.264 211.64 196.901 210.332 194.572C208.242 190.838 206.136 187.087 203.987 183.37C202.682 181.123 201.229 178.907 199.894 176.655C199.688 176.305 199.776 175.868 199.696 175.308C202.009 176.973 207.827 186.005 210.629 192.105L213.054 196.402C212.74 194.775 212.456 193.126 210.629 192.105C210.718 191.668 210.97 191.218 210.792 190.846C209.412 187.752 208.061 184.663 206.444 181.638C204.299 177.635 202.01 173.744 199.72 169.852C199.43 169.194 198.948 168.589 198.339 168.117C197.729 167.646 197.018 167.328 196.298 167.206ZM176.143 138.432C176.059 138.483 175.981 138.543 175.911 138.612L184.851 149.788C184.923 149.732 185.01 149.665 185.082 149.609L176.143 138.432ZM173.325 131.919C168 126.158 162.282 120.646 157.785 114.3C154.262 109.324 150.301 104.575 146.471 99.7515C143.396 95.9871 140.16 92.3184 136.968 88.616C136.378 87.8675 135.649 87.2113 134.829 86.6901C134.008 86.169 133.114 85.7947 132.205 85.5915C130.327 85.2045 129.628 85.6607 130.391 87.3637C131.273 89.6569 132.447 91.8977 133.886 94.0319C137.43 98.7928 141.268 103.439 145.045 108.048C146.309 109.497 147.671 110.876 149.118 112.173C153.662 116.557 158.309 120.889 162.795 125.317C165.796 128.261 168.565 131.386 171.552 134.37C170.715 132.914 169.719 131.519 168.581 130.212C166.728 128.05 164.815 125.906 162.947 123.755C162.28 123.054 161.773 122.229 161.107 121.555C157.593 118.017 153.962 114.541 150.549 110.925C147.447 107.662 144.563 104.231 141.6 100.69C138.52 97.4369 136.092 93.7456 134.479 89.8632C136.306 89.6668 136.697 90.9783 137.251 91.8522C138.526 94.0468 139.929 96.1947 141.452 98.2845C145.045 102.753 148.755 107.131 152.596 111.464C154.821 113.989 157.336 116.29 159.766 118.741C161.022 120.063 162.468 121.266 163.681 122.621C168.223 127.77 172.447 133.166 177.455 138.011C179.02 139.721 180.447 141.524 181.723 143.401L186.34 149.343C186.526 149.539 186.888 149.655 187.618 150.052C186.444 148.129 185.643 146.597 184.622 145.179C181.163 140.568 177.387 136.136 173.325 131.919ZM197.001 148.537L198.538 143.667C199.102 141.984 199.591 140.247 200.322 138.633C202.064 134.01 205.054 130.075 209.057 127.142C209.961 126.445 210.677 125.564 211.168 124.545C212.318 122.551 214.547 121.93 216.691 120.61C216.735 121.131 216.632 121.623 216.395 122.041C216.156 122.459 215.79 122.786 215.332 122.993C213.655 123.991 212.286 125.34 211.302 126.962C210.748 127.773 210.074 128.495 209.293 129.112C207.142 130.765 205.383 132.806 204.087 135.153C203.574 136.229 202.772 137.133 202.153 138.15C201.802 138.733 201.558 139.403 201.211 140.125C201.567 140.075 201.762 140.095 201.849 140.028C205.442 136.737 209.079 133.468 212.565 130.118C214.091 128.507 215.851 127.107 217.811 125.945C218.762 125.303 219.637 124.577 220.43 123.776C223.002 121.222 224.702 117.961 225.376 114.284C225.489 113.525 225.51 112.74 225.44 111.941C224.169 111.418 222.844 111.176 221.586 111.241C220.328 111.305 219.177 111.671 218.236 112.307C217.054 113.115 215.984 114.047 215.043 115.09C210.212 120.125 205.749 125.47 201.671 131.103C198.02 135.891 196.385 141.995 197.001 148.537ZM192.114 142.919L192.879 143.063C192.825 142.37 192.755 141.687 192.729 140.999C192.623 138.504 192.517 136.009 192.455 133.508C192.408 132.241 192.556 130.966 192.481 129.722C192.399 127.916 192.048 126.064 192.148 124.315C192.306 121.674 191.602 118.763 192.919 116.442C192.209 114.159 193.367 112.385 193.515 110.316C193.653 108.794 193.656 107.234 193.658 105.675C193.661 104.115 193.541 102.48 193.634 100.936C193.581 100.247 193.695 99.5888 193.967 99.0098C194.241 98.4314 194.665 97.9464 195.212 97.5916C195.286 98.4113 195.364 98.9171 195.352 99.3805C195.24 100.629 195.201 101.897 195.237 103.179C195.686 108.126 194.569 112.644 194.28 117.37C194.066 120.764 193.872 124.161 193.699 127.562C193.74 127.915 193.833 128.271 193.976 128.621C195.427 122.628 196.684 116.642 197.549 110.536C198.226 105.82 198.495 100.94 198.768 96.1692C198.894 94.1054 198.258 91.9097 196.959 89.9238C193.485 91.1683 190.62 92.7348 190.602 96.714C190.595 99.7776 190.56 102.892 190.882 106.011C191.291 109.905 191.247 113.738 190.749 117.442C190.385 119.425 190.195 121.465 190.182 123.545C190.409 128.522 190.831 133.548 191.268 138.561C191.458 140.058 191.838 141.49 192.114 142.919ZM174.711 113.121C174.938 113.49 175.211 113.84 175.523 114.161C175.302 112.775 174.932 111.383 174.417 110.006C172.878 105.422 170.848 100.899 168.362 96.513C166.356 92.7449 164.735 88.8753 163.525 84.965C163.099 83.5106 162.54 82.0748 161.967 80.6777C160.767 77.6417 159.404 74.6191 158.338 71.5648C157.121 68.0606 156.067 64.5157 155.118 61.0024C154.842 59.9703 154.098 58.7905 154.83 57.6009C155.204 58.0637 155.527 58.5549 155.793 59.0642C156.702 61.5036 157.537 63.9441 158.402 66.3896C159.4 69.2134 160.368 72.0323 161.426 74.8663C162.35 77.2944 163.481 79.6756 164.376 82.1262C165.271 84.5769 165.919 86.3972 166.668 88.536C167.822 91.7254 169.286 94.8698 171.038 97.9251C172.52 100.544 173.914 103.174 175.385 105.887C175.369 104.343 175.216 102.775 174.93 101.199C174.281 98.5298 173.363 95.8699 172.505 93.1928C170.72 87.6082 168.891 82.03 167.091 76.4565C166.434 74.3883 165.807 72.3252 165.09 70.2743C163.272 64.9988 161.408 59.7019 159.575 54.4376L156.762 46.4208C155.392 46.391 154.125 46.7274 153.105 47.3915C152.086 48.0555 151.354 49.0208 150.994 50.1771C150.616 53.6307 150.997 57.2697 152.117 60.8902C152.876 64.0976 154.246 67.313 155.258 70.5224C156.571 74.6607 158.268 78.7592 160.329 82.7671C160.599 83.3688 160.826 83.9789 161.007 84.5925C162.18 87.7336 163.295 90.8921 164.527 94.0154C165.124 95.2845 165.791 96.5352 166.528 97.762L174.711 113.121ZM181.102 131.309C180.655 130.268 180.331 129.207 180.136 128.148C180.103 126.843 178.818 126.338 178.245 125.365C178.121 125.235 178.203 125.029 178.123 124.892C177.422 123.667 176.656 122.464 175.83 121.288C174.482 119.499 172.909 117.686 171.443 115.905C170.022 114.173 168.637 112.583 167.337 110.871C164.343 106.874 161.392 102.843 158.427 98.8511C157.549 97.662 156.597 96.5293 155.746 95.2628C153.406 91.6366 151.272 87.9086 148.755 84.3345C146.693 81.4069 144.772 78.4139 142.999 75.3671C141.247 72.4702 139.859 69.4527 138.868 66.388C140.339 66.6374 140.64 67.5369 141.106 68.4505C142.857 72.1159 144.806 75.7309 146.945 79.2793C149.11 82.6158 151.511 85.8828 153.633 89.2806C156.722 94.2242 160.237 99.0074 163.721 103.758C166.607 107.641 169.727 111.4 172.758 115.198C173.073 115.497 173.424 115.759 173.801 115.977C173.917 115.887 174.047 115.786 174.164 115.696C173.113 114.259 172.133 112.786 171.229 111.285C168.976 107.41 166.342 103.68 163.366 100.154C160.463 96.668 157.835 93.0178 155.511 89.2432C153.378 85.5701 151.543 81.8653 149.529 78.1851C146.882 73.4942 144.074 68.8718 141.456 64.1585C140.855 63.0204 139.989 61.9794 138.933 61.1273C137.877 60.2753 136.665 59.6384 135.402 59.2731C135.207 59.9701 135.134 60.7141 135.185 61.4802C135.659 63.3322 136.24 65.1802 136.923 67.0159C138.819 72.0537 141.477 76.9562 144.807 81.5575C149.564 88.4946 154.539 95.2907 159.603 102.047C163.005 106.579 166.714 110.957 170.334 115.375C170.536 115.587 171.015 115.641 171.364 115.796C171.755 116.813 172.236 117.815 172.8 118.79C175.414 122.572 178.541 126.126 180.245 130.301C180.361 130.609 180.667 130.825 181.055 131.26L181.102 131.309ZM183.247 133.274L182.589 133.217L182.897 135.13L183.509 135.165L183.247 133.274ZM177.114 49.2433C175.838 50.2311 176.192 51.7414 176.283 53.0021C176.601 55.9843 177.089 59.1459 177.438 62.1607C178.003 67.812 178.283 73.4287 178.982 79.0891C179.681 84.7496 179.835 89.7564 179.952 95.0168C179.898 96.4976 179.948 98.0007 180.103 99.5172C180.718 102.82 180.787 106.082 180.307 109.185C179.788 111.352 179.691 113.666 180.021 116.033C181.028 121.143 181.512 126.206 182.235 131.309C182.468 131.322 182.703 131.348 182.939 131.388C182.754 129.181 182.434 126.964 182.415 124.8C182.393 120.143 183.531 115.78 183.253 111.039C183.065 108.353 183.165 105.784 182.963 103.135C182.685 99.1889 182.212 95.2222 181.858 91.249C181.503 87.2752 181.26 83.4982 180.896 79.6461L179.534 62.8036C179.409 61.4277 179.346 60.1171 179.219 58.6862C179.181 58.0365 179.37 57.4938 180.769 57.8269C182.133 69.8532 183.197 81.829 183.962 93.7539C184.619 90.6602 184.761 87.3938 184.382 84.0551C183.968 77.6358 183.514 71.3329 183.07 64.9083C182.88 61.4172 182.127 57.8585 180.835 54.3489C180.142 52.4299 178.837 50.6394 177.114 49.2433ZM316.13 341.743C316.196 341.521 316.337 341.299 316.285 341.112C313.186 331.656 310.066 322.196 306.927 312.732C306.828 312.431 306.676 312.136 306.477 311.863C306.477 311.863 306.174 311.729 305.674 311.521C305.68 312.246 305.756 312.982 305.904 313.722C306.782 316.818 307.752 319.957 308.813 323.137C310.728 329.018 312.718 334.897 314.663 340.783C314.945 341.556 315.33 341.88 316.13 341.743ZM289.424 345.423C289.121 345.29 288.661 345.732 287.825 346.124C294.231 349.66 300.441 351.055 306.394 353.583C306.955 353.829 307.622 353.737 308.61 353.85C308.052 353.262 308.029 353.026 307.892 352.961C301.703 350.389 295.528 347.864 289.363 345.386L289.424 345.423ZM257.383 291.303C255.314 290.153 253.204 289.091 251.063 288.124C248.959 287.081 246.82 286.137 244.653 285.299C238.728 283.117 233.093 279.918 227.05 278.167C225.257 277.658 223.499 276.867 221.705 276.358C218.239 275.359 214.835 274.427 211.415 273.477C210.016 273.116 208.618 272.811 207.203 272.461L207.084 272.893C207.387 273.254 207.753 273.567 208.163 273.814C210.671 274.909 213.242 275.768 215.831 276.373C221.433 277.565 227.007 279.341 232.442 281.668C239.062 284.104 245.525 287.143 252.041 289.973C253.533 290.649 254.995 291.409 256.418 292.248C259.997 294.291 263.563 296.374 267.127 298.429L267.548 298.104C267.067 297.479 266.516 296.897 265.904 296.375C263.04 294.712 260.216 292.933 257.322 291.265L257.383 291.303ZM238.31 199.591C236.712 194.939 235.831 190.237 235.697 185.642C235.65 184.336 235.477 183.011 235.179 181.682L234.529 181.421C234.244 181.811 233.6 182.139 233.706 182.595C234.266 186.863 234.855 191.137 235.53 195.342C235.85 197.162 236.619 199.003 237.087 200.82C237.765 203.44 238.338 206.054 238.925 208.658C238.963 209.066 239.096 209.481 239.313 209.875C239.532 210.268 239.829 210.631 240.187 210.938L240.509 208.339C240.136 207.382 239.818 206.419 239.554 205.453C239.156 203.552 238.874 201.561 238.31 199.591ZM300.203 363.303C300.203 363.303 300.122 363.535 300.016 363.873C302.926 365.683 306.034 367.102 309.221 368.075C306.84 365.782 303.682 365.056 301.082 363.273C300.868 363.128 300.469 363.238 300.203 363.303Z" fill="#101A24"/>
</g>
<defs>
<filter id="filter0_d_12_6" x="39.7402" y="44.1096" width="332.078" height="379.783" filterUnits="userSpaceOnUse" color-interpolation-filters="sRGB">
<feFlood flood-opacity="0" result="BackgroundImageFix"/>
<feColorMatrix in="SourceAlpha" type="matrix" values="0 0 0 0 0 0 0 0 0 0 0 0 0 0 0 0 0 0 127 0" result="hardAlpha"/>
<feOffset dy="4"/>
<feGaussianBlur stdDeviation="2"/>
<feComposite in2="hardAlpha" operator="out"/>
<feColorMatrix type="matrix" values="0 0 0 0 0 0 0 0 0 0 0 0 0 0 0 0 0 0 0.25 0"/>
<feBlend mode="normal" in2="BackgroundImageFix" result="effect1_dropShadow_12_6"/>
<feBlend mode="normal" in="SourceGraphic" in2="effect1_dropShadow_12_6" result="shape"/>
</filter>
</defs>
</svg>
